<?xml version="1.0" encoding="UTF-8" ?>
<!DOCTYPE svg PUBLIC "-//W3C//DTD SVG 1.1//EN" "http://www.w3.org/Graphics/SVG/1.1/DTD/svg11.dtd">
<svg width="1141pt" height="629pt" viewBox="0 0 1141 629" version="1.1" xmlns="http://www.w3.org/2000/svg">
<path fill="#ee7f7f" stroke="#ee7f7f" stroke-width="0.09375" opacity="1.00" d=" M 186.2 140.7 C 186.4 138.3 188.8 136.5 190.0 134.5 C 194.6 137.6 199.1 141.0 203.8 144.1 C 208.2 140.8 212.7 137.7 217.3 134.5 C 218.7 136.4 220.2 138.3 221.6 140.2 C 218.1 143.0 214.4 145.4 210.9 148.0 C 242.4 172.0 275.0 194.7 307.3 217.7 C 339.2 240.2 371.0 262.9 402.9 285.4 C 401.6 287.4 400.2 289.4 398.8 291.4 C 393.4 288.0 388.5 284.0 383.1 280.5 C 360.0 348.4 337.0 416.3 314.0 484.3 C 316.8 484.3 319.7 484.3 322.5 484.4 C 322.5 487.8 322.5 491.2 322.5 494.6 C 242.2 494.1 162.0 493.3 81.8 492.8 C 81.7 489.3 81.7 485.9 82.0 482.5 C 85.0 482.5 88.0 482.5 91.1 482.5 C 70.0 414.4 48.7 346.3 27.7 278.2 C 21.4 282.5 15.2 287.1 8.9 291.5 C 7.5 289.7 6.1 288.0 5.0 286.0 C 5.0 284.7 6.7 284.3 7.4 283.5 C 70.7 238.6 134.0 193.6 197.2 148.7 C 193.7 145.8 189.8 143.5 186.2 140.7 M 189.3 163.3 C 152.7 189.4 116.0 215.4 79.4 241.4 C 62.8 253.4 45.9 264.8 29.6 277.0 C 31.1 283.4 33.4 289.6 35.2 295.9 C 54.6 357.8 73.6 420.0 93.1 481.9 C 105.7 482.7 118.4 482.2 131.0 482.5 C 156.0 483.5 181.0 482.6 206.0 483.5 C 241.2 483.6 276.5 484.3 311.8 484.0 C 329.8 431.5 347.5 378.9 365.4 326.4 C 370.5 310.6 376.5 295.1 381.1 279.2 C 377.7 276.5 374.1 274.0 370.5 271.5 C 314.9 232.1 259.4 192.6 203.8 153.3 C 198.7 156.2 194.2 160.0 189.3 163.3 M 83.9 484.8 C 83.9 486.8 83.9 488.8 83.9 490.8 C 116.6 490.9 149.3 491.4 182.0 491.4 C 204.0 491.4 226.0 492.1 248.0 492.0 C 272.1 492.1 296.2 492.7 320.3 492.3 C 320.3 490.4 320.3 488.6 320.3 486.7 C 302.9 485.6 285.4 486.2 268.0 485.9 C 254.3 486.1 240.7 485.3 227.0 485.5 C 197.7 485.5 168.3 485.0 139.0 484.9 C 120.6 485.0 102.2 484.3 83.9 484.8 Z" />
<path fill="#ffe5cf" stroke="#ffe5cf" stroke-width="0.09375" opacity="1.00" d=" M 189.3 163.3 C 194.2 160.0 198.7 156.2 203.8 153.3 C 259.4 192.6 314.9 232.1 370.5 271.5 C 374.1 274.0 377.7 276.5 381.1 279.2 C 376.5 295.1 370.5 310.6 365.4 326.4 C 347.5 378.9 329.8 431.5 311.8 484.0 C 276.5 484.3 241.2 483.6 206.0 483.5 C 181.0 482.6 156.0 483.5 131.0 482.5 C 118.4 482.2 105.7 482.7 93.1 481.9 C 73.6 420.0 54.6 357.8 35.2 295.9 C 33.4 289.6 31.1 283.4 29.6 277.0 C 45.9 264.8 62.8 253.4 79.4 241.4 C 116.0 215.4 152.7 189.4 189.3 163.3 M 197.4 269.4 C 168.4 271.8 140.4 288.3 125.8 313.7 C 114.9 332.0 112.0 354.7 117.8 375.2 C 120.2 382.1 116.5 389.4 118.6 396.4 C 121.4 407.2 127.4 417.8 136.7 424.3 C 140.0 426.9 144.8 424.0 147.8 427.2 C 157.2 435.3 168.3 441.2 180.2 444.8 C 209.7 453.9 243.8 447.6 267.5 427.4 C 270.5 424.1 275.6 426.8 278.9 423.9 C 287.8 417.3 293.8 407.1 296.5 396.5 C 298.3 390.0 295.6 383.5 297.0 377.0 C 297.7 372.7 298.0 368.4 298.0 364.0 C 298.1 352.0 297.6 339.8 293.5 328.4 C 287.3 310.1 274.4 294.3 258.0 284.0 C 240.2 272.5 218.5 267.5 197.4 269.4 Z" />
<path fill="#ee7f7f" stroke="#ee7f7f" stroke-width="0.09375" opacity="1.00" d=" M 493.4 178.4 C 506.5 178.0 520.9 178.2 532.2 185.8 C 543.7 193.2 550.1 206.4 552.2 219.6 C 554.9 235.9 552.8 253.7 543.8 267.8 C 535.5 280.7 520.1 287.9 505.0 288.2 C 491.1 288.0 477.2 286.9 463.4 287.4 C 458.0 287.4 452.6 288.8 447.4 287.4 C 442.7 286.3 439.7 281.0 441.5 276.4 C 442.9 271.8 450.1 273.2 451.2 268.3 C 452.4 263.6 452.4 258.7 452.7 253.8 C 453.2 241.2 453.6 228.6 453.5 216.0 C 453.5 210.1 454.2 204.0 452.9 198.1 C 451.9 195.5 448.9 194.6 446.8 193.2 C 443.3 191.5 442.6 186.7 444.3 183.4 C 447.0 179.3 452.5 178.8 457.0 178.7 C 469.1 179.2 481.3 179.1 493.4 178.4 M 490.3 196.3 C 487.8 196.9 487.2 199.7 487.2 202.0 C 487.2 222.3 487.3 242.7 487.2 263.1 C 487.2 265.4 487.5 268.0 489.2 269.9 C 491.4 272.1 494.9 271.9 497.9 271.7 C 503.9 271.2 509.2 267.1 511.7 261.7 C 516.5 251.9 516.1 240.6 515.9 229.9 C 515.4 221.2 514.2 212.1 509.6 204.4 C 505.8 198.0 497.5 194.6 490.3 196.3 Z" />
<path fill="#ee7f7f" stroke="#ee7f7f" stroke-width="0.09375" opacity="1.00" d=" M 594.4 209.6 C 603.8 208.2 614.0 208.7 622.4 213.6 C 640.3 223.5 648.0 248.7 637.8 266.7 C 628.0 283.4 607.3 292.4 588.3 288.7 C 578.3 287.0 569.1 280.8 564.0 272.0 C 558.7 263.1 558.0 252.1 559.8 242.1 C 563.0 225.3 578.0 212.5 594.4 209.6 M 596.4 227.4 C 592.3 228.4 590.8 233.2 591.0 237.0 C 591.4 244.7 593.1 252.3 595.2 259.7 C 596.1 262.6 596.9 265.7 599.0 268.0 C 601.1 270.3 605.2 270.8 607.5 268.5 C 609.7 266.3 609.8 262.9 609.8 260.0 C 609.5 252.8 608.2 245.7 606.4 238.7 C 605.0 234.0 602.8 226.3 596.4 227.4 Z" />
<path fill="#ee7f7f" stroke="#ee7f7f" stroke-width="0.09375" opacity="1.00" d=" M 757.5 217.5 C 768.3 210.5 781.7 207.3 794.4 209.7 C 802.5 211.4 810.6 216.3 813.9 224.2 C 817.3 234.1 814.8 244.7 815.7 255.0 C 816.0 258.9 815.8 263.3 818.2 266.6 C 819.9 267.5 821.8 267.9 823.6 268.5 C 825.0 273.9 821.8 279.3 818.0 282.9 C 812.5 288.2 804.0 291.2 796.6 288.3 C 793.0 287.0 791.0 283.6 788.1 281.4 C 784.4 283.4 781.2 286.5 777.1 287.9 C 770.6 290.2 763.1 290.0 756.7 287.3 C 747.7 283.4 743.0 272.5 745.1 263.1 C 746.4 256.8 751.0 251.6 756.4 248.4 C 763.5 244.1 771.9 243.0 780.1 243.0 C 781.8 243.0 784.3 242.8 784.6 240.6 C 785.0 235.7 785.0 230.5 783.1 225.8 C 781.9 222.5 777.4 221.4 774.8 223.7 C 771.2 226.9 769.3 231.6 765.8 234.8 C 762.9 237.9 758.4 240.0 754.2 238.6 C 751.0 237.7 748.8 234.4 749.0 231.0 C 748.8 225.3 753.0 220.6 757.5 217.5 M 778.5 255.4 C 773.5 258.3 772.4 265.7 775.7 270.2 C 777.1 272.3 780.3 272.9 782.4 271.4 C 784.6 269.7 785.0 266.7 785.2 264.1 C 785.3 261.3 785.6 258.2 784.3 255.7 C 782.8 254.0 780.2 254.3 778.5 255.4 Z" />
<path fill="#ee7f7f" stroke="#ee7f7f" stroke-width="0.09375" opacity="1.00" d=" M 850.4 209.7 C 856.7 208.1 863.2 209.6 869.4 210.8 C 873.7 211.9 878.0 207.0 882.1 209.9 C 887.6 214.6 891.0 221.8 891.8 229.0 C 892.4 234.0 887.1 238.1 882.4 236.5 C 876.4 234.3 873.6 227.6 867.8 225.0 C 864.0 223.4 860.1 228.3 861.9 231.8 C 863.3 234.4 866.1 235.9 868.7 237.3 C 875.7 240.8 882.6 245.1 887.7 251.3 C 892.1 256.7 892.9 264.1 891.5 270.6 C 889.1 280.1 880.5 287.3 871.0 288.9 C 861.3 290.9 851.7 286.5 841.9 288.0 C 837.2 288.6 834.3 284.1 832.5 280.4 C 829.9 274.8 827.3 268.4 829.1 262.2 C 829.8 258.7 834.6 258.0 837.0 260.0 C 841.6 263.7 844.6 269.1 849.3 272.7 C 852.0 274.9 857.1 274.6 858.4 270.9 C 859.4 267.5 856.4 264.7 853.7 263.3 C 846.8 259.5 839.9 255.2 835.4 248.6 C 831.3 242.7 830.6 235.0 832.1 228.1 C 834.1 219.2 841.4 211.6 850.4 209.7 Z" />
<path fill="#ee7f7f" stroke="#ee7f7f" stroke-width="0.09375" opacity="1.00" d=" M 675.4 210.4 C 678.4 209.7 682.4 208.4 684.6 211.3 C 687.5 214.2 684.3 219.3 687.3 221.9 C 690.1 223.1 691.5 219.6 692.9 218.0 C 696.8 212.1 704.0 209.0 711.0 209.5 C 721.3 209.3 731.5 216.8 733.0 227.2 C 735.1 240.6 734.2 254.3 735.4 267.8 C 735.9 271.7 739.5 273.9 741.2 277.2 C 742.6 280.9 740.3 285.3 736.6 286.6 C 730.7 288.7 724.2 288.7 718.0 288.8 C 712.4 288.7 706.4 289.2 701.1 286.8 C 698.1 285.4 696.5 281.7 697.6 278.5 C 699.1 275.8 701.8 273.7 702.3 270.4 C 703.4 264.0 703.5 257.5 703.5 251.0 C 703.2 246.0 703.1 240.8 700.9 236.2 C 698.3 230.8 688.8 231.5 687.4 237.4 C 685.5 244.1 686.5 251.1 686.2 258.0 C 686.5 262.9 685.3 268.3 688.1 272.7 C 689.6 275.5 691.9 278.4 690.8 281.8 C 689.3 286.2 684.1 287.3 680.1 288.1 C 671.8 289.2 663.3 289.6 655.1 287.8 C 651.2 287.0 646.8 284.5 646.8 280.0 C 646.3 275.1 653.1 273.9 653.0 269.0 C 654.0 258.7 654.2 248.3 653.9 238.0 C 653.9 233.9 649.6 232.4 647.3 229.8 C 645.6 228.1 645.7 225.5 646.5 223.5 C 647.7 220.7 650.7 219.5 653.2 218.2 C 660.4 215.0 667.8 212.4 675.4 210.4 Z" />
<path fill="#ee7f7f" stroke="#ee7f7f" stroke-width="0.09375" opacity="1.00" d=" M 197.4 269.4 C 218.5 267.5 240.2 272.5 258.0 284.0 C 274.4 294.3 287.3 310.1 293.5 328.4 C 297.6 339.8 298.1 352.0 298.0 364.0 C 298.0 368.4 297.7 372.7 297.0 377.0 C 295.6 383.5 298.3 390.0 296.5 396.5 C 293.8 407.1 287.8 417.3 278.9 423.9 C 275.6 426.8 270.5 424.1 267.5 427.4 C 243.8 447.6 209.7 453.9 180.2 444.8 C 168.3 441.2 157.2 435.3 147.8 427.2 C 144.8 424.0 140.0 426.9 136.7 424.3 C 127.4 417.8 121.4 407.2 118.6 396.4 C 116.5 389.4 120.2 382.1 117.8 375.2 C 112.0 354.7 114.9 332.0 125.8 313.7 C 140.4 288.3 168.4 271.8 197.4 269.4 M 204.1 284.4 C 204.9 282.9 205.8 281.4 206.7 279.9 C 185.1 280.1 163.6 288.1 147.5 302.5 C 126.6 320.7 115.3 350.2 121.2 377.6 C 122.0 381.1 120.4 384.5 120.2 388.0 C 119.5 397.9 124.3 407.2 130.1 415.0 C 133.3 419.1 137.3 423.3 142.8 424.0 C 144.5 420.9 144.6 417.2 145.1 413.8 C 149.7 420.5 153.4 428.2 160.6 432.5 C 162.3 433.5 165.2 434.6 166.2 432.2 C 168.0 426.1 165.1 419.9 164.2 413.9 C 170.2 421.3 174.5 432.0 184.7 434.0 C 186.0 431.9 186.7 429.5 186.3 427.0 C 185.2 416.5 179.1 407.3 172.3 399.5 C 173.8 398.6 175.9 398.3 176.9 396.7 C 177.3 393.2 175.8 389.9 174.1 387.0 C 169.4 378.9 162.3 372.3 154.1 367.9 C 150.8 366.1 146.8 366.3 143.8 364.1 C 145.3 363.7 146.8 363.1 148.4 363.6 C 154.7 364.8 159.9 368.9 165.0 372.4 C 169.0 368.2 172.7 363.7 177.6 360.5 C 182.7 356.7 188.7 354.5 194.8 352.6 C 198.0 356.6 202.7 359.7 208.0 359.2 C 213.3 359.5 217.8 356.4 221.1 352.6 C 226.5 354.3 231.8 356.3 236.6 359.5 C 242.0 362.7 246.1 367.5 250.3 372.1 C 256.1 368.4 261.9 363.7 269.1 363.3 C 271.1 363.3 274.0 362.5 275.1 364.9 C 270.6 365.5 265.8 365.3 261.6 367.5 C 252.8 371.9 245.4 379.1 240.5 387.6 C 238.7 390.6 237.8 394.1 238.1 397.6 C 239.6 398.2 241.2 398.8 242.7 399.4 C 235.9 407.2 229.8 416.4 228.7 427.0 C 228.3 429.5 229.0 431.9 230.3 434.0 C 240.2 432.6 244.3 422.3 250.2 415.6 C 249.7 420.9 247.5 426.2 248.5 431.6 C 249.0 434.2 252.1 434.1 253.9 433.0 C 261.5 428.9 265.5 420.9 269.9 413.9 C 270.3 416.8 270.4 419.8 271.4 422.5 C 272.2 424.5 274.6 423.7 276.1 423.1 C 281.4 420.4 285.2 415.3 288.4 410.3 C 293.4 402.2 296.8 392.3 294.1 382.8 C 293.1 379.9 294.4 377.0 295.1 374.2 C 298.1 353.3 292.2 331.4 279.3 314.7 C 266.9 298.0 248.2 286.7 228.1 282.0 C 229.0 283.4 230.0 284.8 230.9 286.2 C 228.4 291.4 222.2 292.7 217.0 293.8 C 216.7 292.9 216.3 292.1 216.0 291.3 C 220.4 290.4 225.4 289.9 228.5 286.2 C 227.0 285.4 225.5 284.6 224.0 283.8 C 225.0 282.2 226.0 280.5 226.9 278.9 C 224.0 278.8 221.1 279.0 218.3 279.5 C 218.0 278.3 217.8 277.1 217.6 275.9 C 211.8 276.5 209.5 282.9 204.1 284.4 M 145.9 420.7 C 146.1 423.3 148.3 424.8 150.3 426.1 C 149.3 424.0 148.1 421.8 145.9 420.7 M 265.8 425.3 C 267.8 424.6 268.9 423.0 269.0 420.9 C 267.6 422.1 266.5 423.6 265.8 425.3 M 168.9 431.2 C 167.8 432.9 166.8 434.7 165.7 436.4 C 172.4 439.9 179.6 442.6 187.0 444.0 C 183.3 441.7 179.2 440.0 175.8 437.2 C 173.5 435.2 171.2 433.1 168.9 431.2 M 228.9 444.0 C 236.3 442.5 243.4 439.8 250.1 436.2 C 248.7 434.8 247.3 433.4 246.0 432.0 C 241.0 436.9 235.0 440.6 228.9 444.0 Z" />
<path fill="#ffe5cf" stroke="#ffe5cf" stroke-width="0.09375" opacity="1.00" d=" M 204.1 284.4 C 209.5 282.9 211.8 276.5 217.6 275.9 C 217.8 277.1 218.0 278.3 218.3 279.5 C 221.1 279.0 224.0 278.8 226.9 278.9 C 226.0 280.5 225.0 282.2 224.0 283.8 C 225.5 284.6 227.0 285.4 228.5 286.2 C 225.4 289.9 220.4 290.4 216.0 291.3 C 216.3 292.1 216.7 292.9 217.0 293.8 C 222.2 292.7 228.4 291.4 230.9 286.2 C 230.0 284.8 229.0 283.4 228.1 282.0 C 248.2 286.7 266.9 298.0 279.3 314.7 C 292.2 331.4 298.1 353.3 295.1 374.2 C 294.4 377.0 293.1 379.9 294.1 382.8 C 296.8 392.3 293.4 402.2 288.4 410.3 C 285.2 415.3 281.4 420.4 276.1 423.1 C 274.6 423.7 272.2 424.5 271.4 422.5 C 270.4 419.8 270.3 416.8 269.9 413.9 C 265.5 420.9 261.5 428.9 253.9 433.0 C 252.1 434.1 249.0 434.2 248.5 431.6 C 247.5 426.2 249.7 420.9 250.2 415.6 C 244.3 422.3 240.2 432.6 230.3 434.0 C 229.0 431.9 228.3 429.5 228.7 427.0 C 229.8 416.4 235.9 407.2 242.7 399.4 C 241.2 398.8 239.6 398.2 238.1 397.6 C 237.8 394.1 238.7 390.6 240.5 387.6 C 245.4 379.1 252.8 371.9 261.6 367.5 C 265.8 365.3 270.6 365.5 275.1 364.9 C 274.0 362.5 271.1 363.3 269.1 363.3 C 261.9 363.7 256.1 368.4 250.3 372.1 C 246.1 367.5 242.0 362.7 236.6 359.5 C 231.8 356.3 226.5 354.3 221.1 352.6 C 219.6 349.7 218.4 346.2 215.1 344.9 C 210.4 342.8 204.7 342.7 200.0 345.0 C 197.0 346.4 196.1 349.8 194.8 352.6 C 188.7 354.5 182.7 356.7 177.6 360.5 C 172.7 363.7 169.0 368.2 165.0 372.4 C 159.9 368.9 154.7 364.8 148.4 363.6 C 146.8 363.1 145.3 363.7 143.8 364.1 C 146.8 366.3 150.8 366.1 154.1 367.9 C 162.3 372.3 169.4 378.9 174.1 387.0 C 175.8 389.9 177.3 393.2 176.9 396.7 C 175.9 398.3 173.8 398.6 172.3 399.5 C 179.1 407.3 185.2 416.5 186.3 427.0 C 186.7 429.5 186.0 431.9 184.7 434.0 C 174.5 432.0 170.2 421.3 164.2 413.9 C 165.1 419.9 168.0 426.1 166.2 432.2 C 165.2 434.6 162.3 433.5 160.6 432.5 C 153.4 428.2 149.7 420.5 145.1 413.8 C 144.6 417.2 144.5 420.9 142.8 424.0 C 137.3 423.3 133.3 419.1 130.1 415.0 C 124.3 407.2 119.5 397.9 120.2 388.0 C 120.4 384.5 122.0 381.1 121.2 377.6 C 115.3 350.2 126.6 320.7 147.5 302.5 C 163.6 288.1 185.1 280.1 206.7 279.9 C 205.8 281.4 204.9 282.9 204.1 284.4 M 171.4 302.4 C 165.6 304.3 162.5 310.1 160.5 315.5 C 158.3 322.2 158.4 329.6 159.5 336.6 C 160.8 342.8 163.9 349.0 169.4 352.6 C 173.8 355.3 179.9 354.0 183.3 350.3 C 189.5 343.9 191.5 334.6 191.1 326.0 C 190.7 318.0 188.3 309.4 181.8 304.2 C 179.0 301.8 174.9 301.3 171.4 302.4 M 236.4 302.4 C 229.5 304.6 226.3 312.1 224.6 318.6 C 222.2 327.5 223.4 337.2 227.7 345.3 C 229.5 348.4 231.9 351.1 235.0 352.9 C 239.4 355.1 245.0 353.8 248.3 350.3 C 254.5 343.9 256.5 334.6 256.1 326.0 C 255.7 318.0 253.3 309.4 246.8 304.2 C 243.9 301.8 239.9 301.3 236.4 302.4 Z" />
<path fill="#ffffff" stroke="#ffffff" stroke-width="0.09375" opacity="1.00" d=" M 171.4 302.4 C 174.9 301.3 179.0 301.8 181.8 304.2 C 188.3 309.4 190.7 318.0 191.1 326.0 C 191.5 334.6 189.5 343.9 183.3 350.3 C 179.9 354.0 173.8 355.3 169.4 352.6 C 163.9 349.0 160.8 342.8 159.5 336.6 C 158.4 329.6 158.3 322.2 160.5 315.5 C 162.5 310.1 165.6 304.3 171.4 302.4 M 179.4 313.4 C 175.7 315.1 174.0 319.4 173.2 323.2 C 172.1 329.3 172.7 336.2 176.7 341.2 C 178.6 343.7 182.7 344.2 184.9 341.9 C 188.3 338.6 189.4 333.6 189.5 329.0 C 189.6 324.3 188.8 319.1 185.6 315.4 C 184.2 313.6 181.7 312.6 179.4 313.4 Z" />
<path fill="#ffffff" stroke="#ffffff" stroke-width="0.09375" opacity="1.00" d=" M 236.4 302.4 C 239.9 301.3 243.9 301.8 246.8 304.2 C 253.3 309.4 255.7 318.0 256.1 326.0 C 256.5 334.6 254.5 343.9 248.3 350.3 C 245.0 353.8 239.4 355.1 235.0 352.9 C 231.9 351.1 229.5 348.4 227.7 345.3 C 223.4 337.2 222.2 327.5 224.6 318.6 C 226.3 312.1 229.5 304.6 236.4 302.4 M 231.5 313.5 C 227.3 315.6 225.7 320.7 225.2 325.0 C 224.7 330.8 225.3 337.2 229.3 341.6 C 231.2 343.8 234.9 344.1 237.0 342.0 C 240.5 338.7 241.8 333.7 241.8 329.0 C 241.9 324.2 241.0 319.0 237.7 315.3 C 236.3 313.5 233.7 312.6 231.5 313.5 Z" />
<path fill="#ee7f7f" stroke="#ee7f7f" stroke-width="0.09375" opacity="1.00" d=" M 179.4 313.4 C 181.7 312.6 184.2 313.6 185.6 315.4 C 188.8 319.1 189.6 324.3 189.5 329.0 C 189.4 333.6 188.3 338.6 184.9 341.9 C 182.7 344.2 178.6 343.7 176.7 341.2 C 172.7 336.2 172.1 329.3 173.2 323.2 C 174.0 319.4 175.7 315.1 179.4 313.4 Z" />
<path fill="#ee7f7f" stroke="#ee7f7f" stroke-width="0.09375" opacity="1.00" d=" M 231.5 313.5 C 233.7 312.6 236.3 313.5 237.7 315.3 C 241.0 319.0 241.9 324.2 241.8 329.0 C 241.8 333.7 240.5 338.7 237.0 342.0 C 234.9 344.1 231.2 343.8 229.3 341.6 C 225.3 337.2 224.7 330.8 225.2 325.0 C 225.7 320.7 227.3 315.6 231.5 313.5 Z" />
<path fill="#ffeb8f" stroke="#ffeb8f" stroke-width="0.09375" opacity="1.00" d=" M 200.0 345.0 C 204.7 342.7 210.4 342.8 215.1 344.9 C 218.4 346.2 219.6 349.7 221.1 352.6 C 217.8 356.4 213.3 359.5 208.0 359.2 C 202.7 359.7 198.0 356.6 194.8 352.6 C 196.1 349.8 197.0 346.4 200.0 345.0 Z" />
<path fill="#ee7f7f" stroke="#ee7f7f" stroke-width="0.09375" opacity="1.00" d=" M 453.4 371.6 C 459.9 371.2 466.5 371.9 473.0 371.8 C 488.9 371.8 505.2 369.1 520.8 373.3 C 533.4 376.7 543.6 386.6 548.4 398.7 C 555.1 415.6 555.0 435.3 548.1 452.2 C 543.4 464.1 533.3 473.9 521.0 478.0 C 514.6 480.2 507.8 481.0 501.0 480.7 C 487.6 480.3 474.3 479.7 460.9 480.1 C 455.9 480.3 450.4 481.8 445.7 479.4 C 441.3 477.4 439.5 471.2 442.4 467.4 C 444.5 465.2 447.9 465.1 450.1 463.0 C 452.2 459.8 452.0 455.7 452.4 451.9 C 453.2 437.0 453.6 422.0 453.5 407.0 C 453.7 401.7 454.0 396.4 453.0 391.2 C 451.9 386.6 445.4 387.2 443.9 382.8 C 443.1 380.3 443.1 377.1 445.1 375.0 C 447.2 372.8 450.4 371.8 453.4 371.6 M 489.4 389.3 C 487.5 390.5 487.2 392.8 487.2 394.9 C 487.3 415.3 487.2 435.7 487.2 456.1 C 487.2 459.1 488.1 462.8 491.3 463.9 C 498.1 465.8 506.2 463.1 510.1 457.0 C 514.4 450.6 515.6 442.6 516.0 435.1 C 516.2 422.8 516.1 409.8 510.5 398.6 C 506.8 391.1 497.4 386.5 489.4 389.3 Z" />
<path fill="#ee7f7f" stroke="#ee7f7f" stroke-width="0.09375" opacity="1.00" d=" M 697.4 371.4 C 703.2 371.1 709.0 370.6 714.8 371.4 C 718.0 371.8 720.7 373.8 723.0 376.0 C 735.1 387.6 747.2 399.2 759.2 410.8 C 761.2 412.6 763.3 414.6 766.0 415.5 C 767.3 415.4 768.2 414.8 768.6 413.6 C 770.1 410.0 769.8 406.0 769.7 402.2 C 769.4 398.8 769.5 395.2 768.1 392.0 C 766.5 388.4 761.7 387.7 759.9 384.2 C 758.0 380.4 759.3 375.2 763.3 373.3 C 768.8 370.6 775.1 371.2 781.0 371.0 C 786.4 371.4 792.3 370.9 797.1 373.8 C 801.0 376.1 801.9 381.8 799.5 385.5 C 797.4 388.6 792.8 388.9 791.3 392.4 C 789.7 396.7 789.5 401.5 789.3 406.0 C 789.2 422.7 789.3 439.4 789.3 456.0 C 789.1 462.4 789.1 469.0 787.4 475.3 C 786.5 478.2 784.4 481.6 781.0 481.5 C 777.6 482.0 775.0 479.4 772.7 477.3 C 762.5 467.2 752.3 457.1 741.9 447.1 C 736.7 441.9 731.7 436.6 726.2 431.8 C 724.4 430.3 720.9 428.7 719.4 431.4 C 717.1 435.9 717.6 441.1 717.5 446.0 C 717.7 450.6 717.5 455.4 719.3 459.7 C 721.0 463.6 726.3 464.2 727.6 468.4 C 729.0 472.5 726.5 477.0 722.7 478.8 C 716.9 481.5 710.3 481.6 704.0 481.5 C 699.0 481.2 693.6 480.6 689.4 477.5 C 686.1 475.2 684.9 470.3 686.9 466.8 C 688.7 464.6 691.4 463.4 693.3 461.3 C 695.1 459.3 695.4 456.6 695.8 454.1 C 697.0 441.8 696.8 429.4 696.7 417.1 C 696.3 409.4 696.2 401.6 693.9 394.2 C 692.7 390.1 688.3 389.0 685.4 386.6 C 681.7 383.8 682.4 377.6 686.0 375.0 C 689.2 372.5 693.4 371.8 697.4 371.4 Z" />
<path fill="#ee7f7f" stroke="#ee7f7f" stroke-width="0.09375" opacity="1.00" d=" M 823.4 373.5 C 829.3 372.4 836.2 371.8 841.4 375.6 C 846.0 379.1 845.3 386.6 841.2 390.2 C 835.9 394.8 828.8 396.7 822.0 397.4 C 817.4 397.7 812.1 397.7 808.4 394.6 C 804.2 391.1 804.2 383.9 808.3 380.3 C 812.4 376.5 818.1 374.9 823.4 373.5 Z" />
<path fill="#ee7f7f" stroke="#ee7f7f" stroke-width="0.09375" opacity="1.00" d=" M 982.4 373.6 C 985.8 372.9 989.4 372.4 992.9 372.8 C 994.9 373.0 995.7 375.2 995.5 377.0 C 995.1 388.0 994.8 399.0 994.5 410.0 C 994.3 412.4 995.7 416.4 998.8 415.0 C 1001.2 412.9 1002.5 409.9 1004.8 407.8 C 1014.9 397.0 1035.8 400.9 1041.2 414.8 C 1043.8 422.2 1043.3 430.3 1043.5 438.0 C 1043.9 446.0 1043.7 454.0 1044.3 462.0 C 1044.7 465.8 1048.6 467.6 1050.4 470.7 C 1051.5 473.2 1050.4 476.5 1048.0 477.9 C 1043.2 480.8 1037.4 481.1 1032.0 481.5 C 1025.6 481.6 1019.1 481.7 1013.0 480.0 C 1010.1 479.1 1006.8 477.3 1006.5 474.0 C 1006.7 469.8 1010.7 467.1 1011.1 463.0 C 1012.6 455.1 1012.8 447.0 1012.1 439.0 C 1011.8 435.0 1011.3 430.6 1008.6 427.4 C 1006.0 424.1 1000.5 423.4 997.3 426.3 C 994.7 428.8 994.7 432.7 994.5 436.0 C 994.5 444.7 994.3 453.4 995.1 462.0 C 995.3 466.5 1001.1 469.0 999.9 473.8 C 999.0 478.4 993.9 479.9 990.0 480.7 C 981.1 482.0 971.9 481.9 963.1 480.1 C 959.2 479.2 953.9 476.9 954.2 472.0 C 953.8 469.0 956.7 467.3 958.5 465.5 C 961.1 463.5 961.6 460.0 962.2 457.0 C 963.8 445.8 963.3 434.3 963.8 423.0 C 963.4 415.0 963.8 407.0 962.6 399.2 C 962.3 394.1 955.2 393.8 954.5 389.0 C 953.9 385.1 956.9 381.8 960.3 380.3 C 967.3 377.2 974.9 375.2 982.4 373.6 Z" />
<path fill="#ee7f7f" stroke="#ee7f7f" stroke-width="0.09375" opacity="1.00" d=" M 594.3 402.3 C 604.1 400.5 614.6 401.5 623.2 406.7 C 640.7 417.0 647.9 442.0 637.6 459.7 C 626.8 477.9 603.0 486.5 583.0 480.0 C 573.9 477.1 566.4 470.2 562.4 461.7 C 558.5 453.2 558.2 443.6 559.8 434.6 C 563.0 417.9 578.0 405.2 594.3 402.3 M 595.4 420.4 C 591.2 422.4 590.6 427.9 591.1 432.1 C 592.2 440.8 593.8 449.6 597.1 457.9 C 598.5 461.6 603.0 463.9 606.6 461.8 C 610.1 459.6 609.8 454.8 609.7 451.2 C 609.0 442.3 607.6 433.3 604.1 425.0 C 602.9 421.7 599.0 418.8 595.4 420.4 Z" />
<path fill="#ee7f7f" stroke="#ee7f7f" stroke-width="0.09375" opacity="1.00" d=" M 836.4 402.5 C 838.7 402.3 841.1 401.9 843.4 402.6 C 845.2 403.7 845.1 406.1 845.3 408.0 C 845.2 423.3 845.3 438.7 845.2 454.1 C 845.3 456.5 845.4 459.1 846.5 461.4 C 847.9 464.3 851.1 465.7 852.8 468.3 C 854.4 471.7 852.9 475.9 849.8 477.8 C 844.8 480.8 838.7 481.3 833.0 481.5 C 824.7 481.5 816.1 481.7 808.3 478.7 C 804.8 477.0 803.2 472.3 804.9 468.9 C 807.4 465.7 811.5 463.6 812.1 459.3 C 814.0 449.6 812.8 439.7 812.4 430.0 C 812.7 425.8 808.3 424.5 805.7 422.3 C 802.4 419.1 803.9 412.9 808.1 411.1 C 817.0 406.9 826.7 404.2 836.4 402.5 Z" />
<path fill="#ee7f7f" stroke="#ee7f7f" stroke-width="0.09375" opacity="1.00" d=" M 887.5 402.6 C 889.8 402.2 892.6 401.6 894.4 403.6 C 897.1 406.3 895.3 410.3 896.5 413.5 C 897.0 414.8 898.4 414.9 899.6 414.7 C 902.4 412.4 903.8 408.9 906.6 406.7 C 918.3 397.0 939.4 403.0 942.7 418.3 C 945.5 432.2 944.1 446.5 945.5 460.6 C 946.1 464.5 949.8 466.7 951.4 470.0 C 951.9 472.9 951.4 476.2 948.9 477.9 C 945.1 480.6 940.4 480.7 936.0 481.2 C 928.7 481.6 921.3 482.0 914.2 480.5 C 911.0 479.9 907.5 477.6 907.5 474.0 C 906.7 469.9 911.3 467.8 912.1 464.2 C 913.7 457.2 913.5 450.1 913.5 443.0 C 913.4 438.2 913.0 433.3 911.1 428.9 C 908.6 423.6 899.3 424.0 897.6 429.7 C 895.6 437.0 896.4 444.6 896.2 452.0 C 896.4 456.6 895.7 461.6 898.4 465.7 C 899.8 468.2 902.0 470.8 901.1 473.9 C 900.4 477.3 896.9 479.0 893.9 479.9 C 886.8 481.8 879.4 481.6 872.0 481.4 C 867.2 481.0 861.7 480.5 858.3 476.7 C 856.6 474.4 856.1 470.4 858.5 468.4 C 860.1 466.7 862.6 465.3 862.9 462.7 C 864.0 455.5 863.9 448.2 864.2 441.0 C 864.2 436.8 864.6 432.5 863.5 428.4 C 861.8 424.9 856.9 423.9 856.1 419.8 C 855.5 416.4 858.0 413.3 861.0 412.0 C 869.4 407.9 878.4 404.9 887.5 402.6 Z" />
<path fill="#ee7f7f" stroke="#ee7f7f" stroke-width="0.09375" opacity="1.00" d=" M 1088.4 402.6 C 1097.9 400.6 1108.4 401.1 1117.1 405.8 C 1133.7 414.4 1141.9 435.7 1136.1 453.3 C 1132.8 463.2 1124.9 470.9 1116.0 476.1 C 1105.9 481.9 1093.6 483.4 1082.2 481.0 C 1071.0 478.7 1061.3 470.4 1057.2 459.8 C 1052.0 445.5 1054.1 428.0 1064.5 416.5 C 1070.8 409.6 1079.2 404.5 1088.4 402.6 M 1091.3 420.2 C 1087.5 421.8 1086.4 426.3 1086.6 430.0 C 1087.2 438.9 1089.2 447.7 1092.0 456.1 C 1093.0 459.3 1095.3 462.7 1099.0 462.5 C 1102.3 463.0 1104.8 460.0 1105.1 457.0 C 1105.7 450.2 1104.6 443.5 1103.3 436.9 C 1102.2 432.3 1101.2 427.5 1098.7 423.3 C 1097.2 420.8 1094.2 419.2 1091.3 420.2 Z" />
<path fill="#ffddca" stroke="#ffddca" stroke-width="0.09375" opacity="1.00" d=" M 145.9 420.7 C 148.1 421.8 149.3 424.0 150.3 426.1 C 148.3 424.8 146.1 423.3 145.9 420.7 Z" />
<path fill="#ffffff" stroke="#ffffff" stroke-width="0.09375" opacity="1.00" d=" M 265.8 425.3 C 266.5 423.6 267.6 422.1 269.0 420.9 C 268.9 423.0 267.8 424.6 265.8 425.3 Z" />
<path fill="#ffead3" stroke="#ffead3" stroke-width="0.09375" opacity="1.00" d=" M 168.9 431.2 C 171.2 433.1 173.5 435.2 175.8 437.2 C 179.2 440.0 183.3 441.7 187.0 444.0 C 179.6 442.6 172.4 439.9 165.7 436.4 C 166.8 434.7 167.8 432.9 168.9 431.2 Z" />
<path fill="#ffead3" stroke="#ffead3" stroke-width="0.09375" opacity="1.00" d=" M 228.9 444.0 C 235.0 440.6 241.0 436.9 246.0 432.0 C 247.3 433.4 248.7 434.8 250.1 436.2 C 243.4 439.8 236.3 442.5 228.9 444.0 Z" />
<path fill="#ffe5cf" stroke="#ffe5cf" stroke-width="0.09375" opacity="1.00" d=" M 83.9 484.8 C 102.2 484.3 120.6 485.0 139.0 484.9 C 168.3 485.0 197.7 485.5 227.0 485.5 C 240.7 485.3 254.3 486.1 268.0 485.9 C 285.4 486.2 302.9 485.6 320.3 486.7 C 320.3 488.6 320.3 490.4 320.3 492.3 C 296.2 492.7 272.1 492.1 248.0 492.0 C 226.0 492.1 204.0 491.4 182.0 491.4 C 149.3 491.4 116.6 490.9 83.9 490.8 C 83.9 488.8 83.9 486.8 83.9 484.8 Z" />
</svg>
