<?xml version="1.0" encoding="UTF-8" standalone="no"?>
<!-- Created with Inkscape (http://www.inkscape.org/) -->

<svg
   width="210mm"
   height="297mm"
   viewBox="0 0 793.70079 1122.5197"
   version="1.1"
   id="svg1"
   inkscape:version="1.3 (0e150ed6c4, 2023-07-21)"
   sodipodi:docname="beija fror - nivel 2.svg"
   xmlns:inkscape="http://www.inkscape.org/namespaces/inkscape"
   xmlns:sodipodi="http://sodipodi.sourceforge.net/DTD/sodipodi-0.dtd"
   xmlns="http://www.w3.org/2000/svg"
   xmlns:svg="http://www.w3.org/2000/svg">
  <sodipodi:namedview
     id="namedview1"
     pagecolor="#505050"
     bordercolor="#eeeeee"
     borderopacity="1"
     inkscape:showpageshadow="0"
     inkscape:pageopacity="0"
     inkscape:pagecheckerboard="0"
     inkscape:deskcolor="#505050"
     inkscape:document-units="px"
     inkscape:zoom="0.48468746"
     inkscape:cx="499.29082"
     inkscape:cy="595.22894"
     inkscape:window-width="1600"
     inkscape:window-height="837"
     inkscape:window-x="-8"
     inkscape:window-y="-8"
     inkscape:window-maximized="1"
     inkscape:current-layer="layer3" />
  <defs
     id="defs1">
    <inkscape:path-effect
       effect="spiro"
       id="path-effect92"
       is_visible="true"
       lpeversion="1" />
    <inkscape:path-effect
       effect="spiro"
       id="path-effect91"
       is_visible="true"
       lpeversion="1" />
    <inkscape:path-effect
       effect="spiro"
       id="path-effect79"
       is_visible="true"
       lpeversion="1" />
    <inkscape:path-effect
       effect="spiro"
       id="path-effect78"
       is_visible="true"
       lpeversion="1" />
    <inkscape:path-effect
       effect="spiro"
       id="path-effect77"
       is_visible="true"
       lpeversion="1" />
    <inkscape:path-effect
       effect="spiro"
       id="path-effect75"
       is_visible="true"
       lpeversion="1" />
    <inkscape:path-effect
       effect="spiro"
       id="path-effect74"
       is_visible="true"
       lpeversion="1" />
    <inkscape:path-effect
       effect="spiro"
       id="path-effect73"
       is_visible="true"
       lpeversion="1" />
    <inkscape:path-effect
       effect="spiro"
       id="path-effect72"
       is_visible="true"
       lpeversion="1" />
    <inkscape:path-effect
       effect="spiro"
       id="path-effect71"
       is_visible="true"
       lpeversion="1" />
    <inkscape:path-effect
       effect="spiro"
       id="path-effect70"
       is_visible="true"
       lpeversion="1" />
    <inkscape:path-effect
       effect="spiro"
       id="path-effect69"
       is_visible="true"
       lpeversion="1" />
    <inkscape:path-effect
       effect="spiro"
       id="path-effect68"
       is_visible="true"
       lpeversion="1" />
    <inkscape:path-effect
       effect="spiro"
       id="path-effect67"
       is_visible="true"
       lpeversion="1" />
    <inkscape:path-effect
       effect="spiro"
       id="path-effect66"
       is_visible="true"
       lpeversion="1" />
    <inkscape:path-effect
       effect="spiro"
       id="path-effect65"
       is_visible="true"
       lpeversion="1" />
    <inkscape:path-effect
       effect="spiro"
       id="path-effect62"
       is_visible="true"
       lpeversion="1" />
    <inkscape:path-effect
       effect="spiro"
       id="path-effect61"
       is_visible="true"
       lpeversion="1" />
    <inkscape:path-effect
       effect="spiro"
       id="path-effect60"
       is_visible="true"
       lpeversion="1" />
    <inkscape:path-effect
       effect="spiro"
       id="path-effect59"
       is_visible="true"
       lpeversion="1" />
    <inkscape:path-effect
       effect="spiro"
       id="path-effect56"
       is_visible="true"
       lpeversion="1" />
    <inkscape:path-effect
       effect="spiro"
       id="path-effect55"
       is_visible="true"
       lpeversion="1" />
    <inkscape:path-effect
       effect="spiro"
       id="path-effect54"
       is_visible="true"
       lpeversion="1" />
    <inkscape:path-effect
       effect="spiro"
       id="path-effect53"
       is_visible="true"
       lpeversion="1" />
    <inkscape:path-effect
       effect="spiro"
       id="path-effect52"
       is_visible="true"
       lpeversion="1" />
    <inkscape:path-effect
       effect="spiro"
       id="path-effect44"
       is_visible="true"
       lpeversion="1" />
    <inkscape:path-effect
       effect="spiro"
       id="path-effect43"
       is_visible="true"
       lpeversion="1" />
    <inkscape:path-effect
       effect="spiro"
       id="path-effect42"
       is_visible="true"
       lpeversion="1" />
    <inkscape:path-effect
       effect="spiro"
       id="path-effect41"
       is_visible="true"
       lpeversion="1" />
    <inkscape:path-effect
       effect="spiro"
       id="path-effect40"
       is_visible="true"
       lpeversion="1" />
    <inkscape:path-effect
       effect="spiro"
       id="path-effect39"
       is_visible="true"
       lpeversion="1" />
    <inkscape:path-effect
       effect="spiro"
       id="path-effect38"
       is_visible="true"
       lpeversion="1" />
    <inkscape:path-effect
       effect="spiro"
       id="path-effect37"
       is_visible="true"
       lpeversion="1" />
    <inkscape:path-effect
       effect="spiro"
       id="path-effect36"
       is_visible="true"
       lpeversion="1" />
    <inkscape:path-effect
       effect="spiro"
       id="path-effect35"
       is_visible="true"
       lpeversion="1" />
    <inkscape:path-effect
       effect="spiro"
       id="path-effect34"
       is_visible="true"
       lpeversion="1" />
    <inkscape:path-effect
       effect="spiro"
       id="path-effect33"
       is_visible="true"
       lpeversion="1" />
    <inkscape:path-effect
       effect="spiro"
       id="path-effect32"
       is_visible="true"
       lpeversion="1" />
    <inkscape:path-effect
       effect="spiro"
       id="path-effect31"
       is_visible="true"
       lpeversion="1" />
    <inkscape:path-effect
       effect="spiro"
       id="path-effect30"
       is_visible="true"
       lpeversion="1" />
    <inkscape:path-effect
       effect="spiro"
       id="path-effect29"
       is_visible="true"
       lpeversion="1" />
    <inkscape:path-effect
       effect="spiro"
       id="path-effect24"
       is_visible="true"
       lpeversion="1" />
    <inkscape:path-effect
       effect="spiro"
       id="path-effect23"
       is_visible="true"
       lpeversion="1" />
    <inkscape:path-effect
       effect="spiro"
       id="path-effect18"
       is_visible="true"
       lpeversion="1" />
    <inkscape:path-effect
       effect="spiro"
       id="path-effect17"
       is_visible="true"
       lpeversion="1" />
    <inkscape:path-effect
       effect="spiro"
       id="path-effect16"
       is_visible="true"
       lpeversion="1" />
    <inkscape:path-effect
       effect="spiro"
       id="path-effect15"
       is_visible="true"
       lpeversion="1" />
    <inkscape:path-effect
       effect="spiro"
       id="path-effect14"
       is_visible="true"
       lpeversion="1" />
    <inkscape:path-effect
       effect="spiro"
       id="path-effect13"
       is_visible="true"
       lpeversion="1" />
    <inkscape:path-effect
       effect="spiro"
       id="path-effect12"
       is_visible="true"
       lpeversion="1" />
    <inkscape:path-effect
       effect="spiro"
       id="path-effect11"
       is_visible="true"
       lpeversion="1" />
    <inkscape:path-effect
       effect="spiro"
       id="path-effect10"
       is_visible="true"
       lpeversion="1" />
    <inkscape:path-effect
       effect="spiro"
       id="path-effect9"
       is_visible="true"
       lpeversion="1" />
    <inkscape:path-effect
       effect="spiro"
       id="path-effect3"
       is_visible="true"
       lpeversion="1" />
    <inkscape:path-effect
       effect="spiro"
       id="path-effect2"
       is_visible="true"
       lpeversion="1" />
    <inkscape:path-effect
       effect="spiro"
       id="path-effect1"
       is_visible="true"
       lpeversion="1" />
    <inkscape:path-effect
       effect="spiro"
       id="path-effect11-5"
       is_visible="true"
       lpeversion="1" />
    <inkscape:path-effect
       effect="spiro"
       id="path-effect11-1"
       is_visible="true"
       lpeversion="1" />
    <inkscape:path-effect
       effect="spiro"
       id="path-effect11-51"
       is_visible="true"
       lpeversion="1" />
    <inkscape:path-effect
       effect="spiro"
       id="path-effect12-7"
       is_visible="true"
       lpeversion="1" />
    <inkscape:path-effect
       effect="spiro"
       id="path-effect11-4"
       is_visible="true"
       lpeversion="1" />
  </defs>
  <g
     inkscape:groupmode="layer"
     id="layer3"
     inkscape:label="Camada 2"
     transform="matrix(1.0753701,0,0,1.6038581,-0.70351771,-2.3583123)">
    <path
       style="display:inline;fill:#eb82ff;fill-opacity:1;fill-rule:evenodd;stroke:#000000;stroke-width:3.80722072;stroke-dasharray:none;stroke-opacity:1"
       id="path90"
       sodipodi:type="arc"
       sodipodi:cx="363.31259"
       sodipodi:cy="355.45969"
       sodipodi:rx="290.51703"
       sodipodi:ry="185.87282"
       sodipodi:start="0"
       sodipodi:end="6.2822494"
       sodipodi:open="true"
       sodipodi:arc-type="arc"
       d="M 653.82962,355.45969 A 290.51703,185.87282 0 0 1 363.38057,541.3325 290.51703,185.87282 0 0 1 72.795595,355.54667 290.51703,185.87282 0 0 1 363.10867,169.58691 290.51703,185.87282 0 0 1 653.82949,355.28573" />
  </g>
  <g
     inkscape:label="Camada 1"
     inkscape:groupmode="layer"
     id="layer1"
     transform="matrix(35.72,0,0,38.591916,78.431767,268.98854)">
    <path
       style="fill:none;stroke:#000000;stroke-width:0.1;stroke-opacity:1"
       d="m 3.6443058,4.9921997 c 0.1116064,-0.210267 0.2761734,-0.392157 0.4742589,-0.524181 0.3200385,-0.2133058 0.7137807,-0.2905184 1.098284,-0.299532 0.2531268,-0.00593 0.5098179,0.016288 0.7488299,0.099844 0.392389,0.1371755 0.7085147,0.4273613 1.0202541,0.7023244 0.3117395,0.2749632 0.6469252,0.5501844 1.0515088,0.6455695 0.2735489,0.064492 0.5620968,0.041256 0.834627,-0.027414 0.2725302,-0.06867 0.5316939,-0.1814136 0.7878379,-0.2970791 1.4041646,-0.6340706 2.7928376,-1.3810928 4.3182526,-1.5975039 0.536933,-0.076175 1.083443,-0.084583 1.622465,-0.024961 m -6.0355751,3.959724 c 0.1080088,0.1711272 0.2498263,0.3208234 0.4148696,0.4379179 0.095678,0.067882 0.1986545,0.1246653 0.2996275,0.1843865 0.641455,0.3793917 1.210987,0.8862582 1.636431,1.4981402 0.758633,1.0910806 1.025396,2.5109486 0.714497,3.8029716"
       id="path2"
       inkscape:original-d="m 3.6443058,4.9921997 c 0.1664066,-0.1664067 0.3161726,-0.349454 0.4742589,-0.524181 0.1580864,-0.174727 0.7321893,-0.199688 1.098284,-0.299532 0.3660946,-0.099844 0.4992199,0.066563 0.7488299,0.099844 0.24961,0.033281 1.3811753,0.898596 2.0717629,1.3478939 C 8.7280291,6.0655226 9.1190848,5.399896 9.6599064,5.2917317 10.200728,5.1835673 12.538742,4.2267291 13.978159,3.6942278 15.417577,3.1617265 15.059802,3.6775868 15.600624,3.6692668 M 9.5650489,7.6289908 C 9.7033387,7.790329 9.8416286,7.9209361 9.9799185,8.0669087 10.118208,8.2128813 10.17967,8.189833 10.279546,8.2512952 c 0.09988,0.061462 1.090954,0.9987601 1.636431,1.4981402 0.545476,0.4993796 0.476331,2.5353146 0.714497,3.8029716"
       inkscape:path-effect="#path-effect3" />
    <path
       style="fill:none;stroke:#000000;stroke-width:0.1;stroke-opacity:1"
       d="m 3.7191888,5.0421217 c 0.082045,0.00553 0.1620316,0.038221 0.2244664,0.091737 0.062435,0.053516 0.1069728,0.1275613 0.1249875,0.2077953 0.02515,0.1120145 -0.00319,0.2348266 -0.074883,0.3244929"
       id="path9"
       inkscape:path-effect="#path-effect9"
       inkscape:original-d="m 3.7191888,5.0421217 c 0.1081643,0.091524 0.2329693,0.199688 0.3494539,0.299532 0.1164847,0.099844 -0.049922,0.2163286 -0.074883,0.3244929"
       transform="translate(-0.049922,-0.09984399)" />
    <path
       style="fill:none;stroke:#000000;stroke-width:0.1;stroke-opacity:1"
       d="m 3.9937598,5.5413417 c 0.3905795,-0.071088 0.8095047,0.031316 1.1232449,0.2745709 0.243055,0.1884499 0.4187055,0.4512546 0.5563209,0.726302 0.1376153,0.2750475 0.2410859,0.5657498 0.367236,0.8462409 0.3990957,0.8873778 1.0296489,1.6694534 1.8121976,2.2476699 0.7825487,0.5782166 1.7153254,0.9512676 2.6807818,1.0721426"
       id="path10"
       inkscape:path-effect="#path-effect10"
       inkscape:original-d="m 3.9937598,5.5413417 c 0.3910556,0.099844 0.7488299,0.1830473 1.1232449,0.2745709 0.374415,0.091524 0.6157046,1.048362 0.9235569,1.5725429 0.3078523,0.524181 2.9953198,2.2132086 4.4929794,3.3198125"
       transform="matrix(1.0122296,0,0,1.0151792,-0.14569757,-0.03133276)" />
    <path
       style="fill:none;stroke:#000000;stroke-width:0.1;stroke-opacity:1"
       d="m 15.575663,3.7191888 c 0.05608,0.028832 0.09973,0.080946 0.118272,0.1412161 0.01854,0.06027 0.01174,0.1279064 -0.01843,0.1832768 -0.02308,0.04235 -0.05897,0.077052 -0.100269,0.1019644 -0.0413,0.024912 -0.08788,0.040323 -0.135367,0.048742 -0.09498,0.016838 -0.192349,0.0062 -0.288545,-9.401e-4 -0.716372,-0.05314 -1.434021,0.091852 -2.121685,0.299532 -0.458952,0.1386069 -0.90938,0.305432 -1.347894,0.49922"
       id="path11"
       inkscape:path-effect="#path-effect11"
       inkscape:original-d="m 15.575663,3.7191888 c 0.02496,0.124805 0.06656,0.2163286 0.09984,0.3244929 0.03328,0.1081644 -0.349454,0.099844 -0.524181,0.149766 -0.174727,0.049922 -1.414457,0.199688 -2.121685,0.299532 -0.707228,0.099844 -0.898596,0.3328133 -1.347894,0.49922"
       transform="matrix(1.0354357,0,0,0.95435786,-0.54480654,0.12205827)" />
    <path
       style="fill:none;stroke:#000000;stroke-width:0.1;stroke-opacity:1"
       d="m 15.575663,3.7191888 c 0.05608,0.028832 0.09973,0.080946 0.118272,0.1412161 0.01854,0.06027 0.01174,0.1279064 -0.01843,0.1832768 -0.02308,0.04235 -0.05897,0.077052 -0.100269,0.1019644 -0.0413,0.024912 -0.08788,0.040323 -0.135367,0.048742 -0.09498,0.016838 -0.192349,0.0062 -0.288545,-9.401e-4 -0.716372,-0.05314 -1.434021,0.091852 -2.121685,0.299532 -0.458952,0.1386069 -0.90938,0.305432 -1.347894,0.49922"
       id="path11-5"
       inkscape:path-effect="#path-effect11-5"
       inkscape:original-d="m 15.575663,3.7191888 c 0.02496,0.124805 0.06656,0.2163286 0.09984,0.3244929 0.03328,0.1081644 -0.349454,0.099844 -0.524181,0.149766 -0.174727,0.049922 -1.414457,0.199688 -2.121685,0.299532 -0.707228,0.099844 -0.898596,0.3328133 -1.347894,0.49922"
       transform="matrix(1.1025278,0,0,0.94381325,-1.7982993,0.65451908)" />
    <path
       style="fill:none;stroke:#000000;stroke-width:0.1;stroke-opacity:1"
       d="m 15.575663,3.7191888 c 0.05608,0.028832 0.09973,0.080946 0.118272,0.1412161 0.01854,0.06027 0.01174,0.1279064 -0.01843,0.1832768 -0.02308,0.04235 -0.05897,0.077052 -0.100269,0.1019644 -0.0413,0.024912 -0.08788,0.040323 -0.135367,0.048742 -0.09498,0.016838 -0.192349,0.0062 -0.288545,-9.401e-4 -0.716372,-0.05314 -1.434021,0.091852 -2.121685,0.299532 -0.458952,0.1386069 -0.90938,0.305432 -1.347894,0.49922"
       id="path11-54"
       inkscape:path-effect="#path-effect11-1"
       inkscape:original-d="m 15.575663,3.7191888 c 0.02496,0.124805 0.06656,0.2163286 0.09984,0.3244929 0.03328,0.1081644 -0.349454,0.099844 -0.524181,0.149766 -0.174727,0.049922 -1.414457,0.199688 -2.121685,0.299532 -0.707228,0.099844 -0.898596,0.3328133 -1.347894,0.49922"
       transform="matrix(1.0542267,0,0,0.83789126,-1.4009043,1.5353999)" />
    <path
       style="fill:none;stroke:#000000;stroke-width:0.1;stroke-opacity:1"
       d="m 15.575663,3.7191888 c 0.05608,0.028832 0.09973,0.080946 0.118272,0.1412161 0.01854,0.06027 0.01174,0.1279064 -0.01843,0.1832768 -0.02308,0.04235 -0.05897,0.077052 -0.100269,0.1019644 -0.0413,0.024912 -0.08788,0.040323 -0.135367,0.048742 -0.09498,0.016838 -0.192349,0.0062 -0.288545,-9.401e-4 -0.716372,-0.05314 -1.434021,0.091852 -2.121685,0.299532 -0.458952,0.1386069 -0.90938,0.305432 -1.347894,0.49922"
       id="path11-541"
       inkscape:path-effect="#path-effect11-51"
       inkscape:original-d="m 15.575663,3.7191888 c 0.02496,0.124805 0.06656,0.2163286 0.09984,0.3244929 0.03328,0.1081644 -0.349454,0.099844 -0.524181,0.149766 -0.174727,0.049922 -1.414457,0.199688 -2.121685,0.299532 -0.707228,0.099844 -0.898596,0.3328133 -1.347894,0.49922"
       transform="matrix(1.1008459,0,0,0.83671197,-2.2802362,1.9617807)" />
    <path
       style="fill:none;stroke:#000000;stroke-width:0.1;stroke-opacity:1"
       d="m 14.728767,5.5277169 c 0.04049,0.044298 0.06942,0.099079 0.08317,0.1575011 0.01375,0.058422 0.01229,0.120355 -0.0042,0.1780638 -0.01649,0.057709 -0.04797,0.1110652 -0.09051,0.1534049 -0.04254,0.04234 -0.09604,0.073569 -0.153827,0.089787 -0.07513,0.021086 -0.155236,0.016736 -0.232097,0.00327 -0.07686,-0.013465 -0.151917,-0.035789 -0.228546,-0.050517 -0.178465,-0.034301 -0.362216,-0.02686 -0.543323,-0.011811 -0.237036,0.019696 -0.472793,0.052169 -0.708681,0.08268 -0.225406,0.029155 -0.451465,0.056603 -0.673248,0.1063023 -0.25694,0.057578 -0.507188,0.1449656 -0.744116,0.2598499"
       id="path12"
       inkscape:path-effect="#path-effect12"
       inkscape:original-d="m 14.728767,5.5277169 c -0.05118,0.1889818 -0.110239,0.3858378 -0.165359,0.5787567 -0.05512,0.1929189 -0.307095,-0.031497 -0.460643,-0.047245 -0.153548,-0.015748 -0.362215,-0.00787 -0.543323,-0.011811 -0.181107,-0.00394 -0.472454,0.05512 -0.708681,0.08268 -0.236228,0.02756 -0.448832,0.070868 -0.673248,0.1063023 -0.224416,0.035434 -0.496077,0.1732333 -0.744116,0.2598499"
       transform="matrix(1.3182306,0,0,1.0810874,-4.840063,-0.49986147)" />
    <path
       style="fill:none;stroke:#000000;stroke-width:0.1;stroke-opacity:1"
       d="m 14.728767,5.5277169 c 0.04049,0.044298 0.06942,0.099079 0.08317,0.1575011 0.01375,0.058422 0.01229,0.120355 -0.0042,0.1780638 -0.01649,0.057709 -0.04797,0.1110652 -0.09051,0.1534049 -0.04254,0.04234 -0.09604,0.073569 -0.153827,0.089787 -0.07513,0.021086 -0.155236,0.016736 -0.232097,0.00327 -0.07686,-0.013465 -0.151917,-0.035789 -0.228546,-0.050517 -0.178465,-0.034301 -0.362216,-0.02686 -0.543323,-0.011811 -0.237036,0.019696 -0.472793,0.052169 -0.708681,0.08268 -0.225406,0.029155 -0.451465,0.056603 -0.673248,0.1063023 -0.25694,0.057578 -0.507188,0.1449656 -0.744116,0.2598499"
       id="path12-2"
       inkscape:path-effect="#path-effect12-7"
       inkscape:original-d="m 14.728767,5.5277169 c -0.05118,0.1889818 -0.110239,0.3858378 -0.165359,0.5787567 -0.05512,0.1929189 -0.307095,-0.031497 -0.460643,-0.047245 -0.153548,-0.015748 -0.362215,-0.00787 -0.543323,-0.011811 -0.181107,-0.00394 -0.472454,0.05512 -0.708681,0.08268 -0.236228,0.02756 -0.448832,0.070868 -0.673248,0.1063023 -0.224416,0.035434 -0.496077,0.1732333 -0.744116,0.2598499"
       transform="matrix(1.1861162,0,0,0.80385532,-3.5044427,1.6424531)" />
    <path
       style="fill:none;stroke:#000000;stroke-width:0.1;stroke-opacity:1"
       d="m 13.736613,6.6143621 c -0.03656,0.102229 -0.10299,0.1935737 -0.188982,0.25985 -0.111702,0.086091 -0.252206,0.1280566 -0.392401,0.1433696 -0.140195,0.015313 -0.281745,0.0057 -0.422583,-0.00163 -0.566644,-0.029485 -1.13523,-0.021588 -1.700836,0.023623"
       id="path15"
       inkscape:path-effect="#path-effect15"
       inkscape:original-d="m 13.736613,6.6143621 c -0.05512,0.078742 -0.125988,0.1732333 -0.188982,0.25985 -0.06299,0.086617 -0.543323,0.094491 -0.814984,0.1417363 -0.271661,0.047245 -1.133891,0.015748 -1.700836,0.023623"
       transform="matrix(1.3595919,0,0,1.201304,-4.925541,-1.3731183)" />
    <path
       style="fill:none;stroke:#000000;stroke-width:0.1;stroke-opacity:1"
       d="m 13.240536,7.0986279 c 0.01477,0.1204845 -0.03036,0.2468471 -0.118114,0.3307181 -0.05973,0.057086 -0.136476,0.094053 -0.216006,0.1164363 -0.07953,0.022384 -0.162249,0.030924 -0.244637,0.037111 -0.703212,0.052809 -1.409951,-0.059412 -2.114234,-0.023623 -0.338686,0.017211 -0.6756178,0.068742 -1.0039654,0.1535477"
       id="path16"
       inkscape:original-d="M 13.240536,7.0986279 C 13.19329,7.2167415 13.161793,7.3191067 13.122422,7.429346 13.083051,7.5395854 12.815327,7.5317112 12.661779,7.5828937 12.508231,7.6340763 11.25229,7.5671452 10.547545,7.559271 9.8428008,7.5513968 9.8782349,7.6616361 9.5435796,7.7128187"
       inkscape:path-effect="#path-effect16"
       transform="matrix(0.81870283,0,0,0.92564704,2.4083415,0.4920668)" />
    <path
       style="fill:none;stroke:#000000;stroke-width:0.1;stroke-opacity:1"
       d="m 12.862572,7.5238369 c -0.139433,0.1896886 -0.349016,0.3265587 -0.578757,0.3779636 -0.104502,0.023382 -0.211981,0.029571 -0.318906,0.035434 -0.692467,0.037972 -1.385505,0.065536 -2.0787999,0.082679"
       id="path17"
       inkscape:path-effect="#path-effect17"
       inkscape:original-d="m 12.862572,7.5238369 c -0.185045,0.1338621 -0.385838,0.2519757 -0.578757,0.3779636 -0.192919,0.1259878 -0.212604,0.023623 -0.318906,0.035434 -0.106303,0.011811 -1.385867,0.05512 -2.0787999,0.082679" />
    <path
       style="fill:none;stroke:#000000;stroke-width:0.1;stroke-opacity:1"
       d="m 12.676571,13.460213 c 0.0118,-0.50378 -0.08308,-1.009806 -0.27658,-1.475092 -0.142225,-0.34199 -0.337314,-0.661935 -0.576208,-0.94498"
       id="path23"
       inkscape:original-d="m 12.676571,13.460213 c -0.09219,-0.49938 -0.184387,-0.983394 -0.27658,-1.475092 -0.09219,-0.491697 -0.384138,-0.629987 -0.576208,-0.94498"
       inkscape:path-effect="#path-effect23" />
    <path
       style="fill:none;stroke:#000000;stroke-width:0.1;stroke-opacity:1"
       d="m 10.325643,14.266904 c 0.23358,-0.244434 0.428759,-0.525491 0.576208,-0.829739 0.3649,-0.752938 0.424057,-1.648736 0.161338,-2.443121"
       id="path31"
       inkscape:original-d="m 10.325643,14.266904 c 0.199752,-0.268897 0.384139,-0.553159 0.576208,-0.829739 0.192069,-0.27658 0.107559,-1.628747 0.161338,-2.443121"
       inkscape:path-effect="#path-effect31" />
    <path
       style="fill:none;stroke:#000000;stroke-width:0.1;stroke-opacity:1"
       d="m 10.348691,14.289953 c 0.331499,-0.153062 0.631445,-0.374074 0.875836,-0.645353 0.311169,-0.345403 0.531015,-0.772349 0.63144,-1.22627 0.100425,-0.453921 0.0812,-0.93376 -0.05523,-1.378189"
       id="path32"
       inkscape:original-d="m 10.348691,14.289953 c 0.307311,-0.199752 0.583891,-0.430236 0.875836,-0.645353 0.291945,-0.215118 0.384139,-1.736306 0.576208,-2.604459"
       inkscape:path-effect="#path-effect32" />
    <path
       style="fill:none;stroke:#000000;stroke-width:0.1;stroke-opacity:1"
       d="m 10.325643,10.763561 c 0.192557,0.384955 0.295893,0.814197 0.299628,1.244609 0.0029,0.328768 -0.05201,0.657957 -0.161338,0.968029"
       id="path52"
       inkscape:path-effect="#path-effect52"
       inkscape:original-d="m 10.325643,10.763561 c 0.08451,0.41487 0.199752,0.829739 0.299628,1.244609 0.09988,0.414869 -0.107559,0.645352 -0.161338,0.968029"
       transform="matrix(0.92388362,0,0,0.96877349,0.81189712,0.40641075)" />
    <path
       style="fill:none;stroke:#000000;stroke-width:0.1;stroke-opacity:1"
       d="m 10.51003,12.930102 c 0.101807,-0.09039 0.194606,-0.190926 0.276579,-0.299628 0.179426,-0.237933 0.306234,-0.515325 0.368773,-0.806691"
       id="path53"
       inkscape:path-effect="#path-effect53"
       inkscape:original-d="m 10.51003,12.930102 c 0.09219,-0.09988 0.184386,-0.199752 0.276579,-0.299628 0.09219,-0.09988 0.245849,-0.537794 0.368773,-0.806691" />
    <path
       style="fill:none;stroke:#000000;stroke-width:0.1;stroke-opacity:1"
       d="m 11.915977,11.985121 c 0.07091,0.427555 0.05513,0.8693 -0.0461,1.290706 -0.0655,0.272682 -0.166497,0.536817 -0.299628,0.783642"
       id="path54"
       inkscape:path-effect="#path-effect54"
       inkscape:original-d="m 11.915977,11.985121 c -0.0077,0.41487 -0.03073,0.860471 -0.0461,1.290706 -0.01537,0.430235 -0.199752,0.522428 -0.299628,0.783642" />
    <path
       style="fill:none;stroke:#000000;stroke-width:0.1;stroke-opacity:1"
       d="m 11.5933,14.059469 c 0.171705,-0.170562 0.319557,-0.365104 0.437918,-0.576207 0.257393,-0.459074 0.371531,-0.997153 0.322676,-1.521189"
       id="path55"
       inkscape:path-effect="#path-effect55"
       inkscape:original-d="m 11.5933,14.059469 c 0.145973,-0.176703 0.291945,-0.384138 0.437918,-0.576207 0.145973,-0.19207 0.215118,-1.014126 0.322676,-1.521189" />
    <path
       style="fill:none;stroke:#000000;stroke-width:0.1;stroke-opacity:1"
       d="M 12.169508,8.0438604 C 11.996719,8.187784 11.801604,8.3048525 11.5933,8.389585 11.330657,8.4964209 11.0471,8.551557 10.763561,8.5509232"
       id="path56"
       inkscape:path-effect="#path-effect56"
       inkscape:original-d="M 12.169508,8.0438604 C 11.985121,8.1591019 11.785369,8.2743435 11.5933,8.389585 11.401231,8.5048266 11.040141,8.4971438 10.763561,8.5509232"
       transform="matrix(1.0409985,0,0,0.99817611,-0.66098261,-0.10009749)" />
    <path
       style="fill:none;stroke:#000000;stroke-width:0.1;stroke-opacity:1"
       d="M 3.6416331,4.9553868 0.78364256,7.121928"
       id="path63" />
    <path
       style="fill:none;stroke:#000000;stroke-width:0.104466;stroke-opacity:1"
       d="M 4.032353,5.5338388 0.85388878,7.0735871"
       id="path64" />
    <path
       style="fill:none;stroke:#000000;stroke-width:0.1;stroke-opacity:1"
       d="M 4.7314333,4.9397354 C 4.7807522,4.8169779 4.8787161,4.7145438 4.9991524,4.6598001 5.1195886,4.6050563 5.2611796,4.5986018 5.386097,4.642161 c 0.042001,0.014646 0.082112,0.034702 0.1190298,0.059515"
       id="path69"
       inkscape:path-effect="#path-effect70"
       inkscape:original-d="M 4.7314333,4.9397354 C 4.9546141,4.8504631 5.1678758,4.7413525 5.386097,4.642161 5.6043183,4.54297 5.46545,4.681838 5.5051268,4.701676"
       transform="translate(0,0.02975744)" />
    <path
       style="fill:none;stroke:#000000;stroke-width:0.1;stroke-opacity:1"
       d="m 10.502711,10.839658 c 0.139955,-0.0259 0.28809,-0.0055 0.415807,0.05735 0.0694,0.03414 0.132789,0.08046 0.186396,0.136212"
       id="path70"
       inkscape:path-effect="#path-effect71"
       inkscape:original-d="m 10.502711,10.839658 c 0.140992,0.01912 0.277205,0.03824 0.415807,0.05735 0.138602,0.01912 0.124264,0.09081 0.186396,0.136212" />
    <path
       style="fill:none;stroke:#000000;stroke-width:0.1;stroke-opacity:1"
       d="M 7.219939,5.1341788 C 7.950039,4.5970013 8.7382684,4.1388851 9.5664192,3.7704126 10.846345,3.2009301 12.221798,2.846853 13.617607,2.7275325"
       id="path74"
       inkscape:path-effect="#path-effect74"
       inkscape:original-d="M 7.219939,5.1341788 C 7.9954139,4.6862752 8.7842591,4.2250013 9.5664192,3.7704126 10.348579,3.3158238 12.267211,3.0751592 13.617607,2.7275325" />
    <path
       style="fill:none;stroke:#000000;stroke-width:0.1;stroke-opacity:1"
       d="m 13.51733,2.7275325 c 0.04067,-0.018785 0.08681,-0.025516 0.131153,-0.019129 0.04434,0.00639 0.08671,0.025867 0.120422,0.055366 0.03371,0.029499 0.05865,0.068909 0.07086,0.1120074 0.01222,0.043099 0.01167,0.08973 -0.0015,0.1325314 -0.01968,0.063707 -0.06622,0.1165697 -0.120834,0.1548246 -0.05461,0.038255 -0.11724,0.063314 -0.179996,0.08584 -0.488247,0.1752578 -1.0126,0.2150637 -1.52421,0.3008307 -1.023651,0.1716064 -2.0150031,0.5339626 -2.9080307,1.0629355"
       id="path75"
       inkscape:path-effect="#path-effect75"
       inkscape:original-d="m 13.51733,2.7275325 c 0.106962,0.1069621 0.213924,0.1871836 0.320886,0.2807754 0.106962,0.093592 -0.200553,0.1604431 -0.30083,0.2406647 -0.100277,0.080221 -1.01614,0.2005538 -1.52421,0.3008307 -0.508069,0.100277 -1.938687,0.7086237 -2.9080307,1.0629355"
       transform="matrix(0.9998146,0,0,1.0204735,-0.01792532,-0.0347309)" />
    <path
       style="fill:none;stroke:#000000;stroke-width:0.1;stroke-opacity:1"
       d="m 13.577496,3.3291941 c -0.02541,0.102384 -0.07373,0.1990155 -0.140387,0.2807754 -0.06991,0.08574 -0.159917,0.1549803 -0.26072,0.2005539"
       id="path77"
       inkscape:path-effect="#path-effect77"
       inkscape:original-d="m 13.577496,3.3291941 c -0.06017,0.080221 -0.09359,0.1871836 -0.140387,0.2807754 -0.0468,0.093592 -0.173814,0.1337026 -0.26072,0.2005539"
       transform="matrix(1.1810684,0,0,1.2512818,-2.4607699,-0.9012512)" />
    <path
       style="fill:none;stroke:#000000;stroke-width:0.1;stroke-opacity:1"
       d="M 10.990352,4.6528496 C 10.67639,4.6946884 10.366729,4.7687376 10.067804,4.8734588 9.8472248,4.9507334 9.6324886,5.0446804 9.4260315,5.1542342"
       id="path78"
       inkscape:path-effect="#path-effect78"
       inkscape:original-d="M 10.990352,4.6528496 C 10.689521,4.726386 10.37532,4.7999224 10.067804,4.8734588 9.7602879,4.9469952 9.6399556,5.0606424 9.4260315,5.1542342"
       transform="matrix(1.0276743,0,0,0.99876905,-0.26061127,0.00603271)" />
    <path
       style="fill:none;stroke:#000000;stroke-width:0.1;stroke-opacity:1"
       d="M 4.1113542,5.1742896 C 4.2475536,4.9447298 4.4335909,4.744912 4.6528496,4.5926834 4.8474906,4.4575466 5.0781417,4.3580025 5.3146773,4.3720742 5.5212842,4.3843654 5.7151952,4.4827161 5.8762281,4.6127388 6.2404656,4.9068349 6.4478388,5.348314 6.6383328,5.7759512 7.0747945,6.7557579 7.4915453,7.7563469 8.1224314,8.623816 c 0.692395,0.9520438 1.6352066,1.720261 2.7074776,2.206093"
       id="path79"
       inkscape:path-effect="#path-effect79"
       inkscape:original-d="M 4.1113542,5.1742896 C 4.2985378,4.9937911 4.4723511,4.7865522 4.6528496,4.5926834 4.8333481,4.3988147 5.0940681,4.4456106 5.3146773,4.3720742 c 0.2206093,-0.073536 0.3743672,0.1604431 0.5615508,0.2406646 0.1871836,0.080222 0.5080698,0.7754749 0.7621047,1.1632124 0.2540349,0.3877375 0.9893991,1.8985766 1.4840986,2.8478648 0.4946995,0.9492883 1.8049847,1.470728 2.7074776,2.206093"
       transform="matrix(1.0207667,0,0,1.0091099,-0.22510174,-0.03913498)" />
    <path
       style="fill:#fffe7f;fill-opacity:1;stroke:#000000;stroke-width:0.00200554;stroke-opacity:1"
       d="M 10.105801,10.709943 C 8.5236939,10.374486 7.2087517,9.4504904 6.363129,8.0800084 6.2038924,7.8219375 6.0680906,7.5451768 5.8623804,7.0594959 5.6520671,6.562947 5.5266526,6.3287539 5.3543982,6.1109138 5.0701372,5.7514256 4.6946989,5.5510771 4.2355191,5.5138365 l -0.1642757,-0.013323 0.00228,-0.1872574 0.00228,-0.1872574 0.1080284,-0.133475 C 4.3285643,4.8136986 4.5554688,4.6342313 4.7631617,4.5343098 4.929491,4.4542888 4.9387711,4.4522958 5.1451456,4.4522958 c 0.203401,0 0.2172461,0.00284 0.3609969,0.073976 0.1659575,0.082128 0.3152883,0.2014284 0.4524659,0.3614749 0.2053224,0.2395519 0.3497444,0.5075212 0.7218976,1.3394512 0.7322949,1.6370095 1.2156241,2.4313728 1.9305483,3.1729035 0.490279,0.5085251 1.0171169,0.9107756 1.7204607,1.3136016 0.100361,0.05748 0.05994,0.05681 -0.225706,-0.0038 z M 4.8896907,4.8511858 C 5.0167428,4.7097082 5.1963896,4.6696364 5.3840048,4.7409246 c 0.1006133,0.03823 0.1098668,0.036231 0.1488675,-0.032154 0.00881,-0.015445 -0.017461,-0.040898 -0.072085,-0.069847 -0.1295001,-0.068629 -0.3695834,-0.065112 -0.5071068,0.00743 -0.098857,0.052146 -0.1726201,0.1193693 -0.2375889,0.2165263 -0.044326,0.066287 -0.041816,0.090614 0.011966,0.1159877 0.03568,0.016833 0.049322,0.014602 0.06518,-0.01066 0.01103,-0.017572 0.054434,-0.070232 0.096453,-0.1170218 z"
       id="path86" />
    <path
       style="fill:#8a8a8a;fill-opacity:1;stroke:#000000;stroke-width:0.00200554;stroke-opacity:1"
       d="M 1.4948425,6.661479 C 1.5580347,6.6033965 3.6128214,5.0550854 3.6577472,5.0316995 3.7816773,4.9671884 3.9610254,5.1429312 3.9608638,5.3287229 3.9607111,5.5044328 3.9972673,5.4818047 2.6954713,6.1119933 2.0402467,6.429182 1.4954514,6.6886486 1.4848148,6.6885857 c -0.010637,-6.29e-5 -0.00612,-0.012261 0.010028,-0.027107 z"
       id="path87" />
    <path
       style="fill:#a400c4;fill-opacity:1;stroke:#000000;stroke-width:0.0729446"
       d="m 456.96196,761.17704 c 0.40616,-1.62346 1.64319,-8.60225 2.1011,-11.8535 0.77062,-5.47149 0.65542,-25.23679 -0.17961,-30.8191 -1.34905,-9.01854 -3.67923,-18.45856 -6.28086,-25.44496 -0.68983,-1.85249 -1.25505,-3.46511 -1.25602,-3.58361 -9.8e-4,-0.11849 2.03889,-0.24515 4.53303,-0.28146 4.27801,-0.0623 4.65077,-0.009 6.58244,0.93823 1.4706,0.72125 2.12214,0.88367 2.31207,0.57636 0.35741,-0.5783 2.93108,0.58592 5.37607,2.4319 l 1.85898,1.40355 1.33753,5.41498 c 1.95007,7.89484 3.07091,14.65212 3.71212,22.3795 l 0.22739,2.74033 -1.14393,-0.005 -1.14393,-0.005 -1.04123,4.01196 c -3.09608,11.92945 -8.87066,23.21814 -16.23153,31.7309 -0.73224,0.84684 -0.90486,0.92928 -0.76362,0.36473 z"
       id="path7"
       transform="matrix(0.02799552,0,0,0.02591216,-2.1957382,-6.9700748)" />
    <path
       style="fill:#a400c4;fill-opacity:1;stroke:#000000;stroke-width:0.0729446"
       d="m 499.13511,799.78992 c -0.006,-0.22686 0.379,-1.4578 0.85639,-2.73542 2.5368,-6.78909 5.19859,-18.10153 6.45075,-27.41536 1.09615,-8.15345 1.3383,-22.28746 0.51364,-29.98076 -0.34404,-3.20957 -0.75349,-10.10283 -0.90989,-15.31837 -0.25298,-8.43673 -0.80513,-14.43109 -1.79733,-19.51269 -0.17625,-0.90269 -0.27416,-1.68811 -0.21758,-1.74538 0.10849,-0.10982 3.9324,5.87788 6.12248,9.58693 2.21001,3.74279 8.66499,17.0683 8.66499,17.88779 0,0.0913 -0.20516,0.1661 -0.4559,0.16623 -0.35248,1.7e-4 -0.46183,2.17218 -0.48203,9.57398 -0.0216,7.90774 -0.16353,10.46232 -0.81574,14.67987 -2.31923,14.99733 -7.1414,28.22657 -14.75686,40.48426 -2.39387,3.85312 -3.15702,4.89431 -3.17292,4.32892 z"
       id="path8"
       transform="matrix(0.02799552,0,0,0.02591216,-2.1957382,-6.9700748)" />
    <path
       style="fill:#a400c4;fill-opacity:1;stroke:#000000;stroke-width:0.145889"
       d="m 366.78212,483.72332 c -5.64483,-1.43776 -15.2004,-6.30844 -21.57174,-10.99557 -3.10926,-2.28736 -5.65321,-4.41524 -5.65321,-4.72862 0,-0.83685 17.0882,-13.44139 28.4484,-20.98401 47.62302,-31.61934 97.0665,-52.31262 152.81897,-63.95838 10.30169,-2.15185 31.05225,-5.30534 39.51456,-6.00508 5.86006,-0.48456 5.9916,-0.45878 7.84155,1.53735 3.80178,4.1022 1.6919,10.26685 -4.59291,13.41951 -7.45876,3.74156 -20.23585,6.95282 -42.39848,10.65599 -26.58745,4.44252 -43.90594,8.81115 -61.92054,15.61959 -19.2037,7.25786 -42.07133,18.64094 -54.58442,27.17111 -2.83612,1.93339 -3.01192,2.23778 -2.25361,3.9021 0.45236,0.99282 1.03458,1.80512 1.29382,1.80512 0.25924,0 4.88413,-2.65942 10.27752,-5.90983 23.80873,-14.34866 51.9632,-25.89024 79.03824,-32.40076 5.65265,-1.35925 18.22741,-3.8018 27.9439,-5.42789 18.74398,-3.13687 24.53102,-4.32548 32.55295,-6.68611 2.74651,-0.80821 5.15887,-1.30425 5.36082,-1.1023 0.82686,0.82685 -3.91739,8.00807 -7.42098,11.23289 -5.83759,5.3731 -6.61652,5.87497 -11.11633,7.1623 -12.28296,3.51396 -36.91441,13.48009 -58.23527,23.56256 -6.03912,2.85586 -11.78351,5.19957 -12.76531,5.20825 -5.34036,0.0472 -24.4207,5.30341 -35.70433,9.8357 -7.69111,3.08928 -19.69504,8.85058 -19.69504,9.45266 0,0.85304 1.76185,4.05055 2.13167,3.86866 0.23176,-0.11399 2.88327,-1.48122 5.89224,-3.03828 9.80407,-5.07337 30.18931,-12.62448 32.23796,-11.9416 0.41077,0.13693 -8.23392,4.6307 -19.21042,9.98617 -34.1215,16.64799 -40.87995,19.02364 -55.33542,19.45087 -6.00252,0.1774 -10.40847,-0.0592 -12.89459,-0.6924 z"
       id="path19"
       transform="matrix(0.02799552,0,0,0.02591216,-2.1957382,-6.9700748)" />
    <path
       style="fill:#a400c4;fill-opacity:1;stroke:#000000;stroke-width:0.145889"
       d="m 455.53911,813.47181 c 0,-0.13288 1.83388,-3.00873 4.07529,-6.39078 19.86703,-29.97724 26.98518,-72.10733 18.04669,-106.81275 -0.61997,-2.40717 -1.13245,-5.12058 -1.13882,-6.02981 -0.0194,-2.76908 -6.2241,-7.11025 -12.62651,-8.83423 -3.65239,-0.98349 -18.69603,-9.55166 -28.41642,-16.18471 -23.75465,-16.2098 -48.15223,-40.30909 -64.77515,-63.98321 -16.53008,-23.54189 -28.13175,-46.55442 -50.83013,-100.82432 -10.39801,-24.86077 -15.51193,-35.66786 -20.59977,-43.53284 -8.9245,-13.79588 -21.08686,-23.23035 -32.27663,-25.03731 -8.0909,-1.30656 -17.57608,1.3434 -26.44789,7.38898 -4.84012,3.29824 -12.9445,11.1447 -16.62637,16.09724 l -3.08798,4.15369 -1.61993,-1.72434 c -0.89096,-0.94838 -2.57225,-2.1188 -3.73621,-2.60093 -1.16396,-0.48212 -2.11629,-1.03898 -2.11629,-1.23745 0,-1.05039 5.72747,-7.92261 9.11958,-10.94232 10.89496,-9.69886 26.19332,-14.76965 44.58152,-14.77696 22.11257,-0.009 33.07568,5.44557 57.76496,28.73917 16.25702,15.33802 24.84257,21.48326 35.88206,25.68313 5.23209,1.99051 5.9961,2.07993 17.50671,2.0491 11.00134,-0.0295 12.60014,-0.2047 18.60087,-2.03873 10.62856,-3.24845 20.61672,-7.78109 57.25136,-25.98072 19.06237,-9.46995 39.74674,-19.46208 45.96527,-22.20474 47.31321,-20.8673 84.17545,-28.92124 121.94997,-26.64455 12.55327,0.75659 13.82673,1.16776 15.26483,4.92857 0.94951,2.48309 -0.93938,6.35928 -3.85105,7.90276 -2.13827,1.13349 -4.82309,1.29677 -22.48794,1.36764 -15.17644,0.0609 -22.10188,0.39376 -28.4484,1.36734 -20.71008,3.17701 -43.41449,9.32626 -68.20321,18.47212 -11.73243,4.32871 -24.43644,9.71293 -24.43644,10.35667 0,0.2869 0.45295,1.1411 1.00657,1.89822 0.9647,1.3193 1.55508,1.15758 14.19098,-3.88724 25.94156,-10.35703 54.21478,-18.59647 75.98321,-22.14318 8.07933,-1.31636 12.94768,-1.61232 27.11311,-1.64828 l 17.26557,-0.0438 1.95978,1.82361 c 2.82513,2.62885 3.44672,4.71538 2.25466,7.56838 -0.65409,1.56545 -1.97623,2.85712 -3.8248,3.73666 -2.53532,1.20628 -5.0703,1.35337 -24.70855,1.43363 -18.76415,0.0767 -23.39101,0.32318 -32.46035,1.72926 -20.73558,3.21476 -44.84049,9.3801 -68.93266,17.63098 -9.70084,3.32226 -25.84995,9.34542 -26.50152,9.88431 -0.1998,0.16525 1.10735,3.08864 1.70804,3.81999 0.0961,0.11705 3.41625,-1.07577 7.37802,-2.65071 18.87294,-7.50266 47.5044,-16.32002 66.51529,-20.48408 18.84089,-4.12683 28.30804,-5.27334 46.96361,-5.68748 l 17.28326,-0.38368 2.22943,2.4409 c 2.48278,2.71831 2.7831,4.64791 1.09784,7.05395 -2.3078,3.29485 -3.25194,3.42684 -25.12848,3.51301 -28.31979,0.11154 -44.36428,2.37079 -75.49768,10.63092 -18.64509,4.94681 -48.50816,14.71778 -48.50816,15.87151 0,0.28072 0.41555,1.07872 0.92346,1.77333 0.85567,1.1702 2.20784,0.83558 18.41851,-4.55797 26.97961,-8.97653 47.57501,-14.18946 70.01518,-17.72164 7.35475,-1.15767 14.14812,-1.56491 30.27201,-1.81471 l 20.78922,-0.32208 2.12755,1.75102 c 2.37995,1.95875 2.87719,5.38129 1.09417,7.53123 -2.39303,2.88546 -4.96475,3.20811 -25.62876,3.2154 -25.88945,0.009 -40.68454,1.64671 -66.1798,7.32505 -21.91764,4.88153 -63.51567,17.47107 -63.49151,19.21556 0.006,0.44363 0.32085,1.29644 0.69936,1.89514 0.58739,0.9291 2.53557,0.48004 13.30122,-3.06594 30.66154,-10.09928 58.14566,-16.72511 83.00458,-20.01062 12.70837,-1.67961 43.58171,-1.92126 45.47216,-0.35592 1.74588,1.44563 2.93992,6.09437 2.35973,9.18706 -0.64174,3.42076 -4.8336,8.07448 -8.30511,9.22018 -3.84637,1.26942 -9.50078,1.02378 -19.10229,-0.82985 -7.4733,-1.44277 -9.9009,-1.57591 -22.2481,-1.22024 -22.30459,0.64252 -64.87379,5.9229 -81.64373,10.12729 -9.47051,2.37435 -26.67902,8.40321 -26.67902,9.34679 0,0.3164 0.59236,1.30682 1.31636,2.20092 l 1.31635,1.62564 7.98408,-2.93446 c 16.87694,-6.20292 28.34454,-8.54228 59.44292,-12.12618 27.56118,-3.17626 42.78902,-4.36022 48.47455,-3.76888 8.93949,0.92976 15.09842,2.12864 16.10466,3.13488 3.13891,3.1389 1.46383,8.69607 -3.36357,11.15882 -4.2334,2.15973 -8.82038,2.48508 -16.38759,1.16238 -14.46096,-2.52769 -23.539,-2.31982 -61.6382,1.41141 -21.13638,2.06998 -29.20784,3.24433 -40.11953,5.83717 -8.84993,2.10292 -18.97619,5.33328 -18.94241,6.04278 0.0128,0.26795 0.43858,1.03332 0.94625,1.70083 0.84961,1.11708 1.58101,1.01416 9.19366,-1.29381 12.88951,-3.90778 24.91558,-5.9968 47.82787,-8.30808 38.49051,-3.88273 45.16291,-4.0125 64.78855,-1.26009 l 6.43287,0.90218 -2.19707,3.03296 c -2.69977,3.72692 -7.51959,7.11939 -13.05171,9.18651 -4.10891,1.53533 -4.99119,1.56329 -50.5018,1.59985 -25.4759,0.0205 -49.84852,0.33079 -54.16137,0.68961 l -7.84155,0.65238 v 2.88943 c 0,2.62792 0.14854,2.85345 1.64125,2.49193 5.09973,-1.23512 41.24532,-2.10352 62.55001,-1.50276 27.41728,0.77313 40.11986,0.68883 44.31385,-0.29406 l 3.10015,-0.72655 -0.012,2.29317 c -0.0198,3.78141 -2.82638,7.81439 -6.89611,9.90949 -3.60023,1.85341 -3.74825,1.86622 -21.15394,1.83129 -9.64059,-0.0194 -25.7346,-0.17313 -35.76449,-0.34174 -16.50601,-0.27747 -19.03201,-0.155 -26.62478,1.29088 -12.90616,2.4577 -16.04782,3.54573 -16.04782,5.55773 0,0.92059 0.1724,1.84619 0.38311,2.05689 0.21071,0.21071 3.41115,-0.38492 7.1121,-1.3236 14.76736,-3.74553 24.4459,-4.1916 62.73772,-2.89153 l 19.53642,0.66329 -2.02971,2.15335 c -5.5177,5.85381 -12.32599,8.31117 -25.67509,9.26708 -13.21077,0.94601 -36.97313,2.06774 -56.22898,2.65434 l -15.68309,0.47777 -3.69889,-3.92957 c -2.0344,-2.16127 -4.62196,-5.32442 -5.75014,-7.02922 -1.12819,-1.70481 -2.28501,-3.09965 -2.57071,-3.09965 -0.2857,0 -1.10124,0.64287 -1.81232,1.42861 -1.24995,1.38117 -1.18292,1.58267 2.01867,6.0693 4.76901,6.68318 10.65386,11.81699 22.5222,19.64788 24.63367,16.25362 42.36313,33.53684 56.77947,55.35038 15.63781,23.66176 25.23114,49.73034 29.50372,80.17241 1.2256,8.73239 2.42258,35.71968 1.54861,34.91528 -0.27534,-0.25342 -1.29015,-3.95492 -2.25514,-8.22556 -2.4617,-10.89452 -6.33812,-21.94116 -11.28632,-32.16266 -4.01696,-8.29784 -11.62702,-20.77972 -14.73788,-24.17282 -1.33516,-1.4563 -1.57554,-1.48751 -3.61606,-0.46957 -1.29737,0.64721 -2.03307,1.48848 -1.81003,2.06972 0.20669,0.53862 0.88919,3.46482 1.51668,6.50269 7.31276,35.40334 -3.31049,72.52221 -27.77359,97.04413 -4.84041,4.85204 -16.33016,14.18432 -16.33016,13.26378 z"
       id="path26"
       transform="matrix(0.02799552,0,0,0.02591216,-2.1957382,-6.9700748)" />
    <path
       style="fill:#a400c4;fill-opacity:1;stroke:#000000;stroke-width:0.145889"
       d="m 447.64021,586.19326 -8.26363,-5.55414 13.00503,-0.49717 c 7.15276,-0.27345 20.50041,-0.87492 29.66143,-1.3366 9.16103,-0.46168 16.79042,-0.70541 16.95421,-0.54162 0.55115,0.55115 -10.53521,6.50536 -16.26303,8.73449 -7.03443,2.73762 -17.50186,4.95725 -22.81844,4.83866 -3.72648,-0.0831 -4.59994,-0.48469 -12.27557,-5.64362 z"
       id="path27"
       transform="matrix(0.02799552,0,0,0.02591216,-2.1957382,-6.9700748)" />
  </g>
</svg>
