<?xml version="1.0" encoding="UTF-8" standalone="no"?>
<!-- Created with Inkscape (http://www.inkscape.org/) -->

<svg
   width="210mm"
   height="297mm"
   viewBox="0 0 793.70079 1122.5197"
   version="1.1"
   id="svg1"
   inkscape:version="1.3 (0e150ed6c4, 2023-07-21)"
   sodipodi:docname="flamingo.svg"
   xmlns:inkscape="http://www.inkscape.org/namespaces/inkscape"
   xmlns:sodipodi="http://sodipodi.sourceforge.net/DTD/sodipodi-0.dtd"
   xmlns="http://www.w3.org/2000/svg"
   xmlns:svg="http://www.w3.org/2000/svg">
  <sodipodi:namedview
     id="namedview1"
     pagecolor="#505050"
     bordercolor="#eeeeee"
     borderopacity="1"
     inkscape:showpageshadow="0"
     inkscape:pageopacity="0"
     inkscape:pagecheckerboard="0"
     inkscape:deskcolor="#505050"
     inkscape:document-units="px"
     inkscape:zoom="1"
     inkscape:cx="293"
     inkscape:cy="558.5"
     inkscape:window-width="1600"
     inkscape:window-height="837"
     inkscape:window-x="-8"
     inkscape:window-y="-8"
     inkscape:window-maximized="1"
     inkscape:current-layer="layer2" />
  <defs
     id="defs1">
    <inkscape:path-effect
       effect="spiro"
       id="path-effect28"
       is_visible="true"
       lpeversion="1" />
    <inkscape:path-effect
       effect="spiro"
       id="path-effect3"
       is_visible="true"
       lpeversion="1" />
    <inkscape:path-effect
       effect="spiro"
       id="path-effect44"
       is_visible="true"
       lpeversion="1" />
    <inkscape:path-effect
       effect="spiro"
       id="path-effect21"
       is_visible="true"
       lpeversion="1" />
    <inkscape:path-effect
       effect="spiro"
       id="path-effect20"
       is_visible="true"
       lpeversion="1" />
    <inkscape:path-effect
       effect="spiro"
       id="path-effect19"
       is_visible="true"
       lpeversion="1" />
    <inkscape:path-effect
       effect="spiro"
       id="path-effect18"
       is_visible="true"
       lpeversion="1" />
    <inkscape:path-effect
       effect="spiro"
       id="path-effect17"
       is_visible="true"
       lpeversion="1" />
    <inkscape:path-effect
       effect="spiro"
       id="path-effect16"
       is_visible="true"
       lpeversion="1" />
    <inkscape:path-effect
       effect="spiro"
       id="path-effect15"
       is_visible="true"
       lpeversion="1" />
    <inkscape:path-effect
       effect="spiro"
       id="path-effect14"
       is_visible="true"
       lpeversion="1" />
    <inkscape:path-effect
       effect="spiro"
       id="path-effect13"
       is_visible="true"
       lpeversion="1" />
    <inkscape:path-effect
       effect="spiro"
       id="path-effect12"
       is_visible="true"
       lpeversion="1" />
    <inkscape:path-effect
       effect="spiro"
       id="path-effect11"
       is_visible="true"
       lpeversion="1" />
    <inkscape:path-effect
       effect="spiro"
       id="path-effect10"
       is_visible="true"
       lpeversion="1" />
    <inkscape:path-effect
       effect="spiro"
       id="path-effect4"
       is_visible="true"
       lpeversion="1" />
    <inkscape:path-effect
       effect="spiro"
       id="path-effect2"
       is_visible="true"
       lpeversion="1" />
    <inkscape:path-effect
       effect="spiro"
       id="path-effect1"
       is_visible="true"
       lpeversion="1" />
  </defs>
  <g
     inkscape:groupmode="layer"
     id="layer2"
     inkscape:label="Camada 2">
    <path
       style="fill:#f9b3d0;fill-opacity:1;fill-rule:evenodd;stroke:#000000;stroke-width:5;stroke-dasharray:none;stroke-opacity:1"
       id="path37"
       sodipodi:type="arc"
       sodipodi:cx="400.22244"
       sodipodi:cy="557.20013"
       sodipodi:rx="335.11136"
       sodipodi:ry="316.72656"
       sodipodi:start="0"
       sodipodi:end="6.2822494"
       sodipodi:open="true"
       sodipodi:arc-type="arc"
       d="M 735.3338,557.20013 A 335.11136,316.72656 0 0 1 400.30085,873.92669 335.11136,316.72656 0 0 1 65.111121,557.34835 335.11136,316.72656 0 0 1 399.98722,240.47365 335.11136,316.72656 0 0 1 735.33365,556.90371" />
  </g>
  <g
     inkscape:label="Camada 1"
     inkscape:groupmode="layer"
     id="layer1"
     transform="matrix(18.369066,0,0,17.649337,82.998726,177.27967)">
    <path
       style="fill:none;stroke:#000000;stroke-width:0.12;stroke-dasharray:none;stroke-opacity:1"
       d="m 8.0374415,8.0374415 c 0.2327894,0.0345 0.4445959,0.1885413 0.549142,0.399376 0.07369,0.1486077 0.094821,0.3226358 0.058838,0.4845606 -0.035983,0.1619248 -0.1288319,0.310624 -0.2585259,0.4140353"
       id="path2"
       transform="translate(-0.08825046,-0.14120073)"
       inkscape:original-d="m 8.0374415,8.0374415 c 0.1664067,0.1164847 0.3660946,0.2662506 0.549142,0.399376 0.1830473,0.1331253 -0.1331254,0.5990639 -0.199688,0.8985959"
       inkscape:path-effect="#path-effect2" />
    <path
       style="fill:none;stroke:#000000;stroke-width:0.27717835;stroke-dasharray:none;stroke-opacity:1"
       d="M 7.9375975,7.9375975 C 8.2906511,7.4332914 8.8045545,7.0434336 9.3853354,6.8393136 9.9579475,6.6380645 10.588997,6.6176445 11.179788,6.7567523 c 0.590792,0.1391079 1.140875,0.4346957 1.600243,0.8313912 0.926389,0.8000007 1.464541,1.9962371 1.586899,3.2141155 0.122357,1.217878 -0.147832,2.453866 -0.638381,3.575276 -0.300962,0.688009 -0.68531,1.343182 -0.900686,2.062589 -0.107688,0.359704 -0.171989,0.735064 -0.156896,1.110239 0.01509,0.375174 0.112002,0.750741 0.308752,1.070542 0.250859,0.407751 0.657178,0.709463 1.108218,0.869944 0.451041,0.160481 0.944211,0.184893 1.417083,0.110174 0.945746,-0.149437 1.785909,-0.675595 2.566743,-1.229728 1.216982,-0.863653 2.390658,-1.839018 3.794072,-2.346334 1.312944,-0.474612 2.789113,-0.501488 4.107184,-0.04131 1.318071,0.460181 2.465022,1.410516 3.131505,2.637251 0.113823,0.209504 0.213951,0.426447 0.299532,0.648986"
       id="path1"
       inkscape:original-d="M 7.9375975,7.9375975 C 8.3868955,7.5715029 8.9027561,7.2054082 9.3853354,6.8393136 9.8679147,6.4732189 11.648466,7.3385335 12.780031,7.5881435 c 1.131565,0.24961 0.632345,4.5262615 0.948518,6.7893915 0.316173,2.263131 -0.49922,2.828913 -0.74883,4.24337 -0.24961,1.414456 3.394696,-0.166407 5.092044,-0.24961 1.697348,-0.0832 2.529381,-1.564223 3.794072,-2.346334 1.26469,-0.782111 4.825793,1.730629 7.238689,2.595944 2.412897,0.865314 0.199688,0.432657 0.299532,0.648986"
       inkscape:path-effect="#path-effect1"
       transform="matrix(0.99439182,0,0,1.0093653,0.04467625,-0.06228619)" />
    <path
       style="fill:none;stroke:#000000;stroke-width:0.276535;stroke-dasharray:none;stroke-opacity:1"
       d="m 29.304212,19.419657 c -0.40688,-0.174909 -0.87886,-0.193061 -1.297972,-0.04992 -0.479291,0.163694 -0.864753,0.517617 -1.24805,0.848674 -1.704979,1.472605 -3.676118,2.670869 -5.840873,3.294852 -1.782251,0.513727 -3.720254,0.62353 -5.480403,0.03854 -0.880074,-0.292495 -1.706455,-0.757177 -2.389412,-1.384595 -0.682957,-0.627418 -1.219711,-1.419288 -1.515521,-2.298253 -0.515458,-1.531622 -0.275571,-3.232351 0.299532,-4.74259 0.426842,-1.1209 1.039332,-2.200226 1.148206,-3.394696 C 13.030531,11.174206 12.966231,10.60248 12.75889,10.08252 12.55155,9.5625597 12.197551,9.0965989 11.731669,8.7862715 11.247641,8.463857 10.648856,8.317745 10.070726,8.3809781 9.4925946,8.4442112 8.9395507,8.7163043 8.5366615,9.1357254"
       id="path4"
       transform="matrix(1.0111593,0,0,1.0037731,-0.32722858,-0.09100774)"
       inkscape:original-d="m 29.304212,19.419657 c -0.399376,-0.01664 -0.865314,-0.03328 -1.297972,-0.04992 -0.432657,-0.01664 -0.832033,0.565782 -1.24805,0.848674 -0.416016,0.282891 -3.893915,2.196568 -5.840873,3.294852 -1.946958,1.098283 -6.256891,-2.429538 -9.385336,-3.644306 -3.1284449,-1.214769 0.199688,-3.161727 0.299532,-4.74259 0.09984,-1.580863 0.765471,-2.26313 1.148206,-3.394696 C 13.362454,10.600104 12.147686,9.7680707 11.731669,8.7862715 11.315653,7.8044722 9.6016641,9.0192408 8.5366615,9.1357254"
       inkscape:path-effect="#path-effect4" />
    <path
       style="fill:none;stroke:#000000;stroke-width:0.2;stroke-dasharray:none;stroke-opacity:1"
       d="m 19.769111,23.812792 1.098284,6.689548 -0.99844,5.890795 v 0"
       id="path5" />
    <path
       style="fill:none;stroke:#000000;stroke-width:0.2;stroke-dasharray:none;stroke-opacity:1"
       d="m 21.616225,23.26365 4.243369,2.546022 -8.237129,4.093604 0.149766,-0.04992"
       id="path6" />
    <path
       style="fill:#000000;fill-opacity:1;stroke:#000000;stroke-width:0.2;stroke-dasharray:none;stroke-opacity:1"
       d="m 17.72467,29.85901 -1.164906,0.811905 0.0706,0.882504 0.141201,-0.600103 0.670704,-0.423602 -0.388302,0.529503 0.1765,0.670703 0.141201,-0.529503 1.164906,-1.694408"
       id="path7" />
    <path
       style="fill:#000000;fill-opacity:1;stroke:#000000;stroke-width:0.2;stroke-dasharray:none;stroke-opacity:1"
       d="m 19.842681,36.283644 -0.988405,0.600103 -0.282402,0.600104 0.529503,-0.353003 0.635403,-0.317701 -0.458902,0.458903 -0.0353,0.353001 0.564803,-0.282402 0.423602,-0.529502 -0.211801,-0.670704"
       id="path8" />
    <ellipse
       style="fill:#000000;fill-opacity:1;stroke:#000000;stroke-width:0.247108;stroke-dasharray:none;stroke-opacity:1"
       id="path9"
       cx="-7.4636636"
       cy="35.604271"
       rx="0.4147481"
       ry="0.69714957"
       transform="rotate(-56.703104)" />
    <ellipse
       style="fill:#000000;fill-opacity:1;stroke:#000000;stroke-width:0.247108;stroke-dasharray:none;stroke-opacity:1"
       id="path9-2"
       cx="18.778324"
       cy="31.734259"
       rx="0.4147481"
       ry="0.69714957"
       transform="rotate(-3.8278353)" />
    <path
       style="fill:none;stroke:#000000;stroke-width:0.27236951;stroke-dasharray:none;stroke-opacity:1"
       d="m 21.466489,17.150945 c -0.858188,0.601647 -1.741737,1.167118 -2.647513,1.694409 -0.223877,0.130328 -0.451187,0.259827 -0.642086,0.434938 -0.190899,0.175111 -0.345075,0.402909 -0.38162,0.659367 -0.02918,0.204763 0.01929,0.417137 0.12063,0.59744 0.101342,0.180303 0.25353,0.32936 0.427477,0.44126 0.347894,0.2238 0.769884,0.297937 1.181602,0.338007 1.378688,0.134178 2.796316,-0.06698 4.059521,-0.635403 0.540514,-0.243221 1.051427,-0.552145 1.517908,-0.917805"
       id="path10"
       transform="matrix(1.0021398,0,0,1.03724,-0.03703675,-0.79663324)"
       inkscape:original-d="m 21.466489,17.150945 c -0.882504,0.553036 -1.765009,1.129605 -2.647513,1.694409 -0.882505,0.564802 -0.682471,0.729537 -1.023706,1.094305 -0.341235,0.364769 1.15314,0.917805 1.729709,1.376707 0.57657,0.458903 2.706348,-0.423602 4.059521,-0.635403 1.353174,-0.211801 1.011939,-0.61187 1.517908,-0.917805"
       inkscape:path-effect="#path-effect10" />
    <path
       style="fill:none;stroke:#000000;stroke-width:0.28718707;stroke-dasharray:none;stroke-opacity:1"
       d="m 21.478953,17.154341 c 0.437271,-0.47629 1.122008,-0.711781 1.759737,-0.605199 0.337696,0.05644 0.654583,0.200612 0.954369,0.365998 0.299785,0.165386 0.587084,0.353379 0.892745,0.507637 0.520461,0.262661 1.091521,0.424603 1.672386,0.474259"
       id="path11"
       transform="matrix(1.0778475,0,0,0.86743605,-2.0981578,2.3954262)"
       sodipodi:nodetypes="cssc"
       inkscape:original-d="m 21.478953,17.154341 c 0.873318,-0.08488 1.177313,-0.405511 1.759737,-0.605199 0.582423,-0.199688 1.231409,0.582423 1.847114,0.873635 0.615704,0.291212 1.114924,0.316173 1.672386,0.474259"
       inkscape:path-effect="#path-effect11" />
    <path
       style="fill:none;stroke:#000000;stroke-width:0.2776913;stroke-dasharray:none;stroke-opacity:1"
       d="m 26.708566,17.892249 c 0.01736,0.104052 -0.0087,0.214656 -0.0706,0.300052 -0.0559,0.07708 -0.138893,0.132438 -0.229072,0.163015 -0.09018,0.03058 -0.187301,0.03734 -0.282126,0.02867 -0.18965,-0.01735 -0.367801,-0.0942 -0.547807,-0.156384 -0.788069,-0.27222 -1.669292,-0.26588 -2.453363,0.01765"
       id="path12"
       inkscape:original-d="m 26.708566,17.892249 c -0.02353,0.09413 -0.04707,0.200034 -0.0706,0.300052 -0.02353,0.100016 -0.706004,0.02353 -1.059005,0.0353 -0.353002,0.01177 -1.635576,0.01177 -2.453363,0.01765"
       inkscape:path-effect="#path-effect12" />
    <path
       style="fill:none;stroke:#000000;stroke-width:0.2776913;stroke-dasharray:none;stroke-opacity:1"
       d="m 26.443815,18.368801 c -0.02795,0.09864 -0.08263,0.189578 -0.156656,0.260518 -0.07402,0.07094 -0.167201,0.121703 -0.266946,0.145434 -0.08632,0.02054 -0.176087,0.021 -0.264751,0.01765 -0.561536,-0.02121 -1.116999,-0.190618 -1.676759,-0.141201 -0.357716,0.03158 -0.707032,0.154147 -1.006055,0.353002"
       id="path13"
       inkscape:original-d="m 26.443815,18.368801 c -0.135317,0.129434 -0.282401,0.270635 -0.423602,0.405952 -0.141201,0.135317 -0.176501,0.01177 -0.264751,0.01765 -0.08825,0.0059 -1.11784,-0.09413 -1.676759,-0.141201 -0.55892,-0.04707 -0.670704,0.235335 -1.006055,0.353002"
       inkscape:path-effect="#path-effect13" />
    <path
       style="fill:none;stroke:#000000;stroke-width:0.2776913;stroke-dasharray:none;stroke-opacity:1"
       d="m 26.055513,18.827703 c -0.04785,0.12277 -0.135785,0.229544 -0.247101,0.300052 -0.09767,0.06186 -0.210975,0.09545 -0.325149,0.11363 -0.114174,0.01818 -0.230094,0.02164 -0.345555,0.02757 -0.725932,0.03729 -1.446674,0.174293 -2.135661,0.405951"
       id="path14"
       inkscape:original-d="m 26.055513,18.827703 c -0.08237,0.100018 -0.164734,0.200035 -0.247101,0.300052 -0.08237,0.100017 -0.447136,0.09413 -0.670704,0.141202 -0.223568,0.04707 -1.423774,0.270633 -2.135661,0.405951"
       inkscape:path-effect="#path-effect14" />
    <path
       style="fill:none;stroke:#000000;stroke-width:0.2776913;stroke-dasharray:none;stroke-opacity:1"
       d="m 25.631911,19.268957 c -0.04513,0.105114 -0.119157,0.197649 -0.211801,0.264751 -0.123388,0.08937 -0.275168,0.131767 -0.426311,0.150926 -0.151143,0.01916 -0.304098,0.01674 -0.456194,0.02557 -0.632824,0.03676 -1.252462,0.274603 -1.747359,0.670703"
       id="path15"
       inkscape:original-d="m 25.631911,19.268957 c -0.06472,0.08237 -0.141201,0.1765 -0.211801,0.264751 -0.0706,0.08825 -0.588337,0.117667 -0.882505,0.1765 -0.294168,0.05883 -1.164906,0.447136 -1.747359,0.670703"
       inkscape:path-effect="#path-effect15" />
    <path
       style="fill:none;stroke:#000000;stroke-width:0.12;stroke-dasharray:none;stroke-opacity:1"
       d="M 7.9112191,7.9022973 6.7110129,8.5730008 C 6.4866451,8.6983828 6.262067,8.8263184 6.062995,8.9888971 5.863923,9.1514759 5.6909565,9.3489962 5.5739245,9.5778303 5.4568925,9.8066644 5.3972601,10.065547 5.4097573,10.322267 c 0.012497,0.256721 0.097055,0.509662 0.2422501,0.721747"
       id="path16"
       transform="matrix(1.0210422,0,0,0.99510678,-0.11313144,0.0536619)"
       inkscape:original-d="M 7.9112191,7.9022973 C 7.5111504,8.1258651 7.1110817,8.349433 6.7110129,8.5730008 6.3109442,8.7965686 6.0050093,10.220343 5.6520074,11.044014"
       inkscape:path-effect="#path-effect16" />
    <path
       style="fill:none;stroke:#000000;stroke-width:0.12;stroke-dasharray:none;stroke-opacity:1"
       d="m 5.7226078,10.973413 c -0.05131,-0.118889 -0.07209,-0.250805 -0.059813,-0.37971 0.012277,-0.128905 0.057584,-0.254528 0.130413,-0.361594 C 5.9334444,10.025947 6.1657522,9.8991719 6.4038136,9.8250388 6.6418751,9.7509058 6.8913899,9.722174 7.1346151,9.6673064 7.6054089,9.561103 8.0534715,9.3552364 8.4407219,9.0672033"
       id="path17"
       transform="matrix(1.0019933,0,0,0.95816752,-0.1023571,0.45915069)"
       inkscape:original-d="m 5.7226078,10.973413 c 0.023534,-0.235334 0.047067,-0.494202 0.0706,-0.741304 C 5.8167416,9.9850081 6.6874795,9.8555741 7.1346151,9.6673064 7.5817508,9.4790388 8.0053529,9.2672377 8.4407219,9.0672033"
       inkscape:path-effect="#path-effect17" />
    <path
       style="fill:none;stroke:none;stroke-width:0.113696;stroke-dasharray:none;stroke-opacity:1"
       d="M 8.5482769,7.3647421 C 8.7365178,7.2307552 8.9894594,7.1925903 9.208853,7.2650716 c 0.1338542,0.044221 0.2548137,0.1279869 0.3409689,0.2395655 0.086155,0.1115785 0.1367536,0.250736 0.1394501,0.3916801 0.00249,0.1301105 -0.035877,0.260708 -0.108344,0.3687981 -0.072467,0.1080902 -0.1787061,0.1931838 -0.3000121,0.2402983"
       id="path20"
       transform="matrix(1.1016208,0,0,0.9847518,-1.0233567,0.1871627)"
       inkscape:original-d="M 8.5482769,7.3647421 C 8.7764759,7.3389016 8.988661,7.2982952 9.208853,7.2650716 9.4290451,7.2318482 9.5291324,7.685902 9.689272,7.8963172 9.8494117,8.1067322 9.4170346,8.3023815 9.2809159,8.5054136"
       inkscape:path-effect="#path-effect21" />
    <path
       style="fill:#e28fcb;fill-opacity:1;stroke:none;stroke-width:0.000390625;stroke-dasharray:none;stroke-opacity:1"
       d=""
       id="path31"
       transform="matrix(1.3609534,0,0,1.2548922,-2.47734,3.8319826)" />
    <path
       style="fill:#e28fcb;fill-opacity:1;stroke:none;stroke-width:0.000390625;stroke-dasharray:none;stroke-opacity:1"
       d=""
       id="path32"
       transform="matrix(1.3609534,0,0,1.2548922,-2.47734,3.8319826)" />
    <path
       style="fill:#e28fcb;fill-opacity:1;stroke:none;stroke-width:0.999738;stroke-dasharray:none;stroke-opacity:1"
       d="M 7.8680323,6.4937267 6.8845309,7.1456823"
       id="path35" />
    <path
       style="fill:none;fill-opacity:1;stroke:#000000;stroke-width:0.0653424;stroke-dasharray:none;stroke-opacity:1"
       d="m 8.8301477,7.0763297 c 0.2118314,-0.071128 0.4408916,-0.090329 0.6616083,-0.055459 0.1993445,0.031494 0.3958813,0.1096409 0.541316,0.2495652 0.143991,0.1385356 0.230772,0.3348346 0.236326,0.5345714 0.0056,0.1997369 -0.07019,0.4005548 -0.206256,0.5468776"
       id="path3"
       inkscape:path-effect="#path-effect3"
       inkscape:original-d="m 8.8301477,7.0763297 c 0.2105117,-0.018486 0.4410722,-0.036973 0.6616083,-0.055459 0.2205361,-0.018486 0.3608772,0.1663768 0.541316,0.2495652 0.180439,0.083188 0.02005,0.720966 0.03007,1.081449"
       transform="translate(0.21051176,-0.08318838)" />
    <path
       style="fill:none;stroke:#000000;stroke-width:0.130685;stroke-dasharray:none;stroke-opacity:1"
       d="m 8.9538193,7.8726963 c 0.02193,-0.1016427 0.076144,-0.1960669 0.1528684,-0.2662486 0.097522,-0.089205 0.231135,-0.1377516 0.3631743,-0.1319541 0.1320394,0.0058 0.2608837,0.065868 0.3502115,0.1632771"
       id="path18"
       inkscape:original-d="m 8.9538193,7.8726963 c 0.039632,-0.083529 0.1019123,-0.1774991 0.1528684,-0.2662486 0.050956,-0.08875 0.4755906,0.020883 0.7133858,0.031323"
       inkscape:path-effect="#path-effect18"
       transform="translate(0.09021932,0.05545903)" />
    <path
       style="fill:#ffe06b;fill-opacity:1;stroke:#000000;stroke-width:0.00110485;stroke-dasharray:none;stroke-opacity:1"
       d="M 8.1646578,3.7964788 C 8.1643145,3.557222 8.0373207,3.341736 7.8357025,3.2382996 L 7.7580495,3.1984613 8.0001315,2.955842 C 8.1625667,2.7930462 8.2966159,2.6812835 8.407567,2.6161453 l 0.1653536,-0.097077 0.232394,1.55e-4 c 0.2086933,1.393e-4 0.2436618,0.00613 0.3428794,0.058706 0.2135497,0.1131701 0.3271292,0.2945625 0.3298024,0.5267113 0.00167,0.1449114 -0.028165,0.2500938 -0.1009882,0.3560477 -0.021826,0.031755 -0.034223,0.063197 -0.02755,0.069871 0.00667,0.00667 -0.055768,0.018611 -0.1387597,0.026528 C 8.8673699,3.5898377 8.5825346,3.680156 8.3495072,3.8301616 8.2783422,3.8759723 8.2076867,3.9209877 8.192495,3.930196 8.1714704,3.9429397 8.1648221,3.9110039 8.1646578,3.7964788 Z M 8.555277,3.1988449 c 0.085096,-0.1735394 0.2817034,-0.23215 0.4334054,-0.1292022 0.07702,0.052267 0.079473,0.052508 0.1166187,0.011463 0.032682,-0.036113 0.03369,-0.047067 0.00727,-0.078989 -0.016869,-0.020384 -0.070446,-0.055155 -0.1190593,-0.077269 -0.2158397,-0.098183 -0.4570995,0.00348 -0.5530097,0.2330217 -0.029339,0.070218 -0.030532,0.089135 -0.00658,0.1043212 0.053598,0.033982 0.080517,0.01993 0.1213512,-0.063345 z"
       id="path21"
       transform="matrix(1.3609534,0,0,1.2548922,-2.47734,3.8319826)" />
    <path
       style="fill:#f53385;fill-opacity:1;stroke:#000000;stroke-width:0.00078125;stroke-dasharray:none;stroke-opacity:1"
       d="m 16.5,13.896131 c -0.690814,-0.02983 -1.071402,-0.155829 -1.328784,-0.439924 -0.0949,-0.104752 -0.179762,-0.265794 -0.210641,-0.399744 -0.02817,-0.122191 -0.0122,-0.315989 0.03571,-0.43349 0.09927,-0.243446 0.263211,-0.407167 0.691211,-0.690309 0.667248,-0.441415 1.283669,-0.881688 1.79054,-1.278876 0.09105,-0.07135 0.210578,-0.150626 0.265625,-0.17618 0.251032,-0.116531 0.574614,-0.169992 0.854852,-0.141234 0.299035,0.03069 0.527534,0.113782 1.101339,0.400511 0.213047,0.106459 0.457722,0.221594 0.543723,0.255857 0.310949,0.123882 0.740209,0.23405 1.008917,0.258935 0.06153,0.0057 0.120358,0.01561 0.130731,0.02202 0.02997,0.01852 -0.01013,0.117497 -0.07193,0.177518 -0.108467,0.105342 -0.264764,0.115318 -0.498798,0.03183 -0.453149,-0.161644 -0.654758,-0.207201 -0.976761,-0.220716 -0.310387,-0.01303 -0.602085,0.02661 -0.902145,0.122592 -0.07949,0.02543 -0.144531,0.04837 -0.144531,0.05098 0,0.0026 0.0079,0.02732 0.01749,0.05491 0.01289,0.03699 0.02418,0.04754 0.04297,0.04017 0.10503,-0.04119 0.28188,-0.09066 0.429152,-0.120025 0.141513,-0.02822 0.227562,-0.03479 0.455705,-0.03479 0.338785,0 0.529777,0.03252 0.833327,0.141906 0.289807,0.10443 0.388956,0.130366 0.498366,0.130366 0.0539,0 0.09799,0.0046 0.09799,0.01024 0,0.02868 -0.08793,0.119202 -0.152874,0.157377 -0.06939,0.04079 -0.08418,0.04326 -0.253376,0.04226 -0.119923,-7.07e-4 -0.294022,-0.01843 -0.523438,-0.05329 -0.588647,-0.08944 -0.888129,-0.06864 -1.220108,0.08474 -0.134307,0.06205 -0.272079,0.145514 -0.272079,0.164822 0,0.0067 0.01322,0.0286 0.02939,0.04856 l 0.02939,0.03629 0.06124,-0.04052 c 0.03368,-0.02229 0.09765,-0.05898 0.142157,-0.08153 0.335076,-0.169796 0.62136,-0.194163 1.214397,-0.103365 0.180469,0.02763 0.408984,0.05477 0.507813,0.0603 l 0.179687,0.01006 -0.08594,0.08785 c -0.12475,0.127531 -0.191905,0.14812 -0.581952,0.178423 -0.493567,0.03834 -0.907461,0.11762 -1.345902,0.257787 l -0.194845,0.06229 0.01399,0.04879 c 0.0077,0.02683 0.01654,0.05133 0.01965,0.05445 0.0031,0.0031 0.05782,-0.01224 0.121576,-0.03412 0.296834,-0.101847 0.63628,-0.184006 0.961813,-0.232796 0.189997,-0.02848 0.741663,-0.0747 0.753248,-0.06312 0.01429,0.01429 -0.112201,0.133953 -0.176822,0.167286 -0.100661,0.05192 -0.141949,0.05949 -0.45357,0.08307 -0.429482,0.03251 -0.661135,0.09385 -0.975773,0.258393 -0.167319,0.0875 -0.422942,0.268857 -0.422168,0.299515 9.78e-4,0.0387 0.04596,0.0824 0.06815,0.06621 0.218104,-0.159206 0.290944,-0.206716 0.418223,-0.272789 0.283738,-0.147293 0.565508,-0.221095 0.926229,-0.242599 0.202159,-0.01205 0.202501,-0.0162 -0.012,0.145716 -0.489503,0.369489 -1.092783,0.675832 -1.651099,0.83842 -0.589671,0.171718 -1.14625,0.236732 -1.789063,0.208978 z"
       id="path26"
       transform="matrix(1.3609534,0,0,1.2548922,-2.47734,3.8319826)" />
    <path
       style="fill:#f53385;fill-opacity:1;stroke:#000000;stroke-width:0.00078125;stroke-dasharray:none;stroke-opacity:1"
       d="M 14.543885,15.960369 C 12.864481,15.836229 11.444326,15.006719 10.652641,13.6875 9.9317083,12.486179 9.8327913,11.009453 10.359595,9.3126359 10.44168,9.0482452 10.504645,8.8777256 10.757753,8.234375 11.059137,7.4683147 11.197204,7.0317114 11.264218,6.6328125 11.382879,5.9264758 11.31025,5.3000152 11.045161,4.7433495 10.931918,4.5055469 10.811298,4.3292458 10.63832,4.1487 10.336792,3.8339793 9.9629005,3.6355885 9.5753438,3.5846739 9.3835943,3.5594831 9.3914252,3.5646138 9.43779,3.4945519 9.6577548,3.1621626 9.5427927,2.6988449 9.1970464,2.5243127 9.0971719,2.4738963 8.944057,2.4313771 8.8515625,2.4283736 l -0.054687,-0.00178 0.070312,-0.022549 c 0.1900318,-0.060942 0.3039401,-0.075463 0.59375,-0.075694 0.2208058,-1.758e-4 0.3204237,0.00647 0.421875,0.028141 C 11.350388,2.6700018 12.377304,4.2971477 12.315407,6.2109375 12.29549,6.8267652 12.196603,7.3721594 11.991029,8 c -0.09989,0.3050817 -0.196202,0.5466677 -0.465924,1.1687456 -0.417968,0.9639894 -0.535331,1.5562604 -0.429432,2.1671234 0.127755,0.73693 0.670196,1.272412 1.409823,1.391735 0.155129,0.02503 0.494027,0.0201 0.66969,-0.0097 0.448178,-0.07613 0.879192,-0.266585 1.387314,-0.613019 0.245832,-0.167607 0.477822,-0.344946 1.054688,-0.806232 0.919357,-0.735157 1.360553,-1.040862 1.872669,-1.297578 0.609739,-0.3056518 1.218988,-0.4509632 1.892956,-0.4514861 0.487734,-3.784e-4 0.845725,0.057795 1.293591,0.2102072 0.679624,0.2312811 1.335163,0.6874489 1.82626,1.2708329 0.261302,0.310407 0.525065,0.743462 0.684269,1.123456 0.05649,0.134835 0.0651,0.166597 0.04334,0.159914 -0.123317,-0.03788 -0.254385,-0.05568 -0.409962,-0.05568 -0.280154,0 -0.486569,0.06024 -0.729925,0.213025 -0.177436,0.111398 -0.280597,0.195637 -0.615139,0.502308 -1.061611,0.973167 -1.957847,1.602271 -3.022124,2.121351 -0.98127,0.478595 -1.90673,0.751488 -2.882812,0.850063 -0.232472,0.02348 -0.80137,0.03198 -1.026428,0.01535 z m 2.84674,-1.975458 c 0.546717,-0.06236 1.057829,-0.19902 1.54767,-0.413823 0.465403,-0.204088 0.86085,-0.455131 1.345325,-0.85406 0.01159,-0.0095 0.02107,-0.02407 0.02107,-0.03228 0,-0.0082 0.04043,-0.03168 0.08984,-0.05214 0.138507,-0.05736 0.300782,-0.228443 0.300782,-0.317113 0,-0.01193 0.02819,-0.0344 0.06264,-0.04993 0.103567,-0.0467 0.265332,-0.241764 0.244821,-0.295214 -0.0041,-0.01069 0.02381,-0.03553 0.0637,-0.05668 0.08279,-0.04392 0.176977,-0.156263 0.215435,-0.256964 0.01486,-0.03892 0.03177,-0.07076 0.03756,-0.07076 0.02507,0 0.117495,-0.107039 0.144183,-0.166984 0.03248,-0.07295 0.04367,-0.199137 0.01977,-0.223029 -0.0085,-0.0085 -0.09972,-0.02656 -0.202605,-0.04003 -0.539513,-0.07063 -0.881647,-0.183402 -1.49708,-0.49344 -0.561808,-0.283025 -0.778759,-0.365327 -1.088427,-0.412905 -0.190279,-0.02923 -0.323231,-0.02892 -0.526353,0.0012 -0.351141,0.05214 -0.672067,0.199129 -0.903335,0.413745 -0.161348,0.14973 -0.787722,0.600114 -1.476562,1.0617 -0.401383,0.268962 -0.50019,0.342859 -0.626333,0.468426 -0.123283,0.12272 -0.161329,0.172576 -0.215126,0.2819 -0.144017,0.292668 -0.144497,0.550376 -0.0016,0.840348 0.175995,0.35705 0.535993,0.574343 1.079376,0.651506 0.408749,0.05804 0.944196,0.06451 1.365211,0.01649 z"
       id="path27"
       transform="matrix(1.3609534,0,0,1.2548922,-2.47734,3.8319826)" />
    <path
       style="fill:none;fill-opacity:1;stroke:#000000;stroke-width:0.0653424;stroke-dasharray:none;stroke-opacity:1"
       d="M 5.657435,9.5026576 5.9581661,9.613575 c 0.036905,0.013612 0.074142,0.027957 0.1057904,0.051315 0.031649,0.023359 0.057222,0.056057 0.067673,0.093979 0.010451,0.037922 0.00493,0.08029 -0.016345,0.1133741 -0.021277,0.033084 -0.057876,0.055901 -0.096973,0.060221"
       id="path28"
       inkscape:path-effect="#path-effect28"
       inkscape:original-d="m 5.657435,9.5026576 c 0.1002438,0.036973 0.2004874,0.073945 0.3007311,0.1109174 0.1002438,0.036973 0.040098,0.2125926 0.060146,0.3188888"
       transform="matrix(1.0508486,0,0,1.0496611,-0.2871139,-0.47037475)" />
    <path
       style="fill:#000000;fill-opacity:1;stroke:#000000;stroke-width:0.000195313;stroke-dasharray:none;stroke-opacity:1"
       d="m 5.8620907,5.3300781 c -0.016098,-0.086405 -0.018346,-0.1131225 -0.018076,-0.2148437 2.145e-4,-0.08086 0.00181,-0.1095449 0.00847,-0.1523928 0.021189,-0.1363423 0.058374,-0.2556619 0.1145738,-0.3676541 0.010639,-0.021201 0.020194,-0.038547 0.021233,-0.038547 0.00443,0 0.2390921,0.095023 0.2567152,0.1039533 0.052803,0.026757 0.08213,0.076342 0.073152,0.123683 -0.0054,0.028485 -0.015277,0.039047 -0.057443,0.061444 C 6.0463184,4.959599 5.9115653,5.1339967 5.8757597,5.3439281 L 5.8704602,5.375 Z"
       id="path34"
       transform="matrix(1.3609534,0,0,1.2548922,-2.47734,3.8319826)" />
    <path
       style="fill:#363636;fill-opacity:1;stroke:#000000;stroke-width:0.000195313;stroke-dasharray:none;stroke-opacity:1"
       d="M 6.3723431,4.757525 C 6.3709931,4.726684 6.3689931,4.718217 6.3575411,4.694915 6.339932,4.659082 6.3094471,4.6291851 6.2695313,4.6086026 6.2523438,4.5997399 6.1890625,4.5728355 6.1289063,4.548815 6.06875,4.5247946 6.0189291,4.5045544 6.018193,4.5038367 6.017457,4.5031191 6.0327108,4.4791107 6.0520904,4.4504847 6.1825535,4.2577749 6.3524145,4.104499 6.625,3.9335135 6.7373058,3.8630672 7.6826042,3.306775 7.6862148,3.3090066 c 0.00207,0.00128 0.00604,-8.016e-4 0.00883,-0.00462 0.00481,-0.00658 0.00668,-0.00637 0.035873,0.00397 0.070754,0.025077 0.1280705,0.061991 0.1851129,0.1192209 0.093386,0.093693 0.1439747,0.2053518 0.1560824,0.3445017 0.013045,0.1499241 -0.040079,0.3101713 -0.1378247,0.415746 C 7.8772891,4.2493968 7.6903858,4.3688009 7.515625,4.4552954 7.3985712,4.513229 7.3222471,4.5448864 7.2050781,4.5841028 7.0687218,4.6297413 6.9925069,4.6483903 6.7421875,4.6973676 6.6077346,4.7236745 6.5095588,4.7477595 6.4349984,4.7727287 l -0.061095,0.02046 z"
       id="path36"
       transform="matrix(1.3609534,0,0,1.2548922,-2.47734,3.8319826)" />
  </g>
</svg>
