<?xml version="1.0" encoding="UTF-8" standalone="no"?>
<!-- Created with Inkscape (http://www.inkscape.org/) -->

<svg
   width="210mm"
   height="297mm"
   viewBox="0 0 793.70081 1122.5197"
   version="1.1"
   id="svg1"
   inkscape:version="1.3 (0e150ed6c4, 2023-07-21)"
   sodipodi:docname="cegonha.svg"
   xmlns:inkscape="http://www.inkscape.org/namespaces/inkscape"
   xmlns:sodipodi="http://sodipodi.sourceforge.net/DTD/sodipodi-0.dtd"
   xmlns="http://www.w3.org/2000/svg"
   xmlns:svg="http://www.w3.org/2000/svg">
  <sodipodi:namedview
     id="namedview1"
     pagecolor="#505050"
     bordercolor="#eeeeee"
     borderopacity="1"
     inkscape:showpageshadow="0"
     inkscape:pageopacity="0"
     inkscape:pagecheckerboard="0"
     inkscape:deskcolor="#505050"
     inkscape:document-units="mm"
     inkscape:zoom="0.40378396"
     inkscape:cx="371.48578"
     inkscape:cy="506.45895"
     inkscape:window-width="1600"
     inkscape:window-height="837"
     inkscape:window-x="-8"
     inkscape:window-y="-8"
     inkscape:window-maximized="1"
     inkscape:current-layer="layer1" />
  <defs
     id="defs1">
    <inkscape:path-effect
       effect="spiro"
       id="path-effect73"
       is_visible="true"
       lpeversion="1" />
    <inkscape:path-effect
       effect="spiro"
       id="path-effect72"
       is_visible="true"
       lpeversion="1" />
    <inkscape:path-effect
       effect="spiro"
       id="path-effect70"
       is_visible="true"
       lpeversion="1" />
    <inkscape:path-effect
       effect="spiro"
       id="path-effect53"
       is_visible="true"
       lpeversion="1" />
    <inkscape:path-effect
       effect="spiro"
       id="path-effect50"
       is_visible="true"
       lpeversion="1" />
    <inkscape:path-effect
       effect="spiro"
       id="path-effect49"
       is_visible="true"
       lpeversion="1" />
    <inkscape:path-effect
       effect="spiro"
       id="path-effect40"
       is_visible="true"
       lpeversion="1" />
    <inkscape:path-effect
       effect="spiro"
       id="path-effect39"
       is_visible="true"
       lpeversion="1" />
    <inkscape:path-effect
       effect="spiro"
       id="path-effect32"
       is_visible="true"
       lpeversion="1" />
    <inkscape:path-effect
       effect="spiro"
       id="path-effect31"
       is_visible="true"
       lpeversion="1" />
    <inkscape:path-effect
       effect="spiro"
       id="path-effect30"
       is_visible="true"
       lpeversion="1" />
    <inkscape:path-effect
       effect="spiro"
       id="path-effect29"
       is_visible="true"
       lpeversion="1" />
    <inkscape:path-effect
       effect="spiro"
       id="path-effect27"
       is_visible="true"
       lpeversion="1" />
    <inkscape:path-effect
       effect="spiro"
       id="path-effect26"
       is_visible="true"
       lpeversion="1" />
    <inkscape:path-effect
       effect="spiro"
       id="path-effect25"
       is_visible="true"
       lpeversion="1" />
    <inkscape:path-effect
       effect="spiro"
       id="path-effect24"
       is_visible="true"
       lpeversion="1" />
    <inkscape:path-effect
       effect="spiro"
       id="path-effect23"
       is_visible="true"
       lpeversion="1" />
    <inkscape:path-effect
       effect="spiro"
       id="path-effect22"
       is_visible="true"
       lpeversion="1" />
    <inkscape:path-effect
       effect="spiro"
       id="path-effect21"
       is_visible="true"
       lpeversion="1" />
    <inkscape:path-effect
       effect="spiro"
       id="path-effect20"
       is_visible="true"
       lpeversion="1" />
    <inkscape:path-effect
       effect="spiro"
       id="path-effect19"
       is_visible="true"
       lpeversion="1" />
    <inkscape:path-effect
       effect="spiro"
       id="path-effect18"
       is_visible="true"
       lpeversion="1" />
    <inkscape:path-effect
       effect="spiro"
       id="path-effect16"
       is_visible="true"
       lpeversion="1" />
    <inkscape:path-effect
       effect="spiro"
       id="path-effect15"
       is_visible="true"
       lpeversion="1" />
    <inkscape:path-effect
       effect="spiro"
       id="path-effect14"
       is_visible="true"
       lpeversion="1" />
    <inkscape:path-effect
       effect="spiro"
       id="path-effect13"
       is_visible="true"
       lpeversion="1" />
    <inkscape:path-effect
       effect="spiro"
       id="path-effect12"
       is_visible="true"
       lpeversion="1" />
    <inkscape:path-effect
       effect="spiro"
       id="path-effect11"
       is_visible="true"
       lpeversion="1" />
    <inkscape:path-effect
       effect="spiro"
       id="path-effect10"
       is_visible="true"
       lpeversion="1" />
    <inkscape:path-effect
       effect="spiro"
       id="path-effect9"
       is_visible="true"
       lpeversion="1" />
    <inkscape:path-effect
       effect="spiro"
       id="path-effect8"
       is_visible="true"
       lpeversion="1" />
    <inkscape:path-effect
       effect="spiro"
       id="path-effect7"
       is_visible="true"
       lpeversion="1" />
    <inkscape:path-effect
       effect="spiro"
       id="path-effect6"
       is_visible="true"
       lpeversion="1" />
    <inkscape:path-effect
       effect="spiro"
       id="path-effect3"
       is_visible="true"
       lpeversion="1" />
    <inkscape:path-effect
       effect="spiro"
       id="path-effect2"
       is_visible="true"
       lpeversion="1" />
    <inkscape:path-effect
       effect="spiro"
       id="path-effect1"
       is_visible="true"
       lpeversion="1" />
    <inkscape:path-effect
       effect="spiro"
       id="path-effect26-5"
       is_visible="true"
       lpeversion="1" />
    <inkscape:path-effect
       effect="spiro"
       id="path-effect29-4"
       is_visible="true"
       lpeversion="1" />
    <inkscape:path-effect
       effect="spiro"
       id="path-effect30-9"
       is_visible="true"
       lpeversion="1" />
    <inkscape:path-effect
       effect="spiro"
       id="path-effect32-5"
       is_visible="true"
       lpeversion="1" />
    <inkscape:path-effect
       effect="spiro"
       id="path-effect53-1"
       is_visible="true"
       lpeversion="1" />
    <inkscape:path-effect
       effect="spiro"
       id="path-effect53-9"
       is_visible="true"
       lpeversion="1" />
    <inkscape:path-effect
       effect="spiro"
       id="path-effect53-3"
       is_visible="true"
       lpeversion="1" />
    <inkscape:path-effect
       effect="spiro"
       id="path-effect53-8"
       is_visible="true"
       lpeversion="1" />
    <inkscape:path-effect
       effect="spiro"
       id="path-effect53-12"
       is_visible="true"
       lpeversion="1" />
    <inkscape:path-effect
       effect="spiro"
       id="path-effect53-0"
       is_visible="true"
       lpeversion="1" />
    <inkscape:path-effect
       effect="spiro"
       id="path-effect53-2"
       is_visible="true"
       lpeversion="1" />
    <inkscape:path-effect
       effect="spiro"
       id="path-effect53-39"
       is_visible="true"
       lpeversion="1" />
  </defs>
  <g
     inkscape:groupmode="layer"
     id="layer4"
     inkscape:label="Camada 2"
     transform="matrix(1.0941177,0,0,1.0819672,-15.850061,-54.261289)"
     style="stroke:#000000;stroke-opacity:1;stroke-width:4.59548068;stroke-dasharray:none;fill:#c6ebf4;fill-opacity:1">
    <path
       style="fill:#c6ebf4;fill-opacity:1;fill-rule:evenodd;stroke:#000000;stroke-width:4.59548;stroke-dasharray:none;stroke-opacity:1"
       id="path75"
       sodipodi:type="arc"
       sodipodi:cx="378.9155"
       sodipodi:cy="572.76385"
       sodipodi:rx="315.76291"
       sodipodi:ry="302.14175"
       sodipodi:start="0"
       sodipodi:end="6.2822494"
       sodipodi:open="true"
       sodipodi:arc-type="arc"
       d="M 694.67841,572.76385 A 315.76291,302.14175 0 0 1 378.98938,874.9056 315.76291,302.14175 0 0 1 63.152622,572.90524 315.76291,302.14175 0 0 1 378.69385,270.62218 315.76291,302.14175 0 0 1 694.67827,572.48108" />
  </g>
  <g
     inkscape:label="Camada 1"
     inkscape:groupmode="layer"
     id="layer1">
    <g
       id="g22"
       transform="matrix(0.61623032,0,0,0.61136604,95.98424,168.42305)">
      <path
         style="fill:none;stroke:#000000;stroke-width:5;stroke-dasharray:none"
         d="m 283.56749,268.70806 c -1.57576,-5.60695 -5.48876,-10.36247 -10.20825,-13.77528 -4.7195,-3.41281 -10.22097,-5.58957 -15.79576,-7.27558 -8.60257,-2.60172 -17.69577,-4.11732 -26.59525,-2.86332 -8.89948,1.254 -17.61585,5.52618 -22.93619,12.7696 -3.2149,4.37695 -5.08834,9.70115 -5.47155,15.11838 -0.3832,5.41724 0.70755,10.91323 2.99497,15.83877 2.63059,5.6645 6.83159,10.56858 11.93887,14.16334 5.10728,3.59476 11.10285,5.8862 17.28605,6.76638 12.36638,1.76036 25.22159,-2.22631 35.16596,-9.78514 4.76975,-3.62554 8.98295,-8.11808 11.62527,-13.49518 2.64231,-5.3771 3.61684,-11.69417 1.99588,-17.46197 z"
         id="path19"
         inkscape:path-effect="#path-effect19"
         inkscape:original-d="m 283.56749,268.70806 c 4.54038,-10.31905 -17.336,-14.03391 -26.00401,-21.05086 -8.668,-7.01696 -33.02095,6.60419 -49.53144,9.90628 -16.51048,3.3021 -1.65105,20.6381 -2.47658,30.95715 -0.82552,10.31905 42.92726,7.42972 64.39088,11.14458 21.46363,3.71485 9.08077,-20.6381 13.62115,-30.95715 z"
         transform="translate(456.92752,76.773729)" />
      <path
         style="fill:none;stroke:#000000;stroke-width:5;stroke-dasharray:none"
         d="m 220.41491,246.41891 c -3.32627,-11.02516 -6.21859,-22.18123 -8.66802,-33.43372 -3.81935,-17.54577 -6.84825,-36.01008 -17.43105,-50.51683 -5.2914,-7.25338 -12.49508,-13.29992 -20.99295,-16.19761 -4.24893,-1.44884 -8.7851,-2.09538 -13.2605,-1.74415 -4.4754,0.35123 -8.88533,1.71138 -12.70636,4.06771 -4.39995,2.71333 -7.952,6.70626 -10.42189,11.24734 -2.46988,4.54108 -3.88167,9.61734 -4.43755,14.75667 -1.46797,13.57186 3.00263,27.25866 10.01645,38.97004 7.01382,11.71139 16.46864,21.73726 25.89385,31.61226 11.89127,12.45874 23.86169,24.84193 35.91029,37.14858"
         id="path20"
         inkscape:path-effect="#path-effect20"
         inkscape:original-d="m 220.41491,246.41891 c -2.88934,-10.31905 -5.77867,-22.28915 -8.66802,-33.43372 -2.88933,-11.14458 -42.92724,-42.92726 -64.39086,-64.39088 -21.46363,-21.46362 -9.90629,17.336 -14.85944,26.00401 -4.95314,8.668 23.9402,47.05487 35.9103,70.5823 11.97009,23.52744 23.94019,24.76572 35.91029,37.14858"
         transform="translate(456.92752,76.773729)" />
      <path
         style="fill:none;stroke:#000000;stroke-width:5;stroke-dasharray:none"
         d="m 261.27834,246.41891 c 19.53683,-24.34268 46.04269,-43.02714 75.53544,-53.2463 5.45504,-1.89016 11.06795,-3.50773 16.83204,-3.83224 5.7641,-0.32451 11.73558,0.72561 16.60168,3.83224 3.61994,2.31105 6.51298,5.69895 8.39967,9.55709 1.8867,3.85815 2.78177,8.17266 2.77639,12.46741 -0.0108,8.5895 -3.58172,16.89367 -8.69948,23.79208 -10.89548,14.68639 -28.03165,23.17191 -44.5783,30.95715 -15.20806,7.15543 -30.48109,14.17277 -45.81658,21.05086"
         id="path21"
         inkscape:path-effect="#path-effect21"
         inkscape:original-d="m 261.27834,246.41891 c 24.35296,-17.74876 50.35696,-35.49754 75.53544,-53.2463 25.17848,-17.74877 22.28915,0 33.43372,0 11.14458,0 1.65105,30.54439 2.47658,45.81658 0.82552,15.2722 -29.71887,20.6381 -44.5783,30.95715 -14.85943,10.31905 -30.54438,14.03391 -45.81658,21.05086"
         transform="translate(456.92752,76.773729)" />
      <path
         style="fill:none;stroke:#000000;stroke-width:5;stroke-dasharray:none"
         d="m 99.062876,326.9075 -63.152583,70.58229 c -16.993223,18.99242 -33.9176412,38.1878 -47.853211,59.52513 -13.93557,21.33733 -24.847159,44.80887 -30.552546,69.64696 -11.410775,49.67616 -0.03713,104.33044 31.350891,144.48911 22.477162,28.75788 54.467692,50.02295 89.780281,59.25657 35.312592,9.23363 73.743062,6.31432 107.107182,-8.48684 27.59872,-12.24348 51.57922,-32.45633 68.47477,-57.47897 16.89554,-25.02264 26.67385,-54.76559 28.11154,-84.92392 1.95555,-41.02144 -11.24869,-81.52678 -30.1801,-117.97104 -18.93142,-36.44427 -43.52113,-69.58147 -66.40621,-103.68215 -6.31606,-9.41146 -12.50821,-18.90608 -18.57429,-28.48057"
         id="path22"
         inkscape:path-effect="#path-effect22"
         inkscape:original-d="m 99.062876,326.9075 c -21.05086,23.52743 -42.101722,47.05486 -63.152583,70.58229 -21.050862,23.52744 -31.3699112,182.4408 -47.054866,273.6612 -15.684956,91.2204 131.258313,33.84649 196.887463,50.76973 65.62916,16.92324 64.39088,-94.93527 96.58631,-142.40289 C 314.52464,532.0502 217.93833,431.74904 185.74289,357.86464 153.54746,283.98025 173.36003,338.87759 167.1686,329.38407"
         transform="matrix(0.9961883,0,0,1.0120829,565.72673,39.39193)" />
      <path
         style="fill:none;fill-opacity:1;stroke:#000000;stroke-width:5;stroke-dasharray:none;stroke-opacity:1"
         d="m 928.71447,333.09893 c -4.19302,5.46325 -7.17416,11.85142 -8.668,18.57428 -3.27185,14.72465 1.01626,30.92419 11.14457,42.10173"
         id="path50"
         inkscape:path-effect="#path-effect50"
         inkscape:original-d="m 928.71447,333.09893 c -2.88934,5.77866 -5.77867,12.38285 -8.668,18.57428 -2.88934,6.19143 7.42971,28.06782 11.14457,42.10173"
         transform="translate(-241.66571,-9.6316044)" />
      <path
         style="fill:#b0b0ff;fill-opacity:1;stroke:#000000;stroke-width:0;stroke-dasharray:none;stroke-opacity:1"
         d="m 575.18779,539.547 c 0.0687,-4.66307 -0.30154,-6.12526 -2.32737,-9.19218 -1.38075,-2.09034 -4.27332,-4.7118 -6.77666,-6.14152 l -4.36763,-2.49445 7.65226,-7.44382 c 8.60506,-8.37067 14.93059,-12.89684 25.16427,-18.00603 14.28447,-7.13158 24.63358,-9.0798 30.35249,-5.71389 9.03511,5.3177 8.35356,18.53413 -1.47739,28.64945 -5.44013,5.59748 -11.89017,9.45771 -29.44072,17.61972 -20.78076,9.66426 -18.87742,9.3883 -18.77925,2.72272 z"
         id="path61"
         transform="matrix(1.6227699,0,0,1.6356813,-189.55894,-530.02891)" />
      <path
         style="fill:#b0b0ff;fill-opacity:1;stroke:#000000;stroke-width:0;stroke-dasharray:none;stroke-opacity:1"
         d="m 540.91744,554.33394 c -5.33484,-8.05414 -5.9539,-18.29477 -1.63907,-27.11395 2.27911,-4.65835 2.58316,-4.92366 5.62837,-4.91142 4.42193,0.0178 13.52486,2.25215 17.55807,4.30974 1.83636,0.93684 4.5821,3.11934 6.10164,4.85 8.42755,9.59845 -3.10502,25.18859 -19.61311,26.5137 l -5.33582,0.42831 z"
         id="path60"
         transform="matrix(1.6227699,0,0,1.6356813,-189.55894,-530.02891)" />
      <path
         style="fill:#b0b0ff;fill-opacity:1;stroke:#000000;stroke-width:0;stroke-dasharray:none;stroke-opacity:1"
         d="m 532.57365,553.70898 c -3.03986,-2.26775 -6.4641,-8.09492 -7.23494,-12.31198 -1.01996,-5.57989 2.12421,-12.37323 7.30947,-15.79297 3.27264,-2.15834 3.89957,-1.94208 2.46607,0.8507 -2.43864,4.75098 -3.36097,11.94296 -2.28945,17.85207 0.54813,3.02272 1.55546,6.57658 2.23851,7.89747 2.06439,3.99208 1.39052,4.39936 -2.48966,1.50471 z"
         id="path59"
         transform="matrix(1.6227699,0,0,1.6356813,-189.55894,-530.02891)" />
      <path
         style="fill:#b0b0ff;fill-opacity:1;stroke:#000000;stroke-width:0;stroke-dasharray:none;stroke-opacity:1"
         d="m 509.80332,525.87161 c -17.99555,-18.57398 -22.61553,-24.72352 -26.03003,-34.64794 -5.34184,-15.52631 1.76783,-29.80797 14.79513,-29.71997 6.11717,0.0413 10.66348,2.29628 15.74571,7.80984 5.10444,5.53767 7.62314,11.44672 11.12959,26.11085 1.63392,6.8331 3.73896,15.33505 4.67788,18.89322 l 1.70713,6.46938 -3.95974,3.60002 c -2.77766,2.52533 -4.42386,4.97837 -5.51448,8.21726 l -1.55475,4.61723 z"
         id="path58"
         transform="matrix(1.6227699,0,0,1.6356813,-189.55894,-530.02891)" />
      <path
         style="fill:#b0b0ff;fill-opacity:1;stroke:#000000;stroke-width:0;stroke-dasharray:none;stroke-opacity:1"
         d="m 527.54923,800.63359 c -20.57625,-2.35421 -42.92128,-13.28052 -58.29477,-28.50507 -27.64796,-27.38012 -37.31573,-68.65025 -25.17852,-107.48311 4.88329,-15.62404 17.02335,-36.41896 30.96388,-53.03855 10.53896,-12.56431 50.89697,-57.78962 51.57011,-57.78962 0.34872,0 1.52953,0.95321 2.62402,2.11824 2.57252,2.73832 9.03595,5.49786 14.60862,6.2371 5.52773,0.73328 14.00565,-1.32288 19.54341,-4.7399 l 4.00307,-2.47004 19.33207,28.97881 c 21.93989,32.88793 27.33376,41.76707 34.59954,56.95623 18.937,39.58784 20.4462,73.59295 4.71017,106.12939 -11.88874,24.58164 -35.94578,44.32281 -62.14419,50.99542 -13.11164,3.33948 -23.46743,4.08362 -36.33741,2.6111 z"
         id="path57"
         transform="matrix(1.6227699,0,0,1.6356813,-189.55894,-530.02891)" />
      <path
         style="fill:none;fill-opacity:1;stroke:#000000;stroke-width:0;stroke-dasharray:none;stroke-opacity:1"
         d="m 534.32039,559.08611 c -4.7451,5.45597 -8.81073,11.50229 -12.07329,17.95514 -5.43711,10.75378 -8.62099,22.6403 -9.28714,34.67201"
         id="path70"
         inkscape:path-effect="#path-effect70"
         inkscape:original-d="m 534.32039,559.08611 c -4.02443,5.98505 -8.04886,11.9701 -12.07329,17.95514 -4.02443,5.98505 -6.19143,23.11467 -9.28714,34.67201"
         transform="matrix(1.6227699,0,0,1.6356813,-189.55894,-530.02891)" />
      <path
         style="fill:#8d8dff;fill-opacity:1;stroke:#000000;stroke-width:0;stroke-dasharray:none;stroke-opacity:1"
         d="m 572.71121,613.97083 c -2.77467,-1.93159 -7.86268,-4.51992 -11.6129,-5.9076 -14.61645,-5.40847 -31.97078,-4.73855 -46.28998,1.78692 -1.27201,0.57967 -2.31274,0.97021 -2.31274,0.86787 0,-0.36619 3.8674,-6.51918 7.03932,-11.19947 1.77612,-2.62074 5.49951,-7.77982 8.27418,-11.46462 2.77468,-3.6848 5.81347,-7.87903 6.75288,-9.32052 2.5919,-3.97717 4.96575,-8.88227 6.29807,-13.01375 1.0673,-3.30965 1.26792,-3.70187 1.81877,-3.55575 0.34053,0.0903 1.67874,0.16614 2.97381,0.16846 l 2.35467,0.004 0.20049,2.39918 c 0.4462,5.33957 2.72131,11.32274 6.48166,17.0457 1.08381,1.64948 3.93152,5.51367 6.32824,8.5871 5.32556,6.8292 7.62412,10.31377 9.99567,15.15324 1.60885,3.28309 4.18265,9.7341 3.94792,9.89513 -0.0479,0.0328 -1.06039,-0.61792 -2.25006,-1.44612 z"
         id="path74"
         transform="matrix(1.6227699,0,0,1.6356813,-189.55894,-530.02891)" />
    </g>
    <g
       id="g54"
       transform="matrix(0.81488389,0,0,0.84404335,124.65057,-125.93964)">
      <path
         style="fill:none;stroke:#000000;stroke-width:5;stroke-dasharray:none"
         d="m 551.62825,262.68012 c -3.18306,-13.80498 -12.27436,-26.14318 -24.51681,-33.27281 -14.09684,-8.20958 -31.17012,-9.34732 -47.47339,-8.78036 -16.30327,0.56697 -32.73787,2.62326 -48.84265,0.0244 -18.64561,-3.00893 -36.19875,-12.4124 -49.03363,-26.26803"
         id="path6"
         inkscape:path-effect="#path-effect6"
         inkscape:original-d="m 551.62825,262.68012 c -7.0048,-11.09093 -16.34454,-22.18187 -24.51681,-33.27281 -8.17227,-11.09094 -64.2107,-5.83734 -96.31604,-8.756 -32.10535,-2.91867 -32.68908,-17.51202 -49.03363,-26.26803"
         transform="matrix(0.66702755,0,0,0.69445443,7.040077,349.53839)" />
      <path
         style="fill:none;stroke:#000000;stroke-width:5;stroke-dasharray:none"
         d="m 381.76177,194.38328 c -4.92334,7.11543 -7.4259,15.87441 -7.0048,24.51682 0.56434,11.58218 6.49928,22.79263 15.76081,29.77042"
         id="path7"
         inkscape:path-effect="#path-effect7"
         inkscape:original-d="m 381.76177,194.38328 c -2.33493,7.58854 -4.66986,16.34454 -7.0048,24.51682 -2.33493,8.17227 10.50721,19.84695 15.76081,29.77042"
         transform="matrix(0.66702755,0,0,0.69445443,7.040077,349.53839)" />
      <path
         style="fill:none;stroke:#000000;stroke-width:5;stroke-dasharray:none"
         d="m 374.75697,225.90491 c -3.88722,-1.6744 -7.46652,-4.0606 -10.5072,-7.00481 -5.93786,-5.74946 -9.73534,-13.66087 -10.50721,-21.89001"
         id="path8"
         inkscape:path-effect="#path-effect9"
         inkscape:original-d="m 374.75697,225.90491 c -2.91867,-1.7512 -7.0048,-4.66987 -10.5072,-7.00481 -3.5024,-2.33493 -7.00481,-14.59334 -10.50721,-21.89001"
         transform="matrix(0.66702755,0,0,0.69445443,7.040077,349.53839)" />
      <path
         style="fill:none;stroke:#000000;stroke-width:5;stroke-dasharray:none"
         d="m 352.86696,198.76129 c -2.8641,7.53178 -4.35512,15.58329 -4.378,23.64122 -0.0584,20.5575 9.95008,40.90804 26.26801,53.41162"
         id="path9"
         inkscape:path-effect="#path-effect10"
         inkscape:original-d="m 352.86696,198.76129 c -1.45933,7.8804 -2.91867,15.76081 -4.378,23.64122 -1.45933,7.8804 17.51201,35.60774 26.26801,53.41162"
         transform="matrix(0.66702755,0,0,0.69445443,7.040077,349.53839)" />
      <path
         style="fill:none;stroke:#000000;stroke-width:5;stroke-dasharray:none"
         d="m 373.00577,280.19213 c 9.06778,8.66579 16.7784,18.7489 22.76561,29.77041 12.16594,22.39557 16.99863,48.29083 16.6158,73.77465 -0.38283,25.48382 -5.79151,50.66509 -13.1134,75.07742 -7.01394,23.38558 -15.80348,46.2384 -26.26801,68.29683"
         id="path11"
         inkscape:path-effect="#path-effect11"
         inkscape:original-d="m 373.00577,280.19213 c 7.58854,10.50721 15.17707,19.84694 22.76561,29.77041 7.58854,9.92347 2.33494,99.23471 3.5024,148.85207 1.16747,49.61735 -17.51201,45.53122 -26.26801,68.29683"
         transform="matrix(0.6563053,0,0,0.7182197,11.458568,339.45051)" />
      <path
         style="fill:none;stroke:#000000;stroke-width:5;stroke-dasharray:none"
         d="m 407.39608,552.27554 c -14.98107,-10.89392 -31.22116,-20.055 -48.29315,-27.2423 C 285.42301,494.01401 196.40275,502.7774 130.02002,547.32239 70.953162,586.95819 30.849473,653.64224 23.527434,724.39729"
         id="path12"
         inkscape:path-effect="#path-effect12"
         inkscape:original-d="m 407.39608,552.27554 c -16.51048,-9.08077 -32.19543,-18.16153 -48.29315,-27.2423 -16.09772,-9.08076 -152.72194,14.85944 -229.08291,22.28915 -76.360962,7.42972 -70.995056,118.04994 -106.492586,177.0749"
         transform="matrix(0.66702755,0,0,0.69445443,7.040077,349.53839)" />
      <path
         style="fill:none;stroke:#000000;stroke-width:5;stroke-dasharray:none"
         d="m 26.004006,723.159 c 7.164452,-16.33495 18.308284,-30.90766 32.195434,-42.10172 3.925681,-3.16439 8.06592,-6.06255 12.38286,-8.668"
         id="path13"
         inkscape:path-effect="#path-effect13"
         inkscape:original-d="m 26.004006,723.159 c 10.731811,-13.62114 21.463622,-28.06781 32.195434,-42.10172 10.731812,-14.03391 8.25524,-5.77867 12.38286,-8.668"
         transform="matrix(0.66702755,0,0,0.69445443,7.040077,349.53839)" />
      <path
         style="fill:none;stroke:#000000;stroke-width:5;stroke-dasharray:none"
         d="m 70.5823,674.86585 c -5.197361,8.10233 -9.368667,16.86208 -12.38286,26.00401 -5.2374,15.88484 -6.94132,32.92403 -4.953144,49.53143"
         id="path14"
         inkscape:path-effect="#path-effect14"
         inkscape:original-d="m 70.5823,674.86585 c -4.12762,8.668 -8.25524,17.33601 -12.38286,26.00401 -4.12762,8.668 -3.302096,33.02095 -4.953144,49.53143"
         transform="matrix(0.66702755,0,0,0.69445443,7.040077,349.53839)" />
      <path
         style="fill:none;stroke:#000000;stroke-width:5;stroke-dasharray:none"
         d="m 53.246296,747.92472 c 3.070691,-5.77568 6.819419,-11.19051 11.144574,-16.09772 6.875732,-7.80103 15.268799,-14.33869 24.765719,-18.57428 16.813841,-7.49891 36.029621,-7.43212 54.292451,-5.10661 18.26282,2.32552 36.28439,6.77007 54.67671,7.58318 45.10551,1.99409 90.60648,-19.559 117.63717,-55.72287"
         id="path15"
         inkscape:path-effect="#path-effect15"
         inkscape:original-d="m 53.246296,747.92472 c 3.714858,-4.54038 7.429716,-10.73181 11.144574,-16.09772 3.714858,-5.3659 16.510479,-12.38285 24.765719,-18.57428 8.25524,-6.19143 72.646101,1.65104 108.969161,2.47657 36.32306,0.82552 78.42478,-37.14858 117.63717,-55.72287"
         transform="matrix(0.66702755,0,0,0.69445443,7.040077,349.53839)" />
      <path
         style="fill:none;stroke:#000000;stroke-width:5;stroke-dasharray:none"
         d="m 99.062876,710.77614 c 18.248644,10.52785 37.311094,19.64468 56.961154,27.24229 56.98484,22.03294 120.4997,31.0022 179.64627,15.69188 29.57329,-7.65517 57.70919,-21.35577 81.16336,-40.92827 23.45416,-19.5725 42.11976,-45.08776 52.47672,-73.82648 10.6377,-29.51773 12.36506,-61.51914 11.14457,-92.87145 -1.16604,-29.95347 -4.91909,-59.77185 -5.71799,-89.73736 -0.7989,-29.96551 1.46711,-60.47728 11.90942,-88.57582 9.18912,-24.72641 24.66894,-47.08616 44.57829,-64.39087"
         id="path16"
         inkscape:path-effect="#path-effect16"
         inkscape:original-d="m 99.062876,710.77614 c 18.161524,9.08077 37.974104,18.16153 56.961154,27.24229 18.98705,9.08077 208.85757,-66.04191 313.28635,-99.06287 104.42878,-33.02097 7.42971,-61.91431 11.14457,-92.87145 3.71486,-30.95715 4.12762,-118.87545 6.19143,-178.31318 2.06381,-59.43772 29.71886,-42.92724 44.57829,-64.39087"
         transform="matrix(0.66702755,0,0,0.69445443,7.040077,349.53839)" />
      <path
         style="fill:none;stroke:#000000;stroke-width:3.40301;stroke-dasharray:none"
         d="m 372.11919,528.40449 -20.64927,11.17914 10.73762,21.49832 152.80461,54.17579 z"
         id="path17" />
      <path
         style="fill:none;stroke:#000000;stroke-width:5;stroke-dasharray:none"
         d="m 419.77894,271.18463 c 1.65495,-4.68788 4.67905,-8.88325 8.60326,-11.93541 3.9242,-3.05216 8.73488,-4.9505 13.68589,-5.40059 5.2932,-0.4812 10.72552,0.70078 15.34025,3.33777 4.61474,2.63699 8.391,6.71706 10.66375,11.52166"
         id="path18"
         inkscape:path-effect="#path-effect18"
         inkscape:original-d="m 419.77894,271.18463 c 7.42972,-5.36591 14.85943,-11.55734 22.28915,-17.336 7.42971,-5.77867 17.336,9.90628 26.004,14.85943"
         transform="matrix(0.66702755,0,0,0.69445443,30.993232,340.93906)" />
      <path
         style="fill:none;stroke:#000000;stroke-width:6.08187;stroke-dasharray:none;stroke-opacity:1"
         d="m 202.14429,877.36666 -22.03921,93.20823 5.79979,140.57621"
         id="path33" />
      <path
         style="fill:#ff6600;stroke:#000000;stroke-width:6.08187;stroke-dasharray:none;stroke-opacity:1"
         d="M 209.10404,875.83865 V 1108.0952"
         id="path36" />
      <path
         style="fill:#000000;fill-opacity:1;stroke:#000000;stroke-width:3.80117;stroke-dasharray:none;stroke-opacity:1"
         d="m 214.90383,1099.6911 13.33952,10.6961 9.27967,12.9881 -10.43963,0.764 -9.85964,-6.8761 5.21981,15.2801 -12.17956,-5.348 -6.95976,-14.5161 z"
         id="path37" />
      <path
         style="fill:#000000;fill-opacity:1;stroke:#000000;stroke-width:3.80117;stroke-dasharray:none;stroke-opacity:1"
         d="m 185.90744,1107.5526 13.33952,10.6961 9.27968,12.9881 -10.43963,0.764 -9.85965,-6.8761 5.21982,15.2801 -12.17957,-5.348 -6.95976,-14.5161 z"
         id="path37-9" />
      <path
         style="fill:#000000;fill-opacity:1;fill-rule:evenodd;stroke:#000000;stroke-width:0.760233;stroke-opacity:1"
         id="path38"
         sodipodi:type="arc"
         sodipodi:cx="208.81404"
         sodipodi:cy="977.45093"
         sodipodi:rx="6.0897808"
         sodipodi:ry="11.460028"
         sodipodi:start="0"
         sodipodi:end="6.2822494"
         sodipodi:open="true"
         sodipodi:arc-type="arc"
         d="m 214.90382,977.45093 a 6.0897808,11.460028 0 0 1 -6.08835,11.46003 6.0897808,11.460028 0 0 1 -6.09121,-11.45467 6.0897808,11.460028 0 0 1 6.08551,-11.46539 6.0897808,11.460028 0 0 1 6.09405,11.4493" />
      <path
         style="fill:#000000;fill-opacity:1;fill-rule:evenodd;stroke:#000000;stroke-width:0.768245;stroke-opacity:1"
         id="path38-5"
         sodipodi:type="arc"
         sodipodi:cx="492.02695"
         sodipodi:cy="765.45081"
         sodipodi:rx="6.4473863"
         sodipodi:ry="11.053621"
         sodipodi:start="0"
         sodipodi:end="6.2822494"
         sodipodi:open="true"
         sodipodi:arc-type="arc"
         d="m 498.47433,765.45081 a 6.4473863,11.053621 0 0 1 -6.44587,11.05362 6.4473863,11.053621 0 0 1 -6.4489,-11.04845 6.4473863,11.053621 0 0 1 6.44286,-11.05879 6.4473863,11.053621 0 0 1 6.45191,11.04327"
         transform="matrix(0.86339899,0.50452173,-0.31913827,0.94770816,0,0)" />
      <path
         style="fill:none;fill-opacity:1;stroke:#000000;stroke-width:5;stroke-dasharray:none;stroke-opacity:1"
         d="m 83.619838,590.15467 c -4.218778,6.26118 -7.344456,13.25674 -9.193804,20.5766 -2.197657,8.69849 -2.540348,18.11621 0.721816,26.47394 1.631083,4.17887 4.156927,8.03303 7.49356,11.03141 3.336633,2.99837 7.495469,5.1182 11.923433,5.83688 3.69461,0.59965 7.473587,0.23044 11.209157,0.46544 1.86779,0.1175 3.73784,0.38945 5.50811,0.99653 1.77028,0.60708 3.44313,1.56192 4.73494,2.91604 1.20547,1.26361 2.05005,2.84441 2.57796,4.50909 0.52791,1.66468 0.74849,3.41464 0.80601,5.16008 0.11505,3.49088 -0.41184,6.97808 -0.31937,10.46963 0.21979,8.29918 4.12974,16.433 10.47369,21.78828 6.34395,5.35528 15.01856,7.8448 23.23693,6.66874"
         id="path49"
         inkscape:path-effect="#path-effect49"
         inkscape:original-d="m 83.619838,590.15467 c -2.772734,6.567 -6.129202,13.71773 -9.193804,20.5766 -3.064601,6.85887 13.425873,28.89483 20.138809,43.34223 6.712937,14.44741 14.301467,2.91867 21.452207,4.37801 7.15074,1.45933 2.04307,13.42587 3.0646,20.1388 1.02154,6.71294 22.47374,18.97135 33.71062,28.45702"
         transform="matrix(0.66702755,0,0,0.69445443,7.040077,349.53839)" />
      <path
         style="fill:#ffffff;fill-opacity:1;stroke:#000000;stroke-width:0;stroke-dasharray:none;stroke-opacity:1"
         d="m 216.39047,636.48166 c -17.33776,-2.11148 -33.85349,-6.38119 -51.69844,-13.36527 -10.22019,-3.99993 -29.40929,-13.18882 -29.40929,-14.08293 0,-0.9643 10.51809,-1.42362 17.02643,-0.74353 3.40529,0.35584 11.4851,1.54623 17.95515,2.64532 10.40559,1.76763 13.12183,1.99862 23.52743,2.00077 9.02263,0.002 12.94599,-0.25639 16.83759,-1.10835 15.18193,-3.32365 28.26931,-9.70098 40.06341,-19.5224 4.90036,-4.08073 12.75258,-12.68335 12.75258,-13.97129 0,-0.37691 -0.5758,-1.04489 -1.27956,-1.4844 -1.13566,-0.70923 -1.4288,-0.60413 -2.60661,0.93457 -2.97452,3.88594 -10.33422,11.05475 -14.85118,14.46599 -9.72932,7.34766 -19.49377,12.02423 -31.80617,15.23322 -6.3797,1.66275 -7.38284,1.75036 -19.41963,1.69607 -10.73968,-0.0485 -14.02226,-0.2991 -21.33595,-1.6292 -4.75394,-0.86457 -8.74741,-1.88361 -8.87439,-2.26453 -0.12697,-0.38093 -1.27153,-0.69259 -2.54346,-0.69259 -3.47742,0 -8.1514,-1.60032 -10.60703,-3.63172 -1.2033,-0.99543 -3.00197,-3.302 -3.99705,-5.12572 -1.62016,-2.96932 -1.84445,-4.07163 -2.14618,-10.5477 -0.27958,-6.0004 -0.5553,-7.52911 -1.61925,-8.97757 -1.8337,-2.49641 -4.99651,-3.91065 -8.7483,-3.91177 -5.70577,-0.002 -9.39704,-1.14427 -12.27898,-3.80075 -6.84615,-6.31056 -7.33658,-18.18401 -1.21519,-29.42011 1.14181,-2.09584 1.92714,-3.95949 1.74519,-4.14144 -0.52417,-0.52417 12.57844,-13.36975 18.36115,-18.00094 20.27094,-16.2344 43.91482,-26.35609 71.21458,-30.48619 9.92181,-1.50105 31.08089,-1.50692 40.86344,-0.0114 9.19976,1.40648 18.48074,3.62495 26.62315,6.36384 8.57342,2.88388 24.7854,10.88102 32.42627,15.99541 5.67192,3.7965 6.17275,4.01237 6.94566,2.99369 0.45814,-0.60381 0.83931,-1.37645 0.84705,-1.71698 0.0157,-0.69253 -7.14862,-5.52399 -14.21498,-9.5862 -2.55396,-1.46819 -4.74086,-2.7489 -4.85976,-2.84604 -0.1189,-0.0971 1.37897,-4.00569 3.3286,-8.68568 7.06143,-16.95062 14.66413,-42.44959 17.24028,-57.8228 3.80801,-22.7243 2.88043,-42.63982 -2.78279,-59.7473 -4.03703,-12.19507 -9.97944,-21.96769 -19.19276,-31.56354 -7.239,-7.53955 -10.32185,-12.19042 -12.58637,-18.9881 -1.35972,-4.08166 -1.73831,-6.41053 -1.79681,-11.05309 -0.0408,-3.23502 0.14857,-6.69737 0.42076,-7.69412 l 0.49489,-1.81226 1.76977,3.09874 c 1.84783,3.23543 4.70824,6.08715 8.06671,8.0422 1.33635,0.77792 2.5762,2.4109 3.82105,5.03263 1.01354,2.13457 3.21197,5.33863 4.8854,7.12014 l 3.04261,3.23911 1.25075,-1.47345 1.25076,-1.47345 -2.83899,-3.03511 c -4.31126,-4.60909 -6.10948,-9.02519 -6.13596,-15.06885 -0.0207,-4.73018 1.50489,-10.83501 2.70771,-10.83501 0.25301,0 1.13546,0.72757 1.96101,1.61683 3.99223,4.3003 14.18647,9.78731 22.55186,12.13846 4.7533,1.33594 5.79225,1.38525 25.74983,1.22221 23.09902,-0.18871 27.18605,0.24006 34.50028,3.61948 4.67357,2.15935 10.9837,7.97916 13.33452,12.29838 l 1.64294,3.01863 -5.10878,2.62823 c -2.80983,1.44553 -7.39984,3.86346 -10.20003,5.3732 l -5.09124,2.74497 4.551,9.09131 4.55101,9.09131 -5.52763,5.8265 c -14.48367,15.2668 -23.14517,33.68412 -26.95995,57.32609 -1.71309,10.61677 -1.51833,39.92165 0.41559,62.53344 1.85958,21.74252 2.04416,44.93216 0.44943,56.46274 -3.35627,24.26717 -12.38318,43.28274 -28.55613,60.15473 -18.92533,19.74333 -45.03173,32.29446 -75.47281,36.28494 -8.85502,1.16079 -29.9916,1.17613 -39.41419,0.0286 z M 349.82868,330.89123 c 1.1425,-3.59966 6.37531,-7.48553 11.13167,-8.26633 4.756,-0.78075 11.54833,2.44121 13.62911,6.46499 0.84541,1.63485 1.08353,1.74131 2.47592,1.1069 0.8473,-0.38606 1.54054,-1.13111 1.54054,-1.65567 0,-0.52455 -1.60501,-2.51456 -3.56669,-4.42224 -2.59793,-2.52642 -4.40571,-3.71183 -6.65578,-4.36438 -9.01364,-2.61407 -17.32382,0.80139 -21.40256,8.79639 l -1.22784,2.40676 1.41222,0.56703 c 2.04323,0.82039 2.21495,0.77955 2.66341,-0.63345 z"
         id="path54"
         transform="matrix(1.0926932,0,0,1.1321589,-68.897847,154.18153)" />
      <path
         style="fill:#000000;fill-opacity:1;stroke:#000000;stroke-width:0;stroke-dasharray:none;stroke-opacity:1"
         d="m 103.21139,623.23798 c 0,-6.68266 1.34356,-14.34031 3.7307,-21.26328 1.53498,-4.4516 4.45968,-10.6155 6.52737,-13.75666 l 0.55433,-0.84211 -0.51363,-0.38743 c -0.36081,-0.27216 -0.42662,-0.41642 -0.22121,-0.48489 0.21225,-0.0708 0.0669,-0.46875 -0.53042,-1.45199 -0.45256,-0.74499 -0.93066,-1.35452 -1.06246,-1.35452 -0.41235,0 -4.98213,3.15687 -7.49785,5.17962 -6.361077,5.11461 -11.767916,11.31678 -16.083622,18.44951 -0.967181,1.5985 -1.758511,2.8634 -1.758511,2.8109 0,-0.0525 0.200618,-1.22086 0.445818,-2.59636 3.947492,-22.14433 12.444854,-42.48724 25.441685,-60.90808 0.83426,-1.18242 1.55634,-2.11034 1.60463,-2.06205 0.0483,0.0483 -0.0533,0.57244 -0.22572,1.16479 -1.94602,6.68521 -1.72587,13.74694 0.59596,19.11731 1.90133,4.39774 5.49309,7.99864 9.56954,9.5939 2.17098,0.84957 2.9053,0.96477 7.33316,1.15039 5.12714,0.21493 6.2531,0.47712 7.6742,1.78705 1.65524,1.52574 1.84795,2.38892 1.84795,8.27703 0,5.19155 0.16691,6.6483 1.05467,9.20482 1.17173,3.3743 3.52209,6.72754 6.23839,8.90028 l 0.83552,0.66831 -5.32297,0.12232 c -8.12778,0.18677 -13.03016,1.09788 -19.08784,3.54749 -7.49419,3.03051 -14.93733,9.1437 -20.23264,16.61745 l -0.91705,1.29431 z"
         id="path55"
         transform="matrix(1.0926932,0,0,1.1321589,-68.897847,154.18153)" />
      <path
         style="fill:#ffa061;fill-opacity:1;stroke:#000000;stroke-width:0;stroke-dasharray:none;stroke-opacity:1"
         d="m 468.0084,382.5617 c -24.3198,-8.37578 -50.54035,-17.41737 -58.26789,-20.09243 l -14.05007,-4.86373 -4.11054,-8.27487 -4.11054,-8.27488 7.92759,-3.98148 c 7.32947,-3.68108 8.10509,-3.89277 10.28021,-2.80585 3.52432,1.76113 106.41741,62.07192 107.38088,62.94132 0.52536,0.47406 0.52536,0.71928 0,0.66561 -0.4575,-0.0467 -20.72984,-6.9379 -45.04964,-15.31369 z"
         id="path56"
         transform="matrix(1.0926932,0,0,1.1321589,-68.897847,154.18153)" />
    </g>
    <g
       id="g31"
       transform="matrix(0.45084718,0,0,0.45304807,427.03272,315.3971)">
      <path
         style="fill:none;stroke:#000000;stroke-width:4.26229;stroke-dasharray:none"
         d="m 88.43564,425.54179 c -0.582725,-10.60431 0.606113,-21.30386 3.502402,-31.52161 4.81411,-16.98359 14.426818,-32.60483 27.543668,-44.41864 13.11685,-11.81382 29.70858,-19.76076 47.16393,-22.39302 17.45535,-2.63227 35.70742,0.087 51.55689,7.85953 15.84947,7.77255 29.20939,20.58734 37.47279,36.18652 6.53111,12.32906 9.87861,26.3277 9.6316,40.27762"
         id="path24"
         inkscape:path-effect="#path-effect25"
         inkscape:original-d="m 88.43564,425.54179 c 0.875601,-10.5072 2.334935,-21.0144 3.502402,-31.52161 1.167467,-10.5072 109.158178,-15.17707 163.737278,-22.76561 54.57909,-7.58854 6.42107,26.85175 9.6316,40.27762"
         transform="matrix(1.2795322,0.06396669,-0.05363171,1.0728006,6.572858,-69.672229)" />
      <path
         style="fill:none;stroke:#000000;stroke-width:5;stroke-dasharray:none"
         d="m 95.440443,390.51778 c 1.744555,-4.49478 1.106753,-9.83887 -1.646614,-13.79684 -2.753368,-3.95797 -7.542072,-6.41448 -12.362992,-6.34197 -2.693887,0.0405 -5.359544,0.82882 -7.697514,2.16769 -2.33797,1.33886 -4.350727,3.21888 -5.935043,5.39801 -3.168633,4.35826 -4.575273,9.81453 -4.755052,15.19991 -0.230126,6.89354 1.49926,13.88282 5.170438,19.72203 3.671179,5.83921 9.30726,10.47398 15.843972,12.67518 4.766446,1.60507 9.963452,1.91078 14.885207,0.8756"
         id="path25"
         inkscape:path-effect="#path-effect26"
         inkscape:original-d="m 95.440443,390.51778 c -4.378002,-6.42107 -9.339737,-13.42587 -14.009606,-20.13881 -4.669868,-6.71294 -12.258405,15.17707 -18.387609,22.76561 -6.129202,7.58854 14.009607,21.59814 21.01441,32.39721 7.004803,10.79908 9.923471,0.58374 14.885207,0.8756" />
      <path
         style="fill:none;stroke:#000000;stroke-width:5;stroke-dasharray:none"
         d="m 95.440443,390.51778 c 1.744555,-4.49478 1.106753,-9.83887 -1.646614,-13.79684 -2.753368,-3.95797 -7.542072,-6.41448 -12.362992,-6.34197 -2.693887,0.0405 -5.359544,0.82882 -7.697514,2.16769 -2.33797,1.33886 -4.350727,3.21888 -5.935043,5.39801 -3.168633,4.35826 -4.575273,9.81453 -4.755052,15.19991 -0.230126,6.89354 1.49926,13.88282 5.170438,19.72203 3.671179,5.83921 9.30726,10.47398 15.843972,12.67518 4.766446,1.60507 9.963452,1.91078 14.885207,0.8756"
         id="path25-1"
         inkscape:path-effect="#path-effect26-5"
         inkscape:original-d="m 95.440443,390.51778 c -4.378002,-6.42107 -9.339737,-13.42587 -14.009606,-20.13881 -4.669868,-6.71294 -12.258405,15.17707 -18.387609,22.76561 -6.129202,7.58854 14.009607,21.59814 21.01441,32.39721 7.004803,10.79908 9.923471,0.58374 14.885207,0.8756"
         transform="matrix(-1,0,0,1,421.47183,-1.3749599)" />
      <path
         style="fill:none;stroke:#000000;stroke-width:5;stroke-dasharray:none"
         d="m 102.44524,419.41259 c -0.83002,7.07966 0.0796,14.3569 2.62681,21.01441 4.11167,10.74662 12.36935,19.60085 22.10121,25.73979 9.73186,6.13894 20.88987,9.72177 32.18601,11.91103 24.7162,4.79014 50.16378,3.1382 75.30164,1.7512 12.18663,-0.67241 24.44218,-1.28656 36.36534,-3.8951 11.92315,-2.60854 23.61585,-7.33772 32.80709,-15.36811 12.78961,-11.17428 19.83062,-28.60915 18.38761,-45.53122"
         id="path26"
         inkscape:path-effect="#path-effect27"
         inkscape:original-d="m 102.44524,419.41259 c 0.29187,6.42107 1.75121,14.00961 2.62681,21.01441 0.8756,7.0048 36.19148,25.10054 54.28722,37.65082 18.09574,12.55027 50.20109,1.16746 75.30164,1.7512 25.10055,0.58373 46.11495,-12.84214 69.17243,-19.26321 23.05748,-6.42107 12.25841,-30.35415 18.38761,-45.53122" />
      <path
         style="fill:none;stroke:#000000;stroke-width:5;stroke-dasharray:none;stroke-opacity:1"
         d="m 54.287224,241.66571 c 2.155632,-10.12734 9.632352,-18.96346 19.26321,-22.76561 7.784344,-3.07317 16.802143,-2.87388 24.443123,0.54018 7.640983,3.41405 13.805833,9.9985 16.710093,17.84743"
         id="path32"
         inkscape:path-effect="#path-effect32"
         inkscape:original-d="m 54.287224,241.66571 c 5.837336,-7.58853 12.84214,-15.17707 19.26321,-22.76561 6.421069,-7.58854 27.435476,12.25841 41.153216,18.38761"
         transform="translate(69.172432,143.59846)" />
      <path
         style="fill:none;stroke:#000000;stroke-width:5;stroke-dasharray:none;stroke-opacity:1"
         d="m 54.287224,241.66571 c 2.155632,-10.12734 9.632352,-18.96346 19.26321,-22.76561 7.784344,-3.07317 16.802143,-2.87388 24.443123,0.54018 7.640983,3.41405 13.805833,9.9985 16.710093,17.84743"
         id="path32-1"
         inkscape:path-effect="#path-effect32-5"
         inkscape:original-d="m 54.287224,241.66571 c 5.837336,-7.58853 12.84214,-15.17707 19.26321,-22.76561 6.421069,-7.58854 27.435476,12.25841 41.153216,18.38761"
         transform="translate(179.71186,140.92095)" />
      <g
         id="g53"
         transform="matrix(1.3450509,0,0,1.3290372,-1016.074,-345.38778)">
        <path
           style="fill:none;fill-opacity:1;stroke:#000000;stroke-width:5.00032;stroke-dasharray:none;stroke-opacity:1"
           d="m 830.88988,554.13296 c 2.64767,-0.0722 5.26828,-0.94571 7.42972,-2.47657 3.17022,-2.24534 5.28627,-5.91888 5.63798,-9.78775 0.35172,-3.86887 -1.0672,-7.86376 -3.78056,-10.64397"
           id="path53-67"
           inkscape:path-effect="#path-effect53-8"
           inkscape:original-d="m 830.88988,554.13296 c 2.06381,-0.41276 4.95314,-1.65104 7.42972,-2.47657 2.47657,-0.82552 1.23828,-13.62114 1.85742,-20.43172"
           transform="rotate(63.246791,914.70163,579.14659)" />
        <path
           style="fill:none;fill-opacity:1;stroke:#000000;stroke-width:5.00032;stroke-dasharray:none;stroke-opacity:1"
           d="m 830.88988,554.13296 c 2.64767,-0.0722 5.26828,-0.94571 7.42972,-2.47657 3.17022,-2.24534 5.28627,-5.91888 5.63798,-9.78775 0.35172,-3.86887 -1.0672,-7.86376 -3.78056,-10.64397"
           id="path53"
           inkscape:path-effect="#path-effect53"
           inkscape:original-d="m 830.88988,554.13296 c 2.06381,-0.41276 4.95314,-1.65104 7.42972,-2.47657 2.47657,-0.82552 1.23828,-13.62114 1.85742,-20.43172"
           transform="translate(-2.4765719,0.61914294)" />
        <path
           style="fill:none;fill-opacity:1;stroke:#000000;stroke-width:5.00032;stroke-dasharray:none;stroke-opacity:1"
           d="m 830.88988,554.13296 c 2.64767,-0.0722 5.26828,-0.94571 7.42972,-2.47657 3.17022,-2.24534 5.28627,-5.91888 5.63798,-9.78775 0.35172,-3.86887 -1.0672,-7.86376 -3.78056,-10.64397"
           id="path53-5"
           inkscape:path-effect="#path-effect53-1"
           inkscape:original-d="m 830.88988,554.13296 c 2.06381,-0.41276 4.95314,-1.65104 7.42972,-2.47657 2.47657,-0.82552 1.23828,-13.62114 1.85742,-20.43172"
           transform="rotate(12.172108,946.91179,583.85326)" />
        <path
           style="fill:none;fill-opacity:1;stroke:#000000;stroke-width:5.00032;stroke-dasharray:none;stroke-opacity:1"
           d="m 830.88988,554.13296 c 2.64767,-0.0722 5.26828,-0.94571 7.42972,-2.47657 3.17022,-2.24534 5.28627,-5.91888 5.63798,-9.78775 0.35172,-3.86887 -1.0672,-7.86376 -3.78056,-10.64397"
           id="path53-6"
           inkscape:path-effect="#path-effect53-9"
           inkscape:original-d="m 830.88988,554.13296 c 2.06381,-0.41276 4.95314,-1.65104 7.42972,-2.47657 2.47657,-0.82552 1.23828,-13.62114 1.85742,-20.43172"
           transform="rotate(28.538335,927.39658,578.77172)"
           inkscape:transform-center-x="-0.55176368"
           inkscape:transform-center-y="0.32738528" />
        <path
           style="fill:none;fill-opacity:1;stroke:#000000;stroke-width:5.00032;stroke-dasharray:none;stroke-opacity:1"
           d="m 830.88988,554.13296 c 2.64767,-0.0722 5.26828,-0.94571 7.42972,-2.47657 3.17022,-2.24534 5.28627,-5.91888 5.63798,-9.78775 0.35172,-3.86887 -1.0672,-7.86376 -3.78056,-10.64397"
           id="path53-4"
           inkscape:path-effect="#path-effect53-3"
           inkscape:original-d="m 830.88988,554.13296 c 2.06381,-0.41276 4.95314,-1.65104 7.42972,-2.47657 2.47657,-0.82552 1.23828,-13.62114 1.85742,-20.43172"
           transform="rotate(53.684779,909.02396,568.67036)" />
        <path
           style="fill:none;fill-opacity:1;stroke:#000000;stroke-width:5.00032;stroke-dasharray:none;stroke-opacity:1"
           d="m 830.88988,554.13296 c 2.64767,-0.0722 5.26828,-0.94571 7.42972,-2.47657 3.17022,-2.24534 5.28627,-5.91888 5.63798,-9.78775 0.35172,-3.86887 -1.0672,-7.86376 -3.78056,-10.64397"
           id="path53-3"
           inkscape:path-effect="#path-effect53-12"
           inkscape:original-d="m 830.88988,554.13296 c 2.06381,-0.41276 4.95314,-1.65104 7.42972,-2.47657 2.47657,-0.82552 1.23828,-13.62114 1.85742,-20.43172"
           transform="rotate(68.904563,923.10147,590.61231)" />
        <path
           style="fill:none;fill-opacity:1;stroke:#000000;stroke-width:5.00032;stroke-dasharray:none;stroke-opacity:1"
           d="m 830.88988,554.13296 c 2.64767,-0.0722 5.26828,-0.94571 7.42972,-2.47657 3.17022,-2.24534 5.28627,-5.91888 5.63798,-9.78775 0.35172,-3.86887 -1.0672,-7.86376 -3.78056,-10.64397"
           id="path53-2"
           inkscape:path-effect="#path-effect53-0"
           inkscape:original-d="m 830.88988,554.13296 c 2.06381,-0.41276 4.95314,-1.65104 7.42972,-2.47657 2.47657,-0.82552 1.23828,-13.62114 1.85742,-20.43172"
           transform="rotate(95.854391,917.10337,575.87643)" />
        <path
           style="fill:none;fill-opacity:1;stroke:#000000;stroke-width:5.00032;stroke-dasharray:none;stroke-opacity:1"
           d="m 830.88988,554.13296 c 2.64767,-0.0722 5.26828,-0.94571 7.42972,-2.47657 3.17022,-2.24534 5.28627,-5.91888 5.63798,-9.78775 0.35172,-3.86887 -1.0672,-7.86376 -3.78056,-10.64397"
           id="path53-1"
           inkscape:path-effect="#path-effect53-2"
           inkscape:original-d="m 830.88988,554.13296 c 2.06381,-0.41276 4.95314,-1.65104 7.42972,-2.47657 2.47657,-0.82552 1.23828,-13.62114 1.85742,-20.43172"
           transform="rotate(119.72,914.74613,569.96735)" />
        <path
           style="fill:none;fill-opacity:1;stroke:#000000;stroke-width:4.48823;stroke-dasharray:none;stroke-opacity:1"
           d="m 830.88988,554.13296 c 2.64767,-0.0722 5.26828,-0.94571 7.42972,-2.47657 3.17022,-2.24534 5.28627,-5.91888 5.63798,-9.78775 0.35172,-3.86887 -1.0672,-7.86376 -3.78056,-10.64397"
           id="path53-63"
           inkscape:path-effect="#path-effect53-39"
           inkscape:original-d="m 830.88988,554.13296 c 2.06381,-0.41276 4.95314,-1.65104 7.42972,-2.47657 2.47657,-0.82552 1.23828,-13.62114 1.85742,-20.43172"
           transform="matrix(-0.83125506,0.74643195,-0.82076655,-0.75597055,2130.733,324.00318)" />
      </g>
      <g
         id="g30"
         transform="matrix(1.6434598,0,0,1.4788563,-104.26107,62.094817)"
         style="stroke-width:2.97438;stroke-dasharray:none">
        <path
           style="fill:none;stroke:#000000;stroke-width:2.97438;stroke-dasharray:none;stroke-opacity:1"
           d="m 192.63208,232.03411 c -1.95781,-2.11411 -4.4745,-3.70595 -7.22361,-4.56903 -2.74911,-0.86307 -5.72404,-0.99531 -8.53888,-0.37957 -2.81485,0.61575 -5.46285,1.97801 -7.60052,3.91007 -2.13768,1.93205 -3.75989,4.42928 -4.6562,7.16773 -1.2595,3.84808 -1.06196,8.1061 0.26856,11.93021 1.33053,3.82411 3.7536,7.22155 6.73624,9.9598 6.94121,6.37247 17.07545,9.07493 26.26802,7.00481"
           id="path29"
           inkscape:path-effect="#path-effect30"
           inkscape:original-d="m 192.63208,232.03411 c -9.92347,2.04307 -18.67947,4.08614 -28.01921,6.1292 -9.33974,2.04307 4.66987,14.59334 7.0048,21.89001 2.33494,7.29667 17.51201,4.66987 26.26802,7.00481" />
        <path
           style="fill:none;stroke:#000000;stroke-width:2.97438;stroke-dasharray:none;stroke-opacity:1"
           d="m 192.63208,232.03411 c -1.95781,-2.11411 -4.4745,-3.70595 -7.22361,-4.56903 -2.74911,-0.86307 -5.72404,-0.99531 -8.53888,-0.37957 -2.81485,0.61575 -5.46285,1.97801 -7.60052,3.91007 -2.13768,1.93205 -3.75989,4.42928 -4.6562,7.16773 -1.2595,3.84808 -1.06196,8.1061 0.26856,11.93021 1.33053,3.82411 3.7536,7.22155 6.73624,9.9598 6.94121,6.37247 17.07545,9.07493 26.26802,7.00481"
           id="path29-0"
           inkscape:path-effect="#path-effect30-9"
           inkscape:original-d="m 192.63208,232.03411 c -9.92347,2.04307 -18.67947,4.08614 -28.01921,6.1292 -9.33974,2.04307 4.66987,14.59334 7.0048,21.89001 2.33494,7.29667 17.51201,4.66987 26.26802,7.00481"
           transform="matrix(-1,0,0,1,382.05547,0.1703241)" />
        <path
           style="fill:none;stroke:#000000;stroke-width:4.41103;stroke-dasharray:none;stroke-opacity:1"
           d="m 219.77571,239.91451 c -1.98911,-3.86215 -5.26513,-7.04747 -9.1816,-8.92737 -3.91647,-1.8799 -8.45087,-2.44359 -12.70842,-1.57983 -5.60811,1.13776 -10.65573,4.79283 -13.48663,9.76591 -2.83089,4.97307 -3.39679,11.17933 -1.512,16.58239 1.88478,5.40306 6.18811,9.91076 11.49796,12.04404 5.30986,2.13328 11.53569,1.85575 16.63467,-0.74152"
           id="path29-1"
           inkscape:path-effect="#path-effect29-4"
           inkscape:original-d="m 219.77571,239.91451 c -6.71294,-3.5024 -14.59335,-7.0048 -21.89002,-10.5072 -7.29667,-3.5024 8.756,25.10054 13.134,37.65082"
           transform="matrix(0.15931338,-0.57576988,-0.59393743,-0.15444025,308.07022,405.58524)" />
        <path
           style="fill:none;fill-rule:evenodd;stroke:#000000;stroke-width:5;stroke-dasharray:none;stroke-opacity:1"
           id="path27"
           sodipodi:type="arc"
           sodipodi:cx="207.39154"
           sodipodi:cy="244.41916"
           sodipodi:rx="14.009606"
           sodipodi:ry="12.696205"
           sodipodi:start="0"
           sodipodi:end="6.2822494"
           sodipodi:open="true"
           sodipodi:arc-type="arc"
           d="m 221.40115,244.41916 a 14.009606,12.696205 0 0 1 -14.00633,12.6962 14.009606,12.696205 0 0 1 -14.01288,-12.69026 14.009606,12.696205 0 0 1 13.99977,-12.70214 14.009606,12.696205 0 0 1 14.01943,12.68432"
           transform="matrix(0.59121482,0,0,0.59855969,69.395706,99.651459)" />
      </g>
      <path
         style="fill:#d4a485;fill-opacity:1;stroke:#000000;stroke-width:0;stroke-dasharray:none;stroke-opacity:1"
         d="m 905.80859,618.56985 c -34.13501,-2.28086 -54.11424,-15.57063 -56.53966,-37.609 -0.3445,-3.13027 -1.06219,-5.98088 -1.59486,-6.33469 -1.77837,-1.18122 -3.03298,-0.68929 -3.31551,1.29999 -0.60889,4.28731 -10.62066,2.51293 -16.87271,-2.99035 -8.64467,-7.60934 -9.95871,-22.07467 -2.6676,-29.36578 3.94492,-3.94492 9.01327,-4.07493 12.76087,-0.32734 2.15668,2.15669 2.55944,3.25898 2.55944,7.0048 0,3.86163 0.22996,4.44536 1.7512,4.44536 0.96316,0 1.7512,0.58118 1.7512,1.29151 0,1.90884 4.9218,0.81086 9.11583,-2.03361 5.72632,-3.88369 8.19131,-10.93016 6.36533,-18.19608 -0.65978,-2.62539 -0.55803,-2.76405 2.44111,-3.32669 5.97264,-1.12048 12.65439,-9.3276 12.70452,-15.60485 0.0173,-2.16969 0.32585,-2.4079 3.11871,-2.4079 5.82548,0 12.17,-4.6507 13.88352,-10.17698 0.54195,-1.74783 0.77095,-1.78932 3.83618,-0.69514 1.79291,0.64001 4.04787,1.17875 5.01103,1.1972 3.4731,0.0665 8.42374,-1.85405 11.3089,-4.38725 l 2.94284,-2.58384 3.81914,2.18325 c 6.03947,3.45255 14.29381,2.82731 18.83568,-1.42674 l 1.88254,-1.76324 3.40013,2.2501 c 4.48788,2.96994 10.10908,3.69142 15.14608,1.944 3.63404,-1.26071 3.98496,-1.25049 4.7537,0.13842 2.77681,5.01699 10.01153,8.58081 16.00016,7.88167 2.77599,-0.32408 2.90386,-0.21026 2.90386,2.58465 0,5.98832 6.01819,13.73292 11.52788,14.83486 2.1363,0.42726 2.42222,0.79268 1.84785,2.36156 -0.37373,1.02085 -0.67952,4.05444 -0.67952,6.74131 0,4.00858 0.44255,5.46522 2.4662,8.11732 3.00385,3.93671 5.16107,5.40128 11.21557,7.61425 6.18,2.25889 7.7704,1.69464 7.7704,-2.75679 0,-4.42363 1.9812,-7.44171 5.6881,-8.66509 8.6225,-2.84568 16.0764,8.09333 13.5481,19.88257 -2.0202,9.41967 -8.7945,16.06245 -17.7039,17.36017 l -4.1591,0.60581 v -3.16402 c 0,-2.79122 -0.2579,-3.16402 -2.189,-3.16402 -2.0262,0 -2.1897,0.30923 -2.1994,4.1591 -0.024,9.539 -5.402,21.47891 -12.58315,27.93538 -11.13023,10.00704 -24.81328,13.57208 -56.57884,14.7413 -7.4645,0.27476 -15.73892,0.62963 -18.38761,0.7886 -2.64869,0.15897 -9.34704,-0.0137 -14.88521,-0.38378 z m 29.00958,-13.47767 c 15.95382,-3.38158 27.13957,-14.65864 27.26037,-27.48289 0.12186,-12.93731 -10.43879,-22.06165 -24.25125,-20.95291 -2.96561,0.23805 -6.62433,1.07007 -8.13048,1.84893 -2.56741,1.32766 -2.97512,1.30871 -6.52744,-0.30335 -5.17308,-2.34757 -13.84849,-2.31846 -19.11198,0.0641 -8.19408,3.70916 -12.56391,10.24284 -12.54337,18.75456 0.0296,12.25562 8.9199,22.26769 24.15355,27.20116 7.38078,2.39028 11.16782,2.5624 19.1506,0.87037 z m -68.81154,-58.45211 c 0.85197,-3.879 8.82404,-11.66888 13.17931,-12.87812 8.32801,-2.31227 14.82272,-0.54965 21.15015,5.74001 2.5283,2.51321 4.5969,5.18619 4.5969,5.93997 0,1.52218 1.52398,1.76449 3.44647,0.548 1.93875,-1.22678 -1.19481,-7.34415 -5.86993,-11.45935 -5.27387,-4.64224 -11.02694,-6.42813 -19.04918,-5.91329 -11.23451,0.72099 -19.17469,7.29834 -22.67838,18.78596 -0.46526,1.52544 -0.18133,1.96979 1.42741,2.2339 2.75904,0.45295 3.09831,0.18517 3.79725,-2.99708 z m 82.52692,-2.67333 c 3.78362,-8.51431 10.36223,-12.92963 19.21422,-12.89588 2.98543,0.0114 6.4876,0.67486 8.58055,1.62556 3.71411,1.6871 10.91111,9.09688 10.91111,11.2337 0,0.89109 0.56469,1.07555 1.9701,0.64355 1.08355,-0.33307 2.13025,-0.74963 2.326,-0.92568 0.8446,-0.75962 -2.99937,-7.43053 -5.92283,-10.27865 -9.8468,-9.59303 -25.80001,-9.5291 -35.613,0.14271 -3.49726,3.44693 -7.89603,11.81514 -6.98528,13.28876 1.31593,2.12921 3.90414,0.80017 5.51913,-2.83407 z"
         id="path62"
         transform="matrix(1.3450509,0,0,1.3290372,-1036.8935,-344.56492)" />
      <path
         style="fill:#e7aaaa;fill-opacity:1;stroke:#000000;stroke-width:0;stroke-dasharray:none;stroke-opacity:1"
         d="m 919.3441,600.80774 c -18.88598,-4.81858 -28.88139,-21.10926 -20.36822,-33.19642 2.91418,-4.1376 8.98531,-7.08114 14.60504,-7.08114 5.13652,0 7.79025,0.96923 10.74574,3.92472 1.626,1.626 1.88325,1.65042 3.65502,0.34687 4.21237,-3.09916 7.91666,-4.16355 13.25727,-3.80933 17.81385,1.18149 22.12047,21.88632 6.96014,33.46209 -7.93672,6.06013 -19.7818,8.66815 -28.85499,6.35321 z m 16.03218,-1.93887 c 6.36748,-2.66051 9.83433,-7.49683 9.83433,-13.7191 0,-4.61982 -2.39508,-9.32582 -5.78493,-11.36658 -7.15462,-4.30724 -7.85006,-4.52041 -14.03439,-4.30206 -3.52344,0.1244 -12.06972,7.011 -13.38579,10.78629 -2.67276,7.66707 1.42476,15.70896 9.691,19.0198 3.21116,1.28615 10.10491,1.07532 13.67978,-0.41835 z"
         id="path64"
         transform="matrix(1.3450509,0,0,1.3290372,-1036.8935,-344.56492)" />
      <path
         style="fill:#e7aaaa;fill-opacity:1;stroke:#000000;stroke-width:0;stroke-dasharray:none;stroke-opacity:1"
         d="m 923.62846,595.76511 c -1.5162,-0.43924 -3.97883,-2.19051 -5.4725,-3.8917 -2.1525,-2.45157 -2.70425,-3.85859 -2.66026,-6.78392 0.0422,-2.80643 0.22907,-3.27121 0.77984,-1.93964 3.68534,8.9098 19.42541,9.01312 23.27945,0.15281 1.16026,-2.6674 1.21453,-2.69124 1.34417,-0.59061 0.38536,6.2438 -1.47976,9.7635 -6.44832,12.16874 -4.05977,1.9653 -6.42406,2.15849 -10.82238,0.88432 z"
         id="path66"
         transform="matrix(1.3450509,0,0,1.3290372,-1036.8935,-344.56492)" />
      <path
         style="fill:#d77171;fill-opacity:1;stroke:#000000;stroke-width:0;stroke-dasharray:none;stroke-opacity:1"
         d="m 925.71502,585.8157 c -3.63872,-0.93859 -5.67008,-3.1508 -5.67504,-6.18029 -0.0107,-6.52958 10.88704,-8.88231 14.91842,-3.22077 3.57525,5.02098 -2.45342,11.15249 -9.24338,9.40106 z"
         id="path68"
         transform="matrix(1.3450509,0,0,1.3290372,-1036.8935,-344.56492)" />
      <path
         style="fill:#000000;fill-opacity:1;stroke:#000000;stroke-width:0;stroke-dasharray:none;stroke-opacity:1"
         d="m 489.5873,647.81888 c 0,-1.85586 0.82265,-6.13479 1.7046,-8.86632 7.64708,-23.68408 35.9836,-37.24668 63.3563,-30.32399 17.56785,4.443 30.9726,17.28263 33.84348,32.41669 0.61936,3.26504 0.61652,4.87564 -0.009,4.87564 -0.91834,0 -2.87186,-1.22837 -3.94223,-2.47885 -2.05984,-2.40646 -2.22935,-5.23551 -0.47262,-7.88769 0.87225,-1.31685 0.90481,-1.46155 0.44355,-1.97124 -0.27379,-0.30253 -0.58711,-0.99661 -0.69627,-1.54238 -0.18743,-0.93716 -0.25716,-0.98131 -1.25432,-0.79424 -2.3356,0.43816 -5.40174,-1.23481 -6.61241,-3.60793 -0.67374,-1.32065 -0.81403,-3.8398 -0.2792,-5.01363 0.29438,-0.6461 0.17144,-0.8859 -1.11242,-2.16976 -1.33512,-1.33511 -1.49346,-1.41132 -2.111,-1.01603 -1.32511,0.84822 -3.26979,1.16564 -4.83738,0.78958 -2.75633,-0.66123 -5.23041,-3.58553 -4.83168,-5.71093 0.16783,-0.89463 0.0847,-1.03206 -0.91234,-1.5075 -1.51158,-0.72082 -1.61731,-0.6929 -2.89138,0.76357 -1.33028,1.52074 -3.11795,2.41195 -4.85702,2.42137 -1.78831,0.01 -4.32869,-1.33752 -5.30551,-2.8136 -0.6204,-0.93749 -0.93678,-1.16004 -1.46176,-1.02828 -0.3685,0.0925 -1.0435,0.0262 -1.50001,-0.14741 -0.76773,-0.29189 -0.86948,-0.23241 -1.35594,0.79273 -1.00562,2.11918 -4.27422,3.78822 -6.57387,3.35681 -1.59236,-0.29873 -2.73605,-0.9657 -4.30033,-2.50786 -0.92325,-0.91019 -1.67589,-1.37753 -2.27408,-1.41205 -0.49176,-0.0284 -1.12903,-0.0632 -1.41617,-0.0774 -0.34125,-0.0169 -0.61443,0.33062 -0.78873,1.00325 -0.14666,0.56598 -0.85205,1.61359 -1.56754,2.32803 -2.64166,2.6378 -6.13169,2.69846 -9.01919,0.15678 -1.32533,-1.1666 -1.34565,-1.17257 -2.67819,-0.78676 l -1.34272,0.38875 -0.0251,1.84736 c -0.0597,4.40133 -4.23399,7.58351 -8.16924,6.2277 -1.31285,-0.45231 -1.38859,-0.44239 -2.56456,0.33583 -0.66647,0.44105 -1.14583,0.97374 -1.06524,1.18376 1.12427,2.9298 0.96485,5.05514 -0.52496,6.99842 -1.23026,1.60474 -2.91847,2.49692 -5.0609,2.67459 -1.2666,0.10504 -1.65204,0.25481 -1.64837,0.64051 0.003,0.27688 -0.57321,1.00066 -1.27967,1.60841 l -1.28446,1.10499 0.86149,1.3018 c 1.0115,1.52849 1.32878,3.77006 0.77228,5.45625 -0.64804,1.96358 -3.0261,4.18875 -4.47656,4.18875 -0.3506,0 -0.47973,-0.3224 -0.47973,-1.19773 z"
         id="path69"
         transform="matrix(2.2180465,0,0,2.2072713,-985.60679,-1044.9886)" />
    </g>
  </g>
</svg>
