<?xml version="1.0" encoding="UTF-8"?>
<svg xmlns="http://www.w3.org/2000/svg" id="Layer_1" data-name="Layer 1" viewBox="0 0 24 24" width="512" height="512"><path d="m24,11.5c0,.276-.224.5-.5.5h-1.87c-.872,0-1.692-.464-2.142-1.211l-1.843-3.062c-.017-.029-.035-.057-.054-.084l-2.8,6.067c-.084.183-.266.29-.455.29-.07,0-.141-.015-.209-.046-.251-.116-.36-.413-.245-.664l2.877-6.235c-.129-.036-.263-.055-.4-.055h-2.593l-2.673,5.849c-.269.656-.022,1.429.594,1.818l5.061,2.899c.156.089.251.254.251.434v5.5c0,.276-.224.5-.5.5s-.5-.224-.5-.5v-5.21l-4.828-2.767c-1.046-.66-1.457-1.948-.996-3.072l2.491-5.451h-1.931c-.572,0-1.085.317-1.341.829l-1.447,2.895c-.124.247-.424.349-.671.224-.247-.124-.347-.424-.224-.671l1.447-2.895c.426-.853,1.283-1.382,2.236-1.382h5.624c.872,0,1.692.464,2.142,1.211l1.843,3.062c.27.448.762.727,1.285.727h1.87c.276,0,.5.224.5.5Zm-14.311,5.279c-.256-.103-.548.021-.65.278-.229.572-.776.942-1.393.942h-2.583c-.248,0-.458.182-.495.427-.51,3.422-1.291,4.573-1.568,4.573-.679,0-2-3.883-2-11S2.321,1,3,1s2,3.883,2,11c0,1.18-.039,2.346-.117,3.466-.019.275.189.514.464.533.283.024.514-.189.534-.465.079-1.143.119-2.331.119-3.534C6,7.85,5.373,0,3,0S0,7.85,0,12s.627,12,3,12c1.113,0,1.951-1.682,2.491-5h2.155c1.028,0,1.939-.616,2.321-1.571.103-.256-.022-.547-.278-.649ZM14,2.5c0-1.379,1.122-2.5,2.5-2.5s2.5,1.121,2.5,2.5-1.122,2.5-2.5,2.5-2.5-1.121-2.5-2.5Zm1,0c0,.827.673,1.5,1.5,1.5s1.5-.673,1.5-1.5-.673-1.5-1.5-1.5-1.5.673-1.5,1.5Z"/></svg>
