<?xml version="1.0" encoding="UTF-8"?>
<svg xmlns="http://www.w3.org/2000/svg" id="Layer_1" data-name="Layer 1" viewBox="0 0 24 24" width="512" height="512"><path d="m12,0C5.383,0,0,5.383,0,12s5.383,12,12,12,12-5.383,12-12S18.617,0,12,0Zm0,21c-4.963,0-9-4.037-9-9S7.037,3,12,3s9,4.037,9,9-4.037,9-9,9Zm4.2-12.1l-2.325,3.1,2.325,3.1c.497.663.362,1.604-.3,2.101-.271.202-.586.3-.899.3-.456,0-.906-.207-1.201-.6l-1.8-2.4-1.8,2.4c-.295.393-.745.6-1.201.6-.313,0-.629-.098-.899-.3-.662-.497-.797-1.438-.3-2.101l2.325-3.1-2.325-3.1c-.497-.663-.362-1.604.3-2.101.665-.496,1.604-.362,2.101.3l1.8,2.4,1.8-2.4c.498-.662,1.438-.796,2.101-.3.662.497.797,1.438.3,2.101Z"/></svg>
