<?xml version="1.0" encoding="UTF-8" standalone="no"?>
<svg
   width="607.04999pt"
   height="607.08301pt"
   viewBox="0 0 607.04999 607.08301"
   version="1.1"
   id="svg15"
   sodipodi:docname="logoAPP (1).svg"
   inkscape:version="1.3 (0e150ed6c4, 2023-07-21)"
   xmlns:inkscape="http://www.inkscape.org/namespaces/inkscape"
   xmlns:sodipodi="http://sodipodi.sourceforge.net/DTD/sodipodi-0.dtd"
   xmlns="http://www.w3.org/2000/svg"
   xmlns:svg="http://www.w3.org/2000/svg">
  <defs
     id="defs15" />
  <sodipodi:namedview
     id="namedview15"
     pagecolor="#ffffff"
     bordercolor="#000000"
     borderopacity="0.25"
     inkscape:showpageshadow="2"
     inkscape:pageopacity="0.0"
     inkscape:pagecheckerboard="0"
     inkscape:deskcolor="#d1d1d1"
     inkscape:document-units="pt"
     inkscape:zoom="1.4537372"
     inkscape:cx="385.21406"
     inkscape:cy="512.12834"
     inkscape:window-width="1600"
     inkscape:window-height="837"
     inkscape:window-x="-8"
     inkscape:window-y="-8"
     inkscape:window-maximized="1"
     inkscape:current-layer="svg15" />
  <path
     fill="#ffe5cf"
     stroke="#ffe5cf"
     stroke-width="0.09375"
     opacity="1"
     d="m 281.52639,0.8441968 c 46.8,-3.4 94.3,4.1 137.6,22.0000002 63.1,25.9 116.7,73.7 149.7,133.300003 20.6,36.8 33.2,77.9 36.9,119.8 3.8,41.3 -0.9,83.4 -13.9,122.8 -20.4,62 -61.5,116.8 -115.1,154 -30.3,21.1 -64.4,36.7 -100.3,45.5 -48.7,12 -100.4,11.7 -148.9,-0.8 -67.4,-17.2 -128.100001,-58.6 -169.000001,-114.8 -25.1,-34.2 -42.9,-73.7 -51.7000001,-115.2 -9.5,-44.1 -9,-90.4 1.4,-134.3 16.3000001,-69.6 58.5000001,-132.6 116.2000011,-174.600003 45.6,-33.5 100.7,-53.8000002 157.1,-57.7000002 m 5.9,5.7 c -49.7,2.5 -98.6,17.8000002 -140.8,44.1000002 -51.700001,32.3 -93.400001,80.600003 -117.200001,136.800003 -29.4000001,69.2 -31.1000001,149.6 -4.8,220 22.6,61.1 66.2,114 121.400001,148.6 34.8,21.9 74.3,36.2 115,42 43.9,6.3 89.1,2.6 131.4,-10.5 32.8,-10.2 63.8,-26.2 91,-47.1 50.3,-38.2 88.2,-92.5 105.7,-153.3 12,-41.3 15.1,-85.3 8.6,-127.9 -6.1,-41.3 -21,-81.2 -43.6,-116.2 -33.4,-51.800003 -82.9,-93.100003 -140.2,-115.900003 -40,-15.9 -83.5,-23.0000002 -126.5,-20.6000002 z"
     id="path1" />
  <path
     fill="#ee7f7f"
     stroke="#ee7f7f"
     stroke-width="0.09375"
     opacity="1"
     d="m 287.42639,6.5441968 c 43,-2.4 86.5,4.7000002 126.5,20.6000002 57.3,22.8 106.8,64.1 140.2,115.900003 22.6,35 37.5,74.9 43.6,116.2 6.5,42.6 3.4,86.6 -8.6,127.9 -17.5,60.8 -55.4,115.1 -105.7,153.3 -27.2,20.9 -58.2,36.9 -91,47.1 -42.3,13.1 -87.5,16.8 -131.4,10.5 -40.7,-5.8 -80.2,-20.1 -115,-42 -55.200001,-34.6 -98.800001,-87.5 -121.400001,-148.6 -26.3000001,-70.4 -24.6000001,-150.8 4.8,-220 23.8,-56.2 65.5,-104.500003 117.200001,-136.800003 42.2,-26.3 91.1,-41.6000002 140.8,-44.1000002 m 20.7,62.5000002 c -3.1,4.5 -7.7,7.3 -12.2,10.1 -0.9,-0.5 -1.8,-0.9 -2.6,-1.4 0.6,-2.1 0.9,-4.3 2,-6.2 2.3,-2.1 4.9,-3.6 6.9,-6 -7.1,-0.5 -14.2,0.1 -21.3,0.7 -21.3,1.8 -42.5,6.1 -62.8,12.9 -54.8,17.9 -103.6,54.500003 -135.000001,103.000003 -19.8,30.3 -32.6,65.2 -36.7,101.3 -2.6,22.1 -1.5,44.5 1.6,66.6 0.5,2.6 3,4.4 3.7,7 -0.7,4.2 -2.5,8.1 -3.5,12.2 -2.3,9 -2.1,18.4 -1.6,27.5 1.7,15.3 7.4,29.8 14.5,43.2 8,14.7 17.9,28.5 30.8,39.3 5,4 10.700001,7.9 17.300001,8.5 4,0.5 6.9,-3.4 7.6,-6.9 1.5,-8 1.3,-16.2 2.4,-24.2 1.5,1.9 2.9,4 4,6.2 7.2,13 14.9,26 25.2,36.8 6.3,6.5 13.2,12.9 21.7,16.2 3.5,1.3 8.6,1.8 10.8,-1.9 3.2,-5.4 2.6,-12 2.2,-17.9 -1.6,-12.5 -5.3,-24.6 -7.1,-37.1 12.8,16.8 22.6,36.3 39.5,49.6 5.3,4 11.3,8.4 18.3,8.2 4.5,-0.5 6.3,-5.4 6.7,-9.3 1.4,-12.7 -2.2,-25.4 -6.7,-37.2 -6,-15.3 -14.4,-29.6 -24.8,-42.2 -3.3,-4.1 -7.3,-7.5 -10.3,-11.8 4.2,-1.7 9.2,-1.8 12.8,-4.6 3.2,-4.3 1.8,-10.1 0.7,-14.9 -3.8,-13 -11.4,-24.5 -19.9,-35 -11.2,-13.2 -24.2,-25.1 -39.2,-33.8 -8.6,-5.4 -18.1,-9.6 -28.2,-10.7 -2.1,-0.5 -4.8,-0.2 -6.5,-1.8 -2.3,-2.2 1.1,-5.9 3.7,-5.3 17.6,1.4 33.2,10.5 47.2,20.6 3.1,2.4 6,5.1 9.3,7.3 2,-2.5 3.9,-5 5.9,-7.5 20.9,-26.2 51,-44.4 83.6,-52 3.3,10.7 14.5,16.5 24.9,18.6 11.5,2 24.1,1.2 34.5,-4.6 5.6,-3 10.3,-8 12.3,-14.1 21.8,5.2 42.5,14.8 60.2,28.7 11.1,8.5 20.5,18.9 29,30 7.3,-5.8 14.8,-11.5 23,-16 14.2,-9 31.4,-12.5 48.1,-10.9 0,2 1,4.7 -1.3,5.8 -2.9,0.5 -5.9,0.3 -8.8,0.3 -9.6,-0.2 -19,2.2 -27.6,6.2 -15,7.4 -28.6,17.6 -40.2,29.7 -11.4,11.9 -21.5,25.3 -27.2,40.9 -1.8,5.6 -3.5,12.2 -1,17.9 3.1,3.9 8.8,3.5 13.1,5.3 -2.3,3.6 -5.5,6.3 -8.3,9.6 -7.5,8.7 -13.9,18.4 -19.3,28.5 -6.8,13.1 -12.3,27.1 -14,41.9 -0.3,5.9 -0.9,12.4 2.3,17.8 2.3,3.9 7.7,3 11.3,2 9.2,-3.6 16.6,-10.6 23.2,-17.8 10.5,-11.5 17.9,-25.5 27.6,-37.7 -2.1,12.9 -6,25.4 -7.1,38.4 -0.1,5.7 -0.4,12.7 4.2,17 5,2.3 10.9,0 15.3,-2.7 11,-6.8 19.6,-16.7 27,-27 6.7,-9 11.3,-19.3 17.7,-28.4 0.9,6.3 1.1,12.7 1.8,19.1 0.5,3.7 1.1,8.4 4.8,10.3 6.1,1.7 12.1,-1.3 17,-4.7 10.9,-7.6 19.6,-18 27,-29 9.6,-14.6 17.4,-30.7 21.2,-47.8 1.9,-8.1 1.7,-16.5 1.5,-24.8 -0.3,-8.2 -2.8,-16 -5.4,-23.7 5.9,-6.1 5.5,-14.9 6.6,-22.7 1.6,-11.8 1.2,-23.8 1.1,-35.7 -1.4,-26 -6.8,-51.8 -16.6,-75.9 -23.9,-59.8 -72.9,-108.4 -131.7,-134.300003 -16.4,-7.2 -33.4,-13.3 -51,-16.7 -0.3,0.4 -0.8,1.2 -1,1.6 3.2,2 7.7,3.4 8.5,7.6 1,5.3 -2.8,9.9 -6.7,12.9 -7.9,5.8 -17.5,8.900003 -27.1,10.000003 -2.4,0 -3.9,2 -5.3,3.6 -1.1,-2.6 -2.4,-5.1 -3.8,-7.6 0.3,-0.600003 0.9,-1.700003 1.2,-2.200003 10.4,-0.4 21.2,-2.7 29.9,-8.8 2.3,-1.7 5.1,-3.7 5,-6.9 -4.5,-2.5 -9.8,-2.9 -14.4,-5 3.5,-4.4 8,-8 10.4,-13.2 -1.5,-1 -3.1,-2.1 -5,-2.2 -7.1,-1 -13.9,1.6 -20.9,2.5 0.1,-3.4 0,-6.9 -0.1,-10.4 -10.6,-0.2 -19.3,7.6 -25.9,15.1 m -66.7,315.500003 c -1.9,0.4 -4.4,1.3 -4.6,3.6 -1.1,4.5 6.2,4.6 5.8,8.9 0.2,10.7 0.2,21.4 -0.7,32.1 -0.3,1.6 -0.1,3.9 -1.8,4.9 -1.4,1 -3,1.8 -4.3,3 -0.6,1.5 -0.9,3.6 0.5,4.7 2,2.4 5.3,2 8.1,1.9 9.6,-0.7 19.1,-0.1 28.6,0.1 9.2,0.1 18.9,-3.8 24.1,-11.7 5.5,-8.4 6.4,-19.3 3.8,-28.9 -2.2,-7.8 -8,-14.6 -15.8,-17.2 -9,-3 -18.7,-1.6 -28.1,-1.5 -5.2,0.2 -10.4,-0.5 -15.6,0.1 m 67,0.9 c -2.4,0.8 -4,3.5 -2.8,5.9 2.4,2.7 6.6,4.2 6.8,8.3 1.4,9.7 1.2,19.6 0.3,29.3 0,3.5 -3.3,5.2 -5.3,7.6 -0.8,1.9 -0.5,4.6 1.6,5.6 5,2.7 11.2,2.4 16.7,1.6 2.5,-0.6 6.1,-1.6 6.3,-4.7 0.5,-4 -4.8,-4.9 -5.6,-8.3 -1,-4.9 -1.1,-10.1 0.9,-14.7 3.9,0.5 6.5,3.8 9.4,6.3 7,6.3 14.1,12.6 21.1,18.9 2,1.9 5,3.9 7.8,2.4 2.3,-1.9 2.4,-5.3 2.8,-8 0.7,-12.2 -0.4,-24.5 0.6,-36.6 -0.2,-3.7 3.7,-5.1 5.8,-7.4 1.4,-2.2 0.3,-5.5 -2.2,-6.3 -4.7,-1.6 -9.8,-1.3 -14.7,-1.1 -2.8,0.2 -6.7,0.7 -7.4,4.1 -0.8,4.4 5.4,5.3 5.9,9.3 0.7,3.5 0.5,7.1 -0.5,10.5 -2.3,-0.3 -4.3,-1.5 -5.9,-3 -6.2,-5.5 -12.5,-10.9 -18.6,-16.4 -2.4,-2.1 -5,-4.4 -8.4,-4.5 -4.8,-0.3 -10,-0.5 -14.6,1.2 m -184.3,92.6 c -0.6,2.2 -1,4.5 -1.3,6.9 4.3,4 8.6,8 13.6,11.3 -4.1,-6.1 -8.3,-12.1 -12.3,-18.2 m 350.5,11.6 c -2.5,3.6 -5.4,6.8 -7.8,10.3 6.2,-4.1 11.7,-9.1 17.2,-14.2 -0.4,-2.6 -0.9,-5.2 -1.5,-7.8 -2.9,3.7 -5.2,7.9 -7.9,11.7 m -285.1,19.5 c -1,3.3 -1.7,6.8 -3.9,9.5 -2,2.7 -5.4,3.7 -8.4,4.9 23.1,12.3 48.1,20.9 73.8,26.3 -10.5,-4.6 -21.1,-8.9 -30.6,-15.2 -11.5,-7 -21.3,-16.2 -30.9,-25.5 m 186.1,32.4 c -4.8,2.7 -10.1,4.4 -14.8,7.2 8.1,-1.4 16,-3.8 23.8,-6.1 15.7,-5 31.1,-11 45.5,-19.1 -3,-1 -6.3,-1.6 -8.5,-4.1 -2.2,-2.5 -3.3,-5.8 -4.6,-8.9 -12,12.5 -25.9,23.3 -41.4,31 z"
     id="path2" />
  <path
     fill="#ffe5cf"
     stroke="#ffe5cf"
     stroke-width="0.09375"
     opacity="1"
     d="m 308.12639,69.044197 c 6.6,-7.5 15.3,-15.3 25.9,-15.1 0.1,3.5 0.2,7 0.1,10.4 7,-0.9 13.8,-3.5 20.9,-2.5 1.9,0.1 3.5,1.2 5,2.2 -2.4,5.2 -6.9,8.8 -10.4,13.2 4.6,2.1 9.9,2.5 14.4,5 0.1,3.2 -2.7,5.2 -5,6.9 -8.7,6.1 -19.5,8.4 -29.9,8.8 -0.3,0.5 -0.9,1.6 -1.2,2.200003 1.4,2.5 2.7,5 3.8,7.6 1.4,-1.6 2.9,-3.6 5.3,-3.6 9.6,-1.1 19.2,-4.200003 27.1,-10.000003 3.9,-3 7.7,-7.6 6.7,-12.9 -0.8,-4.2 -5.3,-5.6 -8.5,-7.6 0.2,-0.4 0.7,-1.2 1,-1.6 17.6,3.4 34.6,9.5 51,16.7 58.8,25.900003 107.8,74.500003 131.7,134.300003 9.8,24.1 15.2,49.9 16.6,75.9 0.1,11.9 0.5,23.9 -1.1,35.7 -1.1,7.8 -0.7,16.6 -6.6,22.7 2.6,7.7 5.1,15.5 5.4,23.7 0.2,8.3 0.4,16.7 -1.5,24.8 -3.8,17.1 -11.6,33.2 -21.2,47.8 -7.4,11 -16.1,21.4 -27,29 -4.9,3.4 -10.9,6.4 -17,4.7 -3.7,-1.9 -4.3,-6.6 -4.8,-10.3 -0.7,-6.4 -0.9,-12.8 -1.8,-19.1 -6.4,9.1 -11,19.4 -17.7,28.4 -7.4,10.3 -16,20.2 -27,27 -4.4,2.7 -10.3,5 -15.3,2.7 -4.6,-4.3 -4.3,-11.3 -4.2,-17 1.1,-13 5,-25.5 7.1,-38.4 -9.7,12.2 -17.1,26.2 -27.6,37.7 -6.6,7.2 -14,14.2 -23.2,17.8 -3.6,1 -9,1.9 -11.3,-2 -3.2,-5.4 -2.6,-11.9 -2.3,-17.8 1.7,-14.8 7.2,-28.8 14,-41.9 5.4,-10.1 11.8,-19.8 19.3,-28.5 2.8,-3.3 6,-6 8.3,-9.6 -4.3,-1.8 -10,-1.4 -13.1,-5.3 -2.5,-5.7 -0.8,-12.3 1,-17.9 5.7,-15.6 15.8,-29 27.2,-40.9 11.6,-12.1 25.2,-22.3 40.2,-29.7 8.6,-4 18,-6.4 27.6,-6.2 2.9,0 5.9,0.2 8.8,-0.3 2.3,-1.1 1.3,-3.8 1.3,-5.8 -16.7,-1.6 -33.9,1.9 -48.1,10.9 -8.2,4.5 -15.7,10.2 -23,16 -8.5,-11.1 -17.9,-21.5 -29,-30 -17.7,-13.9 -38.4,-23.5 -60.2,-28.7 0.1,-4.7 -0.4,-9.9 -3.5,-13.7 -6.3,-7.9 -16.4,-12 -26.3,-12.7 -9.2,-0.6 -18.8,-0.3 -27.3,3.7 -5.1,2.3 -9.5,6 -12.4,10.6 -2.3,3.6 -2.4,8.1 -2.2,12.2 -32.6,7.6 -62.7,25.8 -83.6,52 -2,2.5 -3.9,5 -5.9,7.5 -3.3,-2.2 -6.2,-4.9 -9.3,-7.3 -14,-10.1 -29.6,-19.2 -47.2,-20.6 -2.6,-0.6 -6,3.1 -3.7,5.3 1.7,1.6 4.4,1.3 6.5,1.8 10.1,1.1 19.6,5.3 28.2,10.7 15,8.7 28,20.6 39.2,33.8 8.5,10.5 16.1,22 19.9,35 1.1,4.8 2.5,10.6 -0.7,14.9 -3.6,2.8 -8.6,2.9 -12.8,4.6 3,4.3 7,7.7 10.3,11.8 10.4,12.6 18.8,26.9 24.8,42.2 4.5,11.8 8.1,24.5 6.7,37.2 -0.4,3.9 -2.2,8.8 -6.7,9.3 -7,0.2 -13,-4.2 -18.3,-8.2 -16.9,-13.3 -26.7,-32.8 -39.5,-49.6 1.8,12.5 5.5,24.6 7.1,37.1 0.4,5.9 1,12.5 -2.2,17.9 -2.2,3.7 -7.3,3.2 -10.8,1.9 -8.5,-3.3 -15.4,-9.7 -21.7,-16.2 -10.3,-10.8 -18,-23.8 -25.2,-36.8 -1.1,-2.2 -2.5,-4.3 -4,-6.2 -1.1,8 -0.9,16.2 -2.4,24.2 -0.7,3.5 -3.6,7.4 -7.6,6.9 -6.6,-0.6 -12.300001,-4.5 -17.300001,-8.5 -12.9,-10.8 -22.8,-24.6 -30.8,-39.3 -7.1,-13.4 -12.8,-27.9 -14.5,-43.2 -0.5,-9.1 -0.7,-18.5 1.6,-27.5 1,-4.1 2.8,-8 3.5,-12.2 -0.7,-2.6 -3.2,-4.4 -3.7,-7 -3.1,-22.1 -4.2,-44.5 -1.6,-66.6 4.1,-36.1 16.9,-71 36.7,-101.3 31.400001,-48.5 80.200001,-85.100003 135.000001,-103.000003 20.3,-6.8 41.5,-11.1 62.8,-12.9 7.1,-0.6 14.2,-1.2 21.3,-0.7 -2,2.4 -4.6,3.9 -6.9,6 -1.1,1.9 -1.4,4.1 -2,6.2 0.8,0.5 1.7,0.9 2.6,1.4 4.5,-2.8 9.1,-5.6 12.2,-10.1 m -105.7,60.500003 c -9.8,1.6 -18.3,7.9 -24.4,15.4 -11.3,14.2 -16.5,32.2 -18.3,49.9 -1.7,20.7 1,42.2 10.6,60.9 5.1,9.6 12.3,18.7 22.1,23.8 9.8,5.3 22.4,4.7 31.8,-1.4 12,-7.5 19.9,-20.3 24.4,-33.5 6.9,-19.1 7.7,-39.9 4.5,-59.8 -3.1,-16.5 -9.4,-33.2 -21.8,-45.1 -7.5,-7.3 -18.3,-11.8 -28.9,-10.2 m 191,0.1 c -10.8,1.7 -19.9,9 -26.1,17.7 -10.3,14 -15,31.3 -16.7,48.3 -1.5,20.5 1.4,41.6 10.8,60 5.1,9.9 12.5,19.2 22.6,24.3 10,5 22.6,4.1 31.8,-2.1 12.6,-8.3 20.4,-22.1 24.8,-36.2 6,-18.2 6.6,-38 3.6,-56.8 -3.2,-16.8 -9.6,-33.8 -22.4,-45.6 -7.5,-7.1 -18.1,-11.3 -28.4,-9.6 z"
     id="path3" />
  <path
     fill="#ffffff"
     stroke="#ffffff"
     stroke-width="0.09375"
     opacity="1"
     d="m 202.42639,129.5442 c 10.6,-1.6 21.4,2.9 28.9,10.2 12.4,11.9 18.7,28.6 21.8,45.1 3.2,19.9 2.4,40.7 -4.5,59.8 -4.5,13.2 -12.4,26 -24.4,33.5 -9.4,6.1 -22,6.7 -31.8,1.4 -9.8,-5.1 -17,-14.2 -22.1,-23.8 -9.6,-18.7 -12.3,-40.2 -10.6,-60.9 1.8,-17.7 7,-35.7 18.3,-49.9 6.1,-7.5 14.6,-13.8 24.4,-15.4 m 19,34 c -4.7,1.5 -8.5,4.9 -11.1,8.9 -6.9,10 -9.5,22.5 -9.3,34.6 -0.2,12.1 2.2,24.8 8.9,35 3.6,5.4 9.3,10.3 16.1,9.8 7.5,0.1 13.3,-6 16.8,-12.1 7.2,-13.1 8.6,-28.7 6.8,-43.3 -1.7,-10.5 -5,-21.6 -13,-29 -4,-3.8 -9.9,-5.3 -15.2,-3.9 z"
     id="path4" />
  <path
     fill="#ffffff"
     stroke="#ffffff"
     stroke-width="0.09375"
     opacity="1"
     d="m 393.42639,129.6442 c 10.3,-1.7 20.9,2.5 28.4,9.6 12.8,11.8 19.2,28.8 22.4,45.6 3,18.8 2.4,38.6 -3.6,56.8 -4.4,14.1 -12.2,27.9 -24.8,36.2 -9.2,6.2 -21.8,7.1 -31.8,2.1 -10.1,-5.1 -17.5,-14.4 -22.6,-24.3 -9.4,-18.4 -12.3,-39.5 -10.8,-60 1.7,-17 6.4,-34.3 16.7,-48.3 6.2,-8.7 15.3,-16 26.1,-17.7 m -18,33.9 c -7,1.8 -11.6,8.1 -14.7,14.2 -6.5,13.5 -7.3,29.1 -5,43.7 1.9,10 5.6,20.6 13.8,27.1 6,5 15.4,4.3 20.9,-1.1 8.1,-7.8 11.5,-19.3 13,-30.2 1.4,-15.7 -0.1,-32.8 -9.7,-45.9 -4,-5.8 -11.3,-9.7 -18.3,-7.8 z"
     id="path5" />
  <path
     fill="#ee7f7f"
     stroke="#ee7f7f"
     stroke-width="0.09375"
     opacity="1"
     d="m 221.42639,163.5442 c 5.3,-1.4 11.2,0.1 15.2,3.9 8,7.4 11.3,18.5 13,29 1.8,14.6 0.4,30.2 -6.8,43.3 -3.5,6.1 -9.3,12.2 -16.8,12.1 -6.8,0.5 -12.5,-4.4 -16.1,-9.8 -6.7,-10.2 -9.1,-22.9 -8.9,-35 -0.2,-12.1 2.4,-24.6 9.3,-34.6 2.6,-4 6.4,-7.4 11.1,-8.9 z"
     id="path6" />
  <path
     fill="#ee7f7f"
     stroke="#ee7f7f"
     stroke-width="0.09375"
     opacity="1"
     d="m 375.42639,163.5442 c 7,-1.9 14.3,2 18.3,7.8 9.6,13.1 11.1,30.2 9.7,45.9 -1.5,10.9 -4.9,22.4 -13,30.2 -5.5,5.4 -14.9,6.1 -20.9,1.1 -8.2,-6.5 -11.9,-17.1 -13.8,-27.1 -2.3,-14.6 -1.5,-30.2 5,-43.7 3.1,-6.1 7.7,-12.4 14.7,-14.2 z"
     id="path7" />
  <path
     fill="#ffeb8f"
     stroke="#ffeb8f"
     stroke-width="0.09375"
     opacity="1"
     d="m 282.72639,255.7442 c 8.5,-4 18.1,-4.3 27.3,-3.7 9.9,0.7 20,4.8 26.3,12.7 3.1,3.8 3.6,9 3.5,13.7 -2,6.1 -6.7,11.1 -12.3,14.1 -10.4,5.8 -23,6.6 -34.5,4.6 -10.4,-2.1 -21.6,-7.9 -24.9,-18.6 -0.2,-4.1 -0.1,-8.6 2.2,-12.2 2.9,-4.6 7.3,-8.3 12.4,-10.6 z"
     id="path8" />
  <path
     fill="#ffe5cf"
     stroke="#ffe5cf"
     stroke-width="0.09375"
     opacity="1"
     d="m 241.42639,384.5442 c 5.2,-0.6 10.4,0.1 15.6,-0.1 9.4,-0.1 19.1,-1.5 28.1,1.5 7.8,2.6 13.6,9.4 15.8,17.2 2.6,9.6 1.7,20.5 -3.8,28.9 -5.2,7.9 -14.9,11.8 -24.1,11.7 -9.5,-0.2 -19,-0.8 -28.6,-0.1 -2.8,0.1 -6.1,0.5 -8.1,-1.9 -1.4,-1.1 -1.1,-3.2 -0.5,-4.7 1.3,-1.2 2.9,-2 4.3,-3 1.7,-1 1.5,-3.3 1.8,-4.9 0.9,-10.7 0.9,-21.4 0.7,-32.1 0.4,-4.3 -6.9,-4.4 -5.8,-8.9 0.2,-2.3 2.7,-3.2 4.6,-3.6 m 21.9,9.8 c -1.2,9.8 -0.2,19.8 -0.6,29.7 0.3,3.2 -0.7,7.2 1.6,9.8 4.5,2.4 10.7,0.1 13,-4.4 2.8,-5.4 2.9,-11.6 2.6,-17.5 -0.5,-4.9 -1.2,-10.4 -4.5,-14.4 -2.8,-3.5 -7.8,-4.4 -12.1,-3.2 z"
     id="path9" />
  <path
     fill="#ffe5cf"
     stroke="#ffe5cf"
     stroke-width="0.09375"
     opacity="1"
     d="m 308.42639,385.4442 c 4.6,-1.7 9.8,-1.5 14.6,-1.2 3.4,0.1 6,2.4 8.4,4.5 6.1,5.5 12.4,10.9 18.6,16.4 1.6,1.5 3.6,2.7 5.9,3 1,-3.4 1.2,-7 0.5,-10.5 -0.5,-4 -6.7,-4.9 -5.9,-9.3 0.7,-3.4 4.6,-3.9 7.4,-4.1 4.9,-0.2 10,-0.5 14.7,1.1 2.5,0.8 3.6,4.1 2.2,6.3 -2.1,2.3 -6,3.7 -5.8,7.4 -1,12.1 0.1,24.4 -0.6,36.6 -0.4,2.7 -0.5,6.1 -2.8,8 -2.8,1.5 -5.8,-0.5 -7.8,-2.4 -7,-6.3 -14.1,-12.6 -21.1,-18.9 -2.9,-2.5 -5.5,-5.8 -9.4,-6.3 -2,4.6 -1.9,9.8 -0.9,14.7 0.8,3.4 6.1,4.3 5.6,8.3 -0.2,3.1 -3.8,4.1 -6.3,4.7 -5.5,0.8 -11.7,1.1 -16.7,-1.6 -2.1,-1 -2.4,-3.7 -1.6,-5.6 2,-2.4 5.3,-4.1 5.3,-7.6 0.9,-9.7 1.1,-19.6 -0.3,-29.3 -0.2,-4.1 -4.4,-5.6 -6.8,-8.3 -1.2,-2.4 0.4,-5.1 2.8,-5.9 z"
     id="path10" />
  <path
     fill="#ee7f7f"
     stroke="#ee7f7f"
     stroke-width="0.09375"
     opacity="1"
     d="m 263.32639,394.3442 c 4.3,-1.2 9.3,-0.3 12.1,3.2 3.3,4 4,9.5 4.5,14.4 0.3,5.9 0.2,12.1 -2.6,17.5 -2.3,4.5 -8.5,6.8 -13,4.4 -2.3,-2.6 -1.3,-6.6 -1.6,-9.8 0.4,-9.9 -0.6,-19.9 0.6,-29.7 z"
     id="path11" />
  <path
     fill="#ffead4"
     stroke="#ffead4"
     stroke-width="0.09375"
     opacity="1"
     d="m 124.12639,478.0442 c 4,6.1 8.2,12.1 12.3,18.2 -5,-3.3 -9.3,-7.3 -13.6,-11.3 0.3,-2.4 0.7,-4.7 1.3,-6.9 z"
     id="path12" />
  <path
     fill="#ffe9d2"
     stroke="#ffe9d2"
     stroke-width="0.09375"
     opacity="1"
     d="m 474.62639,489.6442 c 2.7,-3.8 5,-8 7.9,-11.7 0.6,2.6 1.1,5.2 1.5,7.8 -5.5,5.1 -11,10.1 -17.2,14.2 2.4,-3.5 5.3,-6.7 7.8,-10.3 z"
     id="path13" />
  <path
     fill="#ffe6cf"
     stroke="#ffe6cf"
     stroke-width="0.09375"
     opacity="1"
     d="m 189.52639,509.1442 c 9.6,9.3 19.4,18.5 30.9,25.5 9.5,6.3 20.1,10.6 30.6,15.2 -25.7,-5.4 -50.7,-14 -73.8,-26.3 3,-1.2 6.4,-2.2 8.4,-4.9 2.2,-2.7 2.9,-6.2 3.9,-9.5 z"
     id="path14" />
  <path
     fill="#ffe6d0"
     stroke="#ffe6d0"
     stroke-width="0.09375"
     opacity="1"
     d="m 375.62639,541.5442 c 15.5,-7.7 29.4,-18.5 41.4,-31 1.3,3.1 2.4,6.4 4.6,8.9 2.2,2.5 5.5,3.1 8.5,4.1 -14.4,8.1 -29.8,14.1 -45.5,19.1 -7.8,2.3 -15.7,4.7 -23.8,6.1 4.7,-2.8 10,-4.5 14.8,-7.2 z"
     id="path15" />
  <path
     style="fill:#ee7f7f;fill-opacity:1;stroke:#ed7f7d;stroke-width:0"
     id="path16"
     d="m 228.18278,375.44035 c 7.05515,15.49356 14.19854,30.93658 20.96484,46.56228 6.07568,14.49207 3.13198,7.48698 8.82887,21.0162 0,0 9.3071,4.27827 9.3071,4.27827 v 0 c -5.88644,-13.5908 -2.87209,-6.55474 -9.03134,-21.11317 -6.60378,-15.37264 -13.46189,-30.64226 -19.91194,-46.07591 z" />
  <path
     style="fill:#ee7f7f;fill-opacity:1;stroke:#ed7f7d;stroke-width:0"
     id="path17"
     d="m 268.24176,435.34007 c -1.17175,-10.24788 -1.45282,-20.60176 -0.51511,-30.87543 -5.79209,-0.42087 2.30611,-3.22858 1.13165,-3.90441 -2.94259,-1.69329 -5.94575,-4.31279 -9.33267,-4.07867 -1.59836,0.11049 0.95105,3.06571 1.26855,4.6361 0.81481,4.03019 1.96046,13.35619 2.44381,17.02367 1.17216,9.45589 2.46714,18.90315 3.40269,28.38709 0.0293,0.29755 1.02469,7.456 0.24949,8.88396 3.02197,0.76687 6.4305,3.96643 9.06593,2.30061 1.99279,-1.25961 -1.33926,-4.52134 -1.95036,-6.79826 -0.80128,-2.98556 -1.54267,-5.98697 -2.28631,-8.98741 -2.73247,-11.02494 -5.23196,-22.09003 -7.61296,-33.19524 -1.81429,-8.29569 -3.34336,-16.67887 -5.57032,-24.88105 -0.0581,-0.21386 -1.3005,-4.7399 -1.96935,-5.10509 -3.38496,-1.84813 -7.04002,-3.15153 -10.56003,-4.72728 -0.20449,0.72181 -0.47652,1.42783 -0.61345,2.16546 -0.71682,3.8613 -0.45468,8.06517 -0.47394,11.95125 -0.0311,6.27868 -0.0224,5.73043 -0.0191,12.15399 -0.1591,8.89279 0.2323,17.80662 -0.14215,26.69559 3.30147,0.72557 6.60843,2.92685 9.90441,2.17671 1.43567,-0.32676 -0.0401,-2.94449 -0.0624,-4.41669 -0.14655,-9.66405 -0.14476,-19.32539 -0.11459,-28.9904 0.66538,-5.84682 -0.80248,-12.02088 0.39981,-17.82432 0.022,-0.10636 0.21303,0.34596 0.11201,0.30602 -3.1968,-1.26402 -6.33217,-2.67823 -9.49827,-4.01734 2.00586,16.41439 2.30064,33.00636 2.57476,49.52746 0.0581,6.09741 -1.70556,10.10163 9.86231,9.20316 1.4608,-0.11346 -0.41976,-2.90068 -0.58389,-4.35667 -0.65486,-5.80904 -0.79491,-8.43891 -1.24763,-14.41301 -0.41073,-5.88621 -0.67801,-11.78056 -0.95734,-17.67392 -0.0373,-0.78562 -0.0881,-1.57068 -0.1142,-2.35675 -0.005,-0.15456 0.16484,-0.40794 0.0205,-0.46347 -3.34363,-1.28646 -6.78696,-2.29704 -10.18044,-3.44556 0.0527,9.90971 0.0843,19.81945 0.0559,29.72943 -0.55572,6.70254 0.90101,13.72087 -0.76561,20.30345 -0.83271,1.82025 -2.82156,2.94159 -4.87098,2.56779 -0.57903,-0.10562 -2.15166,-0.93993 -1.64643,-0.63802 2.62362,1.56778 5.34601,2.96403 8.01902,4.44605 -3.11186,-2.08298 -5.97621,-5.03986 -6.93825,-8.75116 -0.12491,-0.31619 -0.2498,-0.63237 -0.37471,-0.94855 0,0 -10.25944,-4.59992 -10.25944,-4.59992 v 0 c 0.16988,0.22663 0.33976,0.45328 0.50964,0.67991 0.83891,3.93687 3.48768,7.22445 6.66075,9.61259 4.85238,2.74422 14.3805,11.29928 18.69327,2.92653 1.65679,-6.72916 0.1241,-13.85507 0.58284,-20.70267 -0.0377,-9.82898 -0.10293,-19.66438 0.26821,-29.48809 -3.33298,-2.15147 -6.65327,-4.32271 -9.99894,-6.4544 -0.114,-0.0726 0.27002,0.14199 0.29892,0.27405 0.17393,0.7947 0.21165,1.61348 0.29138,2.42307 0.58425,5.93235 0.87715,11.88981 1.27374,17.83592 0.22325,3.52599 0.66525,10.59988 0.92013,14.29149 0.0972,1.40749 -0.67822,3.21799 0.31413,4.22083 2.80824,2.83791 6.55241,4.62867 10.15197,6.35581 1.74656,0.83804 -5.86172,-11.03631 -0.51468,-5.78878 -0.72465,-16.47449 -1.10103,-32.96393 -1.98447,-49.43122 -3.35767,-2.32582 -6.56937,-4.87798 -10.07301,-6.97746 -0.87308,-0.52317 -0.57897,1.97783 -0.59188,2.99558 -0.0668,5.26829 0.22572,10.54373 0.13227,15.81272 0.0224,7.35181 0.0647,14.7057 -0.0113,22.05736 -0.0235,2.26937 -0.078,4.53831 -0.11711,6.80747 -0.025,1.448 -0.98051,3.21364 -0.0752,4.344 2.63712,3.29259 6.58952,5.26881 9.88429,7.90321 -0.46184,-8.95306 -0.11017,-17.94025 -0.27742,-26.89954 0.0397,-8.34995 -0.30604,-16.85317 1.08088,-25.10851 -3.06058,-1.91545 -6.02042,-4.00216 -9.18173,-5.74634 -0.50499,-0.27861 0.86733,0.79526 1.13444,1.30643 0.60761,1.16281 1.06079,2.40551 1.45851,3.65577 2.60185,8.17922 4.07008,16.69854 5.99998,25.04169 2.42033,11.05737 4.8904,22.10274 7.42579,33.13439 0.68243,2.96927 1.38203,5.93456 2.07159,8.90217 0.51684,2.22428 0.0641,4.93746 1.54761,6.67349 2.89019,3.38222 7.21712,5.20419 10.82568,7.80628 0.48332,-2.77855 -0.46997,-7.17731 -0.77056,-9.64206 -1.15613,-9.48028 -2.39454,-18.95047 -3.49385,-28.4377 -0.46399,-4.09779 -1.38901,-12.49815 -1.9757,-16.89633 -0.21752,-1.6306 0.45136,-3.74449 -0.73948,-4.87943 -9.94435,-9.4775 -10.81314,-8.5601 -11.73915,-1.51355 -0.79529,10.30502 -0.40743,20.63917 0.15344,30.94954 z" />
  <path
     style="fill:#ee7f7f;fill-opacity:1;stroke:#ed7f7d;stroke-width:0"
     id="path18"
     d="m 238.35527,436.36695 c 4.25038,0.365 8.16265,2.04981 12.16176,3.3782 3.24309,0.54757 6.18777,1.83952 9.18552,3.11529 -16.63989,-9.01784 -8.50179,-5.9166 -6.38752,-2.90592 1.03282,1.47072 1.58962,3.12782 2.15016,4.81338 0.86087,3.40672 1.40649,6.973 1.10343,10.48767 -0.19023,0.53199 -0.43838,1.64498 -1.08662,1.93996 -0.74549,0.33923 -3.11252,-0.91067 -2.40671,-0.49516 10.13212,5.96482 9.46897,5.67472 5.39714,2.23343 -4.7368,-4.16523 -7.45225,-9.92627 -11.17875,-14.88973 -1.60614,-2.06206 -0.79491,-1.09166 -2.42131,-2.92149 0,0 -10.2954,-4.30028 -10.2954,-4.30028 v 0 c 1.72704,1.72784 0.87986,0.78407 2.51608,2.85395 3.98538,4.83416 6.51435,10.776 11.1751,15.08615 4.96006,4.87173 2.94187,3.25989 13.727,8.67678 0.86892,0.43643 2.38998,0.0503 3.11319,-0.49476 0.81191,-0.61197 1.0421,-1.63921 1.36848,-2.51604 0.40554,-3.6401 -0.1544,-7.34237 -0.93286,-10.90293 -2.52098,-8.64105 -5.0311,-8.56449 -14.61083,-13.59724 -2.98674,-1.29711 -6.04659,-2.25709 -9.21174,-3.02212 -4.03115,-1.38532 -8.0606,-2.79017 -12.32583,-3.27759 z" />
  <path
     style="fill:#ee7f7f;fill-opacity:1;stroke:#ed7f7d;stroke-width:0"
     id="path19"
     d="m 246.68022,446.31019 c 2.60249,-5.93324 4.28609,-12.23159 5.92023,-18.488 1.23548,-4.68182 1.8314,-9.47828 2.08088,-14.30259 0.17243,-3.53243 0.19716,-7.03486 -0.37006,-10.52881 -0.61878,-3.80884 -1.53247,-7.57758 -2.82214,-11.21484 -2.00385,-6.19722 -3.10883,-7.80084 -12.43451,-8.2151 -0.92126,-0.041 -0.007,1.84434 -0.01,2.76652 0.43594,12.38932 0.64076,24.78306 0.71783,37.17931 -0.16184,4.94172 0.22281,9.9105 -0.0587,14.85075 -0.0328,0.57686 -0.10406,1.155 -0.23876,1.71687 -0.014,0.0584 -0.23282,-0.002 -0.17847,0.0236 3.1502,1.47564 6.32757,2.89257 9.49136,4.33884 -2.43905,-4.73376 -3.92292,-9.82848 -4.99066,-15.02076 -0.86151,-4.46166 -1.00089,-9.00521 -1.08525,-13.53383 0.0128,-5.07823 -0.16568,-10.16206 0.16604,-15.23146 0.10388,-5.33712 1.55708,-10.34793 3.10465,-15.39664 0.85538,-3.14061 0.9785,-6.54452 4.07582,-8.24801 -0.98484,-1.68364 3.74253,1.43015 2.9275,0.99027 -13.61068,-7.34597 -9.69874,-6.31118 -6.51767,-2.96644 3.79219,4.04594 6.04871,9.19696 8.73925,13.97737 2.67402,5.00019 5.21775,10.04721 6.91851,15.46617 1.21277,4.9533 1.77645,10.05881 2.33048,15.12364 0.71314,7.71823 0.82304,15.47569 0.88991,23.22148 -0.003,0.76101 -0.6732,1.91137 -0.009,2.28304 3.0414,1.70216 6.44613,3.28303 9.93144,3.27011 1.10241,-0.004 -0.0435,-2.20442 -0.0602,-3.30671 -0.0237,-1.55926 -0.0463,-3.11856 -0.0613,-4.67794 -0.0382,-3.996 -0.0571,-7.99217 -0.0908,-11.9882 -0.34292,-14.53473 -0.11052,-29.1345 2.74948,-43.42754 0.24807,-0.79048 1.40091,-5.19252 2.3925,-6.22197 0.23401,-0.24295 1.30716,0.22829 1.00958,0.0694 -2.84336,-1.51772 -5.58104,-3.4405 -8.71727,-4.18363 -0.83656,-0.19822 0.76951,1.54486 1.03365,2.36301 0.32851,1.01755 0.49143,2.0813 0.73715,3.12195 1.60018,10.98817 1.48897,22.15394 1.55151,33.23484 -0.0129,4.91884 -0.007,9.83806 -0.0667,14.75667 -0.006,0.49912 0.13753,4.642 -0.19976,5.49002 3.34592,1.41562 6.47991,3.51142 10.03776,4.24687 0.69579,0.14383 0.17613,-1.41049 0.29432,-2.11109 0.1564,-0.92709 0.31009,-1.85617 0.52918,-2.77047 0.87233,-3.64059 2.0039,-7.23925 3.17695,-10.79107 0.99202,-3.09064 1.92553,-6.22388 3.31584,-9.16746 0.25372,-0.53718 0.50239,-1.08564 0.85497,-1.56377 0.13997,-0.18982 0.79413,-0.27835 0.58817,-0.39325 -3.06327,-1.70906 -6.3202,-3.04522 -9.4803,-4.56783 2.01715,7.30039 -0.26283,15.55097 -1.98561,22.71803 -2.44101,8.66825 -5.72946,17.16884 -10.28691,24.95084 -0.55894,0.51143 -0.97121,1.25846 -1.67682,1.53431 -0.41763,0.16327 -1.68837,-0.58385 -1.29235,-0.37352 2.78199,1.47752 5.41549,3.42484 8.47198,4.18664 0.83091,0.20709 -0.80545,-1.52232 -1.06113,-2.33958 -0.69064,-2.20763 -0.93604,-4.89785 -1.23202,-7.16452 -0.83344,-7.94012 1.77545,-15.48773 4.11705,-22.94094 2.53858,-8.08024 1.53231,-4.99071 4.17016,-12.66523 0.60419,-1.7314 1.17206,-3.47589 1.81256,-5.19418 0.46902,-1.25828 2.04028,-5.40165 3.06775,-6.81012 0.2381,-0.32641 1.36524,-0.43521 1.02304,-0.65001 -10.57111,-6.63529 -10.0385,-7.24217 -8.35105,-1.77169 1.46841,13.55602 0.24399,27.23696 -0.93306,40.76988 -0.22034,1.684 -0.39077,3.37528 -0.661,5.05199 -0.81153,5.03538 -5.1526,9.86578 8.21858,8.04238 1.54598,-0.21083 -0.33969,-3.10964 -0.3215,-4.66982 0.0317,-2.71859 0.31395,-5.42847 0.47092,-8.14271 2.00405,-21.03619 5.74728,-41.92792 11.23605,-62.33253 0.64178,-1.83811 1.84083,-6.2727 3.45941,-8.10498 0.28417,-0.32167 1.59947,-0.13755 1.23504,-0.36431 -2.79466,-1.739 -5.68896,-3.46578 -8.85228,-4.37555 -0.7431,-0.21372 0.76729,1.36131 0.96804,2.10803 0.34383,1.27891 0.43487,2.61269 0.6523,3.91904 0.0849,1.82974 0.26228,3.65753 0.2546,5.48923 -0.0248,5.9152 -0.61572,12.83304 -1.12985,18.64041 -0.86637,9.78615 -1.91996,19.55351 -3.10086,29.30578 -1.0011,5.93304 -1.74493,11.94044 -3.27353,17.77308 -0.2103,0.80243 -0.39916,1.6234 -0.76385,2.36847 -0.0639,0.13059 -0.56312,0.0121 -0.43032,0.0712 3.11679,1.38859 6.29703,2.63015 9.44553,3.94522 -0.612,-5.7462 0.78484,-11.36137 2.61706,-16.75876 1.5893,-4.41403 3.19847,-8.82139 4.29189,-13.38816 0.12369,-0.66095 0.24739,-1.32189 0.37109,-1.98285 0,0 -9.82907,-5.2306 -9.82907,-5.2306 v 0 c -0.11149,0.64615 -0.22297,1.29231 -0.33445,1.93846 -1.02917,4.55358 -2.64576,8.92372 -4.1762,13.32782 -1.88517,5.58294 -3.21312,11.32963 -3.02707,17.26449 3.39496,2.29289 6.62014,4.85982 10.18487,6.87867 0.28396,0.16081 0.4969,-0.45848 0.61269,-0.76359 0.49088,-1.29346 1.33562,-6.19816 1.45313,-6.8784 0.95612,-5.53482 1.25693,-7.95158 2.08711,-13.72793 1.08229,-9.79083 2.00971,-19.5941 2.98716,-29.39593 0.46619,-4.67493 1.43146,-13.52669 1.62806,-18.52426 0.0724,-1.84007 -0.0435,-3.68273 -0.0652,-5.5241 -0.14422,-1.34161 -0.23407,-2.69019 -0.43267,-4.02483 -0.13575,-0.91216 0.1698,-2.15572 -0.56917,-2.70742 -12.55016,-9.36947 -12.25417,-7.08061 -15.508,3.71412 -5.05888,20.56161 -8.71463,41.48632 -11.31165,62.49654 -0.27869,2.69503 -0.64735,5.38227 -0.83606,8.08509 -0.11048,1.58243 -1.11515,3.57339 -0.0607,4.75845 12.66208,14.2301 10.72143,5.1219 12.01131,-3.34537 0.97676,-13.59097 2.0817,-27.25752 1.33959,-40.88172 -0.57876,-6.94087 0.58138,-4.63156 -11.05041,-8.98753 -0.49557,-0.18558 -0.83408,0.68305 -1.111,1.13398 -0.921,1.4997 -2.46081,5.75316 -2.91998,7.05778 -0.61067,1.73507 -1.15686,3.49217 -1.73529,5.23825 -3.17544,9.51197 -0.93071,2.67618 -4.12293,12.71586 -2.39657,7.53731 -5.24877,15.14343 -4.62426,23.19734 0.14973,1.30717 0.83337,9.28995 1.80376,10.07144 0.44537,0.35868 9.09061,8.55256 12.58114,6.27153 0.70691,-0.46196 1.15673,-1.23063 1.7351,-1.84595 4.46259,-7.95447 7.80943,-16.53903 10.26693,-25.31444 1.85813,-7.6099 3.75901,-15.52487 2.83849,-23.40202 -3.47636,-1.93184 -6.80205,-4.16405 -10.42908,-5.79552 -0.26713,-0.12017 -0.93043,1.08433 -1.53319,2.47797 -1.30353,3.01393 -2.2743,6.16304 -3.25242,9.29213 -1.47237,4.4875 -2.901,9.00203 -3.92247,13.61281 -0.16554,0.74723 -1.09245,1.73697 -0.51374,2.23782 2.95247,2.55524 6.70065,4.01083 10.05098,6.01624 -0.32835,-1.53374 -0.13972,-4.27726 -0.1525,-5.70522 -0.0443,-4.95154 -0.0427,-9.90346 -0.10663,-14.85485 -0.0989,-11.09918 0.0795,-22.25604 -1.17874,-33.29854 -0.0108,-0.0553 -1.04448,-5.71516 -1.36378,-5.96818 -11.26937,-8.93022 -11.79667,-8.90358 -14.5229,0.95358 -2.59881,14.40467 -2.84316,29.05952 -2.73275,43.66407 -0.0426,5.50355 -0.0512,11.00806 -0.14681,16.51106 -0.0188,1.07716 -0.82538,2.46049 -0.0726,3.23114 2.80216,2.86857 6.2567,5.16127 9.90235,6.83159 0.70427,0.32266 -0.0415,-1.54877 -0.0622,-2.32315 -0.16053,-7.77493 -0.36733,-15.55275 -0.85367,-23.31492 -0.5213,-5.11689 -0.99241,-10.27568 -2.17823,-15.28667 -1.65928,-5.5121 -4.18002,-10.628 -6.861,-15.7111 -2.77265,-4.73194 -4.88201,-9.95048 -8.49945,-14.12786 -3.76386,-4.4418 -4.8921,-4.07838 -12.5166,-8.42247 -1.19575,-0.68129 -2.41658,-0.5643 -3.62163,-0.008 -3.14139,2.15663 -3.62977,5.44631 -4.40128,8.98952 -1.52453,5.13624 -3.053,10.22225 -3.16683,15.63868 -0.41715,5.08607 -0.23324,10.19238 -0.26034,15.29252 0.0456,4.59639 0.16614,9.20674 1.03173,13.73688 1.04865,5.2524 2.54073,10.34929 4.67565,15.27128 3.4889,2.01043 6.85953,4.24171 10.4667,6.03128 0.19988,0.0992 0.49578,-0.46088 0.51132,-2.56054 0.037,-5.00274 -0.36798,-10.01493 -0.26683,-15.01956 -0.14852,-12.3182 -0.23867,-24.6366 -0.32593,-36.95532 0.12035,-6.49436 0.77909,-2.27304 -9.87173,-8.97013 -0.2183,-0.13727 0.43039,0.2993 0.58624,0.50474 0.91456,1.20563 1.2773,2.76251 1.75868,4.16093 1.32678,3.57271 2.36679,7.25547 2.91145,11.03628 0.61632,3.42695 0.66927,6.8429 0.49431,10.32324 -0.18637,4.7727 -0.67803,9.52853 -1.83679,14.17519 -1.54622,6.18511 -3.20627,12.41933 -5.98981,18.1786 z" />
  <path
     style="fill:#ee7f7f;fill-opacity:1;stroke:#ed7f7d;stroke-width:0"
     id="path20"
     d="m 276.50569,463.12333 c -2.95904,-4.3229 -5.62874,-8.82861 -8.40966,-13.2681 -2.70041,-3.83745 -4.83198,-7.91896 -5.92992,-12.4838 -0.5868,-3.56067 1.92684,-4.71579 4.89222,-5.61606 4.7444,-1.13855 8.00475,-0.88875 12.22023,1.58243 -14.92457,-8.01761 -3.58161,-3.11609 -4.62975,4.28919 -0.6237,0.22741 -0.31146,0.2559 -0.88525,-0.318 2.946,1.60677 5.8508,3.29149 8.838,4.8203 0.43021,0.22018 -0.79139,-0.55926 -1.14848,-0.88492 -1.0634,-0.96978 -1.22747,-1.34845 -2.05017,-2.52977 -2.20777,-4.41308 0.3038,-1.58478 -10.38329,-5.55754 -0.46927,-0.17444 0.79917,0.61083 1.14132,0.9763 0.66913,0.71474 1.94744,2.58221 2.47456,3.32605 3.34409,5.50439 3.0946,5.93804 12.19297,7.91311 0.86949,0.18874 -1.13366,-1.37163 -1.70421,-2.05434 -0.79814,-0.95502 -1.60124,-1.90588 -2.40186,-2.85882 -5.9057,-6.95478 -11.30134,-14.30252 -16.36241,-21.88756 -3.04927,-4.92922 -4.37575,-7.22635 -3.10947,-12.93569 1.71293,-5.40645 3.13191,-11.07478 6.26276,-15.86634 2.16436,-2.61024 4.98709,-3.30474 8.20314,-2.80003 3.55564,1.69061 9.45453,4.83864 -6.36253,-3.74126 -0.36338,-0.19711 0.68521,0.46356 1.0135,0.71481 1.03202,0.78983 0.85978,0.69264 1.69531,1.67563 1.88997,2.58929 2.83166,5.69899 4.07502,8.62086 1.80943,3.0961 3.00665,6.46361 4.42109,9.74184 3.14681,5.68746 9.99642,8.95886 16.36561,9.7246 5.83238,0.62777 6.24835,-0.51846 4.53969,-6.17294 -1.53787,-4.81238 -4.22698,-9.09525 -6.76987,-13.41617 0,0 -10.09991,-4.48593 -10.09991,-4.48593 v 0 c 2.51941,4.26872 5.31299,8.4411 6.86312,13.19263 1.7904,5.13048 1.54127,4.70394 -3.47936,4.17147 -4.58844,-0.86678 -7.63039,-3.69268 5.56883,4.29374 0.36547,0.22113 -0.77873,-0.36286 -1.12641,-0.61102 -0.96545,-0.6891 -1.05842,-1.04139 -1.70374,-2.0307 -1.41277,-3.2862 -2.58375,-6.67888 -4.44062,-9.75733 -1.31775,-2.93588 -2.18329,-6.09416 -3.92473,-8.81794 -0.71586,-1.14872 -1.38216,-2.02288 -2.56603,-2.73194 -4.17327,-2.49954 -8.21605,-5.88016 -13.0583,-7.04648 -3.53534,-0.20022 -6.59999,1.01967 -8.81426,3.87684 -3.09213,4.96281 -4.53197,10.71187 -6.41283,16.20312 -1.58799,6.11182 -0.49332,8.4471 2.80797,13.80223 5.09268,7.58825 10.52455,14.93278 16.32643,21.99671 0.76891,0.93275 1.54857,1.85673 2.30672,2.79825 0.52719,0.6547 0.82307,1.56602 1.54891,1.98996 16.02045,9.35699 11.51456,6.7933 8.33439,0.93167 -0.47717,-0.69643 -2.59234,-4.3356 -3.28541,-4.69244 -8.28301,-4.26458 -12.65219,-8.51593 -10.35491,-2.98091 2.68109,4.58215 10.78902,13.59702 15.37605,8.66263 0.35356,-1.95637 0.0145,-3.55407 -0.65731,-5.4443 -2.21301,-6.22669 -6.75179,-7.3891 -13.28347,-11.0641 -4.38493,-2.12386 -8.11239,-2.14818 -12.7929,-0.88158 -3.38961,1.2252 -6.15964,3.0174 -5.69975,7.0437 1.00959,4.70982 3.04287,8.9576 5.8749,12.86649 2.73506,4.40683 5.37571,8.86362 8.24997,13.17669 z" />
  <path
     style="fill:#ee7f7f;fill-opacity:1;stroke:#ed7f7d;stroke-width:0"
     id="path21"
     d="m 485.84947,548.35498 c -1.13198,-1.83353 -0.7531,-4.00349 -1.36814,-5.97393 -0.27788,-0.89028 -0.99157,-1.6416 -1.11531,-2.56599 -0.12115,-0.90494 0.3902,-1.79548 0.40926,-2.7083 0.0263,-1.25569 -0.18281,-2.50527 -0.27421,-3.7579 -0.85888,-15.90334 1.23403,1.87553 -31.32351,-18.64389 -2.40344,-1.51477 -3.34374,-4.71875 -4.1552,-7.44135 -0.18617,-0.62465 1.45054,-0.35545 1.95458,0.0578 2.04202,1.67431 9.97918,10.97569 11.81943,13.09478 8.97534,8.08335 17.50547,16.63348 26.41065,24.78702 0.58987,0.82159 2.77421,2.34766 1.76961,2.46477 -17.84775,2.08056 -4.99236,-0.29627 -6.20699,-2.80236 -0.47607,-0.98225 -1.29274,-1.7669 -1.81684,-2.72439 -0.25543,-0.46665 -0.16775,-1.10175 -0.5034,-1.51447 -0.54068,-0.66483 -1.34712,-1.05951 -2.02068,-1.58926 0.31296,0.092 0.66807,0.0942 0.9389,0.27599 0.61864,0.41537 1.10432,1.00131 1.67576,1.47952 0.77543,0.64892 1.96708,0.97096 2.36382,1.901 0.19745,0.46284 -1.41042,0.59747 -1.12208,1.00986 1.09609,1.56764 1.67345,-1.80206 1.31378,-0.10803 0.94692,0.42649 3.85847,2.53032 3.85657,2.62779 -0.0106,0.54272 -1.06134,0.23268 -1.59843,0.31129 -0.20875,0.0305 -0.48875,0.16949 -0.63272,0.0153 -0.46324,-0.49613 -0.67071,-1.1803 -1.00607,-1.77045 -0.49035,-1.70726 4.04246,3.11219 2.68284,2.77796 -0.67488,-0.1659 -1.25555,-0.67722 -1.6923,-1.21782 -0.13183,-0.16319 0.41314,-0.0732 0.61971,-0.1098 -0.35445,-0.15601 -0.7089,-0.31202 -1.06335,-0.46803 -0.10444,-0.34932 -0.059,-0.7867 -0.31333,-1.04795 -0.53163,-0.54613 -1.25474,-0.86931 -1.91821,-1.24441 -0.17349,-0.0981 0.29065,0.27277 0.43763,0.40736 0.44874,0.41091 0.88627,0.83465 1.34952,1.22913 0.53556,0.45606 1.23522,0.74985 1.64548,1.32125 0.198,0.27578 0.0226,0.6786 0.034,1.0179 0.22611,0.0876 0.69548,0.021 0.67834,0.2629 -0.0165,0.23335 -0.59914,-0.16439 -0.70028,0.0466 -0.0933,0.19469 0.30135,0.30948 0.45869,0.45734 0.21374,0.20085 1.61589,1.54146 1.95889,1.54656 0.24277,0.004 -0.11757,-0.47115 -0.17637,-0.70673 0.2158,0.0206 0.82099,0.19173 0.64737,0.0619 -0.26152,-0.19556 -0.68554,-0.0737 -0.93884,-0.27986 -0.0992,-0.0807 0.17005,-0.25024 0.29762,-0.2419 0.342,0.0224 1.09296,0.62917 1.3643,0.81448 0,0 0.40525,0.15908 0.40525,0.15908 v 0 c -0.55111,-0.37624 -1.4465,-1.2293 -2.12953,-1.24613 -0.14948,-0.004 -0.46322,0.18657 -0.34849,0.28247 0.25637,0.21429 0.67304,0.0932 0.97331,0.2398 0.18217,0.0889 -0.40346,-0.0401 -0.60519,-0.0601 0.28728,0.37234 1.08194,0.70141 0.86183,1.117 -0.0202,0.0381 -3.14221,-2.3906 -3.1253,-2.42659 0.20643,-0.43921 0.92611,0.30847 1.40688,0.3746 0.25844,0.0355 -0.4868,-0.18769 -0.7302,-0.28153 -0.0265,-0.34504 0.12426,-0.7554 -0.0795,-1.03512 -0.41139,-0.56473 -1.10536,-0.85615 -1.63238,-1.31487 -0.43476,-0.37842 -0.79852,-0.83656 -1.25041,-1.19435 -0.35653,-0.28229 -1.5353,-0.97463 -1.16165,-0.71542 0.61622,0.42749 1.36646,0.68368 1.88999,1.22069 0.2488,0.25521 0.20032,0.68413 0.30047,1.02619 3.88782,1.52454 -5.2383,-0.6337 2.86387,2.13317 0.24936,0.0851 0.20788,-0.58071 0.0466,-0.78909 -0.85177,-1.1007 -2.72314,-1.12336 -3.46077,-2.33594 0.34523,0.5754 0.56045,1.25248 1.0357,1.7262 0.16352,0.16299 0.46177,-0.007 0.69261,-0.004 0.73244,0.0126 1.82681,0.68539 2.19699,0.0533 0.0229,-0.0392 -3.96675,-2.92434 -4.47775,-2.99935 0.25237,-0.0334 0.97268,-0.23544 0.75711,-0.10006 -0.45075,0.28308 -1.14312,0.96302 -1.49424,0.56299 -0.32876,-0.37455 1.29112,-0.56399 1.09225,-1.02097 -0.40348,-0.92714 -1.57994,-1.26231 -2.36383,-1.90098 -0.72799,-0.59313 -1.37889,-1.29112 -2.1717,-1.79433 -0.26147,-0.16595 -0.6096,-0.10963 -0.9144,-0.16444 0.66895,0.52725 1.47279,0.91823 2.00685,1.58177 0.32889,0.40864 0.2274,1.03759 0.474,1.50057 0.50277,0.94391 1.29126,1.72203 1.75563,2.6854 0.11328,0.23502 -0.0575,0.51862 -0.0862,0.77793 2.29801,0.76554 4.59603,1.53109 6.89404,2.29663 1.01785,-0.0351 -1.19658,-1.64838 -1.79487,-2.47256 -8.90618,-8.15239 -17.43535,-16.70351 -26.41077,-24.78674 -2.4402,-2.81058 -9.47432,-11.13333 -12.20713,-13.3215 -0.51622,-0.41333 -2.16941,-0.64404 -1.98388,-0.009 0.79694,2.72659 1.75223,5.926 4.15579,7.44003 32.56152,20.5107 30.46835,2.73257 31.32736,18.63579 0.0914,1.25273 0.30326,2.50246 0.27408,3.75818 -0.0212,0.91144 -0.53288,1.79677 -0.4242,2.70196 0.10922,0.90973 0.79141,1.66092 1.05343,2.53893 0.58528,1.9611 0.22083,4.09817 1.2849,5.93742 z" />
  <path
     style="fill:#ee7f7f;fill-opacity:1;stroke:#ed7f7d;stroke-width:0"
     id="path22"
     d="m 442.81667,366.92413 c -4.1794,-1.01862 -8.5779,-1.37624 -12.53819,-3.05585 -1.22367,-0.51897 -1.40972,-2.27408 -2.31775,-3.24475 -1.6139,-1.72522 -3.71695,-2.97361 -5.21115,-4.80348 -0.21304,-0.2609 0.5359,-0.52967 0.87216,-0.51026 1.30974,0.0756 6.15376,1.92439 6.81992,2.16071 -2.30043,-0.12179 -4.60086,-0.24358 -6.90128,-0.36536 0.65567,-0.15241 2.33285,0.10782 1.967,-0.45723 -0.799,-1.23405 -3.49692,-0.86193 -3.75785,-2.30872 -0.21171,-1.17388 2.34736,0.45197 3.48668,0.80515 2.75187,0.85306 4.41838,1.80175 6.987,3.06967 -1.29312,0.048 -2.58625,0.096 -3.87937,0.14397 0.36076,-0.01 1.36828,0.18988 1.08228,-0.0302 -0.98174,-0.75558 -2.2217,-1.09791 -3.31211,-1.68589 -0.60811,-0.32793 1.24571,0.59808 1.86455,0.9053 4.35561,2.16228 1.28494,0.76175 6.40437,2.9447 -7.24319,2.82239 -1.8419,1.03457 -1.79164,0.29344 0.022,-0.32488 -0.69415,-0.091 -0.92152,-0.32412 -0.22892,-0.23467 -0.0399,-0.74345 -0.30628,-0.93458 -1.29692,-0.93061 -3.1194,-1.12507 -4.20059,-2.2994 -0.56782,-0.61673 1.6521,0.28573 2.47815,0.4286 0.85386,0.35823 1.7268,0.67398 2.56155,1.07471 0.86986,0.41758 2.71764,0.42772 2.54608,1.37725 -0.0572,0.31671 -4.54193,-0.11763 -5.12261,-0.45794 -0.34499,-0.20218 0.3006,-0.7411 0.4509,-1.11164 -1.39422,-0.78602 -2.85927,-1.45787 -4.18267,-2.35803 -0.46027,-0.31307 1.05735,0.35363 1.56653,0.57857 0.95415,0.4215 1.87266,0.91985 2.81895,1.35873 1.23423,0.57244 4.09437,0.36639 3.72204,1.67497 -0.20361,0.7156 -6.7565,-0.0828 -3.20791,0.31906 -0.21882,-0.45261 -1.08005,-1.08708 -0.65645,-1.35781 0.13639,-0.0872 5.94713,2.81519 6.0591,3.20862 0.495,1.73925 -4.76969,0.21922 0.38991,1.27776 -0.1718,0.0249 -0.3462,0.11366 -0.51539,0.0748 -0.0617,-0.0142 0.0683,-0.15215 0.017,-0.18929 -0.73149,-0.52934 -1.54791,-0.93303 -2.28622,-1.4528 -0.26955,-0.18977 0.58497,0.30411 0.87558,0.45971 1.87669,1.00482 1.1053,0.5527 2.87674,1.72996 -3.10667,-0.0813 -0.36747,0.957 -0.3974,0.69253 -0.0491,-0.43402 -0.71644,-0.66657 -0.70707,-1.10327 0.006,-0.26863 0.47429,0.25477 0.7231,0.35621 3.86081,1.57399 -1.42475,-0.73149 2.22008,0.88035 -0.37993,0.15053 3.32309,0.76444 2.49731,0.55242 -14.40888,-3.69949 -2.07915,0.83493 -5.37408,-1.9309 -1.98252,-1.66416 -1.61334,-0.0824 -1.71198,-2.03325 -0.93812,-0.3826 -1.87738,-0.76239 -2.81435,-1.14779 -0.29389,-0.12088 0.6016,0.21067 0.88511,0.35424 0.55091,0.27899 1.03013,0.70738 1.61315,0.9109 0.53399,0.18641 1.66154,-0.32665 1.67989,0.23864 0.0533,1.64309 -2.98656,0.31971 -0.9569,1.07585 -0.55042,-0.3542 -1.30561,-0.50677 -1.65127,-1.06259 -0.15759,-0.25339 0.36828,-0.46959 0.55241,-0.70437 -1.14521,-0.33151 -2.28524,-0.68145 -3.43562,-0.99453 -0.42168,-0.11476 0.84827,0.22441 1.24874,0.39935 3.54562,1.54879 0.46512,0.86309 4.94469,1.35723 -1.02725,0.26865 -2.0545,0.53729 -3.08175,0.80594 0.25737,-0.27822 0.98129,-0.51861 0.77211,-0.83466 -0.31513,-0.47611 -1.17242,-0.15965 -1.64362,-0.48207 -0.27597,-0.18883 -0.13421,-0.72004 -0.40332,-0.91853 -0.70366,-0.51903 -1.82792,-0.4395 -2.369,-1.12635 -0.40112,-0.50918 1.25218,0.33562 1.87828,0.50343 0.37868,2.09219 3.1704,0.39658 3.95224,1.58059 0.27032,0.40937 -0.85726,0.75314 -0.79339,1.23953 0.0528,0.40194 1.04986,0.22663 1.03913,0.63188 -0.01,0.36044 -0.70784,0.27944 -1.0614,0.20868 -0.2967,-0.0594 0.58248,-0.16416 0.87372,-0.24624 -4.79966,-2.97739 -0.17222,-0.5009 0.52055,-0.13459 0,0 -0.17674,-0.14207 -0.17674,-0.14207 v 0 c -0.65744,-0.34955 -5.46138,-2.81644 -0.71165,0.0662 -0.27333,0.0756 -1.0936,0.15218 -0.81999,0.22671 0.38421,0.10464 1.10515,0.26302 1.18792,-0.12649 0.0834,-0.39252 -1.06521,-0.22715 -1.02787,-0.6267 0.0483,-0.51701 1.46755,-0.58217 1.18135,-1.01545 -0.86487,-1.30932 -3.72545,0.10485 -4.34819,-1.80391 -0.63348,-0.15179 -2.25633,-1.00096 -1.90044,-0.45537 0.4671,0.71606 1.63132,0.58803 2.31864,1.09647 0.25048,0.18529 0.08,0.69934 0.34035,0.87052 0.48904,0.32158 1.34214,-0.002 1.69282,0.46642 0.22305,0.29807 -0.45458,0.58969 -0.68187,0.88453 1.02813,-0.26978 2.05626,-0.53955 3.08439,-0.80934 -4.72447,-0.52137 -1.2058,0.2115 -4.95382,-1.35844 -0.40461,-0.16948 -1.69027,-0.47099 -1.26825,-0.35129 8.74323,2.47963 -1.38153,-0.70962 4.45286,2.64269 -1.79984,-0.58538 1.10394,0.50995 1.06802,-1.00496 -0.0134,-0.5655 -1.14746,-0.0481 -1.68016,-0.23831 -0.61312,-0.21899 -1.1096,-0.68604 -1.69654,-0.96776 -0.2609,-0.12523 -1.09605,-0.36587 -0.83257,-0.24615 0.92003,0.41804 1.87179,0.7624 2.80769,1.1436 0.0418,1.9213 -0.28221,0.36383 1.63486,1.99478 3.08516,2.6247 -9.47184,-1.3145 5.36838,1.84465 0.80156,0.19661 -2.79466,-0.35547 -2.42347,-0.50705 -2.9332,-1.29185 0.96516,0.39859 -2.25988,-0.90665 -0.28657,-0.11598 -0.81109,-0.69426 -0.84295,-0.38676 -0.0461,0.44542 0.66433,0.6662 0.76889,1.10162 0.063,0.26237 -2.92005,-0.75147 0.54162,-0.60161 -1.36121,-0.90585 -1.46394,-1.03092 -2.94917,-1.7832 -0.31518,-0.15964 -1.2522,-0.63876 -0.97114,-0.42466 1.17225,0.89299 1.76667,1.56454 2.87913,1.53317 -4.92186,-0.90271 0.15594,0.43858 -0.31632,-1.22558 -0.10293,-0.36266 -6.00105,-3.38104 -6.21488,-3.26087 -0.4535,0.25486 0.49362,0.91587 0.74043,1.37381 -3.41226,-0.27683 3.11467,0.29477 3.27929,-0.28229 0.37323,-1.30829 -2.48719,-1.10372 -3.7218,-1.67526 -0.94696,-0.43837 -1.86303,-0.9438 -2.82242,-1.35426 -0.51484,-0.22026 -2.05001,-0.85765 -1.59259,-0.53463 1.29204,0.91242 2.75607,1.55292 4.1341,2.32939 -0.17462,0.35299 -0.86696,0.86563 -0.52387,1.05896 0.42276,0.23821 5.20812,0.84847 5.27308,0.4916 0.1728,-0.94931 -1.67612,-0.95993 -2.5462,-1.37709 -0.84101,-0.40322 -1.7205,-0.72066 -2.58075,-1.08099 -0.82905,-0.12541 -3.03667,-1.00951 -2.48714,-0.37622 1.02326,1.17924 2.84103,1.33692 4.11002,2.24649 0.24914,0.17857 0.0356,0.67044 0.25628,0.88312 0.25196,0.24278 0.9706,-0.0234 0.99797,0.32538 0.0683,0.87107 -5.39229,2.60141 1.88474,-0.23743 -5.76672,-2.45945 -1.54179,-0.56797 -6.40624,-2.94233 -0.6662,-0.32518 -2.6663,-1.29559 -2.01403,-0.9433 1.10819,0.5985 2.37003,0.93431 3.38306,1.68267 0.2703,0.1997 -0.67033,0.0491 -1.0055,0.0737 1.294,-0.0491 2.588,-0.0983 3.88199,-0.14738 -2.52435,-1.24581 -4.28046,-2.24012 -6.9901,-3.06561 -1.15754,-0.35265 -3.68885,-1.99071 -3.54331,-0.78942 0.1745,1.44042 2.91436,1.05234 3.72126,2.25824 0.3605,0.53877 -1.25455,0.32718 -1.88182,0.49077 2.30367,0.12145 4.60733,0.2429 6.91099,0.36435 -0.61181,-0.21695 -5.65504,-2.13251 -6.90407,-2.18815 -0.33431,-0.0149 -1.02752,0.32556 -0.81596,0.58483 1.49344,1.83034 3.59757,3.07752 5.21164,4.80241 0.9081,0.97045 1.09374,2.72686 2.318,3.24418 3.92157,1.6571 8.27912,1.98865 12.41868,2.98298 z" />
  <path
     style="fill:#ee7f7f;fill-opacity:1;stroke:#ed7f7d;stroke-width:0"
     id="path23"
     d="m 286.13686,383.87726 c 1.2099,4.38926 1.29417,9.01501 1.44994,13.54047 -0.0161,0.66686 -0.003,1.33509 -0.0482,2.0006 -0.0347,0.51042 -0.0989,1.01967 -0.19183,1.52276 -0.0567,0.30713 -0.0889,0.63737 -0.25574,0.90138 -0.0485,0.0768 -0.33875,-0.13007 -0.25758,-0.0892 9.79977,4.92945 12.04561,6.94097 8.65531,4.05754 -1.86165,-2.64691 -3.24338,-5.64085 -4.47161,-8.63034 -0.75465,-1.93093 -1.19867,-3.95729 -1.16401,-6.03163 0.12164,-2.10406 0.82319,-4.09389 1.42025,-6.09465 1.57012,-3.90336 6.13233,0.75726 -9.45821,-5.59099 -0.33164,-0.13504 0.2102,0.68809 0.25665,1.04315 0.24543,1.87636 0.21641,3.93973 0.25256,5.80248 -0.18801,8.95736 -1.04598,17.92858 -2.84423,26.71055 -0.62485,0.23145 -0.23145,2.61513 -1.24353,2.99378 -0.19879,0.0744 -0.57653,-0.59913 -0.38539,-0.50686 3.03153,1.46355 5.71239,3.78245 8.96527,4.64901 0.9095,0.24229 -0.84877,-1.68546 -1.1665,-2.57142 -0.44439,-1.23912 -0.74298,-2.5258 -1.11446,-3.78871 -1.90606,-7.42444 -2.49526,-15.06957 -3.25504,-22.66687 -0.94237,-6.13875 -2.91945,-6.00601 -12.24042,-7.26644 -0.86584,-0.11708 -1.10868,1.3511 -1.64071,2.04416 -0.63606,0.82859 -1.24192,1.67994 -1.86288,2.51991 -3.69985,4.724 -6.1742,10.19905 -9.30806,15.27271 -0.23543,0.24363 -0.41116,0.56451 -0.70628,0.73092 -0.10979,0.0619 -0.23595,-0.0887 -0.35392,-0.1331 3.14304,1.59978 6.16509,3.46365 9.42912,4.79934 0.34157,0.13977 -0.24885,-0.6998 -0.30317,-1.06484 -0.20374,-1.36913 -0.0753,-2.63145 -0.0213,-4.01504 0.44105,-2.99004 1.34319,-5.88682 2.46637,-8.68616 0.58274,-1.4524 0.11776,-1.29614 0.96759,-1.37865 -3.17455,-1.5601 -6.19427,-3.48574 -9.52364,-4.68029 -0.44497,-0.15965 0.28925,0.90894 0.32594,1.38025 0.0586,0.75223 0.0187,1.51109 -0.0423,2.26314 -0.36725,4.53317 -1.31814,9.09867 -2.04395,13.57676 -1.57872,9.82984 -3.6765,19.56089 -5.6374,29.31798 -0.75937,0.48967 -0.095,2.17599 -0.8149,2.8552 -0.14147,0.13347 -0.0741,-0.6531 0.10369,-0.5742 3.25057,1.4426 6.09703,3.83346 9.50797,4.83983 0.67179,0.19821 -0.149,-1.39328 -0.1952,-2.09219 -0.0813,-1.23073 -0.1249,-2.46367 -0.18735,-3.69551 -0.002,-7.29974 -0.29209,-14.72521 0.9959,-21.94357 0.18163,-0.25857 0.23729,-0.70328 0.54486,-0.77572 0.2169,-0.0511 0.56966,0.64231 0.36172,0.5622 -2.90231,-1.11821 -5.44725,-3.68183 -8.55729,-3.71978 -1.30184,-0.0159 1.02357,2.39747 1.43453,3.63284 1.33627,4.01687 2.23801,8.05263 3.25474,12.16133 2.52236,11.46854 4.47398,23.05067 6.79502,34.56001 0.79554,2.88568 1.04509,6.0433 2.48907,8.72784 1.94885,3.62315 11.00056,6.21105 11.38135,6.32314 0.67014,0.19725 0.69023,-1.21472 1.03533,-1.82208 0.22278,-0.71437 0.50193,-1.41354 0.66834,-2.14311 0.43819,-1.92112 0.63506,-4.31542 0.79197,-6.2472 0.26737,-3.29142 0.40928,-6.59265 0.56734,-9.89055 0.15026,-3.80475 0.24913,-7.61189 0.2539,-11.41968 -0.0723,-3.10122 -0.0452,-6.20369 -0.0125,-9.30526 0.0288,-2.32148 0.60818,-4.54731 1.32865,-6.73469 0.13578,-0.39846 0.27156,-0.79693 0.40733,-1.19539 0,0 -9.67858,-5.33945 -9.67858,-5.33945 v 0 c -0.13549,0.3963 -0.27098,0.79261 -0.40646,1.18892 -0.83234,2.2795 -1.41337,4.62646 -1.49869,7.06486 0.042,3.10743 0.0851,6.21553 0.0403,9.32315 0.0398,3.84823 0.15042,7.69614 0.0817,11.54491 -0.11367,5.89458 -0.0829,12.02006 -2.04174,17.64348 -2.51673,3.6948 -0.9828,0.8097 8.08523,6.31354 0.39555,0.24008 -0.81915,-0.47271 -1.11194,-0.83101 -1.98501,-2.42916 -2.15019,-5.9124 -3.14373,-8.74072 -2.67209,-11.53182 -4.59597,-23.21708 -7.19213,-34.76671 -0.337,-1.57002 -2.12849,-9.99628 -2.6112,-11.96565 -0.2968,-1.2109 -0.10667,-2.73848 -1.0054,-3.60257 -3.06007,-2.94209 -6.75729,-5.16876 -10.3944,-7.3577 -0.30977,-0.18642 -0.71459,0.25449 -0.9442,0.53375 -0.27975,0.34024 -0.33352,0.81538 -0.50027,1.22307 -0.83179,7.3687 -0.49086,14.83 -0.79462,22.22916 -0.0448,1.18508 -0.0882,2.37022 -0.13461,3.55525 -0.0268,0.68536 -0.59456,1.59666 -0.0851,2.05591 2.9161,2.6288 8.80905,9.69081 10.13765,5.99635 0.36242,-1.00778 -0.0729,-2.22084 0.43886,-3.18276 1.40567,-9.91635 3.23282,-19.76723 5.03751,-29.61706 0.95291,-4.40653 2.15052,-8.83175 2.85301,-13.29041 0.12217,-0.77537 0.21025,-1.55654 0.27233,-2.33903 0.0451,-0.56848 0.5056,-1.36853 0.049,-1.71011 -3.13471,-2.3448 -6.78333,-3.90953 -10.17499,-5.86429 -0.87276,1.14268 -1.19922,2.58984 -1.64552,3.94475 -0.76909,2.33491 -1.43441,4.69858 -1.90037,7.11512 -0.0355,0.34218 -0.54285,5.20161 -0.24111,5.42275 6.77216,4.96302 8.30438,9.26568 11.25449,4.68302 2.68042,-5.27635 5.24854,-10.63507 8.98974,-15.27607 0.64698,-0.80065 1.26717,-1.62373 1.94094,-2.40198 0.53993,-0.62364 2.23779,-1.17729 1.69755,-1.80066 -2.27468,-2.6247 -5.74842,-3.90806 -8.49141,-6.03861 -0.20695,-0.16074 0.57528,-0.10551 0.78443,0.0523 0.5794,0.43737 0.88089,2.25888 0.9865,2.67245 1.23707,7.63312 1.95516,15.35224 3.50613,22.93809 0.28876,1.2494 0.58074,2.49806 0.86626,3.74821 0.21237,0.92982 -0.10856,2.18502 0.62742,2.79164 3.1035,2.55799 6.74199,4.41661 10.32776,6.23794 0.31156,0.15825 0.67993,-0.26425 0.90221,-0.53388 0.62351,-0.75632 0.91639,-2.8172 1.06977,-3.50928 1.31941,-8.92328 1.90429,-17.93528 2.83605,-26.90332 0.46781,-8.81671 -0.0195,0.8626 0.24776,-5.66154 0.0177,-0.43274 0.4361,-1.05286 0.0783,-1.29696 -6.97849,-4.76129 -9.11962,-9.10865 -10.53166,-4.42548 -0.58172,2.08854 -1.33719,4.14874 -1.55562,6.31857 -0.15885,2.22967 0.2568,4.4232 1.05361,6.51037 1.23257,3.05283 2.76227,5.97258 4.23156,8.91597 2.59394,4.08507 1.07386,2.01579 11.04899,6.30049 1.04275,0.44791 0.9247,-5.40928 0.91216,-5.51076 -0.23643,-4.54716 -0.39562,-9.10612 -0.93375,-13.62972 z" />
  <path
     style="fill:#ee7f7f;fill-opacity:1;stroke:#ed7f7d;stroke-width:0"
     id="path24"
     d="m 316.31247,383.90899 c 0.60522,11.54584 0.79213,23.1049 0.90503,34.66461 0.017,8.06957 -0.0839,16.13976 -0.3018,24.20641 -0.0244,0.90225 -0.14577,6.29136 -0.37472,7.91132 -0.0208,0.1476 -0.1688,0.24573 -0.25319,0.36859 3.28596,1.03001 6.5655,4.09932 9.85788,3.09003 1.91388,-0.58669 -0.31135,-3.99246 -0.38895,-5.99273 -0.15213,-3.92202 -0.33484,-7.84627 -0.30012,-11.77109 0.15876,-17.9441 2.00249,-35.713 3.81876,-53.54368 1.53668,-12.72879 3.0123,-25.47572 5.2163,-38.1113 0.30167,-1.72947 1.53978,-8.51177 2.35346,-10.9068 0.1587,-0.46714 0.5243,-0.8359 0.78646,-1.25385 -3.14837,-1.33095 -6.0705,-3.44915 -9.44512,-3.99283 -0.85229,-0.13731 0.37095,1.68926 0.46991,2.54686 0.19288,1.67172 0.2991,3.35269 0.40459,5.0322 0.75184,11.96929 0.91928,23.94936 1.11433,35.93731 0.0723,12.7638 -0.0759,25.52807 -0.36323,38.28852 -0.14232,6.3214 -0.28583,12.638 -0.74523,18.94453 -0.64674,4.71939 -1.19595,4.86329 9.66211,6.28594 1.11554,0.14616 -0.13681,-2.24794 -0.12392,-3.37294 0.0207,-1.80891 0.097,-3.61791 0.22467,-5.42243 0.57589,-8.1432 1.09675,-11.14026 2.18845,-19.75111 2.86464,-19.23205 6.70007,-38.36109 12.59502,-56.90663 0.11693,-0.26151 1.6219,-4.44562 2.79123,-4.93338 0.30683,-0.12798 1.0151,0.82065 0.70226,0.70818 -2.93792,-1.05622 -5.55836,-3.9299 -8.65943,-3.56887 -1.50996,0.17578 0.65098,2.97183 0.88279,4.47421 0.30279,1.96236 0.47996,3.94206 0.71995,5.91308 1.45831,16.14295 1.85655,32.36209 1.94668,48.56331 -0.0482,12.15699 -0.13559,24.31316 -0.40987,36.46727 -0.10551,2.44805 -0.0803,4.90319 -0.23916,7.34931 -0.0186,0.28624 -0.0359,0.57404 -0.0892,0.85589 -0.005,0.0276 -0.10441,0.02 -0.0785,0.0308 3.38841,1.4002 6.79158,2.76438 10.18737,4.14656 2.01733,-9.79028 4.57703,-19.46453 7.10052,-29.13504 2.43474,-9.2357 5.41091,-18.31716 7.85683,-27.54927 0.5054,-2.4699 1.44382,-5.03765 0.99428,-7.58267 -0.5488,-1.40307 -1.77165,-2.46466 -2.89498,-3.43126 8.49049,19.23337 -7.51685,-8.15999 -10.93957,-5.84181 -1.77031,1.19901 -1.89643,4.21708 -2.16569,6.05421 -0.48127,6.59033 -0.64658,13.20105 -0.97441,19.80137 -0.0508,0.97584 -0.10168,1.95168 -0.15238,2.92754 -0.062,1.19358 -0.13008,2.85817 -0.24982,4.10167 -0.0264,0.27457 -0.36027,0.69068 -0.11627,0.81931 10.40273,5.48404 10.4508,7.74148 9.65616,3.12831 -1.7508,-8.21526 -2.77137,-16.54539 -3.58641,-24.89726 -0.58239,-6.7278 -1.266,-13.44507 -1.94703,-20.16337 -0.39501,-4.17783 -0.0338,-2.40029 -10.19169,-4.8352 -0.56595,-0.13565 -0.044,1.16324 -0.0508,1.74517 -0.0122,1.04311 0.0152,2.08657 -0.006,3.12953 -0.0755,3.66514 -0.20077,5.04503 -0.4306,8.81765 -0.60219,10.40055 -1.0859,20.80685 -1.52984,31.21517 -0.11714,2.91415 -0.23658,5.82807 -0.32825,8.74315 -0.0435,1.38393 0.0504,2.84142 -0.24988,4.19904 3.21317,1.39457 6.20319,3.50471 9.63951,4.18369 0.86412,0.17074 -0.6851,-1.62586 -0.94842,-2.4664 -0.42561,-1.35858 -0.77,-2.74167 -1.1158,-4.12272 -1.36213,-5.43994 -2.47407,-10.94217 -3.58961,-16.4361 -1.38749,-7.36962 -2.5197,-14.79433 -3.09399,-22.27414 -0.28047,-4.75703 7.67079,0.71123 -10.16802,-5.29826 -0.19311,-0.065 0.20725,2.73929 0.22357,2.85989 0.81611,4.69923 1.72612,9.38119 2.55314,14.07902 1.38654,6.89239 0.49024,5.47028 11.1621,9.28556 0.38879,0.139 0.25404,-0.79135 0.3009,-1.20158 0.0642,-0.56197 0.0201,-1.13107 0.0301,-1.6966 -0.52097,-7.13634 -1.65933,-14.20734 -2.54865,-21.30303 -0.10805,-0.95563 -0.22176,-1.91065 -0.32417,-2.86691 -0.0771,-0.72037 -0.1465,-1.44156 -0.21444,-2.16285 -0.0401,-0.42511 -0.11023,-0.84929 -0.10948,-1.27628 2.4e-4,-0.14016 0.24428,-0.35764 0.11243,-0.40517 -11.12783,-4.01168 -10.54081,-6.56577 -9.74065,-0.24112 1.69892,10.51408 3.5481,21.01055 5.08773,31.55019 0.0898,0.61446 2.52852,18.78345 2.6403,19.61565 0.95232,7.15978 1.68304,14.34535 2.51376,21.5195 0.29249,2.52599 0.53904,5.07456 0.94895,7.58662 3.36526,1.65243 6.5646,3.69781 10.09578,4.95729 0.40587,0.14476 0.19847,-0.84108 0.24313,-1.26968 0.0571,-0.54784 0.0486,-1.10063 0.0613,-1.65129 0.0493,-2.14014 0.12822,-4.26885 0.23696,-6.40749 0.23598,-4.30848 0.58167,-8.62499 1.17212,-12.90085 0.42059,-2.25445 0.72142,-4.52432 1.00781,-6.79826 0.33828,-2.08688 0.80126,-4.15599 1.26583,-6.21869 1.44701,-3.63334 0.67684,-1.3963 -9.73534,-4.80576 -0.41887,-0.13716 0.1165,0.87422 0.15116,1.3136 0.0598,0.75867 0.10156,1.51882 0.13225,2.27922 0.078,1.93322 0.0885,4.04149 0.1117,5.96974 0.0487,2.98425 -0.0398,5.96837 -0.0446,8.95238 -0.002,1.24204 0.21215,2.82034 -0.007,4.07385 3.38699,1.34928 6.5915,3.30539 10.16096,4.04784 0.63009,0.13107 0.0238,-1.2871 0.0176,-1.93065 -0.008,-0.8114 -0.0318,-1.62262 -0.0598,-2.43358 -0.10728,-3.11137 -0.24961,-6.2198 -0.33499,-9.33214 -0.0641,-2.73721 -0.12695,-5.47516 -0.12153,-8.21333 0.002,-0.61257 -6.6e-4,-1.22541 0.0215,-1.83758 0.0103,-0.28491 0.32487,-0.71358 0.0756,-0.85194 -3.20884,-1.7811 -6.65435,-3.09765 -9.98153,-4.64646 0.41419,7.20564 0.35534,14.42898 0.40835,21.64384 -0.0136,4.01454 -0.0332,8.02977 -0.1298,12.04337 -0.0411,1.70857 -0.0437,3.44967 -0.26481,5.14806 3.31637,1.45471 6.46966,3.36018 9.94911,4.36413 0.48609,0.14025 -0.0451,-1.01088 -0.0774,-1.51576 -0.0533,-0.83211 -0.12418,-1.66301 -0.17942,-2.495 -0.24002,-3.61416 -0.40116,-7.22825 -0.53649,-10.84764 -0.19269,-5.91259 -0.17238,-11.82826 -0.083,-17.7423 0.352,-3.34231 -0.77744,-5.86256 -2.18756,-8.79954 -2.07153,-3.73033 -3.77016,-7.64637 -5.65167,-11.47077 -2.20676,-3.68183 -1.21096,-2.26615 -10.68334,-5.05971 -0.44561,-0.13141 -0.23331,0.90205 -0.29079,1.36306 -0.093,0.74619 -0.10226,1.50048 -0.15974,2.25026 -0.28684,3.74201 -0.26259,3.1716 -0.72262,7.64853 -1.66817,9.32696 -3.04059,18.81332 -6.11531,27.8073 2.46437,5.02938 -2.89354,1.04762 -2.11142,1.02551 2.34518,-0.0663 5.80516,2.97154 6.97555,0.9382 1.45357,-2.52532 -1.97597,-5.48916 -2.73708,-8.30177 -2.6225,-9.69131 -3.47287,-16.00644 -5.22428,-26.02578 -2.42805,-17.38712 -4.69531,-34.89125 -5.02171,-52.46984 0.25219,-4.01993 0.45907,-4.01538 -10.03638,-4.42508 -1.12999,-0.0441 0.0999,2.25954 0.13564,3.38982 0.0497,1.57085 0.083,3.14219 0.12087,4.71338 0.18272,7.58127 0.12837,4.64663 0.18494,12.38645 0.13024,10.74855 0.0979,21.50156 -0.2303,32.24645 -0.33911,5.47477 -1.76939,4.81295 9.75476,6.86162 0.79432,0.14121 0.0861,-1.61166 0.16007,-2.41504 0.33492,-3.63718 0.42386,-3.69115 1.06931,-7.53394 0.76438,-3.97386 1.63824,-7.94177 2.95752,-11.77412 0.70263,-2.04106 1.46498,-3.91507 2.83198,-5.58175 4.02827,2.16561 -7.06878,-3.80552 -8.50545,-4.31575 -0.55249,-0.19622 0.50694,1.06453 0.65912,1.63073 0.22163,0.82465 0.33829,1.67504 0.45663,2.52071 0.26317,1.88088 0.37192,4.06473 0.49785,5.94552 0.54171,8.62328 0.44006,17.26949 0.24183,25.9022 -0.23478,7.15979 -2.08509,4.51516 9.73089,9.04129 0.31158,0.11934 -0.0587,-0.66492 -0.0745,-0.99821 -0.0206,-0.43262 -0.0232,-0.86591 -0.0348,-1.29887 -0.1611,-2.54261 0.13012,-5.03627 1.37546,-7.28061 0.12208,-0.0937 0.24571,-0.37671 0.36622,-0.28103 0.15693,0.12462 0.21516,0.68913 0.0356,0.60011 -3.17989,-1.57682 -6.0672,-3.71906 -9.2964,-5.19227 -0.35382,-0.16143 0.27794,0.73045 0.35284,1.11207 0.24266,1.23639 0.29177,2.7669 0.36803,4.00975 0.0278,0.74518 0.0635,1.49011 0.0831,2.23555 0.0185,0.70496 0.0287,1.41019 0.0313,2.1154 0.002,0.56655 0.0187,1.13416 -0.017,1.6996 -0.009,0.14536 -0.24827,0.35793 -0.11698,0.42099 10.50383,5.04509 10.16344,7.86578 9.90604,2.71337 -0.30755,-5.21771 0.0329,-10.42597 0.70306,-15.60022 0.94393,-5.36913 2.80886,-1.8188 -9.45682,-6.72098 -0.29334,-0.11723 0.2479,0.58787 0.29723,0.89989 0.16664,1.05391 0.21101,3.41269 0.24498,4.3982 0.12608,5.16735 0.0968,10.33764 0.0355,15.50578 -0.0374,1.64912 -0.0433,3.29923 -0.0894,4.94817 -0.009,0.33225 -0.002,0.66618 -0.04,0.99633 -0.005,0.0433 -0.12772,0.0811 -0.0873,0.0977 3.3082,1.35193 6.6471,2.6275 9.97065,3.94125 -0.61712,-6.75163 -0.78025,-13.53153 -0.89298,-20.30669 0.20854,-4.13546 -0.38823,-8.37536 0.31892,-12.47912 1.24642,-3.70808 0.81232,-1.95685 -9.6263,-4.59591 -0.57552,-0.1455 0.17448,1.17504 0.22758,1.7663 0.0797,0.88759 0.13022,1.7778 0.17066,2.66806 0.071,1.56107 0.12738,5.00639 0.15646,6.49099 0.18048,7.34641 -0.20163,14.69522 -0.60102,22.02919 2.30702,-0.25813 -1.15576,2.35594 -0.31936,2.72966 3.0559,1.36543 6.12551,3.29994 9.47244,3.33153 1.11679,0.0105 -0.56888,-2.1605 -0.81526,-3.24983 -0.68104,-3.01109 -1.27581,-6.04113 -1.94136,-9.05568 -1.81797,-7.36722 -2.99753,-14.95589 -5.52225,-22.13184 -2.45405,-3.84616 -1.93017,-3.36955 -11.04015,-5.52507 -0.69514,-0.16448 -0.52907,1.33197 -0.69915,2.02577 -0.28547,1.16453 -0.45207,2.35508 -0.66408,3.5352 -0.99996,5.56623 -0.74911,4.25645 -1.59336,10.45637 -1.33053,9.67496 -2.33063,19.39208 -3.17785,29.12021 -0.10238,0.61239 -0.12685,1.24305 -0.30713,1.8372 -0.0345,0.11365 -0.20387,0.1219 -0.3058,0.18285 3.10328,1.15387 6.04348,4.00254 9.30985,3.46161 1.62681,-0.26942 -0.81995,-3.19665 -1.12811,-4.81656 -0.66244,-3.48224 -1.70598,-11.32446 -2.16035,-14.58291 -0.9159,-7.15978 -1.5979,-14.34752 -2.13744,-21.54474 -0.21791,-2.90677 -0.31614,-5.82744 -0.68999,-8.72014 -3.38168,-0.94251 -6.69106,-3.45539 -10.14502,-2.82753 -1.54536,0.28092 -0.13,3.13869 -0.19892,4.70786 -0.44556,10.14517 -1.42253,20.22453 -2.42547,30.32747 -0.61175,5.43739 -0.96927,10.93368 -1.94972,16.32594 -0.15318,0.84246 -0.13249,1.77963 -0.59816,2.4982 -0.16399,0.25305 -0.84878,-0.79924 -0.56081,-0.70981 2.82292,0.87665 5.5353,2.07608 8.30295,3.11412 -0.61055,-2.59239 -1.35724,-5.15643 -1.83164,-7.77714 -0.60724,-3.3546 -1.01095,-6.744 -1.40983,-10.12969 -1.48702,-12.62165 -1.90415,-25.24286 -1.69918,-37.93735 0.22096,-3.09848 0.22534,-5.32241 0.85381,-8.22625 0.0909,-0.42017 0.79703,-0.99176 0.43015,-1.21582 -3.05743,-1.86726 -6.27759,-3.67265 -9.76653,-4.48618 -0.79501,-0.18537 0.51258,1.55635 0.65148,2.36079 0.22997,1.33183 0.30128,2.68624 0.45191,4.02936 0.82577,12.8779 1.43022,25.77719 1.87841,38.67495 0.0478,1.68995 0.1056,3.37964 0.14353,5.06984 0.0283,1.25829 0.0643,2.51686 0.055,3.77544 -0.006,0.76072 -0.007,1.52496 -0.0998,2.28003 -0.0233,0.18955 -0.42365,0.45428 -0.24378,0.51846 11.00225,3.92552 9.88773,5.52564 8.39095,-1.94813 -2.61189,-16.22652 -2.34773,-32.73316 -0.8852,-49.05687 0.29383,-3.2795 0.71882,-6.54593 1.07823,-9.8189 0.95434,-6.98689 2.02297,-13.96955 3.67979,-20.82967 0.56698,-2.34763 1.0974,-5.08399 2.43796,-7.15273 0.5315,4.14912 -0.24982,-3.44703 -9.04639,-2.84445 -1.36448,0.0935 0.26876,2.72271 0.35553,4.08763 0.12306,1.93575 0.19824,3.87434 0.27385,5.81253 0.31815,8.15471 0.26448,8.20181 0.38761,16.67832 0.0955,13.38155 0.098,26.77664 -0.56863,40.14546 -0.0502,0.59839 -0.0499,1.20317 -0.15045,1.79517 -0.0106,0.0622 -0.11272,0.0567 -0.16908,0.085 3.32969,1.41093 6.46211,3.43402 9.98909,4.2328 0.64974,0.14715 -0.0761,-1.33023 -0.11049,-1.99553 -0.2831,-5.47618 -0.19594,-2.94997 -0.22111,-9.05569 0.0428,-4.6866 0.23624,-9.3698 0.46122,-14.05055 0.13905,-2.89305 0.1859,-5.21142 -0.27205,-8.0591 -1.83128,-5.09129 -4.62588,-5.47777 -11.97296,-7.09092 -0.7415,-0.16281 -0.80846,1.29614 -1.08035,2.00495 -0.63298,1.65011 -1.67498,6.3325 -2.01062,7.74069 -2.2473,10.01564 -3.28237,20.23035 -4.13446,30.44126 -0.66179,6.00084 -0.34707,12.03405 -0.0613,18.04588 0.15856,4.43177 0.21823,8.8666 0.22112,13.301 -0.004,0.68907 -0.0316,1.91982 0.0337,2.65286 0.40649,4.56298 6.62719,5.12722 10.46067,6.8272 0.28137,0.12478 0.42053,-0.44955 0.63079,-0.67432 1.66688,-2.25642 1.96688,-5.13489 2.66005,-7.77872 0.76519,-2.38919 1.15916,-5.01065 2.98133,-6.85575 0.17632,-0.0914 0.3486,-0.35741 0.52896,-0.27424 0.19368,0.0893 0.38842,0.70225 0.19667,0.60886 -3.10962,-1.5146 -5.9276,-3.6171 -9.11766,-4.954 -0.41682,-0.17468 0.29907,0.85556 0.39297,1.29765 0.25974,1.22288 0.3587,2.92778 0.46131,4.12517 0.52426,4.3205 -0.32407,8.79869 0.64728,13.0626 3.34974,1.95083 6.49327,4.30917 10.04921,5.85246 0.43952,0.19076 0.69457,-0.67336 0.9499,-1.07881 0.33083,-0.52535 0.5535,-1.11258 0.79128,-1.68608 1.04146,-2.51197 1.84215,-5.11702 2.62019,-7.71827 1.42835,-4.58756 2.53789,-9.26938 4.05184,-13.83037 1.6622,-4.08679 0.94259,-1.53613 -9.45048,-5.40671 -0.34223,-0.12746 0.23644,0.6944 0.29705,1.05453 0.25599,1.5211 0.20269,3.12871 0.22807,4.6651 0.0724,0.67082 -0.22896,5.31756 0.20102,5.58237 3.28343,2.02218 6.74963,3.73137 10.12444,5.59704 0.37753,-0.48246 0.81004,-0.92655 1.13257,-1.44738 1.4161,-2.28676 2.55311,-4.73544 3.87938,-7.07544 3.12516,-5.5138 6.39941,-10.91864 9.77818,-16.27968 2.74969,-4.34248 5.80491,-8.49339 9.06773,-12.4637 1.58995,-1.9347 3.10673,-3.61093 5.16246,-5.01844 3.57274,0.23122 12.12684,0.87675 -8.95255,-4.85757 -0.71338,-0.19407 -0.51401,1.39136 -0.86301,2.04309 -0.92115,1.7202 -1.89392,3.41494 -2.94135,5.06129 -2.80342,4.40641 -5.46101,7.84228 -8.56999,12.04747 -6.33396,8.11651 -12.77024,16.17799 -19.47221,23.9973 -0.52726,0.6597 -1.04957,1.3234 -1.58178,1.97911 -4.02231,4.9557 0.95887,-1.27162 -1.92321,2.41003 -0.079,0.10091 -0.37029,0.23362 -0.25438,0.28828 10.82369,5.10299 8.33241,7.59454 11.55243,2.98764 3.73081,-5.16718 8.49436,-9.42588 13.05812,-13.82541 2.2381,-2.1023 4.54544,-4.1287 6.8141,-6.19761 0,0 -9.37565,-5.78902 -9.37565,-5.78902 v 0 c -2.20671,2.11439 -4.42654,4.21547 -6.59452,6.36983 -4.48429,4.5661 -9.05351,9.05034 -13.27899,13.86392 -3.62296,4.3209 -1.60739,0.93196 7.85769,7.82121 0.0668,0.0486 -0.2649,0.15589 -0.2348,0.079 0.14307,-0.36561 0.38548,-0.68474 0.60044,-1.01328 0.33211,-0.5076 0.68962,-0.99814 1.03972,-1.49351 0.47778,-0.67604 0.96258,-1.3471 1.44387,-2.02065 6.23172,-8.16513 12.36292,-16.40667 18.6291,-24.5457 2.98225,-3.95791 5.91912,-7.94996 8.91356,-11.89865 1.21405,-1.60094 2.51578,-3.13562 3.69289,-4.7639 0.50354,-0.69653 1.92201,-1.56672 1.34245,-2.2014 -7.35155,-8.05085 -6.21682,-8.35559 -10.20778,-6.18669 -1.8291,1.68945 -3.29763,3.5581 -4.77462,5.57041 -3.04829,4.15311 -5.98509,8.3972 -8.67553,12.79184 -3.36816,5.37368 -6.72063,10.75455 -10.15226,16.08801 -0.91481,1.42179 -3.1055,4.97475 -4.39071,6.49389 -0.21141,0.24988 -0.53223,0.38115 -0.79834,0.57172 3.05806,1.8613 6.11611,3.7226 9.17417,5.58391 -0.14728,-0.11898 -0.36403,-0.18433 -0.44185,-0.35693 -0.52953,-1.17448 0.10098,-3.54435 -0.18164,-4.82177 -0.0309,-1.57464 -0.0975,-3.15139 -0.10902,-4.72613 -0.003,-0.44425 0.3893,-1.08709 0.019,-1.33264 -10.15409,-6.73463 -9.19328,-9.03096 -10.45365,-4.50058 -1.1698,4.68036 -2.26223,9.3868 -3.74447,13.98084 -0.7877,2.52689 -1.59763,5.02764 -2.77777,7.40641 -0.21625,0.43589 -0.42652,0.88424 -0.73215,1.26284 -0.0952,0.1179 -0.54783,0.0823 -0.42255,0.16755 2.90992,1.9794 5.95718,3.74892 8.93578,5.62339 -1.75046,-3.59606 -0.62597,-8.97668 -1.04174,-12.91542 -0.009,-0.32248 -0.1513,-5.48221 -0.3736,-5.66027 -3.78929,-3.03521 -7.47307,-9.01811 -11.26364,-5.76085 -1.77886,2.11893 -2.34431,4.79162 -3.11571,7.39349 -0.60102,2.37612 -0.89319,5.10243 -2.50263,7.04271 -3.84376,0.30735 0.0275,-0.0474 9.13437,5.45655 0.14346,0.0867 -0.37029,0.0347 -0.49729,-0.0747 -0.38153,-0.32863 -0.44965,-1.40686 -0.47353,-1.73886 -0.0364,-0.50698 -0.0216,-1.01635 -0.0324,-1.52454 -0.099,-4.48611 -0.25008,-8.97038 -0.45391,-13.45314 -0.19233,-6.02305 -0.62796,-12.0444 -0.23472,-18.07224 0.49641,-10.18605 1.40418,-20.39495 3.96806,-30.29902 0.49129,-1.63573 1.53385,-5.42755 2.36743,-7.20761 0.24121,-0.51507 1.37486,-1.0338 0.95303,-1.41531 -2.59195,-2.34418 -5.86413,-3.80343 -8.80718,-5.68808 -0.73595,-0.47128 3.6297,2.26116 1.69673,1.99864 0.77796,2.97834 0.82436,4.92939 0.79673,8.04059 -0.0419,4.71802 -0.11797,9.43609 -0.28649,14.1515 -0.22016,5.3156 -0.14826,3.99369 -0.40256,8.76029 -0.0336,0.62938 -0.59988,1.49562 -0.10651,1.88784 3.03816,2.41528 6.63627,4.02795 9.99484,5.97318 0.0926,0.0536 -0.10741,-0.1851 -0.16112,-0.27766 -0.0466,-0.64809 -0.0933,-1.29617 -0.14002,-1.94426 -0.59301,-13.55994 -0.60006,-27.13966 -0.52833,-40.70975 0.0652,-7.34786 0.22266,-14.69209 0.30994,-22.03943 0.0157,-1.32531 0.86292,-2.94152 0.0344,-3.97606 -7.94068,-9.91518 -6.66348,-10.67676 -10.28046,-7.41348 -0.85069,2.54017 -1.27012,5.21916 -1.71321,7.85452 -1.19193,7.08908 -2.02494,14.22956 -2.83688,21.37023 -1.71157,19.46069 -3.13765,39.02967 -1.36997,58.54804 0.8025,8.28562 -0.69263,4.69006 10.71272,11.73637 0.2507,0.15488 0.0266,-0.58968 0.0115,-0.88397 -0.1975,-3.84901 -0.72313,-7.67807 -0.83472,-11.53324 -0.79556,-12.81609 -1.33156,-25.64356 -1.44249,-38.48535 -0.0461,-1.30965 -0.11813,-2.61864 -0.13832,-3.92894 -0.0139,-0.90082 0.7514,-2.1547 0.0361,-2.70253 -3.04346,-2.33117 -6.66451,-3.88628 -10.28479,-5.14748 -0.47906,-0.16689 -0.11995,1.00847 -0.14135,1.51532 -0.1051,2.48941 -0.0476,6.551 -0.0388,8.75262 0.57197,18.63479 1.90665,37.22145 3.77403,55.77105 3.51152,2.62124 6.80283,5.5668 10.53456,7.86372 0.35548,0.21881 0.83892,-0.38226 0.98501,-0.77328 0.31954,-0.85533 0.23551,-1.81129 0.3202,-2.72041 0.5181,-5.56068 0.78351,-11.14487 1.2561,-16.70908 0.86415,-10.01107 1.82012,-20.02594 3.05439,-29.99927 0.18111,-1.46342 1.54626,-3.20765 0.64688,-4.37621 -2.38668,-3.10096 -6.27563,-4.67602 -9.41345,-7.01404 1.21524,2.88786 1.39467,5.95022 1.76632,9.04393 0.86975,7.24004 1.6848,14.48688 2.47037,21.73647 0.99533,9.18723 0.65046,5.84293 1.50657,14.3099 0.15579,1.54075 -0.59313,3.49098 0.46405,4.6226 2.81054,3.00847 6.70547,4.80059 10.26761,6.86484 0.8034,0.46556 -0.52516,-5.10664 0.37204,-2.76069 0.3045,-9.8135 1.03154,-19.61992 2.56638,-29.32474 0.72878,-3.99444 1.07405,-6.32482 2.03532,-10.13298 0.27491,-1.08905 0.59318,-2.16752 0.9392,-3.2361 0.14496,-0.44767 0.9013,-1.01584 0.53208,-1.30754 -2.8061,-2.21688 -6.14565,-3.65919 -9.19129,-5.53344 -0.30769,-0.18935 0.64904,0.31757 0.97357,0.47635 1.22442,2.685 2.02703,5.39923 2.81492,8.24632 1.2801,4.62577 2.45193,9.2815 3.37744,13.99289 0.88167,4.57852 0.92018,4.54139 1.5954,8.87881 0.16332,1.04911 -0.33468,2.4435 0.45568,3.15247 11.8824,10.65878 10.23764,9.5065 10.2585,3.55199 0.11112,-7.37838 0.43928,-14.75068 0.50304,-22.12968 0.0132,-3.01548 0.0194,-6.03083 0.0317,-9.04626 0.002,-0.59805 0.47026,-1.42772 -0.002,-1.79418 -9.95681,-7.72 -9.34976,-9.80665 -10.21759,-5.45462 -0.39781,4.29215 0.20995,8.61012 0.16463,12.90989 0.15008,6.67357 0.35303,13.34838 0.38027,20.02318 12.9636,8.09605 9.97101,9.88936 9.84921,4.99922 -0.0418,-1.67788 -0.0449,-3.35676 -0.0793,-5.03478 -0.0546,-5.17857 -0.0722,-10.35773 -0.0548,-15.53654 0.002,-1.05992 -0.0112,-3.20894 0.0424,-4.33251 0.021,-0.43958 0.48758,-1.07768 0.117,-1.31506 -10.50409,-6.72838 -9.93985,-8.50416 -10.46229,-2.83025 -0.44115,5.2024 -0.94496,10.39878 -0.9057,15.62642 -0.27803,5.30357 -0.54185,1.73407 9.8994,7.34966 0.16332,0.0878 -0.12223,-0.35413 -0.13839,-0.53888 -0.17774,-2.0329 -0.0326,-4.08978 -0.15909,-6.12498 -0.012,-0.33811 -0.17771,-5.39065 -0.20359,-5.41053 -3.84883,-2.95554 -7.91975,-9.23475 -10.98122,-5.25062 -1.2321,2.42519 -1.64953,5.08386 -1.56251,7.79574 -0.01,0.42275 -0.0108,0.8458 -0.0293,1.26826 -0.0137,0.31411 -0.33253,0.77201 -0.0673,0.94084 12.26756,7.80842 9.87738,7.96434 9.77142,0.87674 -0.18373,-8.6475 -0.26674,-17.29595 -0.20098,-25.94551 -0.19278,-4.88098 0.18868,-23.11065 -12.09667,-16.14808 -3.2824,5.42991 -3.87677,12.03316 -5.46272,18.05761 -1.68009,7.85516 -0.17243,0.56733 -1.45837,7.39424 -0.14404,0.76468 -1.05156,1.7703 -0.46946,2.28669 2.86923,2.54532 6.43411,4.19436 9.81566,6.00441 0.85551,0.45793 -2.85797,-5.47318 -0.26405,-2.89908 -0.36069,-10.84724 -0.45507,-21.70299 -0.37609,-32.55556 0.0172,-5.58755 0.0167,-11.18526 0.3037,-16.7677 0.0532,-1.03456 0.98821,-2.38154 0.24045,-3.09848 -2.79036,-2.67533 -6.50727,-4.17991 -9.85243,-6.11727 -0.23352,-0.13525 0.30063,0.44824 0.45094,0.67236 1.26812,5.5866 1.79538,11.2678 2.47771,16.95175 1.4695,12.24104 2.95306,24.48215 4.81692,36.67114 0.94184,6.26935 2.77668,19.06313 4.07039,25.584 0.53972,2.7204 0.33256,5.83531 1.94941,8.08867 2.89464,4.03417 7.07047,7.01604 11.03427,10.00632 0.49124,0.37059 1.37712,0.11812 1.81998,-0.30912 0.59209,-0.57121 0.59176,-1.53533 0.88764,-2.30299 2.60505,-9.21513 3.75768,-18.78871 5.88498,-28.11817 1.29389,-6.82592 0.50906,-2.23389 1.24754,-7.41318 0.0978,-0.68597 0.2047,-1.37065 0.3174,-2.05433 0.0485,-0.29392 0.41433,-0.71354 0.16602,-0.87811 -3.08022,-2.04141 -6.45899,-3.5922 -9.67014,-5.42076 -0.19674,-0.11202 0.4157,0.17952 0.62355,0.26927 2.32017,3.59198 3.69342,7.74062 5.80946,11.45373 1.27129,2.70441 2.59976,5.27563 2.37642,8.36328 0.18785,5.99464 0.39361,11.98875 0.51373,17.98531 0.0727,3.56448 0.16692,7.13011 0.21268,10.69505 0.0101,0.7867 0.0209,1.57367 0.006,2.3603 -0.009,0.47941 -0.46492,1.15354 -0.0777,1.43638 3.09618,2.26177 6.63241,3.84953 9.94862,5.77429 -0.67306,-5.82433 -0.13672,-11.75378 -0.40062,-17.5963 0.0509,-7.05387 -0.0392,-14.12246 0.44566,-21.16304 -3.31664,-1.84035 -6.51175,-3.91915 -9.94992,-5.52102 -0.28739,-0.13389 0.0999,0.6269 0.12397,0.94303 0.25749,3.38923 0.17696,6.79982 0.35546,10.1926 0.11768,3.83464 0.34498,7.71823 0.16967,11.55451 -0.0268,0.5879 -0.6333,1.39627 -0.16867,1.75746 3.03173,2.3568 6.62253,3.88914 9.9338,5.83371 -0.74328,-0.4328 -0.37837,-0.10635 -0.53232,-1.68969 -0.36212,-3.72426 -0.0996,-7.47873 -0.18011,-11.21229 0.0242,-2.70396 0.0625,-5.4045 0.13821,-8.10739 0.0126,-0.44953 0.39849,-1.087 0.0328,-1.34872 -9.93441,-7.1096 -9.27027,-9.56848 -10.15036,-5.37792 -0.33048,2.11375 -0.85418,4.18256 -1.2358,6.28495 -0.3907,2.27986 -0.47239,4.60802 -0.88385,6.88833 -0.51843,4.32439 -0.74735,8.68723 -1.08987,13.02765 -0.14528,2.11011 -0.25151,4.22085 -0.38294,6.33117 -0.031,0.49872 -0.0837,0.99587 -0.12893,1.49351 -0.0206,0.22643 -0.259,0.55469 -0.0684,0.67867 3.09983,2.01637 6.41075,3.68794 9.61613,5.5319 -1.30098,-2.31935 -1.57754,-5.30546 -2.0216,-7.85738 -1.26631,-7.27715 -2.23165,-14.60098 -3.30685,-21.90752 -1.39189,-9.84564 -2.70507,-19.69735 -3.98239,-29.55842 -0.42683,-3.29517 -1.56099,-11.71017 -1.93212,-15.33815 -0.18844,-1.84205 -0.29423,-3.69163 -0.44134,-5.53744 -0.34249,-6.76379 0.66143,-1.85399 -10.25274,-8.87133 -0.11537,-0.0742 0.32924,-0.22699 0.39714,-0.1078 0.22645,0.39752 0.2206,0.88856 0.30388,1.3384 0.13723,0.74121 0.24394,1.48779 0.35734,2.23302 0.14827,0.97439 0.28511,1.95047 0.42766,2.92571 1.02447,6.94583 2.21027,13.91457 2.25002,20.9535 -0.24294,5.55539 -1.42332,1.71399 9.46139,7.55127 0.22455,0.12043 -0.36671,-0.36767 -0.47683,-0.59745 -0.47666,-0.99462 -0.78424,-2.61765 -1.01986,-3.61056 -0.88545,-4.60431 -1.75169,-9.22255 -2.30622,-13.87938 -0.064,-0.63624 -0.18306,-1.26749 -0.21715,-1.90604 -0.012,-0.22488 0.22309,-0.56371 0.0274,-0.67504 -3.30759,-1.88123 -6.86759,-3.28778 -10.20582,-5.11408 -0.1257,-0.0688 0.18721,-0.38242 0.30587,-0.30208 0.19603,0.13273 0.15792,0.44637 0.23688,0.66956 1.54564,7.54905 2.31322,15.24995 3.99908,22.77649 1.02322,5.4348 2.10359,10.85487 3.18119,16.27889 0.26532,1.3355 0.52822,2.67154 0.77772,4.0101 0.1591,0.85356 -0.24914,2.04843 0.44802,2.56596 3.16377,2.34863 6.96691,3.68297 10.45036,5.52445 0.20915,-4.45316 -0.27124,-8.93207 -0.0578,-13.38847 0.1051,-10.41998 0.4302,-20.84503 1.39833,-31.22497 0.35666,-3.88124 0.69576,-7.76381 1.0626,-11.64407 0.0484,-0.51142 0.54957,-1.22241 0.1416,-1.53458 -3.02524,-2.31495 -6.47328,-4.02419 -9.80931,-5.86324 -0.20112,-0.11086 0.19944,0.41373 0.29916,0.6206 1.47473,6.7364 1.90362,13.65832 2.75322,20.48735 0.79686,8.17709 1.62973,16.35449 2.72896,24.49653 0.32107,4.94637 -0.20746,1.94702 10.17221,6.87581 0.27608,0.1311 -0.0418,-0.60998 -0.0501,-0.91548 -0.0392,-1.42856 -0.0206,-2.78727 -0.002,-4.22435 0.0134,-0.99132 0.0346,-1.98252 0.052,-2.97378 0.18755,-6.52467 0.52144,-13.04994 1.19515,-19.54335 0.21405,-1.24879 0.31608,-2.24937 0.74865,-3.42659 0.0477,-0.1298 0.3286,-1.08819 0.80383,-1.04612 0.16831,0.0149 0.59843,0.31338 0.45322,0.22698 -2.94692,-1.75321 -5.9063,-3.48541 -8.85945,-5.22813 1.1122,0.88331 2.09824,1.8632 3.1415,2.822 1.0046,2.13866 -0.17217,5.06089 -0.34035,7.2783 -1.85086,9.43474 -4.47168,18.68795 -7.04735,27.9451 -2.62822,9.54441 -5.14343,19.1295 -8.21182,28.54455 3.21121,2.09986 6.40864,4.22094 9.63362,6.29958 0.0439,0.0283 -0.0664,-0.0863 -0.0739,-0.13798 -0.0455,-0.31307 -0.0656,-0.62954 -0.0834,-0.9454 -0.14206,-2.52473 -0.12001,-5.05636 -0.21553,-7.58257 -0.25303,-12.33262 -0.3571,-24.66722 -0.61308,-36.99979 -0.23118,-16.10769 0.003,-32.23576 -1.25573,-48.30985 -0.14029,-1.93578 -0.28058,-3.87157 -0.42085,-5.80735 -0.10712,-1.47814 0.64315,-3.30917 -0.32131,-4.43442 -2.74954,-3.20795 -6.5213,-5.40545 -10.07333,-7.69323 -0.35037,-0.22566 -0.8808,0.14991 -1.16438,0.45528 -1.07119,1.15348 -1.89776,4.60977 -2.22115,5.63671 -4.64641,19.02419 -8.13024,38.317 -11.55954,57.59022 -0.8868,4.83269 -2.60607,13.92499 -3.40791,19.18754 -0.26465,1.73695 -0.41721,3.48931 -0.65517,5.23013 -0.14353,1.05005 -1.27304,2.42835 -0.48915,3.14161 2.78112,2.53056 6.36546,4.11948 9.89475,5.41658 0.58506,0.21502 -0.14134,-1.23862 -0.21201,-1.85793 -0.42018,-6.55301 -0.55893,-13.11213 -0.69006,-19.67726 -0.25726,-12.87932 -0.39149,-25.76169 -0.33007,-38.64368 0.16658,-11.67026 0.47983,-23.32057 0.82148,-34.98562 0.0474,-1.61851 0.0829,-3.2375 0.0971,-4.85664 0.008,-0.88649 0.64551,-2.08652 -0.031,-2.6594 -3.01517,-2.55308 -6.80873,-4.00987 -10.21309,-6.01482 -0.8402,4.35496 -1.14021,8.8703 -1.57595,13.27075 -1.28519,12.9789 -2.38668,25.97466 -3.65848,38.95488 -0.60147,6.38448 -2.81714,29.96504 -3.425,36.16526 -0.54825,5.59202 -1.18587,11.17532 -1.69665,16.77089 -0.34053,3.73048 -0.58005,7.4695 -0.8571,11.20522 -0.1383,1.86484 -1.5151,4.10356 -0.38895,5.59638 2.42194,3.21053 6.57193,4.63711 9.85789,6.95567 -0.69953,-1.73121 -0.59268,-7.57924 -0.62792,-8.9198 -0.21473,-8.16927 -0.31899,-16.34186 -0.3018,-24.51396 0.11101,-11.25241 0.28722,-22.50472 0.90504,-33.74233 z" />
  <path
     style="fill:#ee7f7f;stroke:#ed7f7d;stroke-width:0"
     id="path25"
     d="m 367.00513,374.64003 c 0.16253,2.23693 0.10551,4.48372 0.062,6.72426 -0.0218,1.70791 0.32711,3.36141 0.83675,4.98056 0.41637,1.17167 0.77721,2.36754 1.39911,3.45025 2.44823,3.10237 9.64344,9.4655 11.52562,4.40681 0.29024,-1.15066 0.22872,-2.35218 0.23235,-3.52916 -0.009,-1.51566 -0.0236,-3.03134 -0.0215,-4.54704 0,0 -9.87216,-5.02738 -9.87216,-5.02738 v 0 c 0.009,1.50922 0.007,3.01859 -4.8e-4,4.5278 -0.006,1.05412 0.003,2.1179 -0.15673,3.16221 -0.0299,0.10989 -0.0116,0.31182 -0.12533,0.31784 -0.099,0.005 -0.2712,-0.28196 -0.18502,-0.23294 9.78992,5.56989 12.71198,6.47802 8.91582,5.25815 -1.01796,-0.68304 -1.2329,-2.03933 -1.69113,-3.10337 -0.59265,-1.4892 -0.93966,-3.06495 -1.04682,-4.66503 -0.0423,-2.21935 -0.10406,-4.44571 0.062,-6.66114 z" />
</svg>
