<?xml version="1.0" encoding="UTF-8" ?>
<!DOCTYPE svg PUBLIC "-//W3C//DTD SVG 1.1//EN" "http://www.w3.org/Graphics/SVG/1.1/DTD/svg11.dtd">
<svg width="1141pt" height="629pt" viewBox="0 0 1141 629" version="1.1" xmlns="http://www.w3.org/2000/svg">
<path fill="#ffe5cf" stroke="#ffe5cf" stroke-width="0.09375" opacity="1.00" d=" M 548.5 11.8 C 595.3 8.4 642.8 15.9 686.1 33.8 C 749.2 59.7 802.8 107.5 835.8 167.1 C 856.4 203.9 869.0 245.0 872.7 286.9 C 876.5 328.2 871.8 370.3 858.8 409.7 C 838.4 471.7 797.3 526.5 743.7 563.7 C 713.4 584.8 679.3 600.4 643.4 609.2 C 594.7 621.2 543.0 620.9 494.5 608.4 C 427.1 591.2 366.4 549.8 325.5 493.6 C 300.4 459.4 282.6 419.9 273.8 378.4 C 264.3 334.3 264.8 288.0 275.2 244.1 C 291.5 174.5 333.7 111.5 391.4 69.5 C 437.0 36.0 492.1 15.7 548.5 11.8 M 554.4 17.5 C 504.7 20.0 455.8 35.3 413.6 61.6 C 361.9 93.9 320.2 142.2 296.4 198.4 C 267.0 267.6 265.3 348.0 291.6 418.4 C 314.2 479.5 357.8 532.4 413.0 567.0 C 447.8 588.9 487.3 603.2 528.0 609.0 C 571.9 615.3 617.1 611.6 659.4 598.5 C 692.2 588.3 723.2 572.3 750.4 551.4 C 800.7 513.2 838.6 458.9 856.1 398.1 C 868.1 356.8 871.2 312.8 864.7 270.2 C 858.6 228.9 843.7 189.0 821.1 154.0 C 787.7 102.2 738.2 60.9 680.9 38.1 C 640.9 22.2 597.4 15.1 554.4 17.5 Z" />
<path fill="#ee7f7f" stroke="#ee7f7f" stroke-width="0.09375" opacity="1.00" d=" M 554.4 17.5 C 597.4 15.1 640.9 22.2 680.9 38.1 C 738.2 60.9 787.7 102.2 821.1 154.0 C 843.7 189.0 858.6 228.9 864.7 270.2 C 871.2 312.8 868.1 356.8 856.1 398.1 C 838.6 458.9 800.7 513.2 750.4 551.4 C 723.2 572.3 692.2 588.3 659.4 598.5 C 617.1 611.6 571.9 615.3 528.0 609.0 C 487.3 603.2 447.8 588.9 413.0 567.0 C 357.8 532.4 314.2 479.5 291.6 418.4 C 265.3 348.0 267.0 267.6 296.4 198.4 C 320.2 142.2 361.9 93.9 413.6 61.6 C 455.8 35.3 504.7 20.0 554.4 17.5 M 575.1 80.0 C 572.0 84.5 567.4 87.3 562.9 90.1 C 562.0 89.6 561.1 89.2 560.3 88.7 C 560.9 86.6 561.2 84.4 562.3 82.5 C 564.6 80.4 567.2 78.9 569.2 76.5 C 562.1 76.0 555.0 76.6 547.9 77.2 C 526.6 79.0 505.4 83.3 485.1 90.1 C 430.3 108.0 381.5 144.6 350.1 193.1 C 330.3 223.4 317.5 258.3 313.4 294.4 C 310.8 316.5 311.9 338.9 315.0 361.0 C 315.5 363.6 318.0 365.4 318.7 368.0 C 318.0 372.2 316.2 376.1 315.2 380.2 C 312.9 389.2 313.1 398.6 313.6 407.7 C 315.3 423.0 321.0 437.5 328.1 450.9 C 336.1 465.6 346.0 479.4 358.9 490.2 C 363.9 494.2 369.6 498.1 376.2 498.7 C 380.2 499.2 383.1 495.3 383.8 491.8 C 385.3 483.8 385.1 475.6 386.2 467.6 C 387.7 469.5 389.1 471.6 390.2 473.8 C 397.4 486.8 405.1 499.8 415.4 510.6 C 421.7 517.1 428.6 523.5 437.1 526.8 C 440.6 528.1 445.7 528.6 447.9 524.9 C 451.1 519.5 450.5 512.9 450.1 507.0 C 448.5 494.5 444.8 482.4 443.0 469.9 C 455.8 486.7 465.6 506.2 482.5 519.5 C 487.8 523.5 493.8 527.9 500.8 527.7 C 505.3 527.2 507.1 522.3 507.5 518.4 C 508.9 505.7 505.3 493.0 500.8 481.2 C 494.8 465.9 486.4 451.6 476.0 439.0 C 472.7 434.9 468.7 431.5 465.7 427.2 C 469.9 425.5 474.9 425.4 478.5 422.6 C 481.7 418.3 480.3 412.5 479.2 407.7 C 475.4 394.7 467.8 383.2 459.3 372.7 C 448.1 359.5 435.1 347.6 420.1 338.9 C 411.5 333.5 402.0 329.3 391.9 328.2 C 389.8 327.7 387.1 328.0 385.4 326.4 C 383.1 324.2 386.5 320.5 389.1 321.1 C 406.7 322.5 422.3 331.6 436.3 341.7 C 439.4 344.1 442.3 346.8 445.6 349.0 C 447.6 346.5 449.5 344.0 451.5 341.5 C 472.4 315.3 502.5 297.1 535.1 289.5 C 538.4 300.2 549.6 306.0 560.0 308.1 C 571.5 310.1 584.1 309.3 594.5 303.5 C 600.1 300.5 604.8 295.5 606.8 289.4 C 628.6 294.6 649.3 304.2 667.0 318.1 C 678.1 326.6 687.5 337.0 696.0 348.1 C 703.3 342.3 710.8 336.6 719.0 332.1 C 733.2 323.1 750.4 319.6 767.1 321.2 C 767.1 323.2 768.1 325.9 765.8 327.0 C 762.9 327.5 759.9 327.3 757.0 327.3 C 747.4 327.1 738.0 329.5 729.4 333.5 C 714.4 340.9 700.8 351.1 689.2 363.2 C 677.8 375.1 667.7 388.5 662.0 404.1 C 660.2 409.7 658.5 416.3 661.0 422.0 C 664.1 425.9 669.8 425.5 674.1 427.3 C 671.8 430.9 668.6 433.6 665.8 436.9 C 658.3 445.6 651.9 455.3 646.5 465.4 C 639.7 478.5 634.2 492.5 632.5 507.3 C 632.2 513.2 631.6 519.7 634.8 525.1 C 637.1 529.0 642.5 528.1 646.1 527.1 C 655.3 523.5 662.7 516.5 669.3 509.3 C 679.8 497.8 687.2 483.8 696.9 471.6 C 694.8 484.5 690.9 497.0 689.8 510.0 C 689.7 515.7 689.4 522.7 694.0 527.0 C 699.0 529.3 704.9 527.0 709.3 524.3 C 720.3 517.5 728.9 507.6 736.3 497.3 C 743.0 488.3 747.6 478.0 754.0 468.9 C 754.9 475.2 755.1 481.6 755.8 488.0 C 756.3 491.7 756.9 496.4 760.6 498.3 C 766.7 500.0 772.7 497.0 777.6 493.6 C 788.5 486.0 797.2 475.6 804.6 464.6 C 814.2 450.0 822.0 433.9 825.8 416.8 C 827.7 408.7 827.5 400.3 827.3 392.0 C 827.0 383.8 824.5 376.0 821.9 368.3 C 827.8 362.2 827.4 353.4 828.5 345.6 C 830.1 333.8 829.7 321.8 829.6 309.9 C 828.2 283.9 822.8 258.1 813.0 234.0 C 789.1 174.2 740.1 125.6 681.3 99.7 C 664.9 92.5 647.9 86.4 630.3 83.0 C 630.0 83.4 629.5 84.2 629.3 84.6 C 632.5 86.6 637.0 88.0 637.8 92.2 C 638.8 97.5 635.0 102.1 631.1 105.1 C 623.2 110.9 613.6 114.0 604.0 115.1 C 601.6 115.1 600.1 117.1 598.7 118.7 C 597.6 116.1 596.3 113.6 594.9 111.1 C 595.2 110.5 595.8 109.4 596.1 108.9 C 606.5 108.5 617.3 106.2 626.0 100.1 C 628.3 98.4 631.1 96.4 631.0 93.2 C 626.5 90.7 621.2 90.3 616.6 88.2 C 620.1 83.8 624.6 80.2 627.0 75.0 C 625.5 74.0 623.9 72.9 622.0 72.8 C 614.9 71.8 608.1 74.4 601.1 75.3 C 601.2 71.9 601.1 68.4 601.0 64.9 C 590.4 64.7 581.7 72.5 575.1 80.0 M 508.4 395.5 C 506.5 395.9 504.0 396.8 503.8 399.1 C 502.7 403.6 510.0 403.7 509.6 408.0 C 509.8 418.7 509.8 429.4 508.9 440.1 C 508.6 441.7 508.8 444.0 507.1 445.0 C 505.7 446.0 504.1 446.8 502.8 448.0 C 502.2 449.5 501.9 451.6 503.3 452.7 C 505.3 455.1 508.6 454.7 511.4 454.6 C 521.0 453.9 530.5 454.5 540.0 454.7 C 549.2 454.8 558.9 450.9 564.1 443.0 C 569.6 434.6 570.5 423.7 567.9 414.1 C 565.7 406.3 559.9 399.5 552.1 396.9 C 543.1 393.9 533.4 395.3 524.0 395.4 C 518.8 395.6 513.6 394.9 508.4 395.5 M 575.4 396.4 C 573.0 397.2 571.4 399.9 572.6 402.3 C 575.0 405.0 579.2 406.5 579.4 410.6 C 580.8 420.3 580.6 430.2 579.7 439.9 C 579.7 443.4 576.4 445.1 574.4 447.5 C 573.6 449.4 573.9 452.1 576.0 453.1 C 581.0 455.8 587.2 455.5 592.7 454.7 C 595.2 454.1 598.8 453.1 599.0 450.0 C 599.5 446.0 594.2 445.1 593.4 441.7 C 592.4 436.8 592.3 431.6 594.3 427.0 C 598.2 427.5 600.8 430.8 603.7 433.3 C 610.7 439.6 617.8 445.9 624.8 452.2 C 626.8 454.1 629.8 456.1 632.6 454.6 C 634.9 452.7 635.0 449.3 635.4 446.6 C 636.1 434.4 635.0 422.1 636.0 410.0 C 635.8 406.3 639.7 404.9 641.8 402.6 C 643.2 400.4 642.1 397.1 639.6 396.3 C 634.9 394.7 629.8 395.0 624.9 395.2 C 622.1 395.4 618.2 395.9 617.5 399.3 C 616.7 403.7 622.9 404.6 623.4 408.6 C 624.1 412.1 623.9 415.7 622.9 419.1 C 620.6 418.8 618.6 417.6 617.0 416.1 C 610.8 410.6 604.5 405.2 598.4 399.7 C 596.0 397.6 593.4 395.3 590.0 395.2 C 585.2 394.9 580.0 394.7 575.4 396.4 M 391.1 489.0 C 390.5 491.2 390.1 493.5 389.8 495.9 C 394.1 499.9 398.4 503.9 403.4 507.2 C 399.3 501.1 395.1 495.1 391.1 489.0 M 741.6 500.6 C 739.1 504.2 736.2 507.4 733.8 510.9 C 740.0 506.8 745.5 501.8 751.0 496.7 C 750.6 494.1 750.1 491.5 749.5 488.9 C 746.6 492.6 744.3 496.8 741.6 500.6 M 456.5 520.1 C 455.5 523.4 454.8 526.9 452.6 529.6 C 450.6 532.3 447.2 533.3 444.2 534.5 C 467.3 546.8 492.3 555.4 518.0 560.8 C 507.5 556.2 496.9 551.9 487.4 545.6 C 475.9 538.6 466.1 529.4 456.5 520.1 M 642.6 552.5 C 637.8 555.2 632.5 556.9 627.8 559.7 C 635.9 558.3 643.8 555.9 651.6 553.6 C 667.3 548.6 682.7 542.6 697.1 534.5 C 694.1 533.5 690.8 532.9 688.6 530.4 C 686.4 527.9 685.3 524.6 684.0 521.5 C 672.0 534.0 658.1 544.8 642.6 552.5 Z" />
<path fill="#ffe5cf" stroke="#ffe5cf" stroke-width="0.09375" opacity="1.00" d=" M 575.1 80.0 C 581.7 72.5 590.4 64.7 601.0 64.9 C 601.1 68.4 601.2 71.9 601.1 75.3 C 608.1 74.4 614.9 71.8 622.0 72.8 C 623.9 72.9 625.5 74.0 627.0 75.0 C 624.6 80.2 620.1 83.8 616.6 88.2 C 621.2 90.3 626.5 90.7 631.0 93.2 C 631.1 96.4 628.3 98.4 626.0 100.1 C 617.3 106.2 606.5 108.5 596.1 108.9 C 595.8 109.4 595.2 110.5 594.9 111.1 C 596.3 113.6 597.6 116.1 598.7 118.7 C 600.1 117.1 601.6 115.1 604.0 115.1 C 613.6 114.0 623.2 110.9 631.1 105.1 C 635.0 102.1 638.8 97.5 637.8 92.2 C 637.0 88.0 632.5 86.6 629.3 84.6 C 629.5 84.2 630.0 83.4 630.3 83.0 C 647.9 86.4 664.9 92.5 681.3 99.7 C 740.1 125.6 789.1 174.2 813.0 234.0 C 822.8 258.1 828.2 283.9 829.6 309.9 C 829.7 321.8 830.1 333.8 828.5 345.6 C 827.4 353.4 827.8 362.2 821.9 368.3 C 824.5 376.0 827.0 383.8 827.3 392.0 C 827.5 400.3 827.7 408.7 825.8 416.8 C 822.0 433.9 814.2 450.0 804.6 464.6 C 797.2 475.6 788.5 486.0 777.6 493.6 C 772.7 497.0 766.7 500.0 760.6 498.3 C 756.9 496.4 756.3 491.7 755.8 488.0 C 755.1 481.6 754.9 475.2 754.0 468.9 C 747.6 478.0 743.0 488.3 736.3 497.3 C 728.9 507.6 720.3 517.5 709.3 524.3 C 704.9 527.0 699.0 529.3 694.0 527.0 C 689.4 522.7 689.7 515.7 689.8 510.0 C 690.9 497.0 694.8 484.5 696.9 471.6 C 687.2 483.8 679.8 497.8 669.3 509.3 C 662.7 516.5 655.3 523.5 646.1 527.1 C 642.5 528.1 637.1 529.0 634.8 525.1 C 631.6 519.7 632.2 513.2 632.5 507.3 C 634.2 492.5 639.7 478.5 646.5 465.4 C 651.9 455.3 658.3 445.6 665.8 436.9 C 668.6 433.6 671.8 430.9 674.1 427.3 C 669.8 425.5 664.1 425.9 661.0 422.0 C 658.5 416.3 660.2 409.7 662.0 404.1 C 667.7 388.5 677.8 375.1 689.2 363.2 C 700.8 351.1 714.4 340.9 729.4 333.5 C 738.0 329.5 747.4 327.1 757.0 327.3 C 759.9 327.3 762.9 327.5 765.8 327.0 C 768.1 325.9 767.1 323.2 767.1 321.2 C 750.4 319.6 733.2 323.1 719.0 332.1 C 710.8 336.6 703.3 342.3 696.0 348.1 C 687.5 337.0 678.1 326.6 667.0 318.1 C 649.3 304.2 628.6 294.6 606.8 289.4 C 606.9 284.7 606.4 279.5 603.3 275.7 C 597.0 267.8 586.9 263.7 577.0 263.0 C 567.8 262.4 558.2 262.7 549.7 266.7 C 544.6 269.0 540.2 272.7 537.3 277.3 C 535.0 280.9 534.9 285.4 535.1 289.5 C 502.5 297.1 472.4 315.3 451.5 341.5 C 449.5 344.0 447.6 346.5 445.6 349.0 C 442.3 346.8 439.4 344.1 436.3 341.7 C 422.3 331.6 406.7 322.5 389.1 321.1 C 386.5 320.5 383.1 324.2 385.4 326.4 C 387.1 328.0 389.8 327.7 391.9 328.2 C 402.0 329.3 411.5 333.5 420.1 338.9 C 435.1 347.6 448.1 359.5 459.3 372.7 C 467.8 383.2 475.4 394.7 479.2 407.7 C 480.3 412.5 481.7 418.3 478.5 422.6 C 474.9 425.4 469.9 425.5 465.7 427.2 C 468.7 431.5 472.7 434.9 476.0 439.0 C 486.4 451.6 494.8 465.9 500.8 481.2 C 505.3 493.0 508.9 505.7 507.5 518.4 C 507.1 522.3 505.3 527.2 500.8 527.7 C 493.8 527.9 487.8 523.5 482.5 519.5 C 465.6 506.2 455.8 486.7 443.0 469.9 C 444.8 482.4 448.5 494.5 450.1 507.0 C 450.5 512.9 451.1 519.5 447.9 524.9 C 445.7 528.6 440.6 528.1 437.1 526.8 C 428.6 523.5 421.7 517.1 415.4 510.6 C 405.1 499.8 397.4 486.8 390.2 473.8 C 389.1 471.6 387.7 469.5 386.2 467.6 C 385.1 475.6 385.3 483.8 383.8 491.8 C 383.1 495.3 380.2 499.2 376.2 498.7 C 369.6 498.1 363.9 494.2 358.9 490.2 C 346.0 479.4 336.1 465.6 328.1 450.9 C 321.0 437.5 315.3 423.0 313.6 407.7 C 313.1 398.6 312.9 389.2 315.2 380.2 C 316.2 376.1 318.0 372.2 318.7 368.0 C 318.0 365.4 315.5 363.6 315.0 361.0 C 311.9 338.9 310.8 316.5 313.4 294.4 C 317.5 258.3 330.3 223.4 350.1 193.1 C 381.5 144.6 430.3 108.0 485.1 90.1 C 505.4 83.3 526.6 79.0 547.9 77.2 C 555.0 76.6 562.1 76.0 569.2 76.5 C 567.2 78.9 564.6 80.4 562.3 82.5 C 561.2 84.4 560.9 86.6 560.3 88.7 C 561.1 89.2 562.0 89.6 562.9 90.1 C 567.4 87.3 572.0 84.5 575.1 80.0 M 469.4 140.5 C 459.6 142.1 451.1 148.4 445.0 155.9 C 433.7 170.1 428.5 188.1 426.7 205.8 C 425.0 226.5 427.7 248.0 437.3 266.7 C 442.4 276.3 449.6 285.4 459.4 290.5 C 469.2 295.8 481.8 295.2 491.2 289.1 C 503.2 281.6 511.1 268.8 515.6 255.6 C 522.5 236.5 523.3 215.7 520.1 195.8 C 517.0 179.3 510.7 162.6 498.3 150.7 C 490.8 143.4 480.0 138.9 469.4 140.5 M 660.4 140.6 C 649.6 142.3 640.5 149.6 634.3 158.3 C 624.0 172.3 619.3 189.6 617.6 206.6 C 616.1 227.1 619.0 248.2 628.4 266.6 C 633.5 276.5 640.9 285.8 651.0 290.9 C 661.0 295.9 673.6 295.0 682.8 288.8 C 695.4 280.5 703.2 266.7 707.6 252.6 C 713.6 234.4 714.2 214.6 711.2 195.8 C 708.0 179.0 701.6 162.0 688.8 150.2 C 681.3 143.1 670.7 138.9 660.4 140.6 Z" />
<path fill="#ffffff" stroke="#ffffff" stroke-width="0.09375" opacity="1.00" d=" M 469.4 140.5 C 480.0 138.9 490.8 143.4 498.3 150.7 C 510.7 162.6 517.0 179.3 520.1 195.8 C 523.3 215.7 522.5 236.5 515.6 255.6 C 511.1 268.8 503.2 281.6 491.2 289.1 C 481.8 295.2 469.2 295.8 459.4 290.5 C 449.6 285.4 442.4 276.3 437.3 266.7 C 427.7 248.0 425.0 226.5 426.7 205.8 C 428.5 188.1 433.7 170.1 445.0 155.9 C 451.1 148.4 459.6 142.1 469.4 140.5 M 488.4 174.5 C 483.7 176.0 479.9 179.4 477.3 183.4 C 470.4 193.4 467.8 205.9 468.0 218.0 C 467.8 230.1 470.2 242.8 476.9 253.0 C 480.5 258.4 486.2 263.3 493.0 262.8 C 500.5 262.9 506.3 256.8 509.8 250.7 C 517.0 237.6 518.4 222.0 516.6 207.4 C 514.9 196.9 511.6 185.8 503.6 178.4 C 499.6 174.6 493.7 173.1 488.4 174.5 Z" />
<path fill="#ffffff" stroke="#ffffff" stroke-width="0.09375" opacity="1.00" d=" M 660.4 140.6 C 670.7 138.9 681.3 143.1 688.8 150.2 C 701.6 162.0 708.0 179.0 711.2 195.8 C 714.2 214.6 713.6 234.4 707.6 252.6 C 703.2 266.7 695.4 280.5 682.8 288.8 C 673.6 295.0 661.0 295.9 651.0 290.9 C 640.9 285.8 633.5 276.5 628.4 266.6 C 619.0 248.2 616.1 227.1 617.6 206.6 C 619.3 189.6 624.0 172.3 634.3 158.3 C 640.5 149.6 649.6 142.3 660.4 140.6 M 642.4 174.5 C 635.4 176.3 630.8 182.6 627.7 188.7 C 621.2 202.2 620.4 217.8 622.7 232.4 C 624.6 242.4 628.3 253.0 636.5 259.5 C 642.5 264.5 651.9 263.8 657.4 258.4 C 665.5 250.6 668.9 239.1 670.4 228.2 C 671.8 212.5 670.3 195.4 660.7 182.3 C 656.7 176.5 649.4 172.6 642.4 174.5 Z" />
<path fill="#ee7f7f" stroke="#ee7f7f" stroke-width="0.09375" opacity="1.00" d=" M 488.4 174.5 C 493.7 173.1 499.6 174.6 503.6 178.4 C 511.6 185.8 514.9 196.9 516.6 207.4 C 518.4 222.0 517.0 237.6 509.8 250.7 C 506.3 256.8 500.5 262.9 493.0 262.8 C 486.2 263.3 480.5 258.4 476.9 253.0 C 470.2 242.8 467.8 230.1 468.0 218.0 C 467.8 205.9 470.4 193.4 477.3 183.4 C 479.9 179.4 483.7 176.0 488.4 174.5 Z" />
<path fill="#ee7f7f" stroke="#ee7f7f" stroke-width="0.09375" opacity="1.00" d=" M 642.4 174.5 C 649.4 172.6 656.7 176.5 660.7 182.3 C 670.3 195.4 671.8 212.5 670.4 228.2 C 668.9 239.1 665.5 250.6 657.4 258.4 C 651.9 263.8 642.5 264.5 636.5 259.5 C 628.3 253.0 624.6 242.4 622.7 232.4 C 620.4 217.8 621.2 202.2 627.7 188.7 C 630.8 182.6 635.4 176.3 642.4 174.5 Z" />
<path fill="#ffeb8f" stroke="#ffeb8f" stroke-width="0.09375" opacity="1.00" d=" M 549.7 266.7 C 558.2 262.7 567.8 262.4 577.0 263.0 C 586.9 263.7 597.0 267.8 603.3 275.7 C 606.4 279.5 606.9 284.7 606.8 289.4 C 604.8 295.5 600.1 300.5 594.5 303.5 C 584.1 309.3 571.5 310.1 560.0 308.1 C 549.6 306.0 538.4 300.2 535.1 289.5 C 534.9 285.4 535.0 280.9 537.3 277.3 C 540.2 272.7 544.6 269.0 549.7 266.7 Z" />
<path fill="#ffe5cf" stroke="#ffe5cf" stroke-width="0.09375" opacity="1.00" d=" M 508.4 395.5 C 513.6 394.9 518.8 395.6 524.0 395.4 C 533.4 395.3 543.1 393.9 552.1 396.9 C 559.9 399.5 565.7 406.3 567.9 414.1 C 570.5 423.7 569.6 434.6 564.1 443.0 C 558.9 450.9 549.2 454.8 540.0 454.7 C 530.5 454.5 521.0 453.9 511.4 454.6 C 508.6 454.7 505.3 455.1 503.3 452.7 C 501.9 451.6 502.2 449.5 502.8 448.0 C 504.1 446.8 505.7 446.0 507.1 445.0 C 508.8 444.0 508.6 441.7 508.9 440.1 C 509.8 429.4 509.8 418.7 509.6 408.0 C 510.0 403.7 502.7 403.6 503.8 399.1 C 504.0 396.8 506.5 395.9 508.4 395.5 M 530.3 405.3 C 529.1 415.1 530.1 425.1 529.7 435.0 C 530.0 438.2 529.0 442.2 531.3 444.8 C 535.8 447.2 542.0 444.9 544.3 440.4 C 547.1 435.0 547.2 428.8 546.9 422.9 C 546.4 418.0 545.7 412.5 542.4 408.5 C 539.6 405.0 534.6 404.1 530.3 405.3 Z" />
<path fill="#ffe5cf" stroke="#ffe5cf" stroke-width="0.09375" opacity="1.00" d=" M 575.4 396.4 C 580.0 394.7 585.2 394.9 590.0 395.2 C 593.4 395.3 596.0 397.6 598.4 399.7 C 604.5 405.2 610.8 410.6 617.0 416.1 C 618.6 417.6 620.6 418.8 622.9 419.1 C 623.9 415.7 624.1 412.1 623.4 408.6 C 622.9 404.6 616.7 403.7 617.5 399.3 C 618.2 395.9 622.1 395.4 624.9 395.2 C 629.8 395.0 634.9 394.7 639.6 396.3 C 642.1 397.1 643.2 400.4 641.8 402.6 C 639.7 404.9 635.8 406.3 636.0 410.0 C 635.0 422.1 636.1 434.4 635.4 446.6 C 635.0 449.3 634.9 452.7 632.6 454.6 C 629.8 456.1 626.8 454.1 624.8 452.2 C 617.8 445.9 610.7 439.6 603.7 433.3 C 600.8 430.8 598.2 427.5 594.3 427.0 C 592.3 431.6 592.4 436.8 593.4 441.7 C 594.2 445.1 599.5 446.0 599.0 450.0 C 598.8 453.1 595.2 454.1 592.7 454.7 C 587.2 455.5 581.0 455.8 576.0 453.1 C 573.9 452.1 573.6 449.4 574.4 447.5 C 576.4 445.1 579.7 443.4 579.7 439.9 C 580.6 430.2 580.8 420.3 579.4 410.6 C 579.2 406.5 575.0 405.0 572.6 402.3 C 571.4 399.9 573.0 397.2 575.4 396.4 Z" />
<path fill="#ee7f7f" stroke="#ee7f7f" stroke-width="0.09375" opacity="1.00" d=" M 530.3 405.3 C 534.6 404.1 539.6 405.0 542.4 408.5 C 545.7 412.5 546.4 418.0 546.9 422.9 C 547.2 428.8 547.1 435.0 544.3 440.4 C 542.0 444.9 535.8 447.2 531.3 444.8 C 529.0 442.2 530.0 438.2 529.7 435.0 C 530.1 425.1 529.1 415.1 530.3 405.3 Z" />
<path fill="#ffead4" stroke="#ffead4" stroke-width="0.09375" opacity="1.00" d=" M 391.1 489.0 C 395.1 495.1 399.3 501.1 403.4 507.2 C 398.4 503.9 394.1 499.9 389.8 495.9 C 390.1 493.5 390.5 491.2 391.1 489.0 Z" />
<path fill="#ffe9d2" stroke="#ffe9d2" stroke-width="0.09375" opacity="1.00" d=" M 741.6 500.6 C 744.3 496.8 746.6 492.6 749.5 488.9 C 750.1 491.5 750.6 494.1 751.0 496.7 C 745.5 501.8 740.0 506.8 733.8 510.9 C 736.2 507.4 739.1 504.2 741.6 500.6 Z" />
<path fill="#ffe6cf" stroke="#ffe6cf" stroke-width="0.09375" opacity="1.00" d=" M 456.5 520.1 C 466.1 529.4 475.9 538.6 487.4 545.6 C 496.9 551.9 507.5 556.2 518.0 560.8 C 492.3 555.4 467.3 546.8 444.2 534.5 C 447.2 533.3 450.6 532.3 452.6 529.6 C 454.8 526.9 455.5 523.4 456.5 520.1 Z" />
<path fill="#ffe6d0" stroke="#ffe6d0" stroke-width="0.09375" opacity="1.00" d=" M 642.6 552.5 C 658.1 544.8 672.0 534.0 684.0 521.5 C 685.3 524.6 686.4 527.9 688.6 530.4 C 690.8 532.9 694.1 533.5 697.1 534.5 C 682.7 542.6 667.3 548.6 651.6 553.6 C 643.8 555.9 635.9 558.3 627.8 559.7 C 632.5 556.9 637.8 555.2 642.6 552.5 Z" />
</svg>
