<?xml version="1.0" encoding="UTF-8" standalone="no"?>
<!-- Created with Inkscape (http://www.inkscape.org/) -->

<svg
   width="210mm"
   height="297mm"
   viewBox="0 0 793.70079 1122.5197"
   version="1.1"
   id="svg1"
   inkscape:version="1.3 (0e150ed6c4, 2023-07-21)"
   sodipodi:docname="passaro - nivel 1.svg"
   xmlns:inkscape="http://www.inkscape.org/namespaces/inkscape"
   xmlns:sodipodi="http://sodipodi.sourceforge.net/DTD/sodipodi-0.dtd"
   xmlns="http://www.w3.org/2000/svg"
   xmlns:svg="http://www.w3.org/2000/svg">
  <sodipodi:namedview
     id="namedview1"
     pagecolor="#505050"
     bordercolor="#eeeeee"
     borderopacity="1"
     inkscape:showpageshadow="0"
     inkscape:pageopacity="0"
     inkscape:pagecheckerboard="0"
     inkscape:deskcolor="#505050"
     inkscape:document-units="px"
     inkscape:zoom="0.41731771"
     inkscape:cx="481.64742"
     inkscape:cy="600.26209"
     inkscape:window-width="1600"
     inkscape:window-height="837"
     inkscape:window-x="-8"
     inkscape:window-y="-8"
     inkscape:window-maximized="1"
     inkscape:current-layer="layer1" />
  <defs
     id="defs1">
    <inkscape:path-effect
       effect="spiro"
       id="path-effect48"
       is_visible="true"
       lpeversion="1" />
    <inkscape:path-effect
       effect="spiro"
       id="path-effect47"
       is_visible="true"
       lpeversion="1" />
    <inkscape:path-effect
       effect="spiro"
       id="path-effect46"
       is_visible="true"
       lpeversion="1" />
    <inkscape:path-effect
       effect="spiro"
       id="path-effect45"
       is_visible="true"
       lpeversion="1" />
    <inkscape:path-effect
       effect="spiro"
       id="path-effect41"
       is_visible="true"
       lpeversion="1" />
    <inkscape:path-effect
       effect="spiro"
       id="path-effect40"
       is_visible="true"
       lpeversion="1" />
    <inkscape:path-effect
       effect="spiro"
       id="path-effect36"
       is_visible="true"
       lpeversion="1" />
    <inkscape:path-effect
       effect="spiro"
       id="path-effect35"
       is_visible="true"
       lpeversion="1" />
    <inkscape:path-effect
       effect="spiro"
       id="path-effect34"
       is_visible="true"
       lpeversion="1" />
    <inkscape:path-effect
       effect="spiro"
       id="path-effect32"
       is_visible="true"
       lpeversion="1" />
    <inkscape:path-effect
       effect="spiro"
       id="path-effect31"
       is_visible="true"
       lpeversion="1" />
    <inkscape:path-effect
       effect="spiro"
       id="path-effect30"
       is_visible="true"
       lpeversion="1" />
    <inkscape:path-effect
       effect="spiro"
       id="path-effect29"
       is_visible="true"
       lpeversion="1" />
    <inkscape:path-effect
       effect="spiro"
       id="path-effect28"
       is_visible="true"
       lpeversion="1" />
    <inkscape:path-effect
       effect="spiro"
       id="path-effect27"
       is_visible="true"
       lpeversion="1" />
    <inkscape:path-effect
       effect="spiro"
       id="path-effect26"
       is_visible="true"
       lpeversion="1" />
    <inkscape:path-effect
       effect="spiro"
       id="path-effect25"
       is_visible="true"
       lpeversion="1" />
    <inkscape:path-effect
       effect="spiro"
       id="path-effect24"
       is_visible="true"
       lpeversion="1" />
    <inkscape:path-effect
       effect="spiro"
       id="path-effect23"
       is_visible="true"
       lpeversion="1" />
    <inkscape:path-effect
       effect="spiro"
       id="path-effect22"
       is_visible="true"
       lpeversion="1" />
    <inkscape:path-effect
       effect="spiro"
       id="path-effect21"
       is_visible="true"
       lpeversion="1" />
    <inkscape:path-effect
       effect="spiro"
       id="path-effect20"
       is_visible="true"
       lpeversion="1" />
    <inkscape:path-effect
       effect="spiro"
       id="path-effect19"
       is_visible="true"
       lpeversion="1" />
    <inkscape:path-effect
       effect="spiro"
       id="path-effect18"
       is_visible="true"
       lpeversion="1" />
    <inkscape:path-effect
       effect="spiro"
       id="path-effect17"
       is_visible="true"
       lpeversion="1" />
    <inkscape:path-effect
       effect="spiro"
       id="path-effect16"
       is_visible="true"
       lpeversion="1" />
    <inkscape:path-effect
       effect="spiro"
       id="path-effect15"
       is_visible="true"
       lpeversion="1" />
    <inkscape:path-effect
       effect="spiro"
       id="path-effect14"
       is_visible="true"
       lpeversion="1" />
    <inkscape:path-effect
       effect="spiro"
       id="path-effect13"
       is_visible="true"
       lpeversion="1" />
    <inkscape:path-effect
       effect="spiro"
       id="path-effect12"
       is_visible="true"
       lpeversion="1" />
    <inkscape:path-effect
       effect="spiro"
       id="path-effect11"
       is_visible="true"
       lpeversion="1" />
    <inkscape:path-effect
       effect="spiro"
       id="path-effect10"
       is_visible="true"
       lpeversion="1" />
    <inkscape:path-effect
       effect="spiro"
       id="path-effect9"
       is_visible="true"
       lpeversion="1" />
    <inkscape:path-effect
       effect="spiro"
       id="path-effect8"
       is_visible="true"
       lpeversion="1" />
    <inkscape:path-effect
       effect="spiro"
       id="path-effect7"
       is_visible="true"
       lpeversion="1" />
  </defs>
  <g
     inkscape:groupmode="layer"
     id="layer2"
     inkscape:label="Camada 2"
     transform="matrix(56.921571,0,0,55.954326,-167.72145,-61.750442)">
    <path
       style="fill:#ffffff;fill-opacity:1;fill-rule:evenodd;stroke:#000000;stroke-width:0.08861262;stroke-dasharray:none;stroke-opacity:1"
       id="path156"
       sodipodi:type="arc"
       sodipodi:cx="11.259175"
       sodipodi:cy="9.8114147"
       sodipodi:rx="5.5421176"
       sodipodi:ry="5.2297606"
       sodipodi:start="0"
       sodipodi:end="6.2822494"
       sodipodi:open="true"
       sodipodi:arc-type="arc"
       d="M 16.801293,9.8114147 A 5.5421176,5.2297606 0 0 1 11.260472,15.041175 5.5421176,5.2297606 0 0 1 5.7170583,9.813862 5.5421176,5.2297606 0 0 1 11.255285,4.5816554 5.5421176,5.2297606 0 0 1 16.80129,9.8065201"
       transform="matrix(0.99440744,0.10561175,-0.13270301,0.99115585,0,0)" />
  </g>
  <g
     inkscape:label="Camada 1"
     inkscape:groupmode="layer"
     id="layer1"
     transform="matrix(52.347639,0,0,51.751569,-60.250511,209.92867)">
    <path
       style="fill:none;fill-opacity:0.0935484;stroke:#000000;stroke-width:0.09981842;stroke-dasharray:none;stroke-opacity:1"
       d="M 12.954758,5.0171607 C 12.800485,4.8663157 12.597636,4.7659432 12.38413,4.734807 c -0.213506,-0.031136 -0.436572,0.00712 -0.6275,0.1076267 -0.186647,0.09825 -0.338746,0.251597 -0.470627,0.4162113 -0.13188,0.1646142 -0.24649,0.3424731 -0.378047,0.5073456 -0.229169,0.2872026 -0.509444,0.5335051 -0.823713,0.723869"
       id="path9"
       transform="matrix(0.97572106,0,0,0.94923197,0.24251897,0.33284127)"
       inkscape:original-d="M 12.954758,5.0171607 C 12.572023,4.9589184 12.156006,4.900676 11.75663,4.8424337 11.357254,4.7841914 11.190848,5.4581383 10.907956,5.7659906 10.625065,6.073843 10.358814,6.2485699 10.084243,6.4898596"
       inkscape:path-effect="#path-effect9" />
    <path
       style="fill:none;fill-opacity:0.0935484;stroke:#000000;stroke-width:0.09589911;stroke-dasharray:none;stroke-opacity:1"
       d="m 12.954758,4.9921997 c 0.135822,0.1150438 0.212313,0.2967113 0.199688,0.474259 -0.01278,0.1797773 -0.110455,0.3437995 -0.23059,0.4781525 -0.120136,0.1343531 -0.263674,0.24544 -0.393435,0.3705214 C 12.085407,6.7440973 11.817227,7.3216231 11.591814,7.8971551 11.366402,8.472687 11.1705,9.0671517 10.833073,9.5850234 10.26424,10.45805 9.2942574,11.05777 8.2590502,11.176486 7.2238431,11.295202 6.1432777,10.930638 5.3915757,10.209048"
       id="path10"
       inkscape:path-effect="#path-effect10"
       inkscape:original-d="m 12.954758,4.9921997 c 0.07488,0.1664066 0.133126,0.3161726 0.199688,0.474259 C 13.221009,5.624545 12.73843,6.0322413 12.530421,6.3151326 12.322413,6.5980239 11.398856,8.4950598 10.833073,9.5850234 10.267291,10.674987 7.2054082,10.00104 5.3915757,10.209048"
       inkscape:label="path10"
       transform="matrix(1.0021285,0,0,1.0013061,-0.19375373,0.0198725)" />
    <path
       style="fill:none;fill-opacity:0.0935484;stroke:#000000;stroke-width:0.09606379;stroke-dasharray:none;stroke-opacity:1"
       d="M 10.209048,6.9141966 C 10.208615,6.3813424 9.976737,5.8526595 9.5850234,5.4914197 9.2296232,5.1636683 8.7671751,4.9812769 8.3619345,4.7176287 7.8564465,4.3887598 7.437911,3.9275129 7.159554,3.3925454 6.8811969,2.8575779 6.7436588,2.250121 6.7644306,1.6474259"
       id="path11"
       inkscape:path-effect="#path-effect11"
       inkscape:original-d="M 10.209048,6.9141966 C 10.017681,6.4565783 9.7930317,5.9656786 9.5850234,5.4914197 9.3770151,5.0171607 8.7696308,4.975559 8.3619345,4.7176287 7.9542382,4.4596984 7.2969319,2.6708268 6.7644306,1.6474259"
       inkscape:label="path11" />
    <path
       style="fill:none;fill-opacity:0.0935484;stroke:#000000;stroke-width:0.09606379;stroke-dasharray:none;stroke-opacity:1"
       d="M 6.7145086,1.7223089 C 6.5326983,2.0181336 6.412895,2.3518713 6.3650546,2.6957878 c -0.064916,0.4666719 0.00431,0.9512335 0.19729,1.3810633 0.1929847,0.4298298 0.5091087,0.8035373 0.9009939,1.0651146"
       id="path12"
       inkscape:path-effect="#path-effect12"
       inkscape:original-d="M 6.7145086,1.7223089 C 6.5980239,2.0634425 6.4815393,2.3712949 6.3650546,2.6957878 6.2485699,3.0202808 7.0972439,4.3265731 7.4633385,5.1419657" />
    <path
       style="fill:none;fill-opacity:0.0935484;stroke:#000000;stroke-width:0.09606379;stroke-dasharray:none;stroke-opacity:1"
       d="M 6.3151326,2.4461778 C 6.0670225,2.7577641 5.894355,3.1289993 5.8159126,3.5195008 5.7023827,4.0846747 5.7904791,4.688224 6.0608203,5.1973665 6.3311615,5.7065091 6.7817921,6.1175623 7.3135725,6.3400936"
       id="path13"
       inkscape:path-effect="#path-effect13"
       inkscape:original-d="M 6.3151326,2.4461778 C 6.1570463,2.7956318 5.9823193,3.1617265 5.8159126,3.5195008 5.649506,3.8772751 6.8143526,5.399896 7.3135725,6.3400936" />
    <path
       style="fill:none;fill-opacity:0.0935484;stroke:#000000;stroke-width:0.09606379;stroke-dasharray:none;stroke-opacity:1"
       d="M 5.7909516,3.5943838 C 5.5520418,3.8400086 5.3710703,4.1416278 5.2667707,4.4680187 5.0468847,5.1561212 5.1895211,5.9491757 5.635391,6.5175373 6.0812609,7.085899 6.8175549,7.4132393 7.5382215,7.3634945"
       id="path14"
       inkscape:path-effect="#path-effect14"
       inkscape:original-d="M 5.7909516,3.5943838 C 5.6079043,3.8772751 5.4414977,4.1768071 5.2667707,4.4680187 5.0920437,4.7592304 6.7810712,6.3983359 7.5382215,7.3634945" />
    <path
       style="fill:none;fill-opacity:0.0935484;stroke:#000000;stroke-width:0.09606379;stroke-dasharray:none;stroke-opacity:1"
       d="m 5.1669267,5.5413417 c -0.075945,0.3010335 -0.084535,0.6188608 -0.024961,0.9235569 0.085874,0.4392088 0.3153578,0.8491302 0.6448828,1.151937 0.329525,0.3028067 0.7573438,0.4968934 1.2022311,0.5454109"
       id="path15"
       inkscape:path-effect="#path-effect15"
       inkscape:original-d="M 5.1669267,5.5413417 C 5.150286,5.849194 5.150286,6.1570463 5.1419657,6.4648986 5.1336453,6.7727509 6.3733749,7.5964639 6.9890796,8.1622465"
       transform="translate(0.03373103,0.09725539)" />
    <path
       style="fill:none;fill-opacity:0.0935484;stroke:#000000;stroke-width:0.09606379;stroke-dasharray:none;stroke-opacity:1"
       d="m 5.5413417,7.4383775 c 0.038744,0.3856472 0.2191475,0.755475 0.4992199,1.023401 0.2136913,0.2044238 0.4835551,0.3495316 0.7719259,0.4150704 0.2883708,0.065539 0.5944439,0.051326 0.8755,-0.040655"
       id="path16"
       inkscape:path-effect="#path-effect16"
       inkscape:original-d="m 5.5413417,7.4383775 c 0.1580863,0.3411337 0.3328133,0.6822673 0.4992199,1.023401 0.1664067,0.3411336 1.098284,0.24961 1.6474259,0.3744149" />
    <path
       style="fill:none;fill-opacity:0.0935484;stroke:#000000;stroke-width:0.09606379;stroke-dasharray:none;stroke-opacity:1"
       d="m 6.4399376,8.8112324 c 0.082619,0.2467613 0.2414826,0.467405 0.449298,0.624025 0.2617318,0.1972541 0.6002028,0.289769 0.9258807,0.2530729 C 8.1407943,9.6516342 8.4501915,9.48612 8.6614665,9.2355694"
       id="path17"
       inkscape:path-effect="#path-effect17"
       inkscape:original-d="m 6.4399376,8.8112324 c 0.1580863,0.2080084 0.299532,0.4160167 0.449298,0.624025 0.149766,0.2080083 1.1814872,-0.1331253 1.7722309,-0.199688" />
    <path
       style="fill:none;fill-opacity:0.0935484;stroke:#000000;stroke-width:0.09606379;stroke-dasharray:none;stroke-opacity:1"
       d="M 11.357254,5.1419657 C 11.330616,4.949597 11.230879,4.7682578 11.082683,4.6427457 10.917372,4.5027382 10.704116,4.4364643 10.50858,4.3432137 10.047672,4.1234075 9.6692539,3.7354198 9.4610246,3.2691671 9.2527953,2.8029144 9.2164365,2.2621624 9.3603744,1.7722309"
       id="path22"
       inkscape:path-effect="#path-effect23"
       inkscape:original-d="M 11.357254,5.1419657 C 11.282371,4.9921997 11.174207,4.8091524 11.082683,4.6427457 10.99116,4.4763391 10.699948,4.4430577 10.50858,4.3432137 10.317213,4.2433697 9.7431097,2.6292252 9.3603744,1.7722309" />
    <path
       style="fill:none;fill-opacity:0.0935484;stroke:#000000;stroke-width:0.09606379;stroke-dasharray:none;stroke-opacity:1"
       d="M 9.2605304,1.8471139 C 9.0554088,2.0231775 8.8917079,2.2471893 8.7862715,2.4960998 8.6418748,2.8369866 8.6088452,3.2240048 8.6933895,3.5844303 8.7779337,3.9448558 8.9796131,4.2768189 9.2605304,4.5179407"
       id="path23"
       inkscape:path-effect="#path-effect24"
       inkscape:original-d="M 9.2605304,1.8471139 C 9.1107644,2.0551222 8.9443578,2.2797712 8.7862715,2.4960998 8.6281851,2.7124285 9.1024441,3.8439938 9.2605304,4.5179407" />
    <path
       style="fill:none;fill-opacity:0.0935484;stroke:#000000;stroke-width:0.09606379;stroke-dasharray:none;stroke-opacity:1"
       d="m 8.7113885,2.6209048 c -0.1944155,0.1499874 -0.35043,0.3493393 -0.449298,0.574103 -0.1106045,0.251445 -0.1490397,0.5341558 -0.109578,0.8060026 0.039462,0.2718468 0.156694,0.5319607 0.334227,0.7415793"
       id="path24"
       inkscape:path-effect="#path-effect25"
       inkscape:original-d="m 8.7113885,2.6209048 c -0.1414457,0.1913677 -0.299532,0.3827353 -0.449298,0.574103 -0.149766,0.1913677 0.149766,1.0317213 0.224649,1.5475819" />
    <path
       style="fill:none;fill-opacity:0.0935484;stroke:#000000;stroke-width:0.09606379;stroke-dasharray:none;stroke-opacity:1"
       d="m 8.0873635,3.5943838 c -0.1313383,0.081643 -0.2247622,0.2217786 -0.24961,0.374415 -0.020896,0.1283589 0.00623,0.2639665 0.074883,0.3744149"
       id="path25"
       inkscape:path-effect="#path-effect26"
       inkscape:original-d="m 8.0873635,3.5943838 c -0.066563,0.1081643 -0.1664067,0.24961 -0.24961,0.374415 -0.083203,0.1248049 0.049922,0.2496099 0.074883,0.3744149" />
    <path
       style="fill:none;fill-opacity:0.0935484;stroke:#000000;stroke-width:0.09954813;stroke-dasharray:none;stroke-opacity:1"
       d="M 5.4165367,10.209048 C 5.1251898,9.93842 4.8722694,9.626485 4.6677067,9.2854914 4.3064909,8.6833668 4.098522,7.9901371 4.0686427,7.2886115"
       id="path32"
       inkscape:path-effect="#path-effect32"
       inkscape:original-d="M 5.4165367,10.209048 C 5.1669267,9.9095164 4.9173167,9.5933437 4.6677067,9.2854914 4.4180967,8.9776391 4.2683307,7.9542382 4.0686427,7.2886115"
       transform="matrix(0.89901199,0,0,1.0358282,0.40450233,-0.26494638)" />
    <path
       style="fill:none;fill-opacity:0.0935484;stroke:#000000;stroke-width:0.09181247;stroke-dasharray:none;stroke-opacity:1"
       d="m 4.0936037,7.3884555 c 0.1140558,0.397092 0.3890503,0.7454185 0.74883,0.948518 0.3297408,0.1861422 0.7270575,0.2493517 1.0982839,0.174727"
       id="path34"
       inkscape:path-effect="#path-effect34"
       inkscape:original-d="m 4.0936037,7.3884555 c 0.2412897,0.3161727 0.49922,0.6323453 0.74883,0.948518 0.24961,0.3161726 0.7321893,0.1164846 1.0982839,0.174727"
       transform="matrix(1.0479683,0,0,1.044643,-0.21136432,-0.41064365)" />
    <path
       style="fill:none;fill-opacity:0.0935484;stroke:#000000;stroke-width:0.115888;stroke-dasharray:none;stroke-opacity:1"
       d="m 12.987984,5.1904097 c 0.144662,-0.052281 0.302083,-0.068852 0.45446,-0.047838 0.164697,0.022713 0.32312,0.089417 0.45446,0.1913515"
       id="path35"
       inkscape:path-effect="#path-effect35"
       inkscape:original-d="m 12.987984,5.1904097 c 0.159459,-0.00797 0.302973,-0.031892 0.45446,-0.047838 0.151486,-0.015946 0.302973,0.1275676 0.45446,0.1913515"
       transform="matrix(0.97148588,0,0,1.1036911,0.37281175,-0.56016374)" />
    <path
       style="fill:none;fill-opacity:0.0935484;stroke:#000000;stroke-width:0.0926638;stroke-dasharray:none;stroke-opacity:1"
       d="m 13.872985,5.3100044 c -0.219092,0.0092 -0.435524,0.075797 -0.621893,0.1913516 -0.08699,0.053933 -0.167477,0.118327 -0.239189,0.1913515"
       id="path36"
       inkscape:path-effect="#path-effect36"
       inkscape:original-d="M 13.872985,5.3100044 C 13.67366,5.3658153 13.45839,5.4375721 13.251092,5.501356 13.043795,5.5651398 13.091633,5.6289236 13.011903,5.6927075"
       transform="matrix(1.1607756,0,0,1.0033011,-2.1760943,-0.01304253)" />
    <path
       style="fill:none;fill-opacity:0.0935484;stroke:#000000;stroke-width:0.1;stroke-dasharray:none;stroke-opacity:1"
       d="m 11.890218,5.3398667 c 0.06876,-0.075622 0.172699,-0.1178459 0.274719,-0.1116049 0.09188,0.00562 0.180756,0.050059 0.24038,0.1201899"
       id="path47"
       inkscape:path-effect="#path-effect48"
       inkscape:original-d="m 11.890218,5.3398667 c 0.09157,-0.042925 0.183146,-0.074403 0.274719,-0.1116049 0.09157,-0.037202 0.160254,0.080127 0.24038,0.1201899"
       transform="translate(0.01455574,-0.05150997)" />
    <path
       style="fill:none;fill-opacity:0.0935484;stroke:#000000;stroke-width:0.00201554;stroke-dasharray:none;stroke-opacity:1"
       d="M 7.194219,11.084681 C 6.487872,10.98154 5.7746821,10.635084 5.3103062,10.169508 4.9680112,9.8263275 4.6586574,9.313353 4.4405529,8.7272712 4.383084,8.5728431 4.2628998,8.1292901 4.2333667,7.9626274 l -0.014063,-0.079362 0.1440369,0.1542332 c 0.3672926,0.3932934 0.7857933,0.5785438 1.311187,0.5804003 0.129204,4.565e-4 0.2582907,-0.00504 0.2868591,-0.012207 0.040769,-0.010233 0.075032,0.00408 0.1592813,0.066534 0.059036,0.043764 0.1359721,0.095917 0.1709685,0.1158954 0.034996,0.019978 0.059617,0.04678 0.054714,0.059559 -0.0049,0.01278 0.028846,0.098682 0.075,0.190894 0.1404788,0.2806678 0.4148235,0.5346869 0.7136483,0.6607752 0.2674455,0.112848 0.6590904,0.1337098 0.9288237,0.049476 0.2369981,-0.074011 0.5538353,-0.2729795 0.6473927,-0.4065513 0.031674,-0.045221 0.030207,-0.049177 -0.04315,-0.1164045 l -0.075939,-0.069593 -0.083592,0.080838 C 8.0381887,9.6919663 7.2992516,9.6942192 6.8448809,9.2421887 6.6979045,9.0959694 6.5837133,8.9201889 6.6531185,8.9469987 c 0.1335633,0.051593 0.3529669,0.076479 0.5915139,0.067091 0.2165012,-0.00852 0.4424039,-0.04608 0.4753612,-0.079037 C 7.7252019,8.9298445 7.7147463,8.8823907 7.6967587,8.8296 7.6668036,8.7416869 7.6596065,8.7346124 7.611157,8.7454546 7.3982598,8.7930982 7.3110512,8.8010173 7.094687,8.7923533 6.9039667,8.7847162 6.8219437,8.7717446 6.7067937,8.7310094 6.3955939,8.6209201 6.140975,8.4418254 5.9674204,8.2109469 5.8727049,8.0849475 5.7543555,7.8731144 5.7543555,7.8295831 c 0,-0.012144 0.038547,0.00885 0.08566,0.04666 0.2890775,0.2319732 0.6945471,0.4193852 1.0128069,0.4681292 0.044342,0.00679 0.099876,0.016244 0.1234086,0.021005 0.037887,0.00767 0.044351,-0.00312 0.056434,-0.094213 0.00751,-0.056579 0.010339,-0.1061779 0.0063,-0.1102202 C 7.0349195,8.1569013 6.9641748,8.140585 6.8817515,8.124685 6.0644078,7.967015 5.4222668,7.3166872 5.2799901,6.5025025 5.2637549,6.4095956 5.2506707,6.2780819 5.2509141,6.2102498 L 5.2513568,6.086919 5.2908638,6.173973 C 5.4257743,6.4712531 5.7649096,6.862886 6.0566859,7.0583437 6.4960573,7.3526736 6.9348717,7.4799706 7.4726,7.4690906 l 0.075583,-0.00153 -3.89e-5,-0.1058157 -3.89e-5,-0.1058156 -0.1763205,-0.00227 C 6.9593379,7.248343 6.5578804,7.1225103 6.1977734,6.8856763 6.0314433,6.7762847 5.7620632,6.5091474 5.6481442,6.3406228 5.1903864,5.6634443 5.1554094,4.7663466 5.5602203,4.0855305 l 0.087462,-0.1470951 0.013989,0.2075612 c 0.00769,0.1141588 0.031837,0.2958448 0.053651,0.403747 0.1345943,0.6657595 0.5377331,1.2649047 1.1075594,1.6460552 0.1982501,0.1326074 0.4387503,0.2549291 0.4598191,0.2338705 0.00745,-0.00744 0.028289,-0.051247 0.046317,-0.097342 L 7.3617961,6.2485186 7.1805976,6.1528093 C 7.0809384,6.1001691 6.9373021,6.0110655 6.8614058,5.9548012 6.6674883,5.8110441 6.3683346,5.4876596 6.2424978,5.2857631 5.7940128,4.5661992 5.7599875,3.6630131 6.1528471,2.9060256 l 0.075118,-0.1447412 0.0124,0.3325635 c 0.00701,0.1879846 0.027241,0.40121 0.046537,0.4904659 0.1164208,0.5385189 0.3914683,1.0196185 0.7979084,1.3956617 0.1207562,0.1117254 0.2993296,0.2503406 0.3225051,0.2503406 0.013198,0 0.1207121,-0.1497152 0.1207121,-0.1680945 0,-0.00424 -0.067723,-0.059588 -0.1504963,-0.1229868 C 6.9233971,4.5913964 6.5885968,4.0303507 6.4869777,3.4468797 6.4396861,3.1753442 6.4584842,2.7040534 6.5267841,2.4488763 c 0.028187,-0.1053117 0.068943,-0.2322905 0.090568,-0.282175 0.045766,-0.1055738 0.041809,-0.1146867 0.092316,0.2126113 0.1365189,0.8846732 0.6614081,1.7458827 1.3966567,2.291558 0.1129831,0.083852 0.4005652,0.2633607 0.6390716,0.3989085 0.6957704,0.3954193 0.932152,0.6050268 1.1425786,1.0131622 0.1065028,0.2065691 0.199561,0.5166655 0.200058,0.66665 5.19e-4,0.1567138 0.0126,0.1737751 0.123008,0.1737751 h 0.09843 l -8.78e-4,-0.125971 c -4.82e-4,-0.069284 -0.0082,-0.1640017 -0.01724,-0.2104836 l -0.01636,-0.084513 0.173443,-0.1296874 c 0.227377,-0.1700157 0.465515,-0.4209768 0.734226,-0.7737623 0.263646,-0.3461363 0.406624,-0.4825862 0.612108,-0.5841596 0.151734,-0.075004 0.16022,-0.076717 0.378,-0.076309 0.186145,3.485e-4 0.242273,0.00821 0.341311,0.047784 0.230359,0.092056 0.36047,0.2661995 0.357927,0.4790583 -7.16e-4,0.059977 -0.0082,0.1200687 -0.0166,0.1335363 -0.0084,0.013467 -0.01714,0.036606 -0.01938,0.051418 -0.01068,0.070557 -0.141372,0.2230821 -0.460486,0.5374181 -0.5693,0.5607767 -0.696633,0.7857789 -1.270217,2.2445183 -0.285424,0.7258878 -0.45621,1.047259 -0.747226,1.406069 C 9.833913,10.48458 9.0629909,10.93328 8.2359844,11.073415 c -0.2912142,0.04935 -0.7471974,0.05428 -1.0417587,0.01126 z m 4.802125,-5.7933691 c 0.100829,-0.079312 0.193636,-0.071434 0.389125,0.033031 0.0055,0.00296 0.02759,-0.00785 0.049,-0.024019 0.03813,-0.028801 0.03794,-0.030448 -0.0089,-0.080303 -0.06069,-0.064601 -0.226512,-0.1151541 -0.32137,-0.097974 -0.08085,0.014644 -0.213112,0.076577 -0.233305,0.1092505 -0.01167,0.018882 0.04189,0.099795 0.06606,0.099795 0.0048,0 0.03157,-0.017901 0.05939,-0.03978 z"
       id="path62" />
    <path
       style="fill:#ffffff;fill-opacity:1;stroke:#000000;stroke-width:0.00219894;stroke-dasharray:none;stroke-opacity:1"
       d="M 7.1557227,11.068306 C 6.5360418,10.966113 5.9074196,10.676834 5.4515429,10.284079 4.9945583,9.8903694 4.5674022,9.1644768 4.3621555,8.4328156 4.3009902,8.2147746 4.242125,7.9752076 4.242125,7.9443214 c 0,-0.00847 0.055661,0.042336 0.1236904,0.1129094 0.237095,0.2459597 0.5019471,0.411534 0.8026017,0.5017522 0.1459907,0.043808 0.2022806,0.050171 0.5121822,0.057895 l 0.3481658,0.00868 0.1511772,0.1021535 c 0.083147,0.056185 0.1511772,0.1121975 0.1511772,0.1244731 0,0.012276 0.037024,0.096278 0.082275,0.186672 0.1298554,0.2593991 0.3720505,0.4969651 0.6478813,0.6354988 0.1799786,0.090393 0.3522943,0.1250124 0.6258575,0.1257404 0.2247609,5.983e-4 0.2614307,-0.00412 0.4010349,-0.051549 0.2326945,-0.079063 0.560313,-0.2875521 0.6378783,-0.4059316 0.028478,-0.043463 0.027162,-0.047208 -0.041192,-0.1172076 -0.038835,-0.039771 -0.079762,-0.072311 -0.090949,-0.072311 -0.011187,0 -0.044559,0.025435 -0.07416,0.056522 C 8.4420305,9.2912336 8.3132387,9.3825656 8.188801,9.4443056 7.7509589,9.6615398 7.2352668,9.5856701 6.8815328,9.2519754 6.7701457,9.1468984 6.6426363,8.9935409 6.6426363,8.964651 c 0,-0.00427 0.043292,0.00384 0.096204,0.018012 0.142832,0.03826 0.4717913,0.050329 0.6875632,0.025227 0.2256627,-0.026253 0.2973794,-0.048457 0.2973794,-0.092072 0,-0.038865 -0.036156,-0.1505907 -0.055804,-0.1724381 -0.0078,-0.00867 -0.094334,-0.0013 -0.1926958,0.016409 C 7.2192391,8.8058909 6.9153983,8.7882968 6.7029424,8.7150664 6.4770536,8.6372059 6.2731507,8.5088663 6.102066,8.3368662 5.9735487,8.207661 5.8361215,8.0086344 5.7895133,7.8842168 c -0.00712,-0.019016 0.069406,0.022401 0.1888384,0.1021964 0.2975839,0.1988224 0.6385449,0.3349422 0.9628977,0.3844116 0.062005,0.00946 0.071455,0.00562 0.087041,-0.03538 0.00962,-0.025294 0.017485,-0.077851 0.017485,-0.1167944 V 8.1478448 L 6.9404096,8.127424 C 6.6526532,8.0716544 6.3533831,7.9488426 6.1203876,7.7909108 5.9536543,7.6778936 5.7067521,7.4225543 5.5892751,7.241649 5.3978806,6.9469168 5.2922967,6.6413829 5.274622,6.3311195 L 5.264705,6.1570367 5.3478532,6.3002343 C 5.5144518,6.58715 5.8060472,6.9016571 6.0629859,7.0715576 6.4607733,7.3345941 6.8188076,7.4498012 7.3260582,7.4779843 L 7.558862,7.4909192 V 7.3719602 7.2530009 L 7.3343867,7.2409271 C 6.7552596,7.2097774 6.3018709,7.0106266 5.904031,6.6126434 5.6529927,6.361515 5.5297837,6.1685893 5.4180313,5.8516453 5.3235115,5.5835754 5.2989153,5.4347825 5.2988822,5.1308639 5.2988486,4.8207367 5.3335748,4.6257512 5.433307,4.3760786 5.503302,4.2008508 5.6135565,3.9999467 5.6330973,4.0120237 c 0.00792,0.0049 0.019536,0.087063 0.025811,0.1825944 0.052631,0.8012254 0.4701572,1.5358054 1.1303237,1.9886468 0.2371205,0.162653 0.5130864,0.2967497 0.5130864,0.2493178 0,-0.00467 0.016357,-0.049983 0.03635,-0.1007049 l 0.03635,-0.092221 -0.1233916,-0.062319 C 6.7991846,5.9488313 6.369315,5.5256741 6.1532854,5.0961461 5.9682342,4.7282115 5.9022481,4.4470768 5.901223,4.0222308 5.9006162,3.7707264 5.9076889,3.6875172 5.9432774,3.5274689 5.9853136,3.3384241 6.0905877,3.0453681 6.1724763,2.8894387 l 0.041558,-0.079133 0.021958,0.344838 c 0.01285,0.2017985 0.03665,0.4060014 0.057376,0.49229 0.1123841,0.4678827 0.359813,0.9124429 0.6974341,1.2530932 0.1620094,0.1634631 0.3708887,0.3311214 0.4125319,0.3311214 0.022562,0 0.1372035,-0.1389705 0.1372035,-0.1663204 0,-0.00688 -0.072996,-0.070793 -0.1622129,-0.1420355 C 7.0862616,4.6900736 6.8998518,4.4564736 6.7250907,4.1046911 6.6031156,3.8591635 6.528684,3.6357656 6.4935544,3.4097627 6.469257,3.2534472 6.4821231,2.7004849 6.5134131,2.5562697 6.5379881,2.4430036 6.6434097,2.1110525 6.6519946,2.1199051 c 0.00306,0.00316 0.023173,0.1102471 0.044695,0.2379798 0.021522,0.1277327 0.055686,0.2926534 0.075921,0.3664903 0.1654781,0.6038192 0.4929177,1.1666235 0.9402413,1.6160903 0.2477491,0.2489361 0.4354073,0.3859232 0.9363181,0.6834946 0.5190012,0.3083182 0.7043623,0.4333834 0.871034,0.5876958 0.29323,0.2714861 0.504696,0.6978546 0.552233,1.1134407 0.02191,0.1915751 0.03717,0.2107319 0.167826,0.2107319 h 0.09064 L 10.318534,6.775489 c -0.0068,-0.088187 -0.01661,-0.1850776 -0.02178,-0.215313 -0.0088,-0.051218 0.0014,-0.063092 0.14863,-0.173802 0.196537,-0.1477698 0.462979,-0.4209923 0.67819,-0.6954487 0.35714,-0.4554556 0.475731,-0.5693518 0.706488,-0.6785173 0.111582,-0.052786 0.129108,-0.055577 0.346581,-0.055178 0.197506,3.627e-4 0.243389,0.00632 0.333111,0.043218 0.227664,0.093638 0.344896,0.2507887 0.344896,0.4623354 0,0.2093524 -0.02698,0.2475839 -0.567417,0.8041998 C 12.130663,6.428239 11.950056,6.6343897 11.885885,6.7250961 11.722801,6.9556139 11.488964,7.4462756 11.204713,8.1544082 10.817877,9.1181 10.685684,9.3866121 10.43296,9.7220022 9.9343502,10.383707 9.1817628,10.861022 8.3516623,11.042026 c -0.2337774,0.05097 -0.9506644,0.06673 -1.1959356,0.02628 z M 12.011719,5.2957845 c 0.07926,-0.058475 0.163835,-0.058756 0.287982,-9.554e-4 0.09183,0.042753 0.09713,0.043237 0.135292,0.012337 0.0547,-0.044293 0.02482,-0.096008 -0.08667,-0.1499766 -0.120574,-0.058369 -0.263017,-0.057158 -0.382415,0.00325 -0.10057,0.050883 -0.12086,0.091952 -0.07207,0.1458705 0.0405,0.044747 0.0433,0.044498 0.117876,-0.010526 z"
       id="path140" />
    <path
       style="fill:#ffffff;fill-opacity:1;stroke:#000000;stroke-width:0.00219894;stroke-dasharray:none;stroke-opacity:1"
       d="M 10.202779,6.239029 C 10.18102,6.1558236 10.028939,5.8644345 9.9405049,5.7365103 9.8389466,5.5896012 9.6180672,5.3635588 9.4646114,5.2494935 9.3569004,5.1694306 9.0606218,4.9905183 8.7545365,4.8207039 8.651232,4.7633912 8.5667102,4.7046656 8.5667102,4.6902026 c 0,-0.014463 -0.028541,-0.063688 -0.063425,-0.1093886 C 8.4142663,4.4641935 8.3333869,4.2867856 8.2887297,4.1101901 8.2381149,3.9100358 8.2482455,3.5631279 8.31001,3.3814767 8.3575006,3.2418055 8.4354316,3.0847414 8.4999806,2.998605 l 0.046153,-0.061589 -1.269e-4,0.2356717 c -1.902e-4,0.3534869 0.056611,0.5839519 0.2225192,0.9028483 0.076158,0.1463856 0.2843105,0.4142486 0.3802579,0.4893386 l 0.05325,0.041674 0.068841,-0.082356 0.068842,-0.082356 -0.095491,-0.095274 C 8.7460934,3.8495584 8.6194789,3.1122518 8.9226262,2.4738094 8.9823853,2.3479538 9.1557606,2.0799936 9.1775536,2.0798063 c 0.00167,-1.43e-5 3.003e-4,0.112767 -0.00303,0.2506252 -0.014892,0.615836 0.1870452,1.1582229 0.5954556,1.5993437 0.2154415,0.2326968 0.4130508,0.3694957 0.8241838,0.5705559 0.286358,0.1400407 0.387729,0.1991428 0.452279,0.2636929 0.09098,0.090983 0.172369,0.2396386 0.189714,0.34652 0.0095,0.058649 0.0033,0.076474 -0.04387,0.1267437 -0.03022,0.032173 -0.131579,0.1615722 -0.225248,0.2875532 -0.176136,0.2368968 -0.511023,0.5861056 -0.665295,0.6937461 -0.08761,0.061129 -0.08829,0.061269 -0.09896,0.020442 z"
       id="path141" />
    <path
       style="fill:#ffffff;fill-opacity:1;stroke:#000000;stroke-width:0.00219894;stroke-dasharray:none;stroke-opacity:1"
       d="M 8.0593739,4.3528377 C 7.9460023,4.2496644 7.9109953,4.0278766 7.9840522,3.8756347 l 0.039571,-0.08246 0.012533,0.1374338 c 0.010858,0.119059 0.061642,0.3432988 0.1006385,0.4443695 0.018019,0.046703 -0.010842,0.038449 -0.077421,-0.02214 z"
       id="path142" />
    <path
       style="fill:#ffd42a;fill-opacity:1;stroke:#000000;stroke-width:0.00219894;stroke-dasharray:none;stroke-opacity:1"
       d="m 13.087663,5.3874071 c -0.0052,-0.060471 -0.01492,-0.1235715 -0.02168,-0.1402235 -0.01,-0.024569 0.0054,-0.034068 0.08149,-0.050392 0.05159,-0.011064 0.124643,-0.020116 0.162343,-0.020116 0.0786,0 0.258621,0.043746 0.326606,0.079367 0.04411,0.02311 0.03942,0.02593 -0.107526,0.06475 -0.0845,0.022323 -0.216239,0.071182 -0.292747,0.108575 l -0.139104,0.067987 z"
       id="path143" />
    <path
       style="fill:#ffd42a;fill-opacity:1;stroke:#000000;stroke-width:0.00219894;stroke-dasharray:none;stroke-opacity:1"
       d="m 13.102864,5.4286372 c -0.005,-0.022677 -0.0113,-0.07782 -0.01409,-0.1225409 -0.0046,-0.073012 -3.93e-4,-0.082644 0.04074,-0.094377 0.113839,-0.032469 0.414968,-0.0019 0.500204,0.050779 0.01046,0.00647 -0.06276,0.037825 -0.162713,0.069688 -0.09995,0.031863 -0.21645,0.075876 -0.258882,0.097807 -0.09499,0.049096 -0.09421,0.049106 -0.105259,-0.00136 z"
       id="path144" />
  </g>
</svg>
