<?xml version="1.0" encoding="UTF-8" standalone="no"?>
<!-- Created with Inkscape (http://www.inkscape.org/) -->

<svg
   width="628.92102"
   height="602.33301"
   viewBox="0 0 628.921 602.33316"
   version="1.1"
   id="svg1"
   inkscape:version="1.3 (0e150ed6c4, 2023-07-21)"
   sodipodi:docname="beija fror - nivel 2.svg"
   xmlns:inkscape="http://www.inkscape.org/namespaces/inkscape"
   xmlns:sodipodi="http://sodipodi.sourceforge.net/DTD/sodipodi-0.dtd"
   xmlns="http://www.w3.org/2000/svg"
   xmlns:svg="http://www.w3.org/2000/svg">
  <sodipodi:namedview
     id="namedview1"
     pagecolor="#505050"
     bordercolor="#eeeeee"
     borderopacity="1"
     inkscape:showpageshadow="0"
     inkscape:pageopacity="0"
     inkscape:pagecheckerboard="0"
     inkscape:deskcolor="#505050"
     inkscape:document-units="px"
     inkscape:zoom="0.96937492"
     inkscape:cx="400.25793"
     inkscape:cy="393.55258"
     inkscape:window-width="1920"
     inkscape:window-height="1017"
     inkscape:window-x="-8"
     inkscape:window-y="-8"
     inkscape:window-maximized="1"
     inkscape:current-layer="layer3" />
  <defs
     id="defs1">
    <inkscape:path-effect
       effect="spiro"
       id="path-effect92"
       is_visible="true"
       lpeversion="1" />
    <inkscape:path-effect
       effect="spiro"
       id="path-effect91"
       is_visible="true"
       lpeversion="1" />
    <inkscape:path-effect
       effect="spiro"
       id="path-effect79"
       is_visible="true"
       lpeversion="1" />
    <inkscape:path-effect
       effect="spiro"
       id="path-effect78"
       is_visible="true"
       lpeversion="1" />
    <inkscape:path-effect
       effect="spiro"
       id="path-effect77"
       is_visible="true"
       lpeversion="1" />
    <inkscape:path-effect
       effect="spiro"
       id="path-effect75"
       is_visible="true"
       lpeversion="1" />
    <inkscape:path-effect
       effect="spiro"
       id="path-effect74"
       is_visible="true"
       lpeversion="1" />
    <inkscape:path-effect
       effect="spiro"
       id="path-effect73"
       is_visible="true"
       lpeversion="1" />
    <inkscape:path-effect
       effect="spiro"
       id="path-effect72"
       is_visible="true"
       lpeversion="1" />
    <inkscape:path-effect
       effect="spiro"
       id="path-effect71"
       is_visible="true"
       lpeversion="1" />
    <inkscape:path-effect
       effect="spiro"
       id="path-effect70"
       is_visible="true"
       lpeversion="1" />
    <inkscape:path-effect
       effect="spiro"
       id="path-effect69"
       is_visible="true"
       lpeversion="1" />
    <inkscape:path-effect
       effect="spiro"
       id="path-effect68"
       is_visible="true"
       lpeversion="1" />
    <inkscape:path-effect
       effect="spiro"
       id="path-effect67"
       is_visible="true"
       lpeversion="1" />
    <inkscape:path-effect
       effect="spiro"
       id="path-effect66"
       is_visible="true"
       lpeversion="1" />
    <inkscape:path-effect
       effect="spiro"
       id="path-effect65"
       is_visible="true"
       lpeversion="1" />
    <inkscape:path-effect
       effect="spiro"
       id="path-effect62"
       is_visible="true"
       lpeversion="1" />
    <inkscape:path-effect
       effect="spiro"
       id="path-effect61"
       is_visible="true"
       lpeversion="1" />
    <inkscape:path-effect
       effect="spiro"
       id="path-effect60"
       is_visible="true"
       lpeversion="1" />
    <inkscape:path-effect
       effect="spiro"
       id="path-effect59"
       is_visible="true"
       lpeversion="1" />
    <inkscape:path-effect
       effect="spiro"
       id="path-effect56"
       is_visible="true"
       lpeversion="1" />
    <inkscape:path-effect
       effect="spiro"
       id="path-effect55"
       is_visible="true"
       lpeversion="1" />
    <inkscape:path-effect
       effect="spiro"
       id="path-effect54"
       is_visible="true"
       lpeversion="1" />
    <inkscape:path-effect
       effect="spiro"
       id="path-effect53"
       is_visible="true"
       lpeversion="1" />
    <inkscape:path-effect
       effect="spiro"
       id="path-effect52"
       is_visible="true"
       lpeversion="1" />
    <inkscape:path-effect
       effect="spiro"
       id="path-effect44"
       is_visible="true"
       lpeversion="1" />
    <inkscape:path-effect
       effect="spiro"
       id="path-effect43"
       is_visible="true"
       lpeversion="1" />
    <inkscape:path-effect
       effect="spiro"
       id="path-effect42"
       is_visible="true"
       lpeversion="1" />
    <inkscape:path-effect
       effect="spiro"
       id="path-effect41"
       is_visible="true"
       lpeversion="1" />
    <inkscape:path-effect
       effect="spiro"
       id="path-effect40"
       is_visible="true"
       lpeversion="1" />
    <inkscape:path-effect
       effect="spiro"
       id="path-effect39"
       is_visible="true"
       lpeversion="1" />
    <inkscape:path-effect
       effect="spiro"
       id="path-effect38"
       is_visible="true"
       lpeversion="1" />
    <inkscape:path-effect
       effect="spiro"
       id="path-effect37"
       is_visible="true"
       lpeversion="1" />
    <inkscape:path-effect
       effect="spiro"
       id="path-effect36"
       is_visible="true"
       lpeversion="1" />
    <inkscape:path-effect
       effect="spiro"
       id="path-effect35"
       is_visible="true"
       lpeversion="1" />
    <inkscape:path-effect
       effect="spiro"
       id="path-effect34"
       is_visible="true"
       lpeversion="1" />
    <inkscape:path-effect
       effect="spiro"
       id="path-effect33"
       is_visible="true"
       lpeversion="1" />
    <inkscape:path-effect
       effect="spiro"
       id="path-effect32"
       is_visible="true"
       lpeversion="1" />
    <inkscape:path-effect
       effect="spiro"
       id="path-effect31"
       is_visible="true"
       lpeversion="1" />
    <inkscape:path-effect
       effect="spiro"
       id="path-effect30"
       is_visible="true"
       lpeversion="1" />
    <inkscape:path-effect
       effect="spiro"
       id="path-effect29"
       is_visible="true"
       lpeversion="1" />
    <inkscape:path-effect
       effect="spiro"
       id="path-effect24"
       is_visible="true"
       lpeversion="1" />
    <inkscape:path-effect
       effect="spiro"
       id="path-effect23"
       is_visible="true"
       lpeversion="1" />
    <inkscape:path-effect
       effect="spiro"
       id="path-effect18"
       is_visible="true"
       lpeversion="1" />
    <inkscape:path-effect
       effect="spiro"
       id="path-effect17"
       is_visible="true"
       lpeversion="1" />
    <inkscape:path-effect
       effect="spiro"
       id="path-effect16"
       is_visible="true"
       lpeversion="1" />
    <inkscape:path-effect
       effect="spiro"
       id="path-effect15"
       is_visible="true"
       lpeversion="1" />
    <inkscape:path-effect
       effect="spiro"
       id="path-effect14"
       is_visible="true"
       lpeversion="1" />
    <inkscape:path-effect
       effect="spiro"
       id="path-effect13"
       is_visible="true"
       lpeversion="1" />
    <inkscape:path-effect
       effect="spiro"
       id="path-effect12"
       is_visible="true"
       lpeversion="1" />
    <inkscape:path-effect
       effect="spiro"
       id="path-effect11"
       is_visible="true"
       lpeversion="1" />
    <inkscape:path-effect
       effect="spiro"
       id="path-effect10"
       is_visible="true"
       lpeversion="1" />
    <inkscape:path-effect
       effect="spiro"
       id="path-effect9"
       is_visible="true"
       lpeversion="1" />
    <inkscape:path-effect
       effect="spiro"
       id="path-effect3"
       is_visible="true"
       lpeversion="1" />
    <inkscape:path-effect
       effect="spiro"
       id="path-effect2"
       is_visible="true"
       lpeversion="1" />
    <inkscape:path-effect
       effect="spiro"
       id="path-effect1"
       is_visible="true"
       lpeversion="1" />
    <inkscape:path-effect
       effect="spiro"
       id="path-effect11-5"
       is_visible="true"
       lpeversion="1" />
    <inkscape:path-effect
       effect="spiro"
       id="path-effect11-1"
       is_visible="true"
       lpeversion="1" />
    <inkscape:path-effect
       effect="spiro"
       id="path-effect11-51"
       is_visible="true"
       lpeversion="1" />
    <inkscape:path-effect
       effect="spiro"
       id="path-effect12-7"
       is_visible="true"
       lpeversion="1" />
    <inkscape:path-effect
       effect="spiro"
       id="path-effect11-4"
       is_visible="true"
       lpeversion="1" />
  </defs>
  <g
     inkscape:groupmode="layer"
     id="layer3"
     inkscape:label="Camada 2"
     transform="matrix(1.0753701,0,0,1.6038581,-76.235086,-268.94015)"
     style="display:inline">
    <path
       style="display:inline;fill:#ffa8f7;fill-opacity:1;fill-rule:evenodd;stroke:#000000;stroke-width:3.80722;stroke-dasharray:none;stroke-opacity:1"
       id="path90"
       sodipodi:type="arc"
       sodipodi:cx="363.31259"
       sodipodi:cy="355.45969"
       sodipodi:rx="290.51703"
       sodipodi:ry="185.87282"
       sodipodi:start="0"
       sodipodi:end="6.2822494"
       sodipodi:open="true"
       sodipodi:arc-type="arc"
       d="M 653.82962,355.45969 A 290.51703,185.87282 0 0 1 363.38057,541.3325 290.51703,185.87282 0 0 1 72.795595,355.54667 290.51703,185.87282 0 0 1 363.10867,169.58691 290.51703,185.87282 0 0 1 653.82949,355.28573" />
  </g>
  <g
     inkscape:label="Camada 1"
     inkscape:groupmode="layer"
     id="layer1"
     transform="matrix(35.72,0,0,38.591916,-5.2493353,-9.3847228)">
    <path
       style="fill:none;stroke:#000000;stroke-width:0.1;stroke-opacity:1"
       d="m 3.6443058,4.9921997 c 0.1116064,-0.210267 0.2761734,-0.392157 0.4742589,-0.524181 0.3200385,-0.2133058 0.7137807,-0.2905184 1.098284,-0.299532 0.2531268,-0.00593 0.5098179,0.016288 0.7488299,0.099844 0.392389,0.1371755 0.7085147,0.4273613 1.0202541,0.7023244 0.3117395,0.2749632 0.6469252,0.5501844 1.0515088,0.6455695 0.2735489,0.064492 0.5620968,0.041256 0.834627,-0.027414 0.2725302,-0.06867 0.5316939,-0.1814136 0.7878379,-0.2970791 1.4041646,-0.6340706 2.7928376,-1.3810928 4.3182526,-1.5975039 0.536933,-0.076175 1.083443,-0.084583 1.622465,-0.024961 m -6.0355751,3.959724 c 0.1080088,0.1711272 0.2498263,0.3208234 0.4148696,0.4379179 0.095678,0.067882 0.1986545,0.1246653 0.2996275,0.1843865 0.641455,0.3793917 1.210987,0.8862582 1.636431,1.4981402 0.758633,1.0910806 1.025396,2.5109486 0.714497,3.8029716"
       id="path2"
       inkscape:original-d="m 3.6443058,4.9921997 c 0.1664066,-0.1664067 0.3161726,-0.349454 0.4742589,-0.524181 0.1580864,-0.174727 0.7321893,-0.199688 1.098284,-0.299532 0.3660946,-0.099844 0.4992199,0.066563 0.7488299,0.099844 0.24961,0.033281 1.3811753,0.898596 2.0717629,1.3478939 C 8.7280291,6.0655226 9.1190848,5.399896 9.6599064,5.2917317 10.200728,5.1835673 12.538742,4.2267291 13.978159,3.6942278 15.417577,3.1617265 15.059802,3.6775868 15.600624,3.6692668 M 9.5650489,7.6289908 C 9.7033387,7.790329 9.8416286,7.9209361 9.9799185,8.0669087 10.118208,8.2128813 10.17967,8.189833 10.279546,8.2512952 c 0.09988,0.061462 1.090954,0.9987601 1.636431,1.4981402 0.545476,0.4993796 0.476331,2.5353146 0.714497,3.8029716"
       inkscape:path-effect="#path-effect3" />
    <path
       style="fill:none;stroke:#000000;stroke-width:0.1;stroke-opacity:1"
       d="m 3.7191888,5.0421217 c 0.082045,0.00553 0.1620316,0.038221 0.2244664,0.091737 0.062435,0.053516 0.1069728,0.1275613 0.1249875,0.2077953 0.02515,0.1120145 -0.00319,0.2348266 -0.074883,0.3244929"
       id="path9"
       inkscape:path-effect="#path-effect9"
       inkscape:original-d="m 3.7191888,5.0421217 c 0.1081643,0.091524 0.2329693,0.199688 0.3494539,0.299532 0.1164847,0.099844 -0.049922,0.2163286 -0.074883,0.3244929"
       transform="translate(-0.049922,-0.09984399)" />
    <path
       style="fill:none;stroke:#000000;stroke-width:0.1;stroke-opacity:1"
       d="m 3.9937598,5.5413417 c 0.3905795,-0.071088 0.8095047,0.031316 1.1232449,0.2745709 0.243055,0.1884499 0.4187055,0.4512546 0.5563209,0.726302 0.1376153,0.2750475 0.2410859,0.5657498 0.367236,0.8462409 0.3990957,0.8873778 1.0296489,1.6694534 1.8121976,2.2476699 0.7825487,0.5782166 1.7153254,0.9512676 2.6807818,1.0721426"
       id="path10"
       inkscape:path-effect="#path-effect10"
       inkscape:original-d="m 3.9937598,5.5413417 c 0.3910556,0.099844 0.7488299,0.1830473 1.1232449,0.2745709 0.374415,0.091524 0.6157046,1.048362 0.9235569,1.5725429 0.3078523,0.524181 2.9953198,2.2132086 4.4929794,3.3198125"
       transform="matrix(1.0122296,0,0,1.0151792,-0.14569757,-0.03133276)" />
    <path
       style="fill:none;stroke:#000000;stroke-width:0.1;stroke-opacity:1"
       d="m 15.575663,3.7191888 c 0.05608,0.028832 0.09973,0.080946 0.118272,0.1412161 0.01854,0.06027 0.01174,0.1279064 -0.01843,0.1832768 -0.02308,0.04235 -0.05897,0.077052 -0.100269,0.1019644 -0.0413,0.024912 -0.08788,0.040323 -0.135367,0.048742 -0.09498,0.016838 -0.192349,0.0062 -0.288545,-9.401e-4 -0.716372,-0.05314 -1.434021,0.091852 -2.121685,0.299532 -0.458952,0.1386069 -0.90938,0.305432 -1.347894,0.49922"
       id="path11"
       inkscape:path-effect="#path-effect11"
       inkscape:original-d="m 15.575663,3.7191888 c 0.02496,0.124805 0.06656,0.2163286 0.09984,0.3244929 0.03328,0.1081644 -0.349454,0.099844 -0.524181,0.149766 -0.174727,0.049922 -1.414457,0.199688 -2.121685,0.299532 -0.707228,0.099844 -0.898596,0.3328133 -1.347894,0.49922"
       transform="matrix(1.0354357,0,0,0.95435786,-0.54480654,0.12205827)" />
    <path
       style="fill:none;stroke:#000000;stroke-width:0.1;stroke-opacity:1"
       d="m 15.575663,3.7191888 c 0.05608,0.028832 0.09973,0.080946 0.118272,0.1412161 0.01854,0.06027 0.01174,0.1279064 -0.01843,0.1832768 -0.02308,0.04235 -0.05897,0.077052 -0.100269,0.1019644 -0.0413,0.024912 -0.08788,0.040323 -0.135367,0.048742 -0.09498,0.016838 -0.192349,0.0062 -0.288545,-9.401e-4 -0.716372,-0.05314 -1.434021,0.091852 -2.121685,0.299532 -0.458952,0.1386069 -0.90938,0.305432 -1.347894,0.49922"
       id="path11-5"
       inkscape:path-effect="#path-effect11-5"
       inkscape:original-d="m 15.575663,3.7191888 c 0.02496,0.124805 0.06656,0.2163286 0.09984,0.3244929 0.03328,0.1081644 -0.349454,0.099844 -0.524181,0.149766 -0.174727,0.049922 -1.414457,0.199688 -2.121685,0.299532 -0.707228,0.099844 -0.898596,0.3328133 -1.347894,0.49922"
       transform="matrix(1.1025278,0,0,0.94381325,-1.7982993,0.65451908)" />
    <path
       style="fill:none;stroke:#000000;stroke-width:0.1;stroke-opacity:1"
       d="m 15.575663,3.7191888 c 0.05608,0.028832 0.09973,0.080946 0.118272,0.1412161 0.01854,0.06027 0.01174,0.1279064 -0.01843,0.1832768 -0.02308,0.04235 -0.05897,0.077052 -0.100269,0.1019644 -0.0413,0.024912 -0.08788,0.040323 -0.135367,0.048742 -0.09498,0.016838 -0.192349,0.0062 -0.288545,-9.401e-4 -0.716372,-0.05314 -1.434021,0.091852 -2.121685,0.299532 -0.458952,0.1386069 -0.90938,0.305432 -1.347894,0.49922"
       id="path11-54"
       inkscape:path-effect="#path-effect11-1"
       inkscape:original-d="m 15.575663,3.7191888 c 0.02496,0.124805 0.06656,0.2163286 0.09984,0.3244929 0.03328,0.1081644 -0.349454,0.099844 -0.524181,0.149766 -0.174727,0.049922 -1.414457,0.199688 -2.121685,0.299532 -0.707228,0.099844 -0.898596,0.3328133 -1.347894,0.49922"
       transform="matrix(1.0542267,0,0,0.83789126,-1.4009043,1.5353999)" />
    <path
       style="fill:none;stroke:#000000;stroke-width:0.1;stroke-opacity:1"
       d="m 15.575663,3.7191888 c 0.05608,0.028832 0.09973,0.080946 0.118272,0.1412161 0.01854,0.06027 0.01174,0.1279064 -0.01843,0.1832768 -0.02308,0.04235 -0.05897,0.077052 -0.100269,0.1019644 -0.0413,0.024912 -0.08788,0.040323 -0.135367,0.048742 -0.09498,0.016838 -0.192349,0.0062 -0.288545,-9.401e-4 -0.716372,-0.05314 -1.434021,0.091852 -2.121685,0.299532 -0.458952,0.1386069 -0.90938,0.305432 -1.347894,0.49922"
       id="path11-541"
       inkscape:path-effect="#path-effect11-51"
       inkscape:original-d="m 15.575663,3.7191888 c 0.02496,0.124805 0.06656,0.2163286 0.09984,0.3244929 0.03328,0.1081644 -0.349454,0.099844 -0.524181,0.149766 -0.174727,0.049922 -1.414457,0.199688 -2.121685,0.299532 -0.707228,0.099844 -0.898596,0.3328133 -1.347894,0.49922"
       transform="matrix(1.1008459,0,0,0.83671197,-2.2802362,1.9617807)" />
    <path
       style="fill:none;stroke:#000000;stroke-width:0.1;stroke-opacity:1"
       d="m 14.728767,5.5277169 c 0.04049,0.044298 0.06942,0.099079 0.08317,0.1575011 0.01375,0.058422 0.01229,0.120355 -0.0042,0.1780638 -0.01649,0.057709 -0.04797,0.1110652 -0.09051,0.1534049 -0.04254,0.04234 -0.09604,0.073569 -0.153827,0.089787 -0.07513,0.021086 -0.155236,0.016736 -0.232097,0.00327 -0.07686,-0.013465 -0.151917,-0.035789 -0.228546,-0.050517 -0.178465,-0.034301 -0.362216,-0.02686 -0.543323,-0.011811 -0.237036,0.019696 -0.472793,0.052169 -0.708681,0.08268 -0.225406,0.029155 -0.451465,0.056603 -0.673248,0.1063023 -0.25694,0.057578 -0.507188,0.1449656 -0.744116,0.2598499"
       id="path12"
       inkscape:path-effect="#path-effect12"
       inkscape:original-d="m 14.728767,5.5277169 c -0.05118,0.1889818 -0.110239,0.3858378 -0.165359,0.5787567 -0.05512,0.1929189 -0.307095,-0.031497 -0.460643,-0.047245 -0.153548,-0.015748 -0.362215,-0.00787 -0.543323,-0.011811 -0.181107,-0.00394 -0.472454,0.05512 -0.708681,0.08268 -0.236228,0.02756 -0.448832,0.070868 -0.673248,0.1063023 -0.224416,0.035434 -0.496077,0.1732333 -0.744116,0.2598499"
       transform="matrix(1.3182306,0,0,1.0810874,-4.840063,-0.49986147)" />
    <path
       style="fill:none;stroke:#000000;stroke-width:0.1;stroke-opacity:1"
       d="m 14.728767,5.5277169 c 0.04049,0.044298 0.06942,0.099079 0.08317,0.1575011 0.01375,0.058422 0.01229,0.120355 -0.0042,0.1780638 -0.01649,0.057709 -0.04797,0.1110652 -0.09051,0.1534049 -0.04254,0.04234 -0.09604,0.073569 -0.153827,0.089787 -0.07513,0.021086 -0.155236,0.016736 -0.232097,0.00327 -0.07686,-0.013465 -0.151917,-0.035789 -0.228546,-0.050517 -0.178465,-0.034301 -0.362216,-0.02686 -0.543323,-0.011811 -0.237036,0.019696 -0.472793,0.052169 -0.708681,0.08268 -0.225406,0.029155 -0.451465,0.056603 -0.673248,0.1063023 -0.25694,0.057578 -0.507188,0.1449656 -0.744116,0.2598499"
       id="path12-2"
       inkscape:path-effect="#path-effect12-7"
       inkscape:original-d="m 14.728767,5.5277169 c -0.05118,0.1889818 -0.110239,0.3858378 -0.165359,0.5787567 -0.05512,0.1929189 -0.307095,-0.031497 -0.460643,-0.047245 -0.153548,-0.015748 -0.362215,-0.00787 -0.543323,-0.011811 -0.181107,-0.00394 -0.472454,0.05512 -0.708681,0.08268 -0.236228,0.02756 -0.448832,0.070868 -0.673248,0.1063023 -0.224416,0.035434 -0.496077,0.1732333 -0.744116,0.2598499"
       transform="matrix(1.1861162,0,0,0.80385532,-3.5044427,1.6424531)" />
    <path
       style="fill:none;stroke:#000000;stroke-width:0.1;stroke-opacity:1"
       d="m 13.736613,6.6143621 c -0.03656,0.102229 -0.10299,0.1935737 -0.188982,0.25985 -0.111702,0.086091 -0.252206,0.1280566 -0.392401,0.1433696 -0.140195,0.015313 -0.281745,0.0057 -0.422583,-0.00163 -0.566644,-0.029485 -1.13523,-0.021588 -1.700836,0.023623"
       id="path15"
       inkscape:path-effect="#path-effect15"
       inkscape:original-d="m 13.736613,6.6143621 c -0.05512,0.078742 -0.125988,0.1732333 -0.188982,0.25985 -0.06299,0.086617 -0.543323,0.094491 -0.814984,0.1417363 -0.271661,0.047245 -1.133891,0.015748 -1.700836,0.023623"
       transform="matrix(1.3595919,0,0,1.201304,-4.925541,-1.3731183)" />
    <path
       style="fill:none;stroke:#000000;stroke-width:0.1;stroke-opacity:1"
       d="m 13.240536,7.0986279 c 0.01477,0.1204845 -0.03036,0.2468471 -0.118114,0.3307181 -0.05973,0.057086 -0.136476,0.094053 -0.216006,0.1164363 -0.07953,0.022384 -0.162249,0.030924 -0.244637,0.037111 -0.703212,0.052809 -1.409951,-0.059412 -2.114234,-0.023623 -0.338686,0.017211 -0.6756178,0.068742 -1.0039654,0.1535477"
       id="path16"
       inkscape:original-d="M 13.240536,7.0986279 C 13.19329,7.2167415 13.161793,7.3191067 13.122422,7.429346 13.083051,7.5395854 12.815327,7.5317112 12.661779,7.5828937 12.508231,7.6340763 11.25229,7.5671452 10.547545,7.559271 9.8428008,7.5513968 9.8782349,7.6616361 9.5435796,7.7128187"
       inkscape:path-effect="#path-effect16"
       transform="matrix(0.81870283,0,0,0.92564704,2.4083415,0.4920668)" />
    <path
       style="fill:none;stroke:#000000;stroke-width:0.1;stroke-opacity:1"
       d="m 12.862572,7.5238369 c -0.139433,0.1896886 -0.349016,0.3265587 -0.578757,0.3779636 -0.104502,0.023382 -0.211981,0.029571 -0.318906,0.035434 -0.692467,0.037972 -1.385505,0.065536 -2.0787999,0.082679"
       id="path17"
       inkscape:path-effect="#path-effect17"
       inkscape:original-d="m 12.862572,7.5238369 c -0.185045,0.1338621 -0.385838,0.2519757 -0.578757,0.3779636 -0.192919,0.1259878 -0.212604,0.023623 -0.318906,0.035434 -0.106303,0.011811 -1.385867,0.05512 -2.0787999,0.082679" />
    <path
       style="fill:none;stroke:#000000;stroke-width:0.1;stroke-opacity:1"
       d="m 12.676571,13.460213 c 0.0118,-0.50378 -0.08308,-1.009806 -0.27658,-1.475092 -0.142225,-0.34199 -0.337314,-0.661935 -0.576208,-0.94498"
       id="path23"
       inkscape:original-d="m 12.676571,13.460213 c -0.09219,-0.49938 -0.184387,-0.983394 -0.27658,-1.475092 -0.09219,-0.491697 -0.384138,-0.629987 -0.576208,-0.94498"
       inkscape:path-effect="#path-effect23" />
    <path
       style="fill:none;stroke:#000000;stroke-width:0.1;stroke-opacity:1"
       d="m 10.325643,14.266904 c 0.23358,-0.244434 0.428759,-0.525491 0.576208,-0.829739 0.3649,-0.752938 0.424057,-1.648736 0.161338,-2.443121"
       id="path31"
       inkscape:original-d="m 10.325643,14.266904 c 0.199752,-0.268897 0.384139,-0.553159 0.576208,-0.829739 0.192069,-0.27658 0.107559,-1.628747 0.161338,-2.443121"
       inkscape:path-effect="#path-effect31" />
    <path
       style="fill:none;stroke:#000000;stroke-width:0.1;stroke-opacity:1"
       d="m 10.348691,14.289953 c 0.331499,-0.153062 0.631445,-0.374074 0.875836,-0.645353 0.311169,-0.345403 0.531015,-0.772349 0.63144,-1.22627 0.100425,-0.453921 0.0812,-0.93376 -0.05523,-1.378189"
       id="path32"
       inkscape:original-d="m 10.348691,14.289953 c 0.307311,-0.199752 0.583891,-0.430236 0.875836,-0.645353 0.291945,-0.215118 0.384139,-1.736306 0.576208,-2.604459"
       inkscape:path-effect="#path-effect32" />
    <path
       style="fill:none;stroke:#000000;stroke-width:0.1;stroke-opacity:1"
       d="m 10.325643,10.763561 c 0.192557,0.384955 0.295893,0.814197 0.299628,1.244609 0.0029,0.328768 -0.05201,0.657957 -0.161338,0.968029"
       id="path52"
       inkscape:path-effect="#path-effect52"
       inkscape:original-d="m 10.325643,10.763561 c 0.08451,0.41487 0.199752,0.829739 0.299628,1.244609 0.09988,0.414869 -0.107559,0.645352 -0.161338,0.968029"
       transform="matrix(0.92388362,0,0,0.96877349,0.81189712,0.40641075)" />
    <path
       style="fill:none;stroke:#000000;stroke-width:0.1;stroke-opacity:1"
       d="m 10.51003,12.930102 c 0.101807,-0.09039 0.194606,-0.190926 0.276579,-0.299628 0.179426,-0.237933 0.306234,-0.515325 0.368773,-0.806691"
       id="path53"
       inkscape:path-effect="#path-effect53"
       inkscape:original-d="m 10.51003,12.930102 c 0.09219,-0.09988 0.184386,-0.199752 0.276579,-0.299628 0.09219,-0.09988 0.245849,-0.537794 0.368773,-0.806691" />
    <path
       style="fill:none;stroke:#000000;stroke-width:0.1;stroke-opacity:1"
       d="m 11.915977,11.985121 c 0.07091,0.427555 0.05513,0.8693 -0.0461,1.290706 -0.0655,0.272682 -0.166497,0.536817 -0.299628,0.783642"
       id="path54"
       inkscape:path-effect="#path-effect54"
       inkscape:original-d="m 11.915977,11.985121 c -0.0077,0.41487 -0.03073,0.860471 -0.0461,1.290706 -0.01537,0.430235 -0.199752,0.522428 -0.299628,0.783642" />
    <path
       style="fill:none;stroke:#000000;stroke-width:0.1;stroke-opacity:1"
       d="m 11.5933,14.059469 c 0.171705,-0.170562 0.319557,-0.365104 0.437918,-0.576207 0.257393,-0.459074 0.371531,-0.997153 0.322676,-1.521189"
       id="path55"
       inkscape:path-effect="#path-effect55"
       inkscape:original-d="m 11.5933,14.059469 c 0.145973,-0.176703 0.291945,-0.384138 0.437918,-0.576207 0.145973,-0.19207 0.215118,-1.014126 0.322676,-1.521189" />
    <path
       style="fill:none;stroke:#000000;stroke-width:0.1;stroke-opacity:1"
       d="M 12.169508,8.0438604 C 11.996719,8.187784 11.801604,8.3048525 11.5933,8.389585 11.330657,8.4964209 11.0471,8.551557 10.763561,8.5509232"
       id="path56"
       inkscape:path-effect="#path-effect56"
       inkscape:original-d="M 12.169508,8.0438604 C 11.985121,8.1591019 11.785369,8.2743435 11.5933,8.389585 11.401231,8.5048266 11.040141,8.4971438 10.763561,8.5509232"
       transform="matrix(1.0409985,0,0,0.99817611,-0.66098261,-0.10009749)" />
    <path
       style="fill:none;stroke:#000000;stroke-width:0.1;stroke-opacity:1"
       d="M 3.6416331,4.9553868 0.78364256,7.121928"
       id="path63" />
    <path
       style="fill:none;stroke:#000000;stroke-width:0.104466;stroke-opacity:1"
       d="M 4.032353,5.5338388 0.85388878,7.0735871"
       id="path64" />
    <path
       style="fill:none;stroke:#000000;stroke-width:0.1;stroke-opacity:1"
       d="M 4.7314333,4.9397354 C 4.7807522,4.8169779 4.8787161,4.7145438 4.9991524,4.6598001 5.1195886,4.6050563 5.2611796,4.5986018 5.386097,4.642161 c 0.042001,0.014646 0.082112,0.034702 0.1190298,0.059515"
       id="path69"
       inkscape:path-effect="#path-effect70"
       inkscape:original-d="M 4.7314333,4.9397354 C 4.9546141,4.8504631 5.1678758,4.7413525 5.386097,4.642161 5.6043183,4.54297 5.46545,4.681838 5.5051268,4.701676"
       transform="translate(0,0.02975744)" />
    <path
       style="fill:none;stroke:#000000;stroke-width:0.1;stroke-opacity:1"
       d="m 10.502711,10.839658 c 0.139955,-0.0259 0.28809,-0.0055 0.415807,0.05735 0.0694,0.03414 0.132789,0.08046 0.186396,0.136212"
       id="path70"
       inkscape:path-effect="#path-effect71"
       inkscape:original-d="m 10.502711,10.839658 c 0.140992,0.01912 0.277205,0.03824 0.415807,0.05735 0.138602,0.01912 0.124264,0.09081 0.186396,0.136212" />
    <path
       style="fill:none;stroke:#000000;stroke-width:0.1;stroke-opacity:1"
       d="M 7.219939,5.1341788 C 7.950039,4.5970013 8.7382684,4.1388851 9.5664192,3.7704126 10.846345,3.2009301 12.221798,2.846853 13.617607,2.7275325"
       id="path74"
       inkscape:path-effect="#path-effect74"
       inkscape:original-d="M 7.219939,5.1341788 C 7.9954139,4.6862752 8.7842591,4.2250013 9.5664192,3.7704126 10.348579,3.3158238 12.267211,3.0751592 13.617607,2.7275325" />
    <path
       style="fill:none;stroke:#000000;stroke-width:0.1;stroke-opacity:1"
       d="m 13.51733,2.7275325 c 0.04067,-0.018785 0.08681,-0.025516 0.131153,-0.019129 0.04434,0.00639 0.08671,0.025867 0.120422,0.055366 0.03371,0.029499 0.05865,0.068909 0.07086,0.1120074 0.01222,0.043099 0.01167,0.08973 -0.0015,0.1325314 -0.01968,0.063707 -0.06622,0.1165697 -0.120834,0.1548246 -0.05461,0.038255 -0.11724,0.063314 -0.179996,0.08584 -0.488247,0.1752578 -1.0126,0.2150637 -1.52421,0.3008307 -1.023651,0.1716064 -2.0150031,0.5339626 -2.9080307,1.0629355"
       id="path75"
       inkscape:path-effect="#path-effect75"
       inkscape:original-d="m 13.51733,2.7275325 c 0.106962,0.1069621 0.213924,0.1871836 0.320886,0.2807754 0.106962,0.093592 -0.200553,0.1604431 -0.30083,0.2406647 -0.100277,0.080221 -1.01614,0.2005538 -1.52421,0.3008307 -0.508069,0.100277 -1.938687,0.7086237 -2.9080307,1.0629355"
       transform="matrix(0.9998146,0,0,1.0204735,-0.01792532,-0.0347309)" />
    <path
       style="fill:none;stroke:#000000;stroke-width:0.1;stroke-opacity:1"
       d="m 13.577496,3.3291941 c -0.02541,0.102384 -0.07373,0.1990155 -0.140387,0.2807754 -0.06991,0.08574 -0.159917,0.1549803 -0.26072,0.2005539"
       id="path77"
       inkscape:path-effect="#path-effect77"
       inkscape:original-d="m 13.577496,3.3291941 c -0.06017,0.080221 -0.09359,0.1871836 -0.140387,0.2807754 -0.0468,0.093592 -0.173814,0.1337026 -0.26072,0.2005539"
       transform="matrix(1.1810684,0,0,1.2512818,-2.4607699,-0.9012512)" />
    <path
       style="fill:none;stroke:#000000;stroke-width:0.1;stroke-opacity:1"
       d="M 10.990352,4.6528496 C 10.67639,4.6946884 10.366729,4.7687376 10.067804,4.8734588 9.8472248,4.9507334 9.6324886,5.0446804 9.4260315,5.1542342"
       id="path78"
       inkscape:path-effect="#path-effect78"
       inkscape:original-d="M 10.990352,4.6528496 C 10.689521,4.726386 10.37532,4.7999224 10.067804,4.8734588 9.7602879,4.9469952 9.6399556,5.0606424 9.4260315,5.1542342"
       transform="matrix(1.0276743,0,0,0.99876905,-0.26061127,0.00603271)" />
    <path
       style="fill:none;stroke:#000000;stroke-width:0.1;stroke-opacity:1"
       d="M 4.1113542,5.1742896 C 4.2475536,4.9447298 4.4335909,4.744912 4.6528496,4.5926834 4.8474906,4.4575466 5.0781417,4.3580025 5.3146773,4.3720742 5.5212842,4.3843654 5.7151952,4.4827161 5.8762281,4.6127388 6.2404656,4.9068349 6.4478388,5.348314 6.6383328,5.7759512 7.0747945,6.7557579 7.4915453,7.7563469 8.1224314,8.623816 c 0.692395,0.9520438 1.6352066,1.720261 2.7074776,2.206093"
       id="path79"
       inkscape:path-effect="#path-effect79"
       inkscape:original-d="M 4.1113542,5.1742896 C 4.2985378,4.9937911 4.4723511,4.7865522 4.6528496,4.5926834 4.8333481,4.3988147 5.0940681,4.4456106 5.3146773,4.3720742 c 0.2206093,-0.073536 0.3743672,0.1604431 0.5615508,0.2406646 0.1871836,0.080222 0.5080698,0.7754749 0.7621047,1.1632124 0.2540349,0.3877375 0.9893991,1.8985766 1.4840986,2.8478648 0.4946995,0.9492883 1.8049847,1.470728 2.7074776,2.206093"
       transform="matrix(1.0207667,0,0,1.0091099,-0.22510174,-0.03913498)" />
    <path
       style="fill:#8a8a8a;fill-opacity:1;stroke:#000000;stroke-width:0.00200554;stroke-opacity:1"
       d="M 1.4948425,6.661479 C 1.5580347,6.6033965 3.6128214,5.0550854 3.6577472,5.0316995 3.7816773,4.9671884 3.9610254,5.1429312 3.9608638,5.3287229 3.9607111,5.5044328 3.9972673,5.4818047 2.6954713,6.1119933 2.0402467,6.429182 1.4954514,6.6886486 1.4848148,6.6885857 c -0.010637,-6.29e-5 -0.00612,-0.012261 0.010028,-0.027107 z"
       id="path87" />
    <path
       style="fill:#df3aff;fill-opacity:1;stroke:#ed7f7d;stroke-width:0"
       d="m 447.88795,586.19092 -8.07598,-5.40428 16.84452,-0.66488 c 9.26448,-0.36569 22.64722,-0.96225 29.73942,-1.3257 l 12.89491,-0.66081 -6.18955,3.65313 c -8.22026,4.85167 -21.01474,8.86552 -29.91619,9.38523 l -7.22115,0.4216 z"
       id="path4"
       transform="matrix(0.02799552,0,0,0.02591216,-2.1957382,-6.9700748)" />
    <path
       style="fill:#df3aff;fill-opacity:1;stroke:#ed7f7d;stroke-width:0"
       d="m 455.19024,813.41264 c 0,-0.14082 1.12002,-1.82569 2.48894,-3.74416 11.27722,-15.80441 19.08256,-35.85774 22.33382,-57.37957 0.90791,-6.00997 1.13263,-9.80931 1.14402,-19.34236 0.016,-13.3387 -0.73753,-20.42553 -3.34524,-31.46358 -0.87126,-3.68794 -1.56396,-7.20295 -1.53932,-7.81112 0.0829,-2.04565 -7.98861,-7.35282 -12.45778,-8.19124 -2.16171,-0.40555 -12.08431,-5.71752 -20.21874,-10.82394 -36.15215,-22.69462 -64.93175,-53.07006 -87.71667,-92.58054 -9.8069,-17.0058 -20.15679,-39.22603 -35.60843,-76.44796 -16.13407,-38.86584 -23.09542,-50.97379 -34.91468,-60.72752 -15.06505,-12.43228 -30.82659,-12.28899 -47.57406,0.43249 -5.46169,4.14873 -13.73308,13.08254 -16.2095,17.50766 -0.38371,0.68565 -0.7922,0.50691 -2.62431,-1.14829 -1.19343,-1.07819 -2.95662,-2.28907 -3.91819,-2.69084 -0.96158,-0.40177 -1.74833,-0.92611 -1.74833,-1.1652 0,-1.52125 7.82961,-10.175 12.46988,-13.78245 16.21128,-12.60302 47.39925,-15.91451 67.60383,-7.17805 4.95986,2.14464 12.74973,7.21756 18.18549,11.84275 2.2695,1.93109 8.42037,7.53081 13.6686,12.44383 16.73389,15.66509 25.60648,21.96772 35.92108,25.51646 10.18571,3.5044 23.27635,3.3711 36.2904,-0.36954 8.74784,-2.5144 18.423,-6.90925 52.61122,-23.89816 47.53915,-23.62328 62.929,-30.44527 86.13799,-38.18313 18.17334,-6.05899 33.50246,-9.59481 50.54804,-11.65946 8.34256,-1.01049 32.03063,-1.30352 42.01238,-0.5197 5.33401,0.41885 5.72827,0.52868 7.07576,1.97118 1.52763,1.63533 2.28874,4.29698 1.73114,6.05383 -0.50867,1.60268 -2.75373,4.08707 -4.58801,5.07711 -1.43133,0.77256 -3.84281,0.87609 -21.21515,0.91085 -17.40835,0.0348 -20.48281,0.16737 -27.49201,1.18517 -21.67935,3.14804 -44.76158,9.32833 -70.82073,18.96232 -8.66304,3.2027 -22.16488,8.81362 -22.84482,9.49356 -0.43885,0.43885 0.53081,3.61357 1.10369,3.61357 0.14268,0 5.97525,-2.29139 12.96128,-5.09198 36.86203,-14.7774 70.05733,-23.10343 96.26086,-24.14412 8.37417,-0.33259 26.08059,0.23216 25.90054,0.8261 -0.0609,0.20088 0.63481,1.11373 1.54601,2.02857 4.45441,4.47219 1.42833,10.21012 -6.2989,11.94374 -1.91293,0.42917 -5.24319,0.42476 -12.89491,-0.0171 -29.02156,-1.67586 -62.00263,3.88649 -103.15926,17.3981 -12.22811,4.01446 -31.596,11.16719 -32.39115,11.96235 -0.73878,0.73878 1.12161,3.80512 2.12719,3.50609 0.47497,-0.14124 5.04152,-1.86838 10.14791,-3.83811 26.71942,-10.30668 53.94825,-18.0273 77.73059,-22.04019 13.50937,-2.27949 22.40268,-3.01673 36.3663,-3.01471 l 13.00082,0.002 2.1016,2.03983 c 3.79783,3.68618 3.07997,7.62574 -1.82195,9.99871 -2.74564,1.32915 -2.75497,1.32956 -24.76668,1.10377 -8.97848,-0.0921 -15.51755,0.12201 -21.40555,0.70089 -19.87137,1.95366 -43.37017,7.0304 -70.19503,15.16512 -8.23148,2.49623 -28.68674,9.54959 -29.20896,10.07181 -0.33791,0.33791 0.94474,3.37862 1.42519,3.37862 0.2092,0 2.80396,-0.89909 5.76615,-1.99797 26.17189,-9.709 59.83969,-18.55664 82.44531,-21.66598 13.70245,-1.88474 21.13128,-2.28805 36.24594,-1.9678 13.68115,0.28988 14.39623,0.35451 15.91909,1.43889 0.87697,0.62446 1.92698,1.93112 2.33334,2.90369 1.09005,2.60885 -0.24916,5.08678 -3.69158,6.83047 l -2.57812,1.30589 -15.21685,-0.16821 c -24.56041,-0.2715 -40.64845,1.25974 -64.43089,6.13243 -20.25474,4.14992 -47.3638,11.75516 -66.42633,18.6354 l -4.22836,1.52615 0.80977,1.69811 0.80977,1.6981 10.38184,-3.51877 c 46.81948,-15.86876 89.34156,-23.71586 121.29793,-22.38454 l 9.07685,0.37814 1.36268,2.05915 c 1.97643,2.98659 2.21951,7.67245 0.5694,10.97648 -2.24654,4.49826 -6.44268,7.00301 -12.32055,7.35438 -2.98474,0.17842 -5.87729,-0.15904 -12.63701,-1.47429 -8.095,-1.57507 -9.53649,-1.70515 -18.82431,-1.69877 -10.53232,0.007 -17.57066,0.58323 -43.84269,3.58796 -26.08937,2.98383 -37.34443,4.98279 -50.54804,8.97758 -6.99533,2.11646 -17.51789,5.96942 -18.2199,6.67143 -0.34176,0.34176 0.68043,3.16039 1.47971,4.08026 0.0825,0.0949 2.89626,-0.86768 6.25291,-2.13904 17.84998,-6.76082 29.13871,-9.16071 59.74814,-12.70199 40.27361,-4.65934 49.53113,-4.99898 62.26794,-2.28445 3.19329,0.68057 4.15773,1.11258 4.85313,2.1739 1.3097,1.99885 1.19195,5.23382 -0.26808,7.36488 -3.39535,4.95586 -9.90789,6.29265 -21.12859,4.33691 -12.43863,-2.16802 -22.47959,-2.06226 -50.36888,0.53051 -29.10788,2.70606 -39.02836,4.04988 -51.07203,6.91816 -5.29067,1.26001 -17.68793,4.96471 -18.21541,5.44336 -0.16389,0.14872 0.42642,1.33106 1.34587,2.69561 0.33877,0.50277 1.2914,0.35157 4.27259,-0.67813 12.64127,-4.36631 27.86218,-7.21984 50.55311,-9.47743 37.64309,-3.74522 49.33376,-4.16434 60.96719,-2.18573 3.62318,0.61624 7.61335,1.12043 8.86704,1.12043 1.25369,0 2.4255,0.23634 2.60403,0.5252 0.99899,1.61639 -5.52935,8.17062 -10.64856,10.6908 -7.74428,3.81249 -14.62518,4.58404 -32.94204,3.69377 -23.4206,-1.13833 -61.77444,-0.7194 -80.31733,0.87729 l -3.72158,0.32046 0.31262,2.39111 c 0.17194,1.31511 0.36287,2.45473 0.4243,2.53248 0.0614,0.0777 3.22022,-0.0955 7.01953,-0.38498 17.51453,-1.33451 41.53963,-1.7142 62.35596,-0.98544 24.01047,0.84057 32.90091,0.78503 38.16893,-0.23843 2.12766,-0.41335 3.97281,-0.65083 4.10034,-0.52772 0.12753,0.1231 -0.0429,1.53392 -0.37878,3.13514 -1.147,5.46834 -4.32371,8.65801 -10.16902,10.21053 -4.89249,1.29944 -19.88467,1.53344 -36.50661,0.56979 -27.23507,-1.57896 -39.70306,-0.75894 -55.42675,3.6454 -5.12811,1.43643 -5.00398,1.29263 -3.99684,4.62988 0.12503,0.41429 1.85215,0.14659 5.68051,-0.88047 14.25867,-3.82526 26.46711,-4.70261 49.22098,-3.53723 7.81402,0.40021 18.88015,0.72765 24.5914,0.72765 11.78032,0 11.4238,-0.22251 6.44621,4.02317 -3.62848,3.09495 -9.18158,5.77422 -13.99342,6.75158 -5.09128,1.03412 -33.58159,2.65609 -68.60091,3.90549 -12.20888,0.43558 -13.24535,0.4036 -14.4423,-0.44555 -1.63608,-1.16069 -6.68502,-7.13065 -9.07237,-10.72735 l -1.82846,-2.75469 -1.51283,1.07724 c -0.83207,0.59248 -1.51284,1.31363 -1.51284,1.60256 0,1.17426 5.56555,8.46138 9.44628,12.36828 3.01772,3.03806 6.74231,5.88546 13.72426,10.49203 17.25244,11.38285 25.89979,18.3751 37.71728,30.49819 28.42728,29.1624 45.33196,64.7557 51.05138,107.49017 1.10678,8.26961 2.09806,36.25438 1.25604,35.45909 -0.22637,-0.21381 -1.05027,-3.46333 -1.83087,-7.22114 -4.21983,-20.31424 -12.88728,-40.12124 -24.46214,-55.90136 -1.63714,-2.23193 -3.01375,-4.10941 -3.05912,-4.17217 -0.0454,-0.0628 -1.06316,0.37108 -2.26174,0.96409 -1.56419,0.7739 -2.10309,1.31817 -1.90939,1.92845 0.8733,2.75152 2.52434,11.46226 3.13955,16.56393 1.82393,15.12513 0.119,32.08325 -4.69304,46.67957 -3.63675,11.03128 -11.04724,24.69597 -18.05102,33.28544 -6.36588,7.80715 -23.44593,22.63858 -23.44593,20.35924 z"
       id="path8"
       transform="matrix(0.02799552,0,0,0.02591216,-2.1957382,-6.9700748)" />
    <path
       style="fill:#df3aff;fill-opacity:1;stroke:#ed7f7d;stroke-width:0"
       d="m 457.48173,759.51006 c 1.79132,-9.69901 2.04312,-12.71453 2.06735,-24.75823 0.0199,-9.89514 -0.17835,-13.86805 -0.91375,-18.31076 -1.2062,-7.28686 -3.45305,-16.30788 -5.50519,-22.10307 -0.88928,-2.51129 -1.52341,-4.65944 -1.40918,-4.77367 0.11423,-0.11423 2.16011,-0.26456 4.54641,-0.33408 3.80779,-0.11092 4.58184,0.0247 6.32543,1.10865 1.36692,0.84974 2.09878,1.0537 2.34595,0.65377 0.40107,-0.64895 3.74332,0.94546 5.84938,2.79043 1.96817,1.72417 5.22965,16.34349 5.9074,26.4794 0.31316,4.68337 0.28826,4.84354 -0.71216,4.58193 -0.91919,-0.24037 -1.14084,0.17406 -1.95616,3.65761 -2.41087,10.30064 -9.23078,24.02949 -15.53158,31.26592 l -1.34732,1.54738 z"
       id="path13"
       transform="matrix(0.02799552,0,0,0.02591216,-2.1957382,-6.9700748)" />
    <path
       style="fill:#df3aff;fill-opacity:1;stroke:#ed7f7d;stroke-width:0"
       d="m 499.55976,798.92987 c -0.006,-0.30492 0.57757,-2.27784 1.29699,-4.38427 5.10247,-14.93989 7.6542,-34.77407 6.46502,-50.25153 -0.32694,-4.25532 -0.81347,-12.84333 -1.08116,-19.08447 -0.26769,-6.24113 -0.82244,-13.54915 -1.23277,-16.24005 -0.41033,-2.69089 -0.67368,-4.9649 -0.58522,-5.05336 0.2305,-0.2305 3.86091,5.6011 6.94747,11.15984 3.55098,6.39515 7.47883,15.21962 6.8654,15.4241 -0.29826,0.0994 -0.39606,2.47055 -0.24533,5.94804 0.69439,16.02088 -3.11583,33.9587 -10.4315,49.1096 -3.07536,6.36913 -7.97525,14.56047 -7.9989,13.3721 z"
       id="path14"
       transform="matrix(0.02799552,0,0,0.02591216,-2.1957382,-6.9700748)" />
    <path
       style="fill:#df3aff;fill-opacity:1;stroke:#ed7f7d;stroke-width:0"
       d="m 370.85754,484.57016 c -8.79022,-1.36941 -17.3053,-5.33415 -26.57319,-12.37285 -6.17533,-4.68999 -6.56971,-3.58992 4.14887,-11.57263 53.65142,-39.95714 113.3672,-66.40112 177.67901,-78.68172 9.60228,-1.8336 27.58572,-4.46944 33.49626,-4.90957 2.25272,-0.16774 4.27346,-0.41475 4.49051,-0.5489 0.85752,-0.52997 4.08575,1.36888 5.069,2.9816 2.04007,3.34611 0.984,7.88499 -2.50407,10.76224 -4.9223,4.06031 -20.58518,8.43597 -44.16227,12.33738 -25.55616,4.22889 -36.69121,6.83046 -54.15862,12.65351 -19.12933,6.37708 -38.91306,15.49756 -56.4391,26.01895 -5.22591,3.13727 -9.60919,5.81165 -9.74062,5.94308 -0.30061,0.30062 0.92035,3.29906 1.48565,3.64843 0.23091,0.14271 4.43667,-2.15108 9.34612,-5.09731 19.35634,-11.61601 36.92541,-19.73025 57.66904,-26.63432 15.80568,-5.26059 29.21796,-8.34241 53.76902,-12.35483 14.43963,-2.3599 22.0905,-3.98738 29.45726,-6.2661 2.79574,-0.86479 5.22794,-1.42755 5.40491,-1.25058 0.17697,0.17697 -0.46963,1.84816 -1.4369,3.71376 -2.00088,3.85917 -6.30816,8.75293 -9.78575,11.11818 -1.2981,0.88289 -2.49675,1.80569 -2.66368,2.05066 -0.16691,0.24498 -4.70845,1.91719 -10.0923,3.71604 -16.12663,5.3882 -32.40826,12.09673 -53.68021,22.1179 -8.05863,3.7964 -10.11096,4.54743 -14.43845,5.2836 -16.62235,2.82771 -36.1191,9.4968 -50.02327,17.11105 l -3.19924,1.75197 0.84473,1.77141 c 0.46461,0.97429 1.09188,1.76863 1.39395,1.76521 0.30207,-0.003 1.5937,-0.60532 2.8703,-1.33756 3.57657,-2.05148 13.02751,-6.29358 19.60026,-8.79768 6.18819,-2.35758 16.92556,-5.60008 17.30103,-5.22461 0.34908,0.34908 -43.35663,21.78069 -49.02251,24.03877 -10.95265,4.36507 -18.60767,6.17731 -27.5951,6.53282 -2.97872,0.11782 -6.80851,-0.003 -8.51064,-0.2679 z"
       id="path18"
       transform="matrix(0.02799552,0,0,0.02591216,-2.1957382,-6.9700748)" />
    <path
       style="fill:#fffcc0;fill-opacity:1;stroke:#ed7f7d;stroke-width:0"
       d="M 443.32692,683.21226 C 374.47663,668.94291 318.94736,620.75078 291.72788,551.64415 c -2.06715,-5.24823 -5.26942,-13.37202 -7.11613,-18.05287 -9.22599,-23.38498 -18.86707,-36.74821 -32.29716,-44.76622 -7.00457,-4.18186 -16.51705,-6.81341 -24.62893,-6.81341 -4.66813,0 -4.71956,-0.0137 -4.34284,-1.16055 0.66295,-2.01814 0.89794,-9.59558 0.34662,-11.1771 -0.4797,-1.37606 -0.29114,-1.86445 2.00874,-5.20298 9.35372,-13.57798 22.70722,-22.98017 34.78792,-24.49414 5.9206,-0.74198 15.32513,2.74557 21.89179,8.11829 6.11052,4.99952 12.68968,13.46178 17.94772,23.08475 2.98902,5.47035 6.91155,14.2724 14.82586,33.26886 14.10778,33.86243 18.7342,44.28578 26.90014,60.60607 16.32264,32.62209 31.81262,54.75427 53.82205,76.90126 15.71035,15.80853 30.36175,27.35952 49.03118,38.65558 3.7341,2.25935 6.47339,4.09346 6.08731,4.07581 -0.38609,-0.0177 -3.83544,-0.68151 -7.66523,-1.47524 z M 253.64232,455.12538 c 3.20878,-3.11402 5.6912,-4.19491 10.26125,-4.46794 3.45417,-0.20636 4.308,-0.0681 6.89663,1.11704 1.62492,0.74392 3.1525,1.35257 3.39462,1.35257 0.41147,0 2.0141,-2.66892 2.0141,-3.35416 0,-0.17084 -1.56418,-1.04258 -3.47595,-1.9372 -3.05787,-1.43096 -4.00395,-1.62503 -7.86589,-1.61355 -5.67135,0.0169 -9.25801,1.36666 -13.19677,4.96647 -2.71708,2.48326 -5.87789,7.06716 -5.88853,8.53975 -0.003,0.3683 0.74951,0.98909 1.6715,1.37952 l 1.67633,0.70989 1.18063,-2.30224 c 0.64934,-1.26623 2.14878,-3.24179 3.33208,-4.39015 z"
       id="path19"
       transform="matrix(0.02799552,0,0,0.02591216,-2.1957382,-6.9700748)" />
  </g>
</svg>
